M48
;DRILL file {Pcbnew (2012-01-19 BZR 3256)-stable} date Sat 06 Oct 2012 22:08:21 BST
;FORMAT={-:-/ absolute / inch / decimal}
FMAT,2
INCH,TZ
T1C0.008
T2C0.016
T3C0.020
T4C0.028
T5C0.032
T6C0.039
T7C0.040
T8C0.059
%
G90
G05
M72
T1
X1.979Y4.441
X1.988Y3.602
X1.991Y4.076
X1.995Y3.982
X2.002Y2.429
X2.002Y2.469
X2.003Y4.316
X2.100Y2.466
X2.102Y2.174
X2.102Y3.730
X2.109Y2.292
X2.124Y2.489
X2.161Y3.730
X2.213Y2.490
X2.233Y2.510
X2.239Y3.270
X2.239Y4.034
X2.252Y2.491
X2.259Y3.248
X2.273Y2.512
X2.279Y3.228
X2.287Y4.395
X2.292Y2.491
X2.301Y3.209
X2.310Y3.291
X2.313Y2.520
X2.323Y3.189
X2.329Y3.325
X2.336Y4.166
X2.353Y2.517
X2.354Y3.438
X2.363Y3.396
X2.384Y2.520
X2.386Y3.417
X2.386Y2.991
X2.387Y3.377
X2.405Y4.382
X2.410Y3.506
X2.416Y2.522
X2.422Y3.537
X2.428Y3.679
X2.437Y4.185
X2.446Y2.523
X2.446Y3.712
X2.467Y3.464
X2.488Y3.748
X2.500Y2.706
X2.520Y2.683
X2.543Y3.772
X2.545Y2.684
X2.567Y3.505
X2.568Y3.664
X2.568Y3.537
X2.568Y3.712
X2.571Y2.686
X2.572Y4.092
X2.575Y3.429
X2.575Y3.456
X2.576Y3.377
X2.576Y3.403
X2.578Y3.349
X2.586Y4.424
X2.589Y2.991
X2.597Y2.689
X2.604Y3.794
X2.611Y3.753
X2.632Y2.819
X2.633Y3.370
X2.635Y3.793
X2.647Y3.752
X2.659Y3.289
X2.664Y2.204
X2.665Y2.690
X2.668Y4.110
X2.673Y3.689
X2.687Y3.456
X2.687Y2.818
X2.689Y3.393
X2.693Y2.849
X2.693Y3.557
X2.693Y3.079
X2.696Y2.176
X2.696Y2.690
X2.701Y3.795
X2.727Y2.198
X2.727Y2.865
X2.728Y2.689
X2.728Y2.913
X2.748Y2.887
X2.750Y2.225
X2.759Y2.664
X2.768Y3.890
X2.771Y2.415
X2.773Y2.935
X2.777Y3.864
X2.790Y2.500
X2.793Y3.553
X2.795Y3.764
X2.805Y3.069
X2.813Y3.605
X2.815Y3.522
X2.815Y3.632
X2.816Y3.694
X2.821Y2.691
X2.821Y3.317
X2.831Y2.650
X2.833Y3.918
X2.837Y3.193
X2.860Y3.522
X2.860Y3.632
X2.860Y3.694
X2.863Y3.987
X2.864Y2.626
X2.865Y4.215
X2.878Y2.529
X2.883Y3.605
X2.885Y2.415
X2.886Y2.606
X2.891Y3.918
X2.898Y4.221
X2.903Y2.585
X2.916Y2.443
X2.923Y3.169
X2.931Y3.316
X2.931Y3.358
X2.931Y3.795
X2.936Y3.901
X2.937Y3.949
X2.939Y3.091
X2.943Y3.144
X2.948Y2.926
X2.965Y4.245
X2.977Y4.011
X2.979Y3.171
X2.988Y3.733
X2.988Y3.777
X2.994Y3.293
X3.000Y3.034
X3.000Y2.650
X3.002Y2.606
X3.011Y4.047
X3.012Y4.173
X3.020Y3.186
X3.020Y3.056
X3.026Y2.626
X3.026Y3.799
X3.035Y4.016
X3.037Y4.155
X3.041Y3.074
X3.042Y2.391
X3.043Y2.823
X3.063Y3.191
X3.073Y3.315
X3.073Y3.358
X3.073Y4.176
X3.077Y2.650
X3.088Y3.798
X3.089Y3.093
X3.091Y2.671
X3.098Y4.384
X3.102Y2.595
X3.102Y2.823
X3.106Y2.250
X3.109Y3.733
X3.110Y3.776
X3.110Y4.075
X3.114Y2.964
X3.124Y3.190
X3.135Y3.799
X3.143Y3.169
X3.155Y3.013
X3.164Y3.711
X3.164Y3.776
X3.171Y4.010
X3.177Y2.535
X3.182Y3.798
X3.183Y3.014
X3.189Y2.509
X3.199Y3.315
X3.199Y3.358
X3.201Y2.386
X3.215Y3.013
X3.220Y3.723
X3.228Y3.387
X3.230Y3.799
X3.231Y4.020
X3.234Y2.490
X3.235Y3.569
X3.235Y3.663
X3.239Y4.165
X3.239Y4.060
X3.242Y3.975
X3.261Y3.015
X3.262Y3.293
X3.263Y2.905
X3.264Y3.775
X3.271Y3.345
X3.276Y2.255
X3.278Y3.663
X3.279Y3.569
X3.284Y2.454
X3.284Y3.996
X3.287Y3.014
X3.299Y3.765
X3.301Y3.364
X3.301Y3.543
X3.301Y3.588
X3.301Y3.695
X3.315Y3.013
X3.323Y2.205
X3.326Y2.906
X3.343Y3.898
X3.343Y3.965
X3.344Y3.012
X3.358Y2.905
X3.377Y3.896
X3.390Y2.382
X3.406Y3.898
X3.418Y4.445
X3.420Y2.902
X3.421Y3.807
X3.438Y2.948
X3.443Y3.978
X3.443Y4.328
X3.465Y3.874
X3.467Y4.005
X3.467Y4.116
X3.494Y2.753
X3.505Y3.272
X3.512Y4.191
X3.516Y3.454
X3.521Y3.679
X3.534Y3.417
X3.546Y3.468
X3.561Y3.490
X3.562Y3.180
X3.564Y3.397
X3.564Y3.829
X3.565Y3.314
X3.565Y3.426
X3.565Y3.787
X3.574Y2.217
X3.580Y3.679
X3.651Y3.669
X3.667Y3.491
X3.670Y3.578
X3.678Y3.468
X3.692Y3.025
X3.692Y3.054
X3.712Y3.074
X3.719Y3.341
X3.724Y3.126
X3.726Y3.461
X3.732Y3.435
X3.745Y2.997
X3.760Y2.969
X3.774Y2.994
X3.774Y4.327
X3.797Y2.962
X3.804Y4.327
X3.844Y4.298
X3.846Y4.154
X3.859Y3.877
X3.874Y3.343
X3.902Y4.298
X3.931Y4.375
X3.942Y2.768
X3.944Y3.963
X4.035Y4.401
X4.050Y2.941
X4.051Y3.815
X4.057Y2.169
X4.064Y2.287
X4.070Y2.425
X4.070Y2.465
X4.084Y3.923
X4.108Y4.277
X4.124Y4.452
X4.126Y4.351
X4.152Y4.452
X4.153Y4.371
X4.253Y4.319
X4.253Y4.395
T2
X2.318Y4.044
X2.380Y4.111
X2.401Y4.048
T3
X2.057Y3.668
X2.127Y4.034
X2.143Y4.527
X2.204Y3.738
X2.268Y3.604
X2.319Y3.979
X2.333Y4.379
X2.448Y3.982
X2.455Y4.385
X2.479Y3.923
X2.506Y3.976
X2.700Y3.834
X2.972Y3.617
X2.975Y3.473
X3.052Y3.548
X3.117Y3.613
X3.120Y3.474
X3.150Y3.917
X3.494Y2.320
X3.518Y2.378
X3.539Y2.642
T4
X3.825Y3.027
X3.825Y3.105
X3.825Y3.184
X3.825Y3.263
X3.825Y3.342
X3.825Y3.499
X3.825Y3.578
X3.825Y3.657
X3.825Y3.735
X3.904Y2.987
X3.904Y3.066
X3.904Y3.145
X3.904Y3.224
X3.904Y3.302
X3.904Y3.381
X3.904Y3.538
X3.904Y3.617
X3.904Y3.696
X4.002Y2.987
X4.002Y3.066
X4.002Y3.145
X4.002Y3.224
X4.002Y3.302
X4.002Y3.381
X4.002Y3.538
X4.002Y3.617
X4.002Y3.696
X4.081Y3.027
X4.081Y3.105
X4.081Y3.184
X4.081Y3.263
X4.081Y3.342
X4.081Y3.499
X4.081Y3.578
X4.081Y3.657
X4.081Y3.735
T5
X3.701Y3.662
X3.701Y3.762
X4.199Y4.057
X4.199Y4.157
T6
X2.969Y4.375
X3.612Y3.939
X3.707Y3.938
X4.099Y4.057
X4.099Y4.157
T7
X1.998Y2.908
X1.998Y3.008
X1.998Y3.108
X1.998Y3.208
X1.998Y3.308
X1.998Y3.408
X1.998Y3.508
X2.098Y2.908
X2.098Y3.008
X2.098Y3.108
X2.098Y3.208
X2.098Y3.308
X2.098Y3.408
X2.098Y3.508
X2.234Y4.545
X2.234Y4.644
X2.735Y4.558
X2.735Y4.658
X2.835Y4.558
X2.835Y4.658
X2.935Y4.558
X2.935Y4.658
X3.035Y4.558
X3.035Y4.658
X3.135Y4.558
X3.135Y4.658
X3.235Y4.558
X3.235Y4.658
X3.335Y4.558
X3.335Y4.658
X3.435Y4.558
X3.435Y4.658
X3.535Y4.558
X3.535Y4.658
X3.549Y4.368
X3.635Y4.558
X3.635Y4.658
X3.649Y4.368
X3.749Y4.368
X3.759Y2.428
X3.759Y2.528
X3.759Y2.628
X3.759Y2.728
X3.859Y2.428
X3.859Y2.528
X3.859Y2.628
X3.859Y2.728
T8
X3.972Y4.564
X4.133Y4.564
X4.275Y4.564
T0
M30
