M48
;DRILL file {Pcbnew (2012-01-19 BZR 3256)-stable} date Tue 02 Oct 2012 00:48:33 BST
;FORMAT={-:-/ absolute / inch / decimal}
FMAT,2
INCH,TZ
T1C0.008
T2C0.016
T3C0.020
T4C0.039
T5C0.040
T6C0.059
%
G90
G05
M72
T1
X1.979Y4.441
X1.988Y3.602
X1.991Y4.076
X1.995Y3.982
X2.003Y4.316
X2.148Y2.776
X2.187Y3.496
X2.219Y3.488
X2.239Y4.034
X2.253Y2.894
X2.253Y2.925
X2.253Y3.061
X2.254Y2.851
X2.255Y3.461
X2.257Y3.093
X2.257Y2.957
X2.278Y2.871
X2.285Y3.480
X2.285Y3.063
X2.287Y4.395
X2.310Y3.032
X2.310Y3.291
X2.313Y2.520
X2.315Y3.065
X2.329Y3.325
X2.336Y4.166
X2.353Y2.517
X2.354Y3.438
X2.363Y3.396
X2.384Y2.520
X2.386Y3.417
X2.386Y2.991
X2.387Y3.377
X2.405Y4.382
X2.410Y3.506
X2.416Y2.522
X2.422Y3.537
X2.428Y3.679
X2.437Y4.185
X2.446Y2.523
X2.446Y3.712
X2.467Y3.464
X2.488Y3.748
X2.500Y2.706
X2.520Y2.683
X2.543Y3.772
X2.545Y2.684
X2.567Y3.505
X2.568Y3.664
X2.568Y3.537
X2.568Y3.712
X2.571Y2.686
X2.572Y4.092
X2.575Y3.429
X2.575Y3.456
X2.576Y3.377
X2.576Y3.403
X2.577Y4.359
X2.578Y3.349
X2.589Y2.991
X2.597Y2.689
X2.604Y3.794
X2.611Y3.753
X2.632Y2.819
X2.633Y3.370
X2.635Y3.793
X2.647Y3.752
X2.659Y3.289
X2.664Y2.204
X2.665Y2.690
X2.668Y4.110
X2.673Y3.689
X2.687Y3.456
X2.687Y2.818
X2.689Y3.393
X2.693Y2.849
X2.693Y3.557
X2.693Y3.079
X2.696Y2.176
X2.696Y2.690
X2.701Y3.795
X2.727Y2.198
X2.727Y2.865
X2.728Y2.689
X2.728Y2.913
X2.748Y2.887
X2.750Y2.225
X2.759Y2.664
X2.768Y2.933
X2.768Y3.890
X2.771Y2.415
X2.777Y3.864
X2.790Y2.500
X2.793Y3.553
X2.795Y3.764
X2.805Y3.069
X2.813Y3.605
X2.815Y3.522
X2.815Y3.632
X2.816Y3.694
X2.821Y2.691
X2.821Y3.317
X2.831Y2.650
X2.833Y3.918
X2.837Y3.193
X2.860Y3.522
X2.860Y3.632
X2.860Y3.694
X2.863Y3.987
X2.864Y2.626
X2.865Y4.215
X2.878Y2.529
X2.883Y3.605
X2.885Y2.415
X2.886Y2.606
X2.891Y3.918
X2.898Y4.221
X2.903Y2.585
X2.916Y2.443
X2.923Y3.169
X2.931Y3.316
X2.931Y3.358
X2.931Y3.795
X2.936Y3.901
X2.937Y3.949
X2.939Y3.091
X2.943Y3.144
X2.948Y2.926
X2.965Y4.245
X2.977Y4.011
X2.979Y3.171
X2.988Y3.733
X2.988Y3.777
X2.994Y3.293
X3.000Y3.034
X3.000Y2.650
X3.002Y2.606
X3.011Y4.047
X3.012Y4.173
X3.020Y3.186
X3.020Y3.056
X3.026Y2.626
X3.026Y3.799
X3.037Y4.155
X3.041Y3.074
X3.042Y2.391
X3.043Y2.823
X3.063Y3.191
X3.073Y3.315
X3.073Y3.358
X3.073Y4.176
X3.077Y2.650
X3.088Y3.798
X3.089Y3.093
X3.091Y2.671
X3.098Y4.384
X3.102Y2.595
X3.102Y2.823
X3.106Y2.250
X3.109Y3.733
X3.110Y3.776
X3.110Y4.075
X3.114Y2.964
X3.124Y3.190
X3.135Y3.799
X3.143Y3.169
X3.155Y3.013
X3.164Y3.711
X3.164Y3.776
X3.171Y4.010
X3.177Y2.535
X3.182Y3.798
X3.183Y3.014
X3.189Y2.509
X3.199Y3.315
X3.199Y3.358
X3.201Y2.386
X3.215Y3.013
X3.220Y3.723
X3.228Y3.387
X3.230Y3.799
X3.231Y4.020
X3.234Y2.490
X3.235Y3.569
X3.235Y3.663
X3.242Y3.975
X3.261Y3.015
X3.262Y3.293
X3.263Y2.905
X3.264Y3.775
X3.271Y3.345
X3.276Y2.255
X3.278Y3.663
X3.279Y3.569
X3.284Y2.454
X3.284Y3.996
X3.287Y3.014
X3.299Y3.765
X3.301Y3.364
X3.301Y3.543
X3.301Y3.588
X3.301Y3.695
X3.315Y3.013
X3.323Y2.205
X3.326Y2.906
X3.343Y3.898
X3.343Y3.965
X3.344Y3.012
X3.358Y2.905
X3.377Y3.896
X3.390Y2.382
X3.406Y3.898
X3.420Y2.902
X3.421Y3.807
X3.438Y2.948
X3.443Y4.328
X3.467Y4.005
X3.467Y4.116
X3.494Y2.753
X3.505Y3.272
X3.512Y4.191
X3.516Y3.454
X3.521Y3.679
X3.534Y3.417
X3.539Y2.642
X3.546Y3.468
X3.561Y3.490
X3.562Y3.180
X3.564Y3.397
X3.564Y3.829
X3.565Y3.314
X3.565Y3.426
X3.565Y3.787
X3.565Y4.538
X3.574Y2.217
X3.580Y3.679
X3.667Y3.491
X3.678Y3.468
X3.692Y3.025
X3.692Y3.054
X3.693Y3.413
X3.712Y3.074
X3.719Y3.341
X3.724Y3.126
X3.726Y3.461
X3.732Y3.435
X3.756Y3.658
X3.846Y4.154
X3.887Y3.263
X3.892Y3.067
X3.942Y2.768
X4.060Y2.504
X4.065Y2.582
X4.066Y2.347
X4.071Y2.170
X4.071Y2.229
X4.072Y2.741
X4.167Y3.188
X4.169Y3.264
X4.173Y3.343
X4.174Y3.579
X4.195Y3.147
X4.219Y3.168
T2
X2.318Y4.044
X2.380Y4.111
X2.401Y4.048
X3.494Y2.320
X3.952Y3.126
X3.952Y3.208
X4.009Y3.126
X4.010Y3.208
T3
X2.057Y3.668
X2.127Y4.034
X2.143Y4.527
X2.268Y3.604
X2.319Y3.979
X2.333Y4.379
X2.448Y3.982
X2.455Y4.385
X2.479Y3.923
X2.506Y3.976
X2.700Y3.834
X2.972Y3.617
X2.975Y3.473
X3.052Y3.548
X3.117Y3.613
X3.120Y3.474
X3.150Y3.917
T4
X2.948Y4.398
X3.715Y3.937
X3.922Y3.990
X4.117Y4.024
X4.117Y4.124
T5
X2.234Y4.545
X2.234Y4.644
X2.739Y4.594
X2.739Y4.694
X2.839Y4.594
X2.839Y4.694
X2.939Y4.594
X2.939Y4.694
X3.039Y4.594
X3.039Y4.694
X3.139Y4.594
X3.139Y4.694
X3.239Y4.594
X3.239Y4.694
X3.339Y4.594
X3.339Y4.694
X3.439Y4.594
X3.439Y4.694
X3.539Y4.594
X3.539Y4.694
X3.639Y4.594
X3.639Y4.694
T6
X3.972Y4.564
X4.133Y4.564
X4.275Y4.564
T0
M30
