G04 (created by PCBNEW-RS274X (2012-01-19 BZR 3256)-stable) date Thu 11 Oct 2012 17:08:46 BST*
G01*
G70*
G90*
%MOIN*%
G04 Gerber Fmt 3.4, Leading zero omitted, Abs format*
%FSLAX34Y34*%
G04 APERTURE LIST*
%ADD10C,0.006000*%
%ADD11C,0.012000*%
%ADD12R,0.031400X0.031400*%
%ADD13R,0.035000X0.055000*%
%ADD14R,0.055000X0.035000*%
%ADD15R,0.045000X0.025000*%
%ADD16R,0.025000X0.045000*%
%ADD17R,0.015700X0.023600*%
%ADD18R,0.023600X0.015700*%
%ADD19R,0.063000X0.074800*%
%ADD20O,0.049200X0.011800*%
%ADD21R,0.020000X0.059100*%
%ADD22R,0.027600X0.039400*%
%ADD23R,0.039400X0.027600*%
%ADD24R,0.025600X0.011800*%
%ADD25R,0.011800X0.025600*%
%ADD26R,0.015700X0.019700*%
%ADD27R,0.023600X0.078700*%
%ADD28O,0.057100X0.007900*%
%ADD29O,0.007900X0.057100*%
%ADD30R,0.189000X0.189000*%
%ADD31R,0.060000X0.080000*%
%ADD32R,0.050000X0.015000*%
%ADD33R,0.055100X0.047200*%
%ADD34R,0.051200X0.047200*%
%ADD35R,0.019700X0.015700*%
G04 APERTURE END LIST*
G54D10*
G54D11*
X07299Y-28632D02*
X07385Y-28670D01*
X07528Y-28670D01*
X07585Y-28632D01*
X07614Y-28594D01*
X07642Y-28517D01*
X07642Y-28441D01*
X07614Y-28365D01*
X07585Y-28327D01*
X07528Y-28289D01*
X07414Y-28251D01*
X07356Y-28213D01*
X07328Y-28175D01*
X07299Y-28098D01*
X07299Y-28022D01*
X07328Y-27946D01*
X07356Y-27908D01*
X07414Y-27870D01*
X07556Y-27870D01*
X07642Y-27908D01*
X07985Y-28670D02*
X07927Y-28632D01*
X07899Y-28594D01*
X07870Y-28517D01*
X07870Y-28289D01*
X07899Y-28213D01*
X07927Y-28175D01*
X07985Y-28136D01*
X08070Y-28136D01*
X08127Y-28175D01*
X08156Y-28213D01*
X08185Y-28289D01*
X08185Y-28517D01*
X08156Y-28594D01*
X08127Y-28632D01*
X08070Y-28670D01*
X07985Y-28670D01*
X08528Y-28670D02*
X08470Y-28632D01*
X08442Y-28556D01*
X08442Y-27870D01*
X09013Y-28670D02*
X09013Y-27870D01*
X09013Y-28632D02*
X08956Y-28670D01*
X08842Y-28670D01*
X08784Y-28632D01*
X08756Y-28594D01*
X08727Y-28517D01*
X08727Y-28289D01*
X08756Y-28213D01*
X08784Y-28175D01*
X08842Y-28136D01*
X08956Y-28136D01*
X09013Y-28175D01*
X09527Y-28632D02*
X09470Y-28670D01*
X09356Y-28670D01*
X09299Y-28632D01*
X09270Y-28556D01*
X09270Y-28251D01*
X09299Y-28175D01*
X09356Y-28136D01*
X09470Y-28136D01*
X09527Y-28175D01*
X09556Y-28251D01*
X09556Y-28327D01*
X09270Y-28403D01*
X09813Y-28670D02*
X09813Y-28136D01*
X09813Y-28289D02*
X09841Y-28213D01*
X09870Y-28175D01*
X09927Y-28136D01*
X09984Y-28136D01*
X10641Y-28670D02*
X10641Y-27870D01*
X10869Y-27870D01*
X10927Y-27908D01*
X10955Y-27946D01*
X10984Y-28022D01*
X10984Y-28136D01*
X10955Y-28213D01*
X10927Y-28251D01*
X10869Y-28289D01*
X10641Y-28289D01*
X11498Y-28670D02*
X11498Y-28251D01*
X11469Y-28175D01*
X11412Y-28136D01*
X11298Y-28136D01*
X11241Y-28175D01*
X11498Y-28632D02*
X11441Y-28670D01*
X11298Y-28670D01*
X11241Y-28632D01*
X11212Y-28556D01*
X11212Y-28479D01*
X11241Y-28403D01*
X11298Y-28365D01*
X11441Y-28365D01*
X11498Y-28327D01*
X11755Y-28632D02*
X11812Y-28670D01*
X11927Y-28670D01*
X11984Y-28632D01*
X12012Y-28556D01*
X12012Y-28517D01*
X11984Y-28441D01*
X11927Y-28403D01*
X11841Y-28403D01*
X11784Y-28365D01*
X11755Y-28289D01*
X11755Y-28251D01*
X11784Y-28175D01*
X11841Y-28136D01*
X11927Y-28136D01*
X11984Y-28175D01*
X12184Y-28136D02*
X12413Y-28136D01*
X12270Y-27870D02*
X12270Y-28556D01*
X12298Y-28632D01*
X12356Y-28670D01*
X12413Y-28670D01*
X12841Y-28632D02*
X12784Y-28670D01*
X12670Y-28670D01*
X12613Y-28632D01*
X12584Y-28556D01*
X12584Y-28251D01*
X12613Y-28175D01*
X12670Y-28136D01*
X12784Y-28136D01*
X12841Y-28175D01*
X12870Y-28251D01*
X12870Y-28327D01*
X12584Y-28403D01*
X13755Y-28975D02*
X13727Y-28936D01*
X13670Y-28822D01*
X13641Y-28746D01*
X13612Y-28632D01*
X13584Y-28441D01*
X13584Y-28289D01*
X13612Y-28098D01*
X13641Y-27984D01*
X13670Y-27908D01*
X13727Y-27794D01*
X13755Y-27756D01*
X14184Y-28251D02*
X13984Y-28251D01*
X13984Y-28670D02*
X13984Y-27870D01*
X14270Y-27870D01*
X14498Y-28670D02*
X14498Y-28136D01*
X14498Y-28289D02*
X14526Y-28213D01*
X14555Y-28175D01*
X14612Y-28136D01*
X14669Y-28136D01*
X14955Y-28670D02*
X14897Y-28632D01*
X14869Y-28594D01*
X14840Y-28517D01*
X14840Y-28289D01*
X14869Y-28213D01*
X14897Y-28175D01*
X14955Y-28136D01*
X15040Y-28136D01*
X15097Y-28175D01*
X15126Y-28213D01*
X15155Y-28289D01*
X15155Y-28517D01*
X15126Y-28594D01*
X15097Y-28632D01*
X15040Y-28670D01*
X14955Y-28670D01*
X15412Y-28136D02*
X15412Y-28670D01*
X15412Y-28213D02*
X15440Y-28175D01*
X15498Y-28136D01*
X15583Y-28136D01*
X15640Y-28175D01*
X15669Y-28251D01*
X15669Y-28670D01*
X15869Y-28136D02*
X16098Y-28136D01*
X15955Y-27870D02*
X15955Y-28556D01*
X15983Y-28632D01*
X16041Y-28670D01*
X16098Y-28670D01*
X16241Y-28975D02*
X16269Y-28936D01*
X16326Y-28822D01*
X16355Y-28746D01*
X16384Y-28632D01*
X16412Y-28441D01*
X16412Y-28289D01*
X16384Y-28098D01*
X16355Y-27984D01*
X16326Y-27908D01*
X16269Y-27794D01*
X16241Y-27756D01*
G54D12*
X37333Y-42825D03*
X37923Y-42825D03*
X37333Y-41969D03*
X37923Y-41969D03*
X37333Y-41132D03*
X37923Y-41132D03*
X37333Y-40335D03*
X37923Y-40335D03*
G54D13*
X33763Y-22051D03*
X34513Y-22051D03*
G54D14*
X34419Y-33475D03*
X34419Y-32725D03*
G54D13*
X25296Y-40709D03*
X24546Y-40709D03*
X23326Y-43159D03*
X24076Y-43159D03*
X22796Y-42146D03*
X22046Y-42146D03*
X23184Y-39130D03*
X23934Y-39130D03*
X22788Y-38024D03*
X22038Y-38024D03*
G54D15*
X26988Y-32456D03*
X26988Y-31856D03*
X29774Y-39198D03*
X29774Y-39798D03*
G54D16*
X33430Y-38533D03*
X34030Y-38533D03*
G54D15*
X26506Y-36324D03*
X26506Y-35724D03*
G54D16*
X34956Y-35699D03*
X34356Y-35699D03*
G54D15*
X33902Y-43275D03*
X33902Y-43875D03*
X35000Y-37682D03*
X35000Y-38282D03*
X35189Y-21940D03*
X35189Y-22540D03*
X25827Y-36324D03*
X25827Y-35724D03*
G54D16*
X27534Y-31309D03*
X26934Y-31309D03*
X30379Y-43386D03*
X30979Y-43386D03*
X20255Y-40759D03*
X20855Y-40759D03*
X20182Y-44409D03*
X20782Y-44409D03*
G54D17*
X26693Y-33169D03*
X26339Y-33169D03*
X20724Y-39892D03*
X20370Y-39892D03*
X20366Y-40274D03*
X20720Y-40274D03*
X20640Y-43907D03*
X20286Y-43907D03*
X19847Y-36366D03*
X20201Y-36366D03*
G54D18*
X30896Y-39262D03*
X30896Y-39616D03*
X25980Y-32854D03*
X25980Y-33208D03*
G54D19*
X19590Y-21028D03*
X19590Y-28154D03*
G54D20*
X20554Y-27446D03*
X20554Y-27250D03*
X20554Y-27053D03*
X20554Y-26856D03*
X20554Y-26659D03*
X20554Y-26462D03*
X20554Y-26265D03*
X20554Y-26068D03*
X20554Y-25872D03*
X20554Y-25675D03*
X20554Y-25478D03*
X20554Y-25281D03*
X20554Y-25084D03*
X20554Y-24887D03*
X20555Y-24689D03*
X20554Y-24494D03*
X20554Y-24297D03*
X20554Y-24100D03*
X20554Y-23706D03*
X20554Y-23312D03*
X20554Y-22919D03*
X20554Y-23116D03*
X20554Y-23509D03*
X20554Y-23903D03*
X20554Y-22722D03*
X20554Y-22525D03*
X20554Y-22328D03*
X20554Y-22131D03*
X20554Y-21935D03*
X20554Y-21736D03*
G54D19*
X42186Y-28114D03*
X42186Y-20988D03*
G54D20*
X41222Y-21696D03*
X41222Y-21892D03*
X41222Y-22089D03*
X41222Y-22286D03*
X41222Y-22483D03*
X41222Y-22680D03*
X41222Y-22877D03*
X41222Y-23074D03*
X41222Y-23270D03*
X41222Y-23467D03*
X41222Y-23664D03*
X41222Y-23861D03*
X41222Y-24058D03*
X41222Y-24255D03*
X41221Y-24453D03*
X41222Y-24648D03*
X41222Y-24845D03*
X41222Y-25042D03*
X41222Y-25436D03*
X41222Y-25830D03*
X41222Y-26223D03*
X41222Y-26026D03*
X41222Y-25633D03*
X41222Y-25239D03*
X41222Y-26420D03*
X41222Y-26617D03*
X41222Y-26814D03*
X41222Y-27011D03*
X41222Y-27207D03*
X41222Y-27406D03*
G54D21*
X28978Y-43110D03*
X28478Y-43110D03*
X27978Y-43110D03*
X27478Y-43110D03*
X27478Y-40610D03*
X27978Y-40610D03*
X28478Y-40610D03*
X28978Y-40610D03*
G54D15*
X30354Y-39198D03*
X30354Y-39798D03*
G54D22*
X26094Y-42098D03*
X26468Y-42098D03*
X25720Y-42098D03*
X25720Y-43043D03*
X26468Y-43043D03*
G54D23*
X22386Y-43533D03*
X22386Y-43907D03*
X22386Y-43159D03*
X21441Y-43159D03*
X21441Y-43907D03*
X22386Y-39499D03*
X22386Y-39873D03*
X22386Y-39125D03*
X21441Y-39125D03*
X21441Y-39873D03*
G54D16*
X20182Y-45108D03*
X20782Y-45108D03*
G54D24*
X32630Y-42126D03*
X32630Y-42323D03*
X32630Y-42520D03*
X32630Y-42717D03*
X33083Y-42717D03*
X33083Y-42520D03*
X33083Y-42323D03*
X33083Y-42126D03*
G54D25*
X33120Y-43424D03*
X32923Y-43424D03*
X32726Y-43424D03*
X32529Y-43424D03*
X32529Y-43877D03*
X32726Y-43877D03*
X32923Y-43877D03*
X33120Y-43877D03*
X28907Y-31002D03*
X28710Y-31002D03*
X28513Y-31002D03*
X28316Y-31002D03*
X28316Y-31455D03*
X28513Y-31455D03*
X28710Y-31455D03*
X28907Y-31455D03*
G54D24*
X26543Y-34590D03*
X26543Y-34393D03*
X26543Y-34196D03*
X26543Y-33999D03*
X26090Y-33999D03*
X26090Y-34196D03*
X26090Y-34393D03*
X26090Y-34590D03*
G54D26*
X31094Y-42815D03*
X30838Y-42815D03*
X31350Y-42815D03*
X31350Y-42067D03*
X31094Y-42067D03*
X30838Y-42067D03*
X30118Y-42815D03*
X29862Y-42815D03*
X30374Y-42815D03*
X30374Y-42067D03*
X30118Y-42067D03*
X29862Y-42067D03*
G54D27*
X34517Y-23199D03*
X34202Y-23199D03*
X33887Y-23199D03*
X33572Y-23199D03*
X33257Y-23199D03*
X32942Y-23199D03*
X32627Y-23199D03*
X32312Y-23199D03*
X31997Y-23199D03*
X31682Y-23199D03*
X31367Y-23199D03*
X31052Y-23199D03*
X30737Y-23199D03*
X30423Y-23199D03*
X30108Y-23199D03*
X29793Y-23199D03*
X29478Y-23199D03*
X29163Y-23199D03*
X28848Y-23199D03*
X28533Y-23199D03*
X28218Y-23199D03*
X27903Y-23199D03*
X27588Y-23199D03*
X27273Y-23199D03*
X26958Y-23199D03*
X26643Y-23199D03*
X26328Y-23199D03*
X26328Y-27530D03*
X26643Y-27530D03*
X26958Y-27530D03*
X27273Y-27530D03*
X27588Y-27530D03*
X27903Y-27530D03*
X28218Y-27530D03*
X28533Y-27530D03*
X28848Y-27530D03*
X29163Y-27530D03*
X29478Y-27530D03*
X29793Y-27530D03*
X30108Y-27530D03*
X30423Y-27530D03*
X30737Y-27530D03*
X31052Y-27530D03*
X31367Y-27530D03*
X31682Y-27530D03*
X31997Y-27530D03*
X32312Y-27530D03*
X32627Y-27530D03*
X32942Y-27530D03*
X33257Y-27530D03*
X33572Y-27530D03*
X33887Y-27530D03*
X34202Y-27530D03*
X34517Y-27530D03*
G54D28*
X27459Y-33010D03*
X27459Y-33168D03*
X27459Y-33325D03*
X27459Y-33482D03*
X27459Y-33640D03*
X27459Y-33797D03*
X27459Y-33955D03*
X27459Y-34112D03*
X27459Y-34270D03*
X27459Y-34427D03*
X27459Y-34585D03*
X27459Y-34742D03*
X27459Y-34900D03*
X27459Y-35057D03*
X27459Y-35215D03*
X27459Y-35372D03*
X27459Y-35530D03*
X27459Y-35687D03*
X27459Y-35845D03*
X27459Y-36002D03*
X27459Y-36160D03*
X27459Y-36317D03*
X27459Y-36475D03*
X27459Y-36632D03*
X27459Y-36790D03*
X27459Y-36947D03*
X27459Y-37105D03*
X27459Y-37262D03*
X27459Y-37420D03*
X27459Y-37577D03*
X27459Y-37734D03*
X27459Y-37892D03*
G54D29*
X28049Y-38482D03*
X28207Y-38482D03*
X28364Y-38482D03*
X28521Y-38482D03*
X28679Y-38482D03*
X28836Y-38482D03*
X28994Y-38482D03*
X29151Y-38482D03*
X29309Y-38482D03*
X29466Y-38482D03*
X29624Y-38482D03*
X29781Y-38482D03*
X29939Y-38482D03*
X30096Y-38482D03*
X30254Y-38482D03*
X30411Y-38482D03*
X30569Y-38482D03*
X30726Y-38482D03*
X30884Y-38482D03*
X31041Y-38482D03*
X31199Y-38482D03*
X31356Y-38482D03*
X31514Y-38482D03*
X31671Y-38482D03*
X31829Y-38482D03*
X31986Y-38482D03*
X32144Y-38482D03*
X32301Y-38482D03*
X32459Y-38482D03*
X32616Y-38482D03*
X32773Y-38482D03*
X32931Y-38482D03*
G54D28*
X33521Y-37892D03*
X33521Y-37734D03*
X33521Y-37577D03*
X33521Y-37420D03*
X33521Y-37262D03*
X33521Y-37105D03*
X33521Y-36947D03*
X33521Y-36790D03*
X33521Y-36632D03*
X33521Y-36475D03*
X33521Y-36317D03*
X33521Y-36160D03*
X33521Y-36002D03*
X33521Y-35845D03*
X33521Y-35687D03*
X33521Y-35530D03*
X33521Y-35372D03*
X33521Y-35215D03*
X33521Y-35057D03*
X33521Y-34900D03*
X33521Y-34742D03*
X33521Y-34585D03*
X33521Y-34427D03*
X33521Y-34270D03*
X33521Y-34112D03*
X33521Y-33955D03*
X33521Y-33797D03*
X33521Y-33640D03*
X33521Y-33482D03*
X33521Y-33325D03*
X33521Y-33168D03*
X33521Y-33010D03*
G54D29*
X32931Y-32420D03*
X32773Y-32420D03*
X32616Y-32420D03*
X32459Y-32420D03*
X32301Y-32420D03*
X32144Y-32420D03*
X31986Y-32420D03*
X31829Y-32420D03*
X31671Y-32420D03*
X31514Y-32420D03*
X31356Y-32420D03*
X31199Y-32420D03*
X31041Y-32420D03*
X30884Y-32420D03*
X30726Y-32420D03*
X30569Y-32420D03*
X30411Y-32420D03*
X30254Y-32420D03*
X30096Y-32420D03*
X29939Y-32420D03*
X29781Y-32420D03*
X29624Y-32420D03*
X29466Y-32420D03*
X29309Y-32420D03*
X29151Y-32420D03*
X28994Y-32420D03*
X28836Y-32420D03*
X28679Y-32420D03*
X28521Y-32420D03*
X28364Y-32420D03*
X28207Y-32420D03*
X28049Y-32420D03*
G54D30*
X30490Y-35451D03*
G54D24*
X35235Y-40561D03*
X35235Y-40758D03*
X35235Y-40955D03*
X35235Y-41152D03*
X35688Y-41152D03*
X35688Y-40955D03*
X35688Y-40758D03*
X35688Y-40561D03*
G54D16*
X26461Y-43760D03*
X25861Y-43760D03*
G54D31*
X20000Y-37953D03*
X21300Y-37953D03*
X20039Y-42175D03*
X21339Y-42175D03*
G54D32*
X42031Y-44006D03*
X42031Y-43750D03*
X42031Y-43494D03*
X42031Y-43238D03*
X42031Y-42982D03*
X42031Y-42726D03*
X42031Y-42470D03*
X42031Y-42214D03*
X39827Y-42214D03*
X39827Y-42470D03*
X39827Y-42726D03*
X39827Y-42982D03*
X39827Y-43238D03*
X39827Y-43494D03*
X39827Y-43750D03*
X39827Y-44006D03*
G54D33*
X21201Y-36732D03*
X22067Y-36732D03*
G54D34*
X22067Y-35984D03*
G54D33*
X21201Y-35984D03*
G54D35*
X21803Y-35177D03*
X21803Y-34921D03*
X21803Y-35433D03*
X22551Y-35433D03*
X22551Y-35177D03*
X22551Y-34921D03*
M02*
