G04 (created by PCBNEW (2012-01-19 BZR 3256)-stable) date Wed 10 Oct 2012 18:51:53 BST*
G01*
G70*
G90*
%MOIN*%
G04 Gerber Fmt 3.4, Leading zero omitted, Abs format*
%FSLAX34Y34*%
G04 APERTURE LIST*
%ADD10C,0.001000*%
%ADD11C,0.015000*%
%ADD12C,0.008000*%
G04 APERTURE END LIST*
G54D10*
G54D11*
X18366Y-49035D02*
X42618Y-49035D01*
X18307Y-20039D02*
X18307Y-48425D01*
X42933Y-19400D02*
X18681Y-19400D01*
X43435Y-48277D02*
X43435Y-19970D01*
G54D10*
X40940Y-47355D02*
X41452Y-47867D01*
X41452Y-47355D02*
X40940Y-47867D01*
X39990Y-34459D02*
X39981Y-34548D01*
X39955Y-34635D01*
X39912Y-34714D01*
X39855Y-34784D01*
X39786Y-34842D01*
X39707Y-34884D01*
X39620Y-34911D01*
X39531Y-34920D01*
X39442Y-34912D01*
X39355Y-34887D01*
X39276Y-34845D01*
X39205Y-34789D01*
X39147Y-34720D01*
X39104Y-34641D01*
X39077Y-34555D01*
X39067Y-34465D01*
X39074Y-34376D01*
X39099Y-34289D01*
X39140Y-34209D01*
X39196Y-34139D01*
X39265Y-34080D01*
X39344Y-34036D01*
X39429Y-34008D01*
X39519Y-33998D01*
X39608Y-34005D01*
X39695Y-34029D01*
X39775Y-34069D01*
X39846Y-34125D01*
X39905Y-34193D01*
X39950Y-34272D01*
X39978Y-34357D01*
X39989Y-34447D01*
X39990Y-34459D01*
X39990Y-38062D02*
X39981Y-38151D01*
X39955Y-38238D01*
X39912Y-38317D01*
X39855Y-38387D01*
X39786Y-38445D01*
X39707Y-38487D01*
X39620Y-38514D01*
X39531Y-38523D01*
X39442Y-38515D01*
X39355Y-38490D01*
X39276Y-38448D01*
X39205Y-38392D01*
X39147Y-38323D01*
X39104Y-38244D01*
X39077Y-38158D01*
X39067Y-38068D01*
X39074Y-37979D01*
X39099Y-37892D01*
X39140Y-37812D01*
X39196Y-37742D01*
X39265Y-37683D01*
X39344Y-37639D01*
X39429Y-37611D01*
X39519Y-37601D01*
X39608Y-37608D01*
X39695Y-37632D01*
X39775Y-37672D01*
X39846Y-37728D01*
X39905Y-37796D01*
X39950Y-37875D01*
X39978Y-37960D01*
X39989Y-38050D01*
X39990Y-38062D01*
X19776Y-47087D02*
X19776Y-48267D01*
X20366Y-47677D02*
X19186Y-47677D01*
X22417Y-20095D02*
X22417Y-21275D01*
X23007Y-20685D02*
X21827Y-20685D01*
X39752Y-20095D02*
X39752Y-21275D01*
X40342Y-20685D02*
X39162Y-20685D01*
X41811Y-38504D02*
X41811Y-39684D01*
X42401Y-39094D02*
X41221Y-39094D01*
G54D12*
X06814Y-50745D02*
X06814Y-49945D01*
X07005Y-49945D01*
X07119Y-49983D01*
X07195Y-50059D01*
X07234Y-50135D01*
X07272Y-50288D01*
X07272Y-50402D01*
X07234Y-50554D01*
X07195Y-50631D01*
X07119Y-50707D01*
X07005Y-50745D01*
X06814Y-50745D01*
X07614Y-50745D02*
X07614Y-50211D01*
X07614Y-50364D02*
X07653Y-50288D01*
X07691Y-50250D01*
X07767Y-50211D01*
X07843Y-50211D01*
X08109Y-50745D02*
X08109Y-50211D01*
X08109Y-49945D02*
X08071Y-49983D01*
X08109Y-50021D01*
X08148Y-49983D01*
X08109Y-49945D01*
X08109Y-50021D01*
X08605Y-50745D02*
X08529Y-50707D01*
X08490Y-50631D01*
X08490Y-49945D01*
X09024Y-50745D02*
X08948Y-50707D01*
X08909Y-50631D01*
X08909Y-49945D01*
X09938Y-50745D02*
X09938Y-49945D01*
X10205Y-50516D01*
X10472Y-49945D01*
X10472Y-50745D01*
X11195Y-50745D02*
X11195Y-50326D01*
X11157Y-50250D01*
X11081Y-50211D01*
X10929Y-50211D01*
X10852Y-50250D01*
X11195Y-50707D02*
X11119Y-50745D01*
X10929Y-50745D01*
X10852Y-50707D01*
X10814Y-50631D01*
X10814Y-50554D01*
X10852Y-50478D01*
X10929Y-50440D01*
X11119Y-50440D01*
X11195Y-50402D01*
X11576Y-50211D02*
X11576Y-51011D01*
X11576Y-50250D02*
X11653Y-50211D01*
X11805Y-50211D01*
X11881Y-50250D01*
X11919Y-50288D01*
X11957Y-50364D01*
X11957Y-50592D01*
X11919Y-50669D01*
X11881Y-50707D01*
X11805Y-50745D01*
X11653Y-50745D01*
X11576Y-50707D01*
X12300Y-50669D02*
X12339Y-50707D01*
X12300Y-50745D01*
X12262Y-50707D01*
X12300Y-50669D01*
X12300Y-50745D01*
X12300Y-50250D02*
X12339Y-50288D01*
X12300Y-50326D01*
X12262Y-50288D01*
X12300Y-50250D01*
X12300Y-50326D01*
X05912Y-51845D02*
X06424Y-52357D01*
X06424Y-51845D02*
X05912Y-52357D01*
X06967Y-51625D02*
X07043Y-51625D01*
X07119Y-51663D01*
X07157Y-51701D01*
X07195Y-51777D01*
X07234Y-51930D01*
X07234Y-52120D01*
X07195Y-52272D01*
X07157Y-52349D01*
X07119Y-52387D01*
X07043Y-52425D01*
X06967Y-52425D01*
X06891Y-52387D01*
X06853Y-52349D01*
X06814Y-52272D01*
X06776Y-52120D01*
X06776Y-51930D01*
X06814Y-51777D01*
X06853Y-51701D01*
X06891Y-51663D01*
X06967Y-51625D01*
X07576Y-52349D02*
X07615Y-52387D01*
X07576Y-52425D01*
X07538Y-52387D01*
X07576Y-52349D01*
X07576Y-52425D01*
X08110Y-51625D02*
X08186Y-51625D01*
X08262Y-51663D01*
X08300Y-51701D01*
X08338Y-51777D01*
X08377Y-51930D01*
X08377Y-52120D01*
X08338Y-52272D01*
X08300Y-52349D01*
X08262Y-52387D01*
X08186Y-52425D01*
X08110Y-52425D01*
X08034Y-52387D01*
X07996Y-52349D01*
X07957Y-52272D01*
X07919Y-52120D01*
X07919Y-51930D01*
X07957Y-51777D01*
X07996Y-51701D01*
X08034Y-51663D01*
X08110Y-51625D01*
X09100Y-51625D02*
X08719Y-51625D01*
X08681Y-52006D01*
X08719Y-51968D01*
X08796Y-51930D01*
X08986Y-51930D01*
X09062Y-51968D01*
X09100Y-52006D01*
X09139Y-52082D01*
X09139Y-52272D01*
X09100Y-52349D01*
X09062Y-52387D01*
X08986Y-52425D01*
X08796Y-52425D01*
X08719Y-52387D01*
X08681Y-52349D01*
X09901Y-52425D02*
X09443Y-52425D01*
X09672Y-52425D02*
X09672Y-51625D01*
X09596Y-51739D01*
X09520Y-51815D01*
X09443Y-51853D01*
X10205Y-51625D02*
X10205Y-51777D01*
X10510Y-51625D02*
X10510Y-51777D01*
X12035Y-51587D02*
X11349Y-52615D01*
X13331Y-52425D02*
X12873Y-52425D01*
X13102Y-52425D02*
X13102Y-51625D01*
X13026Y-51739D01*
X12950Y-51815D01*
X12873Y-51853D01*
X13673Y-52349D02*
X13712Y-52387D01*
X13673Y-52425D01*
X13635Y-52387D01*
X13673Y-52349D01*
X13673Y-52425D01*
X13978Y-51625D02*
X14474Y-51625D01*
X14207Y-51930D01*
X14321Y-51930D01*
X14397Y-51968D01*
X14435Y-52006D01*
X14474Y-52082D01*
X14474Y-52272D01*
X14435Y-52349D01*
X14397Y-52387D01*
X14321Y-52425D01*
X14093Y-52425D01*
X14016Y-52387D01*
X13978Y-52349D01*
X14969Y-51625D02*
X15045Y-51625D01*
X15121Y-51663D01*
X15159Y-51701D01*
X15197Y-51777D01*
X15236Y-51930D01*
X15236Y-52120D01*
X15197Y-52272D01*
X15159Y-52349D01*
X15121Y-52387D01*
X15045Y-52425D01*
X14969Y-52425D01*
X14893Y-52387D01*
X14855Y-52349D01*
X14816Y-52272D01*
X14778Y-52120D01*
X14778Y-51930D01*
X14816Y-51777D01*
X14855Y-51701D01*
X14893Y-51663D01*
X14969Y-51625D01*
X15578Y-52425D02*
X15578Y-51891D01*
X15578Y-51968D02*
X15617Y-51930D01*
X15693Y-51891D01*
X15807Y-51891D01*
X15883Y-51930D01*
X15921Y-52006D01*
X15921Y-52425D01*
X15921Y-52006D02*
X15959Y-51930D01*
X16036Y-51891D01*
X16150Y-51891D01*
X16226Y-51930D01*
X16264Y-52006D01*
X16264Y-52425D01*
X16645Y-52425D02*
X16645Y-51891D01*
X16645Y-51968D02*
X16684Y-51930D01*
X16760Y-51891D01*
X16874Y-51891D01*
X16950Y-51930D01*
X16988Y-52006D01*
X16988Y-52425D01*
X16988Y-52006D02*
X17026Y-51930D01*
X17103Y-51891D01*
X17217Y-51891D01*
X17293Y-51930D01*
X17331Y-52006D01*
X17331Y-52425D01*
X18551Y-52730D02*
X18513Y-52691D01*
X18437Y-52577D01*
X18399Y-52501D01*
X18361Y-52387D01*
X18322Y-52196D01*
X18322Y-52044D01*
X18361Y-51853D01*
X18399Y-51739D01*
X18437Y-51663D01*
X18513Y-51549D01*
X18551Y-51511D01*
X19275Y-52425D02*
X18817Y-52425D01*
X19046Y-52425D02*
X19046Y-51625D01*
X18970Y-51739D01*
X18894Y-51815D01*
X18817Y-51853D01*
X20227Y-52425D02*
X20227Y-51625D01*
X20570Y-52425D02*
X20570Y-52006D01*
X20532Y-51930D01*
X20456Y-51891D01*
X20342Y-51891D01*
X20266Y-51930D01*
X20227Y-51968D01*
X21066Y-52425D02*
X20990Y-52387D01*
X20951Y-52349D01*
X20913Y-52272D01*
X20913Y-52044D01*
X20951Y-51968D01*
X20990Y-51930D01*
X21066Y-51891D01*
X21180Y-51891D01*
X21256Y-51930D01*
X21294Y-51968D01*
X21332Y-52044D01*
X21332Y-52272D01*
X21294Y-52349D01*
X21256Y-52387D01*
X21180Y-52425D01*
X21066Y-52425D01*
X21790Y-52425D02*
X21714Y-52387D01*
X21675Y-52311D01*
X21675Y-51625D01*
X22399Y-52387D02*
X22323Y-52425D01*
X22171Y-52425D01*
X22094Y-52387D01*
X22056Y-52311D01*
X22056Y-52006D01*
X22094Y-51930D01*
X22171Y-51891D01*
X22323Y-51891D01*
X22399Y-51930D01*
X22437Y-52006D01*
X22437Y-52082D01*
X22056Y-52158D01*
X22704Y-52730D02*
X22742Y-52691D01*
X22819Y-52577D01*
X22857Y-52501D01*
X22895Y-52387D01*
X22933Y-52196D01*
X22933Y-52044D01*
X22895Y-51853D01*
X22857Y-51739D01*
X22819Y-51663D01*
X22742Y-51549D01*
X22704Y-51511D01*
G54D10*
X06423Y-53156D02*
X06414Y-53245D01*
X06388Y-53332D01*
X06345Y-53411D01*
X06288Y-53481D01*
X06219Y-53539D01*
X06140Y-53581D01*
X06053Y-53608D01*
X05964Y-53617D01*
X05875Y-53609D01*
X05788Y-53584D01*
X05709Y-53542D01*
X05638Y-53486D01*
X05580Y-53417D01*
X05537Y-53338D01*
X05510Y-53252D01*
X05500Y-53162D01*
X05507Y-53073D01*
X05532Y-52986D01*
X05573Y-52906D01*
X05629Y-52836D01*
X05698Y-52777D01*
X05777Y-52733D01*
X05862Y-52705D01*
X05952Y-52695D01*
X06041Y-52702D01*
X06128Y-52726D01*
X06208Y-52766D01*
X06279Y-52822D01*
X06338Y-52890D01*
X06383Y-52969D01*
X06411Y-53054D01*
X06422Y-53144D01*
X06423Y-53156D01*
G54D12*
X06967Y-52680D02*
X07043Y-52680D01*
X07119Y-52718D01*
X07157Y-52756D01*
X07195Y-52832D01*
X07234Y-52985D01*
X07234Y-53175D01*
X07195Y-53327D01*
X07157Y-53404D01*
X07119Y-53442D01*
X07043Y-53480D01*
X06967Y-53480D01*
X06891Y-53442D01*
X06853Y-53404D01*
X06814Y-53327D01*
X06776Y-53175D01*
X06776Y-52985D01*
X06814Y-52832D01*
X06853Y-52756D01*
X06891Y-52718D01*
X06967Y-52680D01*
X07576Y-53404D02*
X07615Y-53442D01*
X07576Y-53480D01*
X07538Y-53442D01*
X07576Y-53404D01*
X07576Y-53480D01*
X08110Y-52680D02*
X08186Y-52680D01*
X08262Y-52718D01*
X08300Y-52756D01*
X08338Y-52832D01*
X08377Y-52985D01*
X08377Y-53175D01*
X08338Y-53327D01*
X08300Y-53404D01*
X08262Y-53442D01*
X08186Y-53480D01*
X08110Y-53480D01*
X08034Y-53442D01*
X07996Y-53404D01*
X07957Y-53327D01*
X07919Y-53175D01*
X07919Y-52985D01*
X07957Y-52832D01*
X07996Y-52756D01*
X08034Y-52718D01*
X08110Y-52680D01*
X08758Y-53480D02*
X08910Y-53480D01*
X08986Y-53442D01*
X09024Y-53404D01*
X09100Y-53289D01*
X09139Y-53137D01*
X09139Y-52832D01*
X09100Y-52756D01*
X09062Y-52718D01*
X08986Y-52680D01*
X08834Y-52680D01*
X08758Y-52718D01*
X08719Y-52756D01*
X08681Y-52832D01*
X08681Y-53023D01*
X08719Y-53099D01*
X08758Y-53137D01*
X08834Y-53175D01*
X08986Y-53175D01*
X09062Y-53137D01*
X09100Y-53099D01*
X09139Y-53023D01*
X09443Y-52756D02*
X09481Y-52718D01*
X09558Y-52680D01*
X09748Y-52680D01*
X09824Y-52718D01*
X09862Y-52756D01*
X09901Y-52832D01*
X09901Y-52908D01*
X09862Y-53023D01*
X09405Y-53480D01*
X09901Y-53480D01*
X10205Y-52680D02*
X10205Y-52832D01*
X10510Y-52680D02*
X10510Y-52832D01*
X12035Y-52642D02*
X11349Y-53670D01*
X12873Y-52756D02*
X12911Y-52718D01*
X12988Y-52680D01*
X13178Y-52680D01*
X13254Y-52718D01*
X13292Y-52756D01*
X13331Y-52832D01*
X13331Y-52908D01*
X13292Y-53023D01*
X12835Y-53480D01*
X13331Y-53480D01*
X13673Y-53404D02*
X13712Y-53442D01*
X13673Y-53480D01*
X13635Y-53442D01*
X13673Y-53404D01*
X13673Y-53480D01*
X13978Y-52680D02*
X14474Y-52680D01*
X14207Y-52985D01*
X14321Y-52985D01*
X14397Y-53023D01*
X14435Y-53061D01*
X14474Y-53137D01*
X14474Y-53327D01*
X14435Y-53404D01*
X14397Y-53442D01*
X14321Y-53480D01*
X14093Y-53480D01*
X14016Y-53442D01*
X13978Y-53404D01*
X15197Y-52680D02*
X14816Y-52680D01*
X14778Y-53061D01*
X14816Y-53023D01*
X14893Y-52985D01*
X15083Y-52985D01*
X15159Y-53023D01*
X15197Y-53061D01*
X15236Y-53137D01*
X15236Y-53327D01*
X15197Y-53404D01*
X15159Y-53442D01*
X15083Y-53480D01*
X14893Y-53480D01*
X14816Y-53442D01*
X14778Y-53404D01*
X15578Y-53480D02*
X15578Y-52946D01*
X15578Y-53023D02*
X15617Y-52985D01*
X15693Y-52946D01*
X15807Y-52946D01*
X15883Y-52985D01*
X15921Y-53061D01*
X15921Y-53480D01*
X15921Y-53061D02*
X15959Y-52985D01*
X16036Y-52946D01*
X16150Y-52946D01*
X16226Y-52985D01*
X16264Y-53061D01*
X16264Y-53480D01*
X16645Y-53480D02*
X16645Y-52946D01*
X16645Y-53023D02*
X16684Y-52985D01*
X16760Y-52946D01*
X16874Y-52946D01*
X16950Y-52985D01*
X16988Y-53061D01*
X16988Y-53480D01*
X16988Y-53061D02*
X17026Y-52985D01*
X17103Y-52946D01*
X17217Y-52946D01*
X17293Y-52985D01*
X17331Y-53061D01*
X17331Y-53480D01*
X18551Y-53785D02*
X18513Y-53746D01*
X18437Y-53632D01*
X18399Y-53556D01*
X18361Y-53442D01*
X18322Y-53251D01*
X18322Y-53099D01*
X18361Y-52908D01*
X18399Y-52794D01*
X18437Y-52718D01*
X18513Y-52604D01*
X18551Y-52566D01*
X18817Y-52756D02*
X18855Y-52718D01*
X18932Y-52680D01*
X19122Y-52680D01*
X19198Y-52718D01*
X19236Y-52756D01*
X19275Y-52832D01*
X19275Y-52908D01*
X19236Y-53023D01*
X18779Y-53480D01*
X19275Y-53480D01*
X20227Y-53480D02*
X20227Y-52680D01*
X20570Y-53480D02*
X20570Y-53061D01*
X20532Y-52985D01*
X20456Y-52946D01*
X20342Y-52946D01*
X20266Y-52985D01*
X20227Y-53023D01*
X21066Y-53480D02*
X20990Y-53442D01*
X20951Y-53404D01*
X20913Y-53327D01*
X20913Y-53099D01*
X20951Y-53023D01*
X20990Y-52985D01*
X21066Y-52946D01*
X21180Y-52946D01*
X21256Y-52985D01*
X21294Y-53023D01*
X21332Y-53099D01*
X21332Y-53327D01*
X21294Y-53404D01*
X21256Y-53442D01*
X21180Y-53480D01*
X21066Y-53480D01*
X21790Y-53480D02*
X21714Y-53442D01*
X21675Y-53366D01*
X21675Y-52680D01*
X22399Y-53442D02*
X22323Y-53480D01*
X22171Y-53480D01*
X22094Y-53442D01*
X22056Y-53366D01*
X22056Y-53061D01*
X22094Y-52985D01*
X22171Y-52946D01*
X22323Y-52946D01*
X22399Y-52985D01*
X22437Y-53061D01*
X22437Y-53137D01*
X22056Y-53213D01*
X22742Y-53442D02*
X22819Y-53480D01*
X22971Y-53480D01*
X23047Y-53442D01*
X23085Y-53366D01*
X23085Y-53327D01*
X23047Y-53251D01*
X22971Y-53213D01*
X22857Y-53213D01*
X22780Y-53175D01*
X22742Y-53099D01*
X22742Y-53061D01*
X22780Y-52985D01*
X22857Y-52946D01*
X22971Y-52946D01*
X23047Y-52985D01*
X23352Y-53785D02*
X23390Y-53746D01*
X23467Y-53632D01*
X23505Y-53556D01*
X23543Y-53442D01*
X23581Y-53251D01*
X23581Y-53099D01*
X23543Y-52908D01*
X23505Y-52794D01*
X23467Y-52718D01*
X23390Y-52604D01*
X23352Y-52566D01*
X05833Y-53771D02*
X05833Y-54951D01*
X06423Y-54361D02*
X05243Y-54361D01*
X06967Y-53885D02*
X07043Y-53885D01*
X07119Y-53923D01*
X07157Y-53961D01*
X07195Y-54037D01*
X07234Y-54190D01*
X07234Y-54380D01*
X07195Y-54532D01*
X07157Y-54609D01*
X07119Y-54647D01*
X07043Y-54685D01*
X06967Y-54685D01*
X06891Y-54647D01*
X06853Y-54609D01*
X06814Y-54532D01*
X06776Y-54380D01*
X06776Y-54190D01*
X06814Y-54037D01*
X06853Y-53961D01*
X06891Y-53923D01*
X06967Y-53885D01*
X07576Y-54609D02*
X07615Y-54647D01*
X07576Y-54685D01*
X07538Y-54647D01*
X07576Y-54609D01*
X07576Y-54685D01*
X08377Y-54685D02*
X07919Y-54685D01*
X08148Y-54685D02*
X08148Y-53885D01*
X08072Y-53999D01*
X07996Y-54075D01*
X07919Y-54113D01*
X09139Y-54685D02*
X08681Y-54685D01*
X08910Y-54685D02*
X08910Y-53885D01*
X08834Y-53999D01*
X08758Y-54075D01*
X08681Y-54113D01*
X09596Y-54228D02*
X09520Y-54190D01*
X09481Y-54151D01*
X09443Y-54075D01*
X09443Y-54037D01*
X09481Y-53961D01*
X09520Y-53923D01*
X09596Y-53885D01*
X09748Y-53885D01*
X09824Y-53923D01*
X09862Y-53961D01*
X09901Y-54037D01*
X09901Y-54075D01*
X09862Y-54151D01*
X09824Y-54190D01*
X09748Y-54228D01*
X09596Y-54228D01*
X09520Y-54266D01*
X09481Y-54304D01*
X09443Y-54380D01*
X09443Y-54532D01*
X09481Y-54609D01*
X09520Y-54647D01*
X09596Y-54685D01*
X09748Y-54685D01*
X09824Y-54647D01*
X09862Y-54609D01*
X09901Y-54532D01*
X09901Y-54380D01*
X09862Y-54304D01*
X09824Y-54266D01*
X09748Y-54228D01*
X10205Y-53885D02*
X10205Y-54037D01*
X10510Y-53885D02*
X10510Y-54037D01*
X12035Y-53847D02*
X11349Y-54875D01*
X12835Y-53885D02*
X13331Y-53885D01*
X13064Y-54190D01*
X13178Y-54190D01*
X13254Y-54228D01*
X13292Y-54266D01*
X13331Y-54342D01*
X13331Y-54532D01*
X13292Y-54609D01*
X13254Y-54647D01*
X13178Y-54685D01*
X12950Y-54685D01*
X12873Y-54647D01*
X12835Y-54609D01*
X13673Y-54609D02*
X13712Y-54647D01*
X13673Y-54685D01*
X13635Y-54647D01*
X13673Y-54609D01*
X13673Y-54685D01*
X14207Y-53885D02*
X14283Y-53885D01*
X14359Y-53923D01*
X14397Y-53961D01*
X14435Y-54037D01*
X14474Y-54190D01*
X14474Y-54380D01*
X14435Y-54532D01*
X14397Y-54609D01*
X14359Y-54647D01*
X14283Y-54685D01*
X14207Y-54685D01*
X14131Y-54647D01*
X14093Y-54609D01*
X14054Y-54532D01*
X14016Y-54380D01*
X14016Y-54190D01*
X14054Y-54037D01*
X14093Y-53961D01*
X14131Y-53923D01*
X14207Y-53885D01*
X14969Y-53885D02*
X15045Y-53885D01*
X15121Y-53923D01*
X15159Y-53961D01*
X15197Y-54037D01*
X15236Y-54190D01*
X15236Y-54380D01*
X15197Y-54532D01*
X15159Y-54609D01*
X15121Y-54647D01*
X15045Y-54685D01*
X14969Y-54685D01*
X14893Y-54647D01*
X14855Y-54609D01*
X14816Y-54532D01*
X14778Y-54380D01*
X14778Y-54190D01*
X14816Y-54037D01*
X14855Y-53961D01*
X14893Y-53923D01*
X14969Y-53885D01*
X15578Y-54685D02*
X15578Y-54151D01*
X15578Y-54228D02*
X15617Y-54190D01*
X15693Y-54151D01*
X15807Y-54151D01*
X15883Y-54190D01*
X15921Y-54266D01*
X15921Y-54685D01*
X15921Y-54266D02*
X15959Y-54190D01*
X16036Y-54151D01*
X16150Y-54151D01*
X16226Y-54190D01*
X16264Y-54266D01*
X16264Y-54685D01*
X16645Y-54685D02*
X16645Y-54151D01*
X16645Y-54228D02*
X16684Y-54190D01*
X16760Y-54151D01*
X16874Y-54151D01*
X16950Y-54190D01*
X16988Y-54266D01*
X16988Y-54685D01*
X16988Y-54266D02*
X17026Y-54190D01*
X17103Y-54151D01*
X17217Y-54151D01*
X17293Y-54190D01*
X17331Y-54266D01*
X17331Y-54685D01*
X18551Y-54990D02*
X18513Y-54951D01*
X18437Y-54837D01*
X18399Y-54761D01*
X18361Y-54647D01*
X18322Y-54456D01*
X18322Y-54304D01*
X18361Y-54113D01*
X18399Y-53999D01*
X18437Y-53923D01*
X18513Y-53809D01*
X18551Y-53771D01*
X19198Y-54151D02*
X19198Y-54685D01*
X19008Y-53847D02*
X18817Y-54418D01*
X19313Y-54418D01*
X20227Y-54685D02*
X20227Y-53885D01*
X20570Y-54685D02*
X20570Y-54266D01*
X20532Y-54190D01*
X20456Y-54151D01*
X20342Y-54151D01*
X20266Y-54190D01*
X20227Y-54228D01*
X21066Y-54685D02*
X20990Y-54647D01*
X20951Y-54609D01*
X20913Y-54532D01*
X20913Y-54304D01*
X20951Y-54228D01*
X20990Y-54190D01*
X21066Y-54151D01*
X21180Y-54151D01*
X21256Y-54190D01*
X21294Y-54228D01*
X21332Y-54304D01*
X21332Y-54532D01*
X21294Y-54609D01*
X21256Y-54647D01*
X21180Y-54685D01*
X21066Y-54685D01*
X21790Y-54685D02*
X21714Y-54647D01*
X21675Y-54571D01*
X21675Y-53885D01*
X22399Y-54647D02*
X22323Y-54685D01*
X22171Y-54685D01*
X22094Y-54647D01*
X22056Y-54571D01*
X22056Y-54266D01*
X22094Y-54190D01*
X22171Y-54151D01*
X22323Y-54151D01*
X22399Y-54190D01*
X22437Y-54266D01*
X22437Y-54342D01*
X22056Y-54418D01*
X22742Y-54647D02*
X22819Y-54685D01*
X22971Y-54685D01*
X23047Y-54647D01*
X23085Y-54571D01*
X23085Y-54532D01*
X23047Y-54456D01*
X22971Y-54418D01*
X22857Y-54418D01*
X22780Y-54380D01*
X22742Y-54304D01*
X22742Y-54266D01*
X22780Y-54190D01*
X22857Y-54151D01*
X22971Y-54151D01*
X23047Y-54190D01*
X23352Y-54990D02*
X23390Y-54951D01*
X23467Y-54837D01*
X23505Y-54761D01*
X23543Y-54647D01*
X23581Y-54456D01*
X23581Y-54304D01*
X23543Y-54113D01*
X23505Y-53999D01*
X23467Y-53923D01*
X23390Y-53809D01*
X23352Y-53771D01*
M02*
