G04 (created by PCBNEW-RS274X (2012-01-19 BZR 3256)-stable) date Tue 02 Oct 2012 11:10:06 BST*
G01*
G70*
G90*
%MOIN*%
G04 Gerber Fmt 3.4, Leading zero omitted, Abs format*
%FSLAX34Y34*%
G04 APERTURE LIST*
%ADD10C,0.006000*%
%ADD11C,0.012000*%
%ADD12C,0.031600*%
%ADD13C,0.070900*%
%ADD14C,0.071200*%
%ADD15R,0.075000X0.075000*%
%ADD16C,0.075000*%
%ADD17R,0.080000X0.080000*%
%ADD18C,0.080000*%
%ADD19R,0.118400X0.177500*%
G04 APERTURE END LIST*
G54D10*
G54D11*
X08064Y-34715D02*
X08150Y-34753D01*
X08293Y-34753D01*
X08350Y-34715D01*
X08379Y-34677D01*
X08407Y-34600D01*
X08407Y-34524D01*
X08379Y-34448D01*
X08350Y-34410D01*
X08293Y-34372D01*
X08179Y-34334D01*
X08121Y-34296D01*
X08093Y-34258D01*
X08064Y-34181D01*
X08064Y-34105D01*
X08093Y-34029D01*
X08121Y-33991D01*
X08179Y-33953D01*
X08321Y-33953D01*
X08407Y-33991D01*
X08664Y-34753D02*
X08664Y-34219D01*
X08664Y-33953D02*
X08635Y-33991D01*
X08664Y-34029D01*
X08692Y-33991D01*
X08664Y-33953D01*
X08664Y-34029D01*
X09036Y-34753D02*
X08978Y-34715D01*
X08950Y-34639D01*
X08950Y-33953D01*
X09264Y-34753D02*
X09264Y-33953D01*
X09321Y-34448D02*
X09492Y-34753D01*
X09492Y-34219D02*
X09264Y-34524D01*
X09721Y-34715D02*
X09778Y-34753D01*
X09893Y-34753D01*
X09950Y-34715D01*
X09978Y-34639D01*
X09978Y-34600D01*
X09950Y-34524D01*
X09893Y-34486D01*
X09807Y-34486D01*
X09750Y-34448D01*
X09721Y-34372D01*
X09721Y-34334D01*
X09750Y-34258D01*
X09807Y-34219D01*
X09893Y-34219D01*
X09950Y-34258D01*
X10493Y-34715D02*
X10436Y-34753D01*
X10322Y-34753D01*
X10264Y-34715D01*
X10236Y-34677D01*
X10207Y-34600D01*
X10207Y-34372D01*
X10236Y-34296D01*
X10264Y-34258D01*
X10322Y-34219D01*
X10436Y-34219D01*
X10493Y-34258D01*
X10750Y-34753D02*
X10750Y-34219D01*
X10750Y-34372D02*
X10778Y-34296D01*
X10807Y-34258D01*
X10864Y-34219D01*
X10921Y-34219D01*
X11349Y-34715D02*
X11292Y-34753D01*
X11178Y-34753D01*
X11121Y-34715D01*
X11092Y-34639D01*
X11092Y-34334D01*
X11121Y-34258D01*
X11178Y-34219D01*
X11292Y-34219D01*
X11349Y-34258D01*
X11378Y-34334D01*
X11378Y-34410D01*
X11092Y-34486D01*
X11863Y-34715D02*
X11806Y-34753D01*
X11692Y-34753D01*
X11635Y-34715D01*
X11606Y-34639D01*
X11606Y-34334D01*
X11635Y-34258D01*
X11692Y-34219D01*
X11806Y-34219D01*
X11863Y-34258D01*
X11892Y-34334D01*
X11892Y-34410D01*
X11606Y-34486D01*
X12149Y-34219D02*
X12149Y-34753D01*
X12149Y-34296D02*
X12177Y-34258D01*
X12235Y-34219D01*
X12320Y-34219D01*
X12377Y-34258D01*
X12406Y-34334D01*
X12406Y-34753D01*
X13320Y-35058D02*
X13292Y-35019D01*
X13235Y-34905D01*
X13206Y-34829D01*
X13177Y-34715D01*
X13149Y-34524D01*
X13149Y-34372D01*
X13177Y-34181D01*
X13206Y-34067D01*
X13235Y-33991D01*
X13292Y-33877D01*
X13320Y-33839D01*
X13749Y-34334D02*
X13835Y-34372D01*
X13863Y-34410D01*
X13892Y-34486D01*
X13892Y-34600D01*
X13863Y-34677D01*
X13835Y-34715D01*
X13777Y-34753D01*
X13549Y-34753D01*
X13549Y-33953D01*
X13749Y-33953D01*
X13806Y-33991D01*
X13835Y-34029D01*
X13863Y-34105D01*
X13863Y-34181D01*
X13835Y-34258D01*
X13806Y-34296D01*
X13749Y-34334D01*
X13549Y-34334D01*
X14406Y-34753D02*
X14406Y-34334D01*
X14377Y-34258D01*
X14320Y-34219D01*
X14206Y-34219D01*
X14149Y-34258D01*
X14406Y-34715D02*
X14349Y-34753D01*
X14206Y-34753D01*
X14149Y-34715D01*
X14120Y-34639D01*
X14120Y-34562D01*
X14149Y-34486D01*
X14206Y-34448D01*
X14349Y-34448D01*
X14406Y-34410D01*
X14949Y-34715D02*
X14892Y-34753D01*
X14778Y-34753D01*
X14720Y-34715D01*
X14692Y-34677D01*
X14663Y-34600D01*
X14663Y-34372D01*
X14692Y-34296D01*
X14720Y-34258D01*
X14778Y-34219D01*
X14892Y-34219D01*
X14949Y-34258D01*
X15206Y-34753D02*
X15206Y-33953D01*
X15263Y-34448D02*
X15434Y-34753D01*
X15434Y-34219D02*
X15206Y-34524D01*
X15635Y-35058D02*
X15663Y-35019D01*
X15720Y-34905D01*
X15749Y-34829D01*
X15778Y-34715D01*
X15806Y-34524D01*
X15806Y-34372D01*
X15778Y-34181D01*
X15749Y-34067D01*
X15720Y-33991D01*
X15663Y-33877D01*
X15635Y-33839D01*
%LPC*%
X07114Y-39203D02*
X07200Y-39241D01*
X07343Y-39241D01*
X07400Y-39203D01*
X07429Y-39165D01*
X07457Y-39088D01*
X07457Y-39012D01*
X07429Y-38936D01*
X07400Y-38898D01*
X07343Y-38860D01*
X07229Y-38822D01*
X07171Y-38784D01*
X07143Y-38746D01*
X07114Y-38669D01*
X07114Y-38593D01*
X07143Y-38517D01*
X07171Y-38479D01*
X07229Y-38441D01*
X07371Y-38441D01*
X07457Y-38479D01*
X07800Y-39241D02*
X07742Y-39203D01*
X07714Y-39165D01*
X07685Y-39088D01*
X07685Y-38860D01*
X07714Y-38784D01*
X07742Y-38746D01*
X07800Y-38707D01*
X07885Y-38707D01*
X07942Y-38746D01*
X07971Y-38784D01*
X08000Y-38860D01*
X08000Y-39088D01*
X07971Y-39165D01*
X07942Y-39203D01*
X07885Y-39241D01*
X07800Y-39241D01*
X08343Y-39241D02*
X08285Y-39203D01*
X08257Y-39127D01*
X08257Y-38441D01*
X08828Y-39241D02*
X08828Y-38441D01*
X08828Y-39203D02*
X08771Y-39241D01*
X08657Y-39241D01*
X08599Y-39203D01*
X08571Y-39165D01*
X08542Y-39088D01*
X08542Y-38860D01*
X08571Y-38784D01*
X08599Y-38746D01*
X08657Y-38707D01*
X08771Y-38707D01*
X08828Y-38746D01*
X09342Y-39203D02*
X09285Y-39241D01*
X09171Y-39241D01*
X09114Y-39203D01*
X09085Y-39127D01*
X09085Y-38822D01*
X09114Y-38746D01*
X09171Y-38707D01*
X09285Y-38707D01*
X09342Y-38746D01*
X09371Y-38822D01*
X09371Y-38898D01*
X09085Y-38974D01*
X09628Y-39241D02*
X09628Y-38707D01*
X09628Y-38860D02*
X09656Y-38784D01*
X09685Y-38746D01*
X09742Y-38707D01*
X09799Y-38707D01*
X10456Y-39241D02*
X10456Y-38441D01*
X10656Y-39012D01*
X10856Y-38441D01*
X10856Y-39241D01*
X11399Y-39241D02*
X11399Y-38822D01*
X11370Y-38746D01*
X11313Y-38707D01*
X11199Y-38707D01*
X11142Y-38746D01*
X11399Y-39203D02*
X11342Y-39241D01*
X11199Y-39241D01*
X11142Y-39203D01*
X11113Y-39127D01*
X11113Y-39050D01*
X11142Y-38974D01*
X11199Y-38936D01*
X11342Y-38936D01*
X11399Y-38898D01*
X11656Y-39203D02*
X11713Y-39241D01*
X11828Y-39241D01*
X11885Y-39203D01*
X11913Y-39127D01*
X11913Y-39088D01*
X11885Y-39012D01*
X11828Y-38974D01*
X11742Y-38974D01*
X11685Y-38936D01*
X11656Y-38860D01*
X11656Y-38822D01*
X11685Y-38746D01*
X11742Y-38707D01*
X11828Y-38707D01*
X11885Y-38746D01*
X12171Y-39241D02*
X12171Y-38441D01*
X12228Y-38936D02*
X12399Y-39241D01*
X12399Y-38707D02*
X12171Y-39012D01*
X13285Y-39546D02*
X13257Y-39507D01*
X13200Y-39393D01*
X13171Y-39317D01*
X13142Y-39203D01*
X13114Y-39012D01*
X13114Y-38860D01*
X13142Y-38669D01*
X13171Y-38555D01*
X13200Y-38479D01*
X13257Y-38365D01*
X13285Y-38327D01*
X13714Y-38822D02*
X13800Y-38860D01*
X13828Y-38898D01*
X13857Y-38974D01*
X13857Y-39088D01*
X13828Y-39165D01*
X13800Y-39203D01*
X13742Y-39241D01*
X13514Y-39241D01*
X13514Y-38441D01*
X13714Y-38441D01*
X13771Y-38479D01*
X13800Y-38517D01*
X13828Y-38593D01*
X13828Y-38669D01*
X13800Y-38746D01*
X13771Y-38784D01*
X13714Y-38822D01*
X13514Y-38822D01*
X14371Y-39241D02*
X14371Y-38822D01*
X14342Y-38746D01*
X14285Y-38707D01*
X14171Y-38707D01*
X14114Y-38746D01*
X14371Y-39203D02*
X14314Y-39241D01*
X14171Y-39241D01*
X14114Y-39203D01*
X14085Y-39127D01*
X14085Y-39050D01*
X14114Y-38974D01*
X14171Y-38936D01*
X14314Y-38936D01*
X14371Y-38898D01*
X14914Y-39203D02*
X14857Y-39241D01*
X14743Y-39241D01*
X14685Y-39203D01*
X14657Y-39165D01*
X14628Y-39088D01*
X14628Y-38860D01*
X14657Y-38784D01*
X14685Y-38746D01*
X14743Y-38707D01*
X14857Y-38707D01*
X14914Y-38746D01*
X15171Y-39241D02*
X15171Y-38441D01*
X15228Y-38936D02*
X15399Y-39241D01*
X15399Y-38707D02*
X15171Y-39012D01*
X15600Y-39546D02*
X15628Y-39507D01*
X15685Y-39393D01*
X15714Y-39317D01*
X15743Y-39203D01*
X15771Y-39012D01*
X15771Y-38860D01*
X15743Y-38669D01*
X15714Y-38555D01*
X15685Y-38479D01*
X15628Y-38365D01*
X15600Y-38327D01*
G54D12*
X22685Y-36035D03*
G54D13*
X29478Y-43976D03*
G54D14*
X39630Y-34351D03*
X39630Y-38071D03*
G54D13*
X37150Y-39374D03*
X39220Y-39902D03*
G54D15*
X40994Y-40573D03*
G54D16*
X40994Y-41573D03*
G54D12*
X31496Y-39173D03*
X20571Y-36683D03*
X23327Y-43789D03*
X24547Y-43848D03*
X21427Y-45266D03*
X23189Y-39793D03*
X24478Y-39823D03*
X21270Y-40344D03*
G54D17*
X36386Y-45941D03*
G54D18*
X36386Y-46941D03*
X35386Y-45941D03*
X35386Y-46941D03*
X34386Y-45941D03*
X34386Y-46941D03*
X33386Y-45941D03*
X33386Y-46941D03*
X32386Y-45941D03*
X32386Y-46941D03*
X31386Y-45941D03*
X31386Y-46941D03*
X30386Y-45941D03*
X30386Y-46941D03*
X29386Y-45941D03*
X29386Y-46941D03*
X28386Y-45941D03*
X28386Y-46941D03*
X27386Y-45941D03*
X27386Y-46941D03*
G54D17*
X22343Y-46445D03*
G54D18*
X22343Y-45445D03*
G54D19*
X39720Y-45642D03*
X41334Y-45642D03*
X42751Y-45642D03*
G54D14*
X41196Y-47611D03*
G54D15*
X37008Y-36616D03*
G54D16*
X37008Y-37616D03*
G54D15*
X42766Y-38535D03*
G54D16*
X42766Y-39535D03*
M02*
