G04 (created by PCBNEW (2012-01-19 BZR 3256)-stable) date Sat 06 Oct 2012 21:37:40 BST*
G01*
G70*
G90*
%MOIN*%
G04 Gerber Fmt 3.4, Leading zero omitted, Abs format*
%FSLAX34Y34*%
G04 APERTURE LIST*
%ADD10C,0.001000*%
%ADD11C,0.015000*%
%ADD12C,0.008000*%
G04 APERTURE END LIST*
G54D10*
G54D11*
X18366Y-49035D02*
X42618Y-49035D01*
X18307Y-20039D02*
X18307Y-48425D01*
X42933Y-19400D02*
X18681Y-19400D01*
X43435Y-48277D02*
X43435Y-19970D01*
G54D10*
X19754Y-44370D02*
X19832Y-44448D01*
X19832Y-44370D02*
X19754Y-44448D01*
X19843Y-35985D02*
X19921Y-36063D01*
X19921Y-35985D02*
X19843Y-36063D01*
X19870Y-40721D02*
X19948Y-40799D01*
X19948Y-40721D02*
X19870Y-40799D01*
X19912Y-39784D02*
X19990Y-39862D01*
X19990Y-39784D02*
X19912Y-39862D01*
X19981Y-24252D02*
X20059Y-24330D01*
X20059Y-24252D02*
X19981Y-24330D01*
X19981Y-24646D02*
X20059Y-24724D01*
X20059Y-24646D02*
X19981Y-24724D01*
X19991Y-43120D02*
X20069Y-43198D01*
X20069Y-43120D02*
X19991Y-43198D01*
X20965Y-24626D02*
X21043Y-24704D01*
X21043Y-24626D02*
X20965Y-24704D01*
X20985Y-21703D02*
X21063Y-21781D01*
X21063Y-21703D02*
X20985Y-21781D01*
X20985Y-37264D02*
X21063Y-37342D01*
X21063Y-37264D02*
X20985Y-37342D01*
X21054Y-22884D02*
X21132Y-22962D01*
X21132Y-22884D02*
X21054Y-22962D01*
X21201Y-24855D02*
X21279Y-24933D01*
X21279Y-24855D02*
X21201Y-24933D01*
X21575Y-37264D02*
X21653Y-37342D01*
X21653Y-37264D02*
X21575Y-37342D01*
X22095Y-24859D02*
X22173Y-24937D01*
X22173Y-24859D02*
X22095Y-24937D01*
X22292Y-25063D02*
X22370Y-25141D01*
X22370Y-25063D02*
X22292Y-25141D01*
X22347Y-32658D02*
X22425Y-32736D01*
X22425Y-32658D02*
X22347Y-32736D01*
X22347Y-40296D02*
X22425Y-40374D01*
X22425Y-40296D02*
X22347Y-40374D01*
X22485Y-24870D02*
X22563Y-24948D01*
X22563Y-24870D02*
X22485Y-24948D01*
X22552Y-32441D02*
X22630Y-32519D01*
X22630Y-32441D02*
X22552Y-32519D01*
X22689Y-25079D02*
X22767Y-25157D01*
X22767Y-25079D02*
X22689Y-25157D01*
X22752Y-32244D02*
X22830Y-32322D01*
X22830Y-32244D02*
X22752Y-32322D01*
X22835Y-43908D02*
X22913Y-43986D01*
X22913Y-43908D02*
X22835Y-43986D01*
X22886Y-24867D02*
X22964Y-24945D01*
X22964Y-24867D02*
X22886Y-24945D01*
X22973Y-32048D02*
X23051Y-32126D01*
X23051Y-32048D02*
X22973Y-32126D01*
X23061Y-32874D02*
X23139Y-32952D01*
X23139Y-32874D02*
X23061Y-32952D01*
X23095Y-25162D02*
X23173Y-25240D01*
X23173Y-25162D02*
X23095Y-25240D01*
X23189Y-31847D02*
X23267Y-31925D01*
X23267Y-31847D02*
X23189Y-31925D01*
X23248Y-33209D02*
X23326Y-33287D01*
X23326Y-33209D02*
X23248Y-33287D01*
X23317Y-41624D02*
X23395Y-41702D01*
X23395Y-41624D02*
X23317Y-41702D01*
X23492Y-25126D02*
X23570Y-25204D01*
X23570Y-25126D02*
X23492Y-25204D01*
X23500Y-34339D02*
X23578Y-34417D01*
X23578Y-34339D02*
X23500Y-34417D01*
X23587Y-33918D02*
X23665Y-33996D01*
X23665Y-33918D02*
X23587Y-33996D01*
X23800Y-25158D02*
X23878Y-25236D01*
X23878Y-25158D02*
X23800Y-25236D01*
X23819Y-34134D02*
X23897Y-34212D01*
X23897Y-34134D02*
X23819Y-34212D01*
X23823Y-29867D02*
X23901Y-29945D01*
X23901Y-29867D02*
X23823Y-29945D01*
X23827Y-33729D02*
X23905Y-33807D01*
X23905Y-33729D02*
X23827Y-33807D01*
X24006Y-43780D02*
X24084Y-43858D01*
X24084Y-43780D02*
X24006Y-43858D01*
X24065Y-35020D02*
X24143Y-35098D01*
X24143Y-35020D02*
X24065Y-35098D01*
X24122Y-25178D02*
X24200Y-25256D01*
X24200Y-25178D02*
X24122Y-25256D01*
X24183Y-35335D02*
X24261Y-35413D01*
X24261Y-35335D02*
X24183Y-35413D01*
X24241Y-36752D02*
X24319Y-36830D01*
X24319Y-36752D02*
X24241Y-36830D01*
X24331Y-41811D02*
X24409Y-41889D01*
X24409Y-41811D02*
X24331Y-41889D01*
X24420Y-25187D02*
X24498Y-25265D01*
X24498Y-25187D02*
X24420Y-25265D01*
X24420Y-37077D02*
X24498Y-37155D01*
X24498Y-37077D02*
X24420Y-37155D01*
X24634Y-34599D02*
X24712Y-34677D01*
X24712Y-34599D02*
X24634Y-34677D01*
X24843Y-37441D02*
X24921Y-37519D01*
X24921Y-37441D02*
X24843Y-37519D01*
X24961Y-27018D02*
X25039Y-27096D01*
X25039Y-27018D02*
X24961Y-27096D01*
X25158Y-26792D02*
X25236Y-26870D01*
X25236Y-26792D02*
X25158Y-26870D01*
X25394Y-37685D02*
X25472Y-37763D01*
X25472Y-37685D02*
X25394Y-37763D01*
X25414Y-26802D02*
X25492Y-26880D01*
X25492Y-26802D02*
X25414Y-26880D01*
X25630Y-35010D02*
X25708Y-35088D01*
X25708Y-35010D02*
X25630Y-35088D01*
X25638Y-36599D02*
X25716Y-36677D01*
X25716Y-36599D02*
X25638Y-36677D01*
X25640Y-35335D02*
X25718Y-35413D01*
X25718Y-35335D02*
X25640Y-35413D01*
X25640Y-37077D02*
X25718Y-37155D01*
X25718Y-37077D02*
X25640Y-37155D01*
X25670Y-26821D02*
X25748Y-26899D01*
X25748Y-26821D02*
X25670Y-26899D01*
X25685Y-40882D02*
X25763Y-40960D01*
X25763Y-40882D02*
X25685Y-40960D01*
X25709Y-34252D02*
X25787Y-34330D01*
X25787Y-34252D02*
X25709Y-34330D01*
X25713Y-34516D02*
X25791Y-34594D01*
X25791Y-34516D02*
X25713Y-34594D01*
X25717Y-33729D02*
X25795Y-33807D01*
X25795Y-33729D02*
X25717Y-33807D01*
X25717Y-33989D02*
X25795Y-34067D01*
X25795Y-33989D02*
X25717Y-34067D01*
X25741Y-33453D02*
X25819Y-33531D01*
X25819Y-33453D02*
X25741Y-33531D01*
X25817Y-44203D02*
X25895Y-44281D01*
X25895Y-44203D02*
X25817Y-44281D01*
X25847Y-29867D02*
X25925Y-29945D01*
X25925Y-29867D02*
X25847Y-29945D01*
X25935Y-26851D02*
X26013Y-26929D01*
X26013Y-26851D02*
X25935Y-26929D01*
X26004Y-37902D02*
X26082Y-37980D01*
X26082Y-37902D02*
X26004Y-37980D01*
X26071Y-37489D02*
X26149Y-37567D01*
X26149Y-37489D02*
X26071Y-37567D01*
X26284Y-28150D02*
X26362Y-28228D01*
X26362Y-28150D02*
X26284Y-28228D01*
X26290Y-33662D02*
X26368Y-33740D01*
X26368Y-33662D02*
X26290Y-33740D01*
X26311Y-37894D02*
X26389Y-37972D01*
X26389Y-37894D02*
X26311Y-37972D01*
X26426Y-37477D02*
X26504Y-37555D01*
X26504Y-37477D02*
X26426Y-37555D01*
X26546Y-32855D02*
X26624Y-32933D01*
X26624Y-32855D02*
X26546Y-32933D01*
X26603Y-21996D02*
X26681Y-22074D01*
X26681Y-21996D02*
X26603Y-22074D01*
X26607Y-26859D02*
X26685Y-26937D01*
X26685Y-26859D02*
X26607Y-26937D01*
X26638Y-41063D02*
X26716Y-41141D01*
X26716Y-41063D02*
X26638Y-41141D01*
X26693Y-36851D02*
X26771Y-36929D01*
X26771Y-36851D02*
X26693Y-36929D01*
X26831Y-34516D02*
X26909Y-34594D01*
X26909Y-34516D02*
X26831Y-34594D01*
X26835Y-28138D02*
X26913Y-28216D01*
X26913Y-28138D02*
X26835Y-28216D01*
X26847Y-33886D02*
X26925Y-33964D01*
X26925Y-33886D02*
X26847Y-33964D01*
X26890Y-28455D02*
X26968Y-28533D01*
X26968Y-28455D02*
X26890Y-28533D01*
X26890Y-35532D02*
X26968Y-35610D01*
X26968Y-35532D02*
X26890Y-35610D01*
X26894Y-30752D02*
X26972Y-30830D01*
X26972Y-30752D02*
X26894Y-30830D01*
X26922Y-21721D02*
X27000Y-21799D01*
X27000Y-21721D02*
X26922Y-21799D01*
X26922Y-26859D02*
X27000Y-26937D01*
X27000Y-26859D02*
X26922Y-26937D01*
X26969Y-37914D02*
X27047Y-37992D01*
X27047Y-37914D02*
X26969Y-37992D01*
X27233Y-21937D02*
X27311Y-22015D01*
X27311Y-21937D02*
X27233Y-22015D01*
X27235Y-28613D02*
X27313Y-28691D01*
X27313Y-28613D02*
X27235Y-28691D01*
X27237Y-26851D02*
X27315Y-26929D01*
X27315Y-26851D02*
X27237Y-26929D01*
X27244Y-29095D02*
X27322Y-29173D01*
X27322Y-29095D02*
X27244Y-29173D01*
X27441Y-28829D02*
X27519Y-28907D01*
X27519Y-28829D02*
X27441Y-28907D01*
X27457Y-22209D02*
X27535Y-22287D01*
X27535Y-22209D02*
X27457Y-22287D01*
X27552Y-26603D02*
X27630Y-26681D01*
X27630Y-26603D02*
X27552Y-26681D01*
X27646Y-38859D02*
X27724Y-38937D01*
X27724Y-38859D02*
X27646Y-38937D01*
X27670Y-24111D02*
X27748Y-24189D01*
X27748Y-24111D02*
X27670Y-24189D01*
X27693Y-29307D02*
X27771Y-29385D01*
X27771Y-29307D02*
X27693Y-29385D01*
X27729Y-38599D02*
X27807Y-38677D01*
X27807Y-38599D02*
X27729Y-38677D01*
X27864Y-24961D02*
X27942Y-25039D01*
X27942Y-24961D02*
X27864Y-25039D01*
X27894Y-35492D02*
X27972Y-35570D01*
X27972Y-35492D02*
X27894Y-35570D01*
X27914Y-37599D02*
X27992Y-37677D01*
X27992Y-37599D02*
X27914Y-37677D01*
X28010Y-30652D02*
X28088Y-30730D01*
X28088Y-30652D02*
X28010Y-30730D01*
X28091Y-36014D02*
X28169Y-36092D01*
X28169Y-36014D02*
X28091Y-36092D01*
X28111Y-35178D02*
X28189Y-35256D01*
X28189Y-35178D02*
X28111Y-35256D01*
X28111Y-36280D02*
X28189Y-36358D01*
X28189Y-36280D02*
X28111Y-36358D01*
X28120Y-36900D02*
X28198Y-36978D01*
X28198Y-36900D02*
X28120Y-36978D01*
X28170Y-26870D02*
X28248Y-26948D01*
X28248Y-26870D02*
X28170Y-26948D01*
X28170Y-33130D02*
X28248Y-33208D01*
X28248Y-33130D02*
X28170Y-33208D01*
X28268Y-26457D02*
X28346Y-26535D01*
X28346Y-26457D02*
X28268Y-26535D01*
X28288Y-39142D02*
X28366Y-39220D01*
X28366Y-39142D02*
X28288Y-39220D01*
X28327Y-31890D02*
X28405Y-31968D01*
X28405Y-31890D02*
X28327Y-31968D01*
X28563Y-35178D02*
X28641Y-35256D01*
X28641Y-35178D02*
X28563Y-35256D01*
X28563Y-36280D02*
X28641Y-36358D01*
X28641Y-36280D02*
X28563Y-36358D01*
X28563Y-36900D02*
X28641Y-36978D01*
X28641Y-36900D02*
X28563Y-36978D01*
X28591Y-39831D02*
X28669Y-39909D01*
X28669Y-39831D02*
X28591Y-39909D01*
X28603Y-26221D02*
X28681Y-26299D01*
X28681Y-26221D02*
X28603Y-26299D01*
X28613Y-42107D02*
X28691Y-42185D01*
X28691Y-42107D02*
X28613Y-42185D01*
X28741Y-25246D02*
X28819Y-25324D01*
X28819Y-25246D02*
X28741Y-25324D01*
X28790Y-36014D02*
X28868Y-36092D01*
X28868Y-36014D02*
X28790Y-36092D01*
X28811Y-24111D02*
X28889Y-24189D01*
X28889Y-24111D02*
X28811Y-24189D01*
X28819Y-26024D02*
X28897Y-26102D01*
X28897Y-26024D02*
X28819Y-26102D01*
X28870Y-39142D02*
X28948Y-39220D01*
X28948Y-39142D02*
X28870Y-39220D01*
X28937Y-42166D02*
X29015Y-42244D01*
X29015Y-42166D02*
X28937Y-42244D01*
X28987Y-25807D02*
X29065Y-25885D01*
X29065Y-25807D02*
X28987Y-25885D01*
X29122Y-24390D02*
X29200Y-24468D01*
X29200Y-24390D02*
X29122Y-24468D01*
X29193Y-31654D02*
X29271Y-31732D01*
X29271Y-31654D02*
X29193Y-31732D01*
X29272Y-33120D02*
X29350Y-33198D01*
X29350Y-33120D02*
X29272Y-33198D01*
X29272Y-33544D02*
X29350Y-33622D01*
X29350Y-33544D02*
X29272Y-33622D01*
X29272Y-37914D02*
X29350Y-37992D01*
X29350Y-37914D02*
X29272Y-37992D01*
X29321Y-38967D02*
X29399Y-39045D01*
X29399Y-38967D02*
X29321Y-39045D01*
X29331Y-39449D02*
X29409Y-39527D01*
X29409Y-39449D02*
X29331Y-39527D01*
X29351Y-30867D02*
X29429Y-30945D01*
X29429Y-30867D02*
X29351Y-30945D01*
X29394Y-31402D02*
X29472Y-31480D01*
X29472Y-31402D02*
X29394Y-31480D01*
X29441Y-29221D02*
X29519Y-29299D01*
X29519Y-29221D02*
X29441Y-29299D01*
X29607Y-42412D02*
X29685Y-42490D01*
X29685Y-42412D02*
X29607Y-42490D01*
X29733Y-40075D02*
X29811Y-40153D01*
X29811Y-40075D02*
X29733Y-40153D01*
X29752Y-31666D02*
X29830Y-31744D01*
X29830Y-31666D02*
X29752Y-31744D01*
X29843Y-37294D02*
X29921Y-37372D01*
X29921Y-37294D02*
X29843Y-37372D01*
X29843Y-37727D02*
X29921Y-37805D01*
X29921Y-37727D02*
X29843Y-37805D01*
X29902Y-32894D02*
X29980Y-32972D01*
X29980Y-32894D02*
X29902Y-32972D01*
X29957Y-30296D02*
X30035Y-30374D01*
X30035Y-30296D02*
X29957Y-30374D01*
X29961Y-26457D02*
X30039Y-26535D01*
X30039Y-26457D02*
X29961Y-26535D01*
X29981Y-26024D02*
X30059Y-26102D01*
X30059Y-26024D02*
X29981Y-26102D01*
X30069Y-40433D02*
X30147Y-40511D01*
X30147Y-40433D02*
X30069Y-40511D01*
X30079Y-41693D02*
X30157Y-41771D01*
X30157Y-41693D02*
X30079Y-41771D01*
X30158Y-31819D02*
X30236Y-31897D01*
X30236Y-31819D02*
X30158Y-31897D01*
X30162Y-30516D02*
X30240Y-30594D01*
X30240Y-30516D02*
X30162Y-30594D01*
X30217Y-26221D02*
X30295Y-26299D01*
X30295Y-26221D02*
X30217Y-26299D01*
X30217Y-37953D02*
X30295Y-38031D01*
X30295Y-37953D02*
X30217Y-38031D01*
X30315Y-40122D02*
X30393Y-40200D01*
X30393Y-40122D02*
X30315Y-40200D01*
X30335Y-41506D02*
X30413Y-41584D01*
X30413Y-41506D02*
X30335Y-41584D01*
X30374Y-30697D02*
X30452Y-30775D01*
X30452Y-30697D02*
X30374Y-30775D01*
X30384Y-23868D02*
X30462Y-23946D01*
X30462Y-23868D02*
X30384Y-23946D01*
X30394Y-28189D02*
X30472Y-28267D01*
X30472Y-28189D02*
X30394Y-28267D01*
X30591Y-31870D02*
X30669Y-31948D01*
X30669Y-31870D02*
X30591Y-31948D01*
X30689Y-33111D02*
X30767Y-33189D01*
X30767Y-33111D02*
X30689Y-33189D01*
X30689Y-33544D02*
X30767Y-33622D01*
X30767Y-33544D02*
X30689Y-33622D01*
X30689Y-41723D02*
X30767Y-41801D01*
X30767Y-41723D02*
X30689Y-41801D01*
X30729Y-26457D02*
X30807Y-26535D01*
X30807Y-26457D02*
X30729Y-26535D01*
X30837Y-37943D02*
X30915Y-38021D01*
X30915Y-37943D02*
X30837Y-38021D01*
X30847Y-30890D02*
X30925Y-30968D01*
X30925Y-30890D02*
X30847Y-30968D01*
X30867Y-26674D02*
X30945Y-26752D01*
X30945Y-26674D02*
X30867Y-26752D01*
X30941Y-43796D02*
X31019Y-43874D01*
X31019Y-43796D02*
X30941Y-43874D01*
X30981Y-25911D02*
X31059Y-25989D01*
X31059Y-25911D02*
X30981Y-25989D01*
X30985Y-28189D02*
X31063Y-28267D01*
X31063Y-28189D02*
X30985Y-28267D01*
X31016Y-22457D02*
X31094Y-22535D01*
X31094Y-22457D02*
X31016Y-22535D01*
X31054Y-37294D02*
X31132Y-37372D01*
X31132Y-37294D02*
X31054Y-37372D01*
X31063Y-37717D02*
X31141Y-37795D01*
X31141Y-37717D02*
X31063Y-37795D01*
X31063Y-40709D02*
X31141Y-40787D01*
X31141Y-40709D02*
X31063Y-40787D01*
X31103Y-29597D02*
X31181Y-29675D01*
X31181Y-29597D02*
X31103Y-29675D01*
X31201Y-31859D02*
X31279Y-31937D01*
X31279Y-31859D02*
X31201Y-31937D01*
X31309Y-37953D02*
X31387Y-38031D01*
X31387Y-37953D02*
X31309Y-38031D01*
X31394Y-31654D02*
X31472Y-31732D01*
X31472Y-31654D02*
X31394Y-31732D01*
X31516Y-30089D02*
X31594Y-30167D01*
X31594Y-30089D02*
X31516Y-30167D01*
X31605Y-37067D02*
X31683Y-37145D01*
X31683Y-37067D02*
X31605Y-37145D01*
X31605Y-37717D02*
X31683Y-37795D01*
X31683Y-37717D02*
X31605Y-37795D01*
X31674Y-40059D02*
X31752Y-40137D01*
X31752Y-40059D02*
X31674Y-40137D01*
X31733Y-25315D02*
X31811Y-25393D01*
X31811Y-25315D02*
X31733Y-25393D01*
X31782Y-37943D02*
X31860Y-38021D01*
X31860Y-37943D02*
X31782Y-38021D01*
X31792Y-30099D02*
X31870Y-30177D01*
X31870Y-30099D02*
X31792Y-30177D01*
X31851Y-25050D02*
X31929Y-25128D01*
X31929Y-25050D02*
X31851Y-25128D01*
X31949Y-33111D02*
X32027Y-33189D01*
X32027Y-33111D02*
X31949Y-33189D01*
X31949Y-33544D02*
X32027Y-33622D01*
X32027Y-33544D02*
X31949Y-33622D01*
X31969Y-23819D02*
X32047Y-23897D01*
X32047Y-23819D02*
X31969Y-23897D01*
X32107Y-30089D02*
X32185Y-30167D01*
X32185Y-30089D02*
X32107Y-30167D01*
X32161Y-37190D02*
X32239Y-37268D01*
X32239Y-37190D02*
X32161Y-37268D01*
X32244Y-33829D02*
X32322Y-33907D01*
X32322Y-33829D02*
X32244Y-33907D01*
X32264Y-37953D02*
X32342Y-38031D01*
X32342Y-37953D02*
X32264Y-38031D01*
X32272Y-40162D02*
X32350Y-40240D01*
X32350Y-40162D02*
X32272Y-40240D01*
X32304Y-24863D02*
X32382Y-24941D01*
X32382Y-24863D02*
X32304Y-24941D01*
X32313Y-35650D02*
X32391Y-35728D01*
X32391Y-35650D02*
X32313Y-35728D01*
X32313Y-36595D02*
X32391Y-36673D01*
X32391Y-36595D02*
X32313Y-36673D01*
X32347Y-41611D02*
X32425Y-41689D01*
X32425Y-41611D02*
X32347Y-41689D01*
X32351Y-40563D02*
X32429Y-40641D01*
X32429Y-40563D02*
X32351Y-40641D01*
X32382Y-39715D02*
X32460Y-39793D01*
X32460Y-39715D02*
X32382Y-39793D01*
X32569Y-30109D02*
X32647Y-30187D01*
X32647Y-30109D02*
X32569Y-30187D01*
X32579Y-32894D02*
X32657Y-32972D01*
X32657Y-32894D02*
X32579Y-32972D01*
X32587Y-29012D02*
X32665Y-29090D01*
X32665Y-29012D02*
X32587Y-29090D01*
X32599Y-37707D02*
X32677Y-37785D01*
X32677Y-37707D02*
X32599Y-37785D01*
X32668Y-33406D02*
X32746Y-33484D01*
X32746Y-33406D02*
X32668Y-33484D01*
X32717Y-22508D02*
X32795Y-22586D01*
X32795Y-22508D02*
X32717Y-22586D01*
X32737Y-36595D02*
X32815Y-36673D01*
X32815Y-36595D02*
X32737Y-36673D01*
X32746Y-35650D02*
X32824Y-35728D01*
X32824Y-35650D02*
X32746Y-35728D01*
X32796Y-24498D02*
X32874Y-24576D01*
X32874Y-24498D02*
X32796Y-24576D01*
X32805Y-39922D02*
X32883Y-40000D01*
X32883Y-39922D02*
X32805Y-40000D01*
X32835Y-30099D02*
X32913Y-30177D01*
X32913Y-30099D02*
X32835Y-30177D01*
X32953Y-37609D02*
X33031Y-37687D01*
X33031Y-37609D02*
X32953Y-37687D01*
X32973Y-33603D02*
X33051Y-33681D01*
X33051Y-33603D02*
X32973Y-33681D01*
X32973Y-35394D02*
X33051Y-35472D01*
X33051Y-35394D02*
X32973Y-35472D01*
X32973Y-35837D02*
X33051Y-35915D01*
X33051Y-35837D02*
X32973Y-35915D01*
X32973Y-36910D02*
X33051Y-36988D01*
X33051Y-36910D02*
X32973Y-36988D01*
X33111Y-30089D02*
X33189Y-30167D01*
X33189Y-30089D02*
X33111Y-30167D01*
X33189Y-22012D02*
X33267Y-22090D01*
X33267Y-22012D02*
X33189Y-22090D01*
X33217Y-29020D02*
X33295Y-29098D01*
X33295Y-29020D02*
X33217Y-29098D01*
X33386Y-38937D02*
X33464Y-39015D01*
X33464Y-38937D02*
X33386Y-39015D01*
X33386Y-39615D02*
X33464Y-39693D01*
X33464Y-39615D02*
X33386Y-39693D01*
X33396Y-30079D02*
X33474Y-30157D01*
X33474Y-30079D02*
X33396Y-30157D01*
X33536Y-29016D02*
X33614Y-29094D01*
X33614Y-29016D02*
X33536Y-29094D01*
X33729Y-38922D02*
X33807Y-39000D01*
X33807Y-38922D02*
X33729Y-39000D01*
X33859Y-23780D02*
X33937Y-23858D01*
X33937Y-23780D02*
X33859Y-23858D01*
X34024Y-38945D02*
X34102Y-39023D01*
X34102Y-38945D02*
X34024Y-39023D01*
X34144Y-44410D02*
X34222Y-44488D01*
X34222Y-44410D02*
X34144Y-44488D01*
X34163Y-28985D02*
X34241Y-29063D01*
X34241Y-28985D02*
X34163Y-29063D01*
X34166Y-38028D02*
X34244Y-38106D01*
X34244Y-38028D02*
X34166Y-38106D01*
X34343Y-29445D02*
X34421Y-29523D01*
X34421Y-29445D02*
X34343Y-29523D01*
X34394Y-39737D02*
X34472Y-39815D01*
X34472Y-39737D02*
X34394Y-39815D01*
X34394Y-43241D02*
X34472Y-43319D01*
X34472Y-43241D02*
X34394Y-43319D01*
X34607Y-38701D02*
X34685Y-38779D01*
X34685Y-38701D02*
X34607Y-38779D01*
X34634Y-40012D02*
X34712Y-40090D01*
X34712Y-40012D02*
X34634Y-40090D01*
X34634Y-41118D02*
X34712Y-41196D01*
X34712Y-41118D02*
X34634Y-41196D01*
X34898Y-27492D02*
X34976Y-27570D01*
X34976Y-27492D02*
X34898Y-27570D01*
X35008Y-32685D02*
X35086Y-32763D01*
X35086Y-32685D02*
X35008Y-32763D01*
X35079Y-41870D02*
X35157Y-41948D01*
X35157Y-41870D02*
X35079Y-41948D01*
X35118Y-34504D02*
X35196Y-34582D01*
X35196Y-34504D02*
X35118Y-34582D01*
X35168Y-36752D02*
X35246Y-36830D01*
X35246Y-36752D02*
X35168Y-36830D01*
X35300Y-34126D02*
X35378Y-34204D01*
X35378Y-34126D02*
X35300Y-34204D01*
X35424Y-34636D02*
X35502Y-34714D01*
X35502Y-34636D02*
X35424Y-34714D01*
X35571Y-34863D02*
X35649Y-34941D01*
X35649Y-34863D02*
X35571Y-34941D01*
X35583Y-31764D02*
X35661Y-31842D01*
X35661Y-31764D02*
X35583Y-31842D01*
X35603Y-33930D02*
X35681Y-34008D01*
X35681Y-33930D02*
X35603Y-34008D01*
X35603Y-38248D02*
X35681Y-38326D01*
X35681Y-38248D02*
X35603Y-38326D01*
X35607Y-33103D02*
X35685Y-33181D01*
X35685Y-33103D02*
X35607Y-33181D01*
X35607Y-34217D02*
X35685Y-34295D01*
X35685Y-34217D02*
X35607Y-34295D01*
X35607Y-37831D02*
X35685Y-37909D01*
X35685Y-37831D02*
X35607Y-37909D01*
X35701Y-22134D02*
X35779Y-22212D01*
X35779Y-22134D02*
X35701Y-22212D01*
X35758Y-36752D02*
X35836Y-36830D01*
X35836Y-36752D02*
X35758Y-36830D01*
X36467Y-36654D02*
X36545Y-36732D01*
X36545Y-36654D02*
X36467Y-36732D01*
X36634Y-34872D02*
X36712Y-34950D01*
X36712Y-34872D02*
X36634Y-34950D01*
X36664Y-35739D02*
X36742Y-35817D01*
X36742Y-35739D02*
X36664Y-35817D01*
X36742Y-34636D02*
X36820Y-34714D01*
X36820Y-34636D02*
X36742Y-34714D01*
X36878Y-30209D02*
X36956Y-30287D01*
X36956Y-30209D02*
X36878Y-30287D01*
X36882Y-30496D02*
X36960Y-30574D01*
X36960Y-30496D02*
X36882Y-30574D01*
X37083Y-30701D02*
X37161Y-30779D01*
X37161Y-30701D02*
X37083Y-30779D01*
X37146Y-33374D02*
X37224Y-33452D01*
X37224Y-33374D02*
X37146Y-33452D01*
X37197Y-31217D02*
X37275Y-31295D01*
X37275Y-31217D02*
X37197Y-31295D01*
X37225Y-34571D02*
X37303Y-34649D01*
X37303Y-34571D02*
X37225Y-34649D01*
X37280Y-34315D02*
X37358Y-34393D01*
X37358Y-34315D02*
X37280Y-34393D01*
X37410Y-29926D02*
X37488Y-30004D01*
X37488Y-29926D02*
X37410Y-30004D01*
X37559Y-29646D02*
X37637Y-29724D01*
X37637Y-29646D02*
X37559Y-29724D01*
X37697Y-29906D02*
X37775Y-29984D01*
X37775Y-29906D02*
X37697Y-29984D01*
X37697Y-43229D02*
X37775Y-43307D01*
X37775Y-43229D02*
X37697Y-43307D01*
X37930Y-29583D02*
X38008Y-29661D01*
X38008Y-29583D02*
X37930Y-29661D01*
X38002Y-43229D02*
X38080Y-43307D01*
X38080Y-43229D02*
X38002Y-43307D01*
X38396Y-42943D02*
X38474Y-43021D01*
X38474Y-42943D02*
X38396Y-43021D01*
X38416Y-41496D02*
X38494Y-41574D01*
X38494Y-41496D02*
X38416Y-41574D01*
X38554Y-38731D02*
X38632Y-38809D01*
X38632Y-38731D02*
X38554Y-38809D01*
X38711Y-33406D02*
X38789Y-33484D01*
X38789Y-33406D02*
X38711Y-33484D01*
X38977Y-42943D02*
X39055Y-43021D01*
X39055Y-42943D02*
X38977Y-43021D01*
X39272Y-43711D02*
X39350Y-43789D01*
X39350Y-43711D02*
X39272Y-43789D01*
X39378Y-27646D02*
X39456Y-27724D01*
X39456Y-27646D02*
X39378Y-27724D01*
X39400Y-39587D02*
X39478Y-39665D01*
X39478Y-39587D02*
X39400Y-39665D01*
X40315Y-43967D02*
X40393Y-44045D01*
X40393Y-43967D02*
X40315Y-44045D01*
X40463Y-29370D02*
X40541Y-29448D01*
X40541Y-29370D02*
X40463Y-29448D01*
X40473Y-38111D02*
X40551Y-38189D01*
X40551Y-38111D02*
X40473Y-38189D01*
X40532Y-21654D02*
X40610Y-21732D01*
X40610Y-21654D02*
X40532Y-21732D01*
X40601Y-22835D02*
X40679Y-22913D01*
X40679Y-22835D02*
X40601Y-22913D01*
X40660Y-24213D02*
X40738Y-24291D01*
X40738Y-24213D02*
X40660Y-24291D01*
X40660Y-24607D02*
X40738Y-24685D01*
X40738Y-24607D02*
X40660Y-24685D01*
X40798Y-39193D02*
X40876Y-39271D01*
X40876Y-39193D02*
X40798Y-39271D01*
X41044Y-42727D02*
X41122Y-42805D01*
X41122Y-42727D02*
X41044Y-42805D01*
X41197Y-44481D02*
X41275Y-44559D01*
X41275Y-44481D02*
X41197Y-44559D01*
X41221Y-43473D02*
X41299Y-43551D01*
X41299Y-43473D02*
X41221Y-43551D01*
X41485Y-44485D02*
X41563Y-44563D01*
X41563Y-44485D02*
X41485Y-44563D01*
X41489Y-43670D02*
X41567Y-43748D01*
X41567Y-43670D02*
X41489Y-43748D01*
X42491Y-43150D02*
X42569Y-43228D01*
X42569Y-43150D02*
X42491Y-43228D01*
X42491Y-43908D02*
X42569Y-43986D01*
X42569Y-43908D02*
X42491Y-43986D01*
X23259Y-40441D02*
X23257Y-40456D01*
X23253Y-40470D01*
X23245Y-40484D01*
X23236Y-40495D01*
X23224Y-40505D01*
X23211Y-40512D01*
X23196Y-40517D01*
X23181Y-40518D01*
X23167Y-40517D01*
X23152Y-40513D01*
X23139Y-40506D01*
X23127Y-40496D01*
X23117Y-40485D01*
X23110Y-40471D01*
X23105Y-40457D01*
X23104Y-40442D01*
X23105Y-40427D01*
X23109Y-40413D01*
X23116Y-40399D01*
X23125Y-40387D01*
X23137Y-40377D01*
X23150Y-40370D01*
X23165Y-40365D01*
X23180Y-40364D01*
X23194Y-40365D01*
X23209Y-40369D01*
X23222Y-40376D01*
X23234Y-40385D01*
X23244Y-40397D01*
X23252Y-40410D01*
X23257Y-40424D01*
X23258Y-40439D01*
X23259Y-40441D01*
X23877Y-41106D02*
X23875Y-41121D01*
X23871Y-41135D01*
X23863Y-41149D01*
X23854Y-41160D01*
X23842Y-41170D01*
X23829Y-41177D01*
X23814Y-41182D01*
X23799Y-41183D01*
X23785Y-41182D01*
X23770Y-41178D01*
X23757Y-41171D01*
X23745Y-41161D01*
X23735Y-41150D01*
X23728Y-41136D01*
X23723Y-41122D01*
X23722Y-41107D01*
X23723Y-41092D01*
X23727Y-41078D01*
X23734Y-41064D01*
X23743Y-41052D01*
X23755Y-41042D01*
X23768Y-41035D01*
X23783Y-41030D01*
X23798Y-41029D01*
X23812Y-41030D01*
X23827Y-41034D01*
X23840Y-41041D01*
X23852Y-41050D01*
X23862Y-41062D01*
X23870Y-41075D01*
X23875Y-41089D01*
X23876Y-41104D01*
X23877Y-41106D01*
X24090Y-40476D02*
X24088Y-40491D01*
X24084Y-40505D01*
X24076Y-40519D01*
X24067Y-40530D01*
X24055Y-40540D01*
X24042Y-40547D01*
X24027Y-40552D01*
X24012Y-40553D01*
X23998Y-40552D01*
X23983Y-40548D01*
X23970Y-40541D01*
X23958Y-40531D01*
X23948Y-40520D01*
X23941Y-40506D01*
X23936Y-40492D01*
X23935Y-40477D01*
X23936Y-40462D01*
X23940Y-40448D01*
X23947Y-40434D01*
X23956Y-40422D01*
X23968Y-40412D01*
X23981Y-40405D01*
X23996Y-40400D01*
X24011Y-40399D01*
X24025Y-40400D01*
X24040Y-40404D01*
X24053Y-40411D01*
X24065Y-40420D01*
X24075Y-40432D01*
X24083Y-40445D01*
X24088Y-40459D01*
X24089Y-40474D01*
X24090Y-40476D01*
X20571Y-36585D02*
X20571Y-36781D01*
X20669Y-36683D02*
X20473Y-36683D01*
X21270Y-40246D02*
X21270Y-40442D01*
X21368Y-40344D02*
X21172Y-40344D01*
X21427Y-45168D02*
X21427Y-45364D01*
X21525Y-45266D02*
X21329Y-45266D01*
X22037Y-37284D02*
X22037Y-37480D01*
X22135Y-37382D02*
X21939Y-37382D01*
X22685Y-35937D02*
X22685Y-36133D01*
X22783Y-36035D02*
X22587Y-36035D01*
X23189Y-39695D02*
X23189Y-39891D01*
X23287Y-39793D02*
X23091Y-39793D01*
X23327Y-43691D02*
X23327Y-43887D01*
X23425Y-43789D02*
X23229Y-43789D01*
X24478Y-39725D02*
X24478Y-39921D01*
X24576Y-39823D02*
X24380Y-39823D01*
X24547Y-43750D02*
X24547Y-43946D01*
X24645Y-43848D02*
X24449Y-43848D01*
X24787Y-39130D02*
X24787Y-39326D01*
X24885Y-39228D02*
X24689Y-39228D01*
X25063Y-39658D02*
X25063Y-39854D01*
X25161Y-39756D02*
X24965Y-39756D01*
X27004Y-38245D02*
X27004Y-38441D01*
X27102Y-38343D02*
X26906Y-38343D01*
X29724Y-36073D02*
X29724Y-36269D01*
X29822Y-36171D02*
X29626Y-36171D01*
X29754Y-34636D02*
X29754Y-34832D01*
X29852Y-34734D02*
X29656Y-34734D01*
X30522Y-35384D02*
X30522Y-35580D01*
X30620Y-35482D02*
X30424Y-35482D01*
X31172Y-36034D02*
X31172Y-36230D01*
X31270Y-36132D02*
X31074Y-36132D01*
X31201Y-34646D02*
X31201Y-34842D01*
X31299Y-34744D02*
X31103Y-34744D01*
X31496Y-39075D02*
X31496Y-39271D01*
X31594Y-39173D02*
X31398Y-39173D01*
X34941Y-23101D02*
X34941Y-23297D01*
X35039Y-23199D02*
X34843Y-23199D01*
X35177Y-23682D02*
X35177Y-23878D01*
X35275Y-23780D02*
X35079Y-23780D01*
X35394Y-26319D02*
X35394Y-26515D01*
X35492Y-26417D02*
X35296Y-26417D01*
X38406Y-30266D02*
X38403Y-30296D01*
X38394Y-30325D01*
X38379Y-30352D01*
X38360Y-30376D01*
X38336Y-30396D01*
X38309Y-30410D01*
X38280Y-30419D01*
X38250Y-30422D01*
X38220Y-30420D01*
X38191Y-30411D01*
X38164Y-30397D01*
X38140Y-30378D01*
X38120Y-30354D01*
X38105Y-30327D01*
X38096Y-30298D01*
X38093Y-30268D01*
X38095Y-30238D01*
X38104Y-30209D01*
X38118Y-30181D01*
X38137Y-30157D01*
X38160Y-30138D01*
X38187Y-30123D01*
X38216Y-30113D01*
X38246Y-30110D01*
X38276Y-30112D01*
X38305Y-30120D01*
X38333Y-30134D01*
X38357Y-30153D01*
X38377Y-30176D01*
X38392Y-30203D01*
X38402Y-30232D01*
X38405Y-30262D01*
X38406Y-30266D01*
X38092Y-30109D02*
X38406Y-30423D01*
X38406Y-30109D02*
X38092Y-30423D01*
X38406Y-31054D02*
X38403Y-31084D01*
X38394Y-31113D01*
X38379Y-31140D01*
X38360Y-31164D01*
X38336Y-31184D01*
X38309Y-31198D01*
X38280Y-31207D01*
X38250Y-31210D01*
X38220Y-31208D01*
X38191Y-31199D01*
X38164Y-31185D01*
X38140Y-31166D01*
X38120Y-31142D01*
X38105Y-31115D01*
X38096Y-31086D01*
X38093Y-31056D01*
X38095Y-31026D01*
X38104Y-30997D01*
X38118Y-30969D01*
X38137Y-30945D01*
X38160Y-30926D01*
X38187Y-30911D01*
X38216Y-30901D01*
X38246Y-30898D01*
X38276Y-30900D01*
X38305Y-30908D01*
X38333Y-30922D01*
X38357Y-30941D01*
X38377Y-30964D01*
X38392Y-30991D01*
X38402Y-31020D01*
X38405Y-31050D01*
X38406Y-31054D01*
X38092Y-30897D02*
X38406Y-31211D01*
X38406Y-30897D02*
X38092Y-31211D01*
X38406Y-31841D02*
X38403Y-31871D01*
X38394Y-31900D01*
X38379Y-31927D01*
X38360Y-31951D01*
X38336Y-31971D01*
X38309Y-31985D01*
X38280Y-31994D01*
X38250Y-31997D01*
X38220Y-31995D01*
X38191Y-31986D01*
X38164Y-31972D01*
X38140Y-31953D01*
X38120Y-31929D01*
X38105Y-31902D01*
X38096Y-31873D01*
X38093Y-31843D01*
X38095Y-31813D01*
X38104Y-31784D01*
X38118Y-31756D01*
X38137Y-31732D01*
X38160Y-31713D01*
X38187Y-31698D01*
X38216Y-31688D01*
X38246Y-31685D01*
X38276Y-31687D01*
X38305Y-31695D01*
X38333Y-31709D01*
X38357Y-31728D01*
X38377Y-31751D01*
X38392Y-31778D01*
X38402Y-31807D01*
X38405Y-31837D01*
X38406Y-31841D01*
X38092Y-31684D02*
X38406Y-31998D01*
X38406Y-31684D02*
X38092Y-31998D01*
X38406Y-32629D02*
X38403Y-32659D01*
X38394Y-32688D01*
X38379Y-32715D01*
X38360Y-32739D01*
X38336Y-32759D01*
X38309Y-32773D01*
X38280Y-32782D01*
X38250Y-32785D01*
X38220Y-32783D01*
X38191Y-32774D01*
X38164Y-32760D01*
X38140Y-32741D01*
X38120Y-32717D01*
X38105Y-32690D01*
X38096Y-32661D01*
X38093Y-32631D01*
X38095Y-32601D01*
X38104Y-32572D01*
X38118Y-32544D01*
X38137Y-32520D01*
X38160Y-32501D01*
X38187Y-32486D01*
X38216Y-32476D01*
X38246Y-32473D01*
X38276Y-32475D01*
X38305Y-32483D01*
X38333Y-32497D01*
X38357Y-32516D01*
X38377Y-32539D01*
X38392Y-32566D01*
X38402Y-32595D01*
X38405Y-32625D01*
X38406Y-32629D01*
X38092Y-32472D02*
X38406Y-32786D01*
X38406Y-32472D02*
X38092Y-32786D01*
X38406Y-33416D02*
X38403Y-33446D01*
X38394Y-33475D01*
X38379Y-33502D01*
X38360Y-33526D01*
X38336Y-33546D01*
X38309Y-33560D01*
X38280Y-33569D01*
X38250Y-33572D01*
X38220Y-33570D01*
X38191Y-33561D01*
X38164Y-33547D01*
X38140Y-33528D01*
X38120Y-33504D01*
X38105Y-33477D01*
X38096Y-33448D01*
X38093Y-33418D01*
X38095Y-33388D01*
X38104Y-33359D01*
X38118Y-33331D01*
X38137Y-33307D01*
X38160Y-33288D01*
X38187Y-33273D01*
X38216Y-33263D01*
X38246Y-33260D01*
X38276Y-33262D01*
X38305Y-33270D01*
X38333Y-33284D01*
X38357Y-33303D01*
X38377Y-33326D01*
X38392Y-33353D01*
X38402Y-33382D01*
X38405Y-33412D01*
X38406Y-33416D01*
X38092Y-33259D02*
X38406Y-33573D01*
X38406Y-33259D02*
X38092Y-33573D01*
X38406Y-34991D02*
X38403Y-35021D01*
X38394Y-35050D01*
X38379Y-35077D01*
X38360Y-35101D01*
X38336Y-35121D01*
X38309Y-35135D01*
X38280Y-35144D01*
X38250Y-35147D01*
X38220Y-35145D01*
X38191Y-35136D01*
X38164Y-35122D01*
X38140Y-35103D01*
X38120Y-35079D01*
X38105Y-35052D01*
X38096Y-35023D01*
X38093Y-34993D01*
X38095Y-34963D01*
X38104Y-34934D01*
X38118Y-34906D01*
X38137Y-34882D01*
X38160Y-34863D01*
X38187Y-34848D01*
X38216Y-34838D01*
X38246Y-34835D01*
X38276Y-34837D01*
X38305Y-34845D01*
X38333Y-34859D01*
X38357Y-34878D01*
X38377Y-34901D01*
X38392Y-34928D01*
X38402Y-34957D01*
X38405Y-34987D01*
X38406Y-34991D01*
X38092Y-34834D02*
X38406Y-35148D01*
X38406Y-34834D02*
X38092Y-35148D01*
X38406Y-35778D02*
X38403Y-35808D01*
X38394Y-35837D01*
X38379Y-35864D01*
X38360Y-35888D01*
X38336Y-35908D01*
X38309Y-35922D01*
X38280Y-35931D01*
X38250Y-35934D01*
X38220Y-35932D01*
X38191Y-35923D01*
X38164Y-35909D01*
X38140Y-35890D01*
X38120Y-35866D01*
X38105Y-35839D01*
X38096Y-35810D01*
X38093Y-35780D01*
X38095Y-35750D01*
X38104Y-35721D01*
X38118Y-35693D01*
X38137Y-35669D01*
X38160Y-35650D01*
X38187Y-35635D01*
X38216Y-35625D01*
X38246Y-35622D01*
X38276Y-35624D01*
X38305Y-35632D01*
X38333Y-35646D01*
X38357Y-35665D01*
X38377Y-35688D01*
X38392Y-35715D01*
X38402Y-35744D01*
X38405Y-35774D01*
X38406Y-35778D01*
X38092Y-35621D02*
X38406Y-35935D01*
X38406Y-35621D02*
X38092Y-35935D01*
X38406Y-36566D02*
X38403Y-36596D01*
X38394Y-36625D01*
X38379Y-36652D01*
X38360Y-36676D01*
X38336Y-36696D01*
X38309Y-36710D01*
X38280Y-36719D01*
X38250Y-36722D01*
X38220Y-36720D01*
X38191Y-36711D01*
X38164Y-36697D01*
X38140Y-36678D01*
X38120Y-36654D01*
X38105Y-36627D01*
X38096Y-36598D01*
X38093Y-36568D01*
X38095Y-36538D01*
X38104Y-36509D01*
X38118Y-36481D01*
X38137Y-36457D01*
X38160Y-36438D01*
X38187Y-36423D01*
X38216Y-36413D01*
X38246Y-36410D01*
X38276Y-36412D01*
X38305Y-36420D01*
X38333Y-36434D01*
X38357Y-36453D01*
X38377Y-36476D01*
X38392Y-36503D01*
X38402Y-36532D01*
X38405Y-36562D01*
X38406Y-36566D01*
X38092Y-36409D02*
X38406Y-36723D01*
X38406Y-36409D02*
X38092Y-36723D01*
X38406Y-37353D02*
X38403Y-37383D01*
X38394Y-37412D01*
X38379Y-37439D01*
X38360Y-37463D01*
X38336Y-37483D01*
X38309Y-37497D01*
X38280Y-37506D01*
X38250Y-37509D01*
X38220Y-37507D01*
X38191Y-37498D01*
X38164Y-37484D01*
X38140Y-37465D01*
X38120Y-37441D01*
X38105Y-37414D01*
X38096Y-37385D01*
X38093Y-37355D01*
X38095Y-37325D01*
X38104Y-37296D01*
X38118Y-37268D01*
X38137Y-37244D01*
X38160Y-37225D01*
X38187Y-37210D01*
X38216Y-37200D01*
X38246Y-37197D01*
X38276Y-37199D01*
X38305Y-37207D01*
X38333Y-37221D01*
X38357Y-37240D01*
X38377Y-37263D01*
X38392Y-37290D01*
X38402Y-37319D01*
X38405Y-37349D01*
X38406Y-37353D01*
X38092Y-37196D02*
X38406Y-37510D01*
X38406Y-37196D02*
X38092Y-37510D01*
X39193Y-29873D02*
X39190Y-29903D01*
X39181Y-29932D01*
X39166Y-29959D01*
X39147Y-29983D01*
X39123Y-30003D01*
X39096Y-30017D01*
X39067Y-30026D01*
X39037Y-30029D01*
X39007Y-30027D01*
X38978Y-30018D01*
X38951Y-30004D01*
X38927Y-29985D01*
X38907Y-29961D01*
X38892Y-29934D01*
X38883Y-29905D01*
X38880Y-29875D01*
X38882Y-29845D01*
X38891Y-29816D01*
X38905Y-29788D01*
X38924Y-29764D01*
X38947Y-29745D01*
X38974Y-29730D01*
X39003Y-29720D01*
X39033Y-29717D01*
X39063Y-29719D01*
X39092Y-29727D01*
X39120Y-29741D01*
X39144Y-29760D01*
X39164Y-29783D01*
X39179Y-29810D01*
X39189Y-29839D01*
X39192Y-29869D01*
X39193Y-29873D01*
X38879Y-29716D02*
X39193Y-30030D01*
X39193Y-29716D02*
X38879Y-30030D01*
X39193Y-30660D02*
X39190Y-30690D01*
X39181Y-30719D01*
X39166Y-30746D01*
X39147Y-30770D01*
X39123Y-30790D01*
X39096Y-30804D01*
X39067Y-30813D01*
X39037Y-30816D01*
X39007Y-30814D01*
X38978Y-30805D01*
X38951Y-30791D01*
X38927Y-30772D01*
X38907Y-30748D01*
X38892Y-30721D01*
X38883Y-30692D01*
X38880Y-30662D01*
X38882Y-30632D01*
X38891Y-30603D01*
X38905Y-30575D01*
X38924Y-30551D01*
X38947Y-30532D01*
X38974Y-30517D01*
X39003Y-30507D01*
X39033Y-30504D01*
X39063Y-30506D01*
X39092Y-30514D01*
X39120Y-30528D01*
X39144Y-30547D01*
X39164Y-30570D01*
X39179Y-30597D01*
X39189Y-30626D01*
X39192Y-30656D01*
X39193Y-30660D01*
X38879Y-30503D02*
X39193Y-30817D01*
X39193Y-30503D02*
X38879Y-30817D01*
X39193Y-31447D02*
X39190Y-31477D01*
X39181Y-31506D01*
X39166Y-31533D01*
X39147Y-31557D01*
X39123Y-31577D01*
X39096Y-31591D01*
X39067Y-31600D01*
X39037Y-31603D01*
X39007Y-31601D01*
X38978Y-31592D01*
X38951Y-31578D01*
X38927Y-31559D01*
X38907Y-31535D01*
X38892Y-31508D01*
X38883Y-31479D01*
X38880Y-31449D01*
X38882Y-31419D01*
X38891Y-31390D01*
X38905Y-31362D01*
X38924Y-31338D01*
X38947Y-31319D01*
X38974Y-31304D01*
X39003Y-31294D01*
X39033Y-31291D01*
X39063Y-31293D01*
X39092Y-31301D01*
X39120Y-31315D01*
X39144Y-31334D01*
X39164Y-31357D01*
X39179Y-31384D01*
X39189Y-31413D01*
X39192Y-31443D01*
X39193Y-31447D01*
X38879Y-31290D02*
X39193Y-31604D01*
X39193Y-31290D02*
X38879Y-31604D01*
X39193Y-32235D02*
X39190Y-32265D01*
X39181Y-32294D01*
X39166Y-32321D01*
X39147Y-32345D01*
X39123Y-32365D01*
X39096Y-32379D01*
X39067Y-32388D01*
X39037Y-32391D01*
X39007Y-32389D01*
X38978Y-32380D01*
X38951Y-32366D01*
X38927Y-32347D01*
X38907Y-32323D01*
X38892Y-32296D01*
X38883Y-32267D01*
X38880Y-32237D01*
X38882Y-32207D01*
X38891Y-32178D01*
X38905Y-32150D01*
X38924Y-32126D01*
X38947Y-32107D01*
X38974Y-32092D01*
X39003Y-32082D01*
X39033Y-32079D01*
X39063Y-32081D01*
X39092Y-32089D01*
X39120Y-32103D01*
X39144Y-32122D01*
X39164Y-32145D01*
X39179Y-32172D01*
X39189Y-32201D01*
X39192Y-32231D01*
X39193Y-32235D01*
X38879Y-32078D02*
X39193Y-32392D01*
X39193Y-32078D02*
X38879Y-32392D01*
X39193Y-33022D02*
X39190Y-33052D01*
X39181Y-33081D01*
X39166Y-33108D01*
X39147Y-33132D01*
X39123Y-33152D01*
X39096Y-33166D01*
X39067Y-33175D01*
X39037Y-33178D01*
X39007Y-33176D01*
X38978Y-33167D01*
X38951Y-33153D01*
X38927Y-33134D01*
X38907Y-33110D01*
X38892Y-33083D01*
X38883Y-33054D01*
X38880Y-33024D01*
X38882Y-32994D01*
X38891Y-32965D01*
X38905Y-32937D01*
X38924Y-32913D01*
X38947Y-32894D01*
X38974Y-32879D01*
X39003Y-32869D01*
X39033Y-32866D01*
X39063Y-32868D01*
X39092Y-32876D01*
X39120Y-32890D01*
X39144Y-32909D01*
X39164Y-32932D01*
X39179Y-32959D01*
X39189Y-32988D01*
X39192Y-33018D01*
X39193Y-33022D01*
X38879Y-32865D02*
X39193Y-33179D01*
X39193Y-32865D02*
X38879Y-33179D01*
X39193Y-33810D02*
X39190Y-33840D01*
X39181Y-33869D01*
X39166Y-33896D01*
X39147Y-33920D01*
X39123Y-33940D01*
X39096Y-33954D01*
X39067Y-33963D01*
X39037Y-33966D01*
X39007Y-33964D01*
X38978Y-33955D01*
X38951Y-33941D01*
X38927Y-33922D01*
X38907Y-33898D01*
X38892Y-33871D01*
X38883Y-33842D01*
X38880Y-33812D01*
X38882Y-33782D01*
X38891Y-33753D01*
X38905Y-33725D01*
X38924Y-33701D01*
X38947Y-33682D01*
X38974Y-33667D01*
X39003Y-33657D01*
X39033Y-33654D01*
X39063Y-33656D01*
X39092Y-33664D01*
X39120Y-33678D01*
X39144Y-33697D01*
X39164Y-33720D01*
X39179Y-33747D01*
X39189Y-33776D01*
X39192Y-33806D01*
X39193Y-33810D01*
X38879Y-33653D02*
X39193Y-33967D01*
X39193Y-33653D02*
X38879Y-33967D01*
X39193Y-35385D02*
X39190Y-35415D01*
X39181Y-35444D01*
X39166Y-35471D01*
X39147Y-35495D01*
X39123Y-35515D01*
X39096Y-35529D01*
X39067Y-35538D01*
X39037Y-35541D01*
X39007Y-35539D01*
X38978Y-35530D01*
X38951Y-35516D01*
X38927Y-35497D01*
X38907Y-35473D01*
X38892Y-35446D01*
X38883Y-35417D01*
X38880Y-35387D01*
X38882Y-35357D01*
X38891Y-35328D01*
X38905Y-35300D01*
X38924Y-35276D01*
X38947Y-35257D01*
X38974Y-35242D01*
X39003Y-35232D01*
X39033Y-35229D01*
X39063Y-35231D01*
X39092Y-35239D01*
X39120Y-35253D01*
X39144Y-35272D01*
X39164Y-35295D01*
X39179Y-35322D01*
X39189Y-35351D01*
X39192Y-35381D01*
X39193Y-35385D01*
X38879Y-35228D02*
X39193Y-35542D01*
X39193Y-35228D02*
X38879Y-35542D01*
X39193Y-36172D02*
X39190Y-36202D01*
X39181Y-36231D01*
X39166Y-36258D01*
X39147Y-36282D01*
X39123Y-36302D01*
X39096Y-36316D01*
X39067Y-36325D01*
X39037Y-36328D01*
X39007Y-36326D01*
X38978Y-36317D01*
X38951Y-36303D01*
X38927Y-36284D01*
X38907Y-36260D01*
X38892Y-36233D01*
X38883Y-36204D01*
X38880Y-36174D01*
X38882Y-36144D01*
X38891Y-36115D01*
X38905Y-36087D01*
X38924Y-36063D01*
X38947Y-36044D01*
X38974Y-36029D01*
X39003Y-36019D01*
X39033Y-36016D01*
X39063Y-36018D01*
X39092Y-36026D01*
X39120Y-36040D01*
X39144Y-36059D01*
X39164Y-36082D01*
X39179Y-36109D01*
X39189Y-36138D01*
X39192Y-36168D01*
X39193Y-36172D01*
X38879Y-36015D02*
X39193Y-36329D01*
X39193Y-36015D02*
X38879Y-36329D01*
X39193Y-36959D02*
X39190Y-36989D01*
X39181Y-37018D01*
X39166Y-37045D01*
X39147Y-37069D01*
X39123Y-37089D01*
X39096Y-37103D01*
X39067Y-37112D01*
X39037Y-37115D01*
X39007Y-37113D01*
X38978Y-37104D01*
X38951Y-37090D01*
X38927Y-37071D01*
X38907Y-37047D01*
X38892Y-37020D01*
X38883Y-36991D01*
X38880Y-36961D01*
X38882Y-36931D01*
X38891Y-36902D01*
X38905Y-36874D01*
X38924Y-36850D01*
X38947Y-36831D01*
X38974Y-36816D01*
X39003Y-36806D01*
X39033Y-36803D01*
X39063Y-36805D01*
X39092Y-36813D01*
X39120Y-36827D01*
X39144Y-36846D01*
X39164Y-36869D01*
X39179Y-36896D01*
X39189Y-36925D01*
X39192Y-36955D01*
X39193Y-36959D01*
X38879Y-36802D02*
X39193Y-37116D01*
X39193Y-36802D02*
X38879Y-37116D01*
X40177Y-29872D02*
X40174Y-29902D01*
X40165Y-29931D01*
X40150Y-29958D01*
X40131Y-29982D01*
X40107Y-30002D01*
X40080Y-30016D01*
X40051Y-30025D01*
X40021Y-30028D01*
X39991Y-30026D01*
X39962Y-30017D01*
X39935Y-30003D01*
X39911Y-29984D01*
X39891Y-29960D01*
X39876Y-29933D01*
X39867Y-29904D01*
X39864Y-29874D01*
X39866Y-29844D01*
X39875Y-29815D01*
X39889Y-29787D01*
X39908Y-29763D01*
X39931Y-29744D01*
X39958Y-29729D01*
X39987Y-29719D01*
X40017Y-29716D01*
X40047Y-29718D01*
X40076Y-29726D01*
X40104Y-29740D01*
X40128Y-29759D01*
X40148Y-29782D01*
X40163Y-29809D01*
X40173Y-29838D01*
X40176Y-29868D01*
X40177Y-29872D01*
X39863Y-29715D02*
X40177Y-30029D01*
X40177Y-29715D02*
X39863Y-30029D01*
X40177Y-30660D02*
X40174Y-30690D01*
X40165Y-30719D01*
X40150Y-30746D01*
X40131Y-30770D01*
X40107Y-30790D01*
X40080Y-30804D01*
X40051Y-30813D01*
X40021Y-30816D01*
X39991Y-30814D01*
X39962Y-30805D01*
X39935Y-30791D01*
X39911Y-30772D01*
X39891Y-30748D01*
X39876Y-30721D01*
X39867Y-30692D01*
X39864Y-30662D01*
X39866Y-30632D01*
X39875Y-30603D01*
X39889Y-30575D01*
X39908Y-30551D01*
X39931Y-30532D01*
X39958Y-30517D01*
X39987Y-30507D01*
X40017Y-30504D01*
X40047Y-30506D01*
X40076Y-30514D01*
X40104Y-30528D01*
X40128Y-30547D01*
X40148Y-30570D01*
X40163Y-30597D01*
X40173Y-30626D01*
X40176Y-30656D01*
X40177Y-30660D01*
X39863Y-30503D02*
X40177Y-30817D01*
X40177Y-30503D02*
X39863Y-30817D01*
X40177Y-31447D02*
X40174Y-31477D01*
X40165Y-31506D01*
X40150Y-31533D01*
X40131Y-31557D01*
X40107Y-31577D01*
X40080Y-31591D01*
X40051Y-31600D01*
X40021Y-31603D01*
X39991Y-31601D01*
X39962Y-31592D01*
X39935Y-31578D01*
X39911Y-31559D01*
X39891Y-31535D01*
X39876Y-31508D01*
X39867Y-31479D01*
X39864Y-31449D01*
X39866Y-31419D01*
X39875Y-31390D01*
X39889Y-31362D01*
X39908Y-31338D01*
X39931Y-31319D01*
X39958Y-31304D01*
X39987Y-31294D01*
X40017Y-31291D01*
X40047Y-31293D01*
X40076Y-31301D01*
X40104Y-31315D01*
X40128Y-31334D01*
X40148Y-31357D01*
X40163Y-31384D01*
X40173Y-31413D01*
X40176Y-31443D01*
X40177Y-31447D01*
X39863Y-31290D02*
X40177Y-31604D01*
X40177Y-31290D02*
X39863Y-31604D01*
X40177Y-32235D02*
X40174Y-32265D01*
X40165Y-32294D01*
X40150Y-32321D01*
X40131Y-32345D01*
X40107Y-32365D01*
X40080Y-32379D01*
X40051Y-32388D01*
X40021Y-32391D01*
X39991Y-32389D01*
X39962Y-32380D01*
X39935Y-32366D01*
X39911Y-32347D01*
X39891Y-32323D01*
X39876Y-32296D01*
X39867Y-32267D01*
X39864Y-32237D01*
X39866Y-32207D01*
X39875Y-32178D01*
X39889Y-32150D01*
X39908Y-32126D01*
X39931Y-32107D01*
X39958Y-32092D01*
X39987Y-32082D01*
X40017Y-32079D01*
X40047Y-32081D01*
X40076Y-32089D01*
X40104Y-32103D01*
X40128Y-32122D01*
X40148Y-32145D01*
X40163Y-32172D01*
X40173Y-32201D01*
X40176Y-32231D01*
X40177Y-32235D01*
X39863Y-32078D02*
X40177Y-32392D01*
X40177Y-32078D02*
X39863Y-32392D01*
X40177Y-33022D02*
X40174Y-33052D01*
X40165Y-33081D01*
X40150Y-33108D01*
X40131Y-33132D01*
X40107Y-33152D01*
X40080Y-33166D01*
X40051Y-33175D01*
X40021Y-33178D01*
X39991Y-33176D01*
X39962Y-33167D01*
X39935Y-33153D01*
X39911Y-33134D01*
X39891Y-33110D01*
X39876Y-33083D01*
X39867Y-33054D01*
X39864Y-33024D01*
X39866Y-32994D01*
X39875Y-32965D01*
X39889Y-32937D01*
X39908Y-32913D01*
X39931Y-32894D01*
X39958Y-32879D01*
X39987Y-32869D01*
X40017Y-32866D01*
X40047Y-32868D01*
X40076Y-32876D01*
X40104Y-32890D01*
X40128Y-32909D01*
X40148Y-32932D01*
X40163Y-32959D01*
X40173Y-32988D01*
X40176Y-33018D01*
X40177Y-33022D01*
X39863Y-32865D02*
X40177Y-33179D01*
X40177Y-32865D02*
X39863Y-33179D01*
X40177Y-33810D02*
X40174Y-33840D01*
X40165Y-33869D01*
X40150Y-33896D01*
X40131Y-33920D01*
X40107Y-33940D01*
X40080Y-33954D01*
X40051Y-33963D01*
X40021Y-33966D01*
X39991Y-33964D01*
X39962Y-33955D01*
X39935Y-33941D01*
X39911Y-33922D01*
X39891Y-33898D01*
X39876Y-33871D01*
X39867Y-33842D01*
X39864Y-33812D01*
X39866Y-33782D01*
X39875Y-33753D01*
X39889Y-33725D01*
X39908Y-33701D01*
X39931Y-33682D01*
X39958Y-33667D01*
X39987Y-33657D01*
X40017Y-33654D01*
X40047Y-33656D01*
X40076Y-33664D01*
X40104Y-33678D01*
X40128Y-33697D01*
X40148Y-33720D01*
X40163Y-33747D01*
X40173Y-33776D01*
X40176Y-33806D01*
X40177Y-33810D01*
X39863Y-33653D02*
X40177Y-33967D01*
X40177Y-33653D02*
X39863Y-33967D01*
X40177Y-35385D02*
X40174Y-35415D01*
X40165Y-35444D01*
X40150Y-35471D01*
X40131Y-35495D01*
X40107Y-35515D01*
X40080Y-35529D01*
X40051Y-35538D01*
X40021Y-35541D01*
X39991Y-35539D01*
X39962Y-35530D01*
X39935Y-35516D01*
X39911Y-35497D01*
X39891Y-35473D01*
X39876Y-35446D01*
X39867Y-35417D01*
X39864Y-35387D01*
X39866Y-35357D01*
X39875Y-35328D01*
X39889Y-35300D01*
X39908Y-35276D01*
X39931Y-35257D01*
X39958Y-35242D01*
X39987Y-35232D01*
X40017Y-35229D01*
X40047Y-35231D01*
X40076Y-35239D01*
X40104Y-35253D01*
X40128Y-35272D01*
X40148Y-35295D01*
X40163Y-35322D01*
X40173Y-35351D01*
X40176Y-35381D01*
X40177Y-35385D01*
X39863Y-35228D02*
X40177Y-35542D01*
X40177Y-35228D02*
X39863Y-35542D01*
X40177Y-36172D02*
X40174Y-36202D01*
X40165Y-36231D01*
X40150Y-36258D01*
X40131Y-36282D01*
X40107Y-36302D01*
X40080Y-36316D01*
X40051Y-36325D01*
X40021Y-36328D01*
X39991Y-36326D01*
X39962Y-36317D01*
X39935Y-36303D01*
X39911Y-36284D01*
X39891Y-36260D01*
X39876Y-36233D01*
X39867Y-36204D01*
X39864Y-36174D01*
X39866Y-36144D01*
X39875Y-36115D01*
X39889Y-36087D01*
X39908Y-36063D01*
X39931Y-36044D01*
X39958Y-36029D01*
X39987Y-36019D01*
X40017Y-36016D01*
X40047Y-36018D01*
X40076Y-36026D01*
X40104Y-36040D01*
X40128Y-36059D01*
X40148Y-36082D01*
X40163Y-36109D01*
X40173Y-36138D01*
X40176Y-36168D01*
X40177Y-36172D01*
X39863Y-36015D02*
X40177Y-36329D01*
X40177Y-36015D02*
X39863Y-36329D01*
X40177Y-36959D02*
X40174Y-36989D01*
X40165Y-37018D01*
X40150Y-37045D01*
X40131Y-37069D01*
X40107Y-37089D01*
X40080Y-37103D01*
X40051Y-37112D01*
X40021Y-37115D01*
X39991Y-37113D01*
X39962Y-37104D01*
X39935Y-37090D01*
X39911Y-37071D01*
X39891Y-37047D01*
X39876Y-37020D01*
X39867Y-36991D01*
X39864Y-36961D01*
X39866Y-36931D01*
X39875Y-36902D01*
X39889Y-36874D01*
X39908Y-36850D01*
X39931Y-36831D01*
X39958Y-36816D01*
X39987Y-36806D01*
X40017Y-36803D01*
X40047Y-36805D01*
X40076Y-36813D01*
X40104Y-36827D01*
X40128Y-36846D01*
X40148Y-36869D01*
X40163Y-36896D01*
X40173Y-36925D01*
X40176Y-36955D01*
X40177Y-36959D01*
X39863Y-36802D02*
X40177Y-37116D01*
X40177Y-36802D02*
X39863Y-37116D01*
X40964Y-30266D02*
X40961Y-30296D01*
X40952Y-30325D01*
X40937Y-30352D01*
X40918Y-30376D01*
X40894Y-30396D01*
X40867Y-30410D01*
X40838Y-30419D01*
X40808Y-30422D01*
X40778Y-30420D01*
X40749Y-30411D01*
X40722Y-30397D01*
X40698Y-30378D01*
X40678Y-30354D01*
X40663Y-30327D01*
X40654Y-30298D01*
X40651Y-30268D01*
X40653Y-30238D01*
X40662Y-30209D01*
X40676Y-30181D01*
X40695Y-30157D01*
X40718Y-30138D01*
X40745Y-30123D01*
X40774Y-30113D01*
X40804Y-30110D01*
X40834Y-30112D01*
X40863Y-30120D01*
X40891Y-30134D01*
X40915Y-30153D01*
X40935Y-30176D01*
X40950Y-30203D01*
X40960Y-30232D01*
X40963Y-30262D01*
X40964Y-30266D01*
X40650Y-30109D02*
X40964Y-30423D01*
X40964Y-30109D02*
X40650Y-30423D01*
X40964Y-31054D02*
X40961Y-31084D01*
X40952Y-31113D01*
X40937Y-31140D01*
X40918Y-31164D01*
X40894Y-31184D01*
X40867Y-31198D01*
X40838Y-31207D01*
X40808Y-31210D01*
X40778Y-31208D01*
X40749Y-31199D01*
X40722Y-31185D01*
X40698Y-31166D01*
X40678Y-31142D01*
X40663Y-31115D01*
X40654Y-31086D01*
X40651Y-31056D01*
X40653Y-31026D01*
X40662Y-30997D01*
X40676Y-30969D01*
X40695Y-30945D01*
X40718Y-30926D01*
X40745Y-30911D01*
X40774Y-30901D01*
X40804Y-30898D01*
X40834Y-30900D01*
X40863Y-30908D01*
X40891Y-30922D01*
X40915Y-30941D01*
X40935Y-30964D01*
X40950Y-30991D01*
X40960Y-31020D01*
X40963Y-31050D01*
X40964Y-31054D01*
X40650Y-30897D02*
X40964Y-31211D01*
X40964Y-30897D02*
X40650Y-31211D01*
X40964Y-31841D02*
X40961Y-31871D01*
X40952Y-31900D01*
X40937Y-31927D01*
X40918Y-31951D01*
X40894Y-31971D01*
X40867Y-31985D01*
X40838Y-31994D01*
X40808Y-31997D01*
X40778Y-31995D01*
X40749Y-31986D01*
X40722Y-31972D01*
X40698Y-31953D01*
X40678Y-31929D01*
X40663Y-31902D01*
X40654Y-31873D01*
X40651Y-31843D01*
X40653Y-31813D01*
X40662Y-31784D01*
X40676Y-31756D01*
X40695Y-31732D01*
X40718Y-31713D01*
X40745Y-31698D01*
X40774Y-31688D01*
X40804Y-31685D01*
X40834Y-31687D01*
X40863Y-31695D01*
X40891Y-31709D01*
X40915Y-31728D01*
X40935Y-31751D01*
X40950Y-31778D01*
X40960Y-31807D01*
X40963Y-31837D01*
X40964Y-31841D01*
X40650Y-31684D02*
X40964Y-31998D01*
X40964Y-31684D02*
X40650Y-31998D01*
X40964Y-32628D02*
X40961Y-32658D01*
X40952Y-32687D01*
X40937Y-32714D01*
X40918Y-32738D01*
X40894Y-32758D01*
X40867Y-32772D01*
X40838Y-32781D01*
X40808Y-32784D01*
X40778Y-32782D01*
X40749Y-32773D01*
X40722Y-32759D01*
X40698Y-32740D01*
X40678Y-32716D01*
X40663Y-32689D01*
X40654Y-32660D01*
X40651Y-32630D01*
X40653Y-32600D01*
X40662Y-32571D01*
X40676Y-32543D01*
X40695Y-32519D01*
X40718Y-32500D01*
X40745Y-32485D01*
X40774Y-32475D01*
X40804Y-32472D01*
X40834Y-32474D01*
X40863Y-32482D01*
X40891Y-32496D01*
X40915Y-32515D01*
X40935Y-32538D01*
X40950Y-32565D01*
X40960Y-32594D01*
X40963Y-32624D01*
X40964Y-32628D01*
X40650Y-32471D02*
X40964Y-32785D01*
X40964Y-32471D02*
X40650Y-32785D01*
X40964Y-33416D02*
X40961Y-33446D01*
X40952Y-33475D01*
X40937Y-33502D01*
X40918Y-33526D01*
X40894Y-33546D01*
X40867Y-33560D01*
X40838Y-33569D01*
X40808Y-33572D01*
X40778Y-33570D01*
X40749Y-33561D01*
X40722Y-33547D01*
X40698Y-33528D01*
X40678Y-33504D01*
X40663Y-33477D01*
X40654Y-33448D01*
X40651Y-33418D01*
X40653Y-33388D01*
X40662Y-33359D01*
X40676Y-33331D01*
X40695Y-33307D01*
X40718Y-33288D01*
X40745Y-33273D01*
X40774Y-33263D01*
X40804Y-33260D01*
X40834Y-33262D01*
X40863Y-33270D01*
X40891Y-33284D01*
X40915Y-33303D01*
X40935Y-33326D01*
X40950Y-33353D01*
X40960Y-33382D01*
X40963Y-33412D01*
X40964Y-33416D01*
X40650Y-33259D02*
X40964Y-33573D01*
X40964Y-33259D02*
X40650Y-33573D01*
X40965Y-34991D02*
X40962Y-35021D01*
X40953Y-35050D01*
X40938Y-35077D01*
X40919Y-35101D01*
X40895Y-35121D01*
X40868Y-35135D01*
X40839Y-35144D01*
X40809Y-35147D01*
X40779Y-35145D01*
X40750Y-35136D01*
X40723Y-35122D01*
X40699Y-35103D01*
X40679Y-35079D01*
X40664Y-35052D01*
X40655Y-35023D01*
X40652Y-34993D01*
X40654Y-34963D01*
X40663Y-34934D01*
X40677Y-34906D01*
X40696Y-34882D01*
X40719Y-34863D01*
X40746Y-34848D01*
X40775Y-34838D01*
X40805Y-34835D01*
X40835Y-34837D01*
X40864Y-34845D01*
X40892Y-34859D01*
X40916Y-34878D01*
X40936Y-34901D01*
X40951Y-34928D01*
X40961Y-34957D01*
X40964Y-34987D01*
X40965Y-34991D01*
X40651Y-34834D02*
X40965Y-35148D01*
X40965Y-34834D02*
X40651Y-35148D01*
X40965Y-35778D02*
X40962Y-35808D01*
X40953Y-35837D01*
X40938Y-35864D01*
X40919Y-35888D01*
X40895Y-35908D01*
X40868Y-35922D01*
X40839Y-35931D01*
X40809Y-35934D01*
X40779Y-35932D01*
X40750Y-35923D01*
X40723Y-35909D01*
X40699Y-35890D01*
X40679Y-35866D01*
X40664Y-35839D01*
X40655Y-35810D01*
X40652Y-35780D01*
X40654Y-35750D01*
X40663Y-35721D01*
X40677Y-35693D01*
X40696Y-35669D01*
X40719Y-35650D01*
X40746Y-35635D01*
X40775Y-35625D01*
X40805Y-35622D01*
X40835Y-35624D01*
X40864Y-35632D01*
X40892Y-35646D01*
X40916Y-35665D01*
X40936Y-35688D01*
X40951Y-35715D01*
X40961Y-35744D01*
X40964Y-35774D01*
X40965Y-35778D01*
X40651Y-35621D02*
X40965Y-35935D01*
X40965Y-35621D02*
X40651Y-35935D01*
X40965Y-36566D02*
X40962Y-36596D01*
X40953Y-36625D01*
X40938Y-36652D01*
X40919Y-36676D01*
X40895Y-36696D01*
X40868Y-36710D01*
X40839Y-36719D01*
X40809Y-36722D01*
X40779Y-36720D01*
X40750Y-36711D01*
X40723Y-36697D01*
X40699Y-36678D01*
X40679Y-36654D01*
X40664Y-36627D01*
X40655Y-36598D01*
X40652Y-36568D01*
X40654Y-36538D01*
X40663Y-36509D01*
X40677Y-36481D01*
X40696Y-36457D01*
X40719Y-36438D01*
X40746Y-36423D01*
X40775Y-36413D01*
X40805Y-36410D01*
X40835Y-36412D01*
X40864Y-36420D01*
X40892Y-36434D01*
X40916Y-36453D01*
X40936Y-36476D01*
X40951Y-36503D01*
X40961Y-36532D01*
X40964Y-36562D01*
X40965Y-36566D01*
X40651Y-36409D02*
X40965Y-36723D01*
X40965Y-36409D02*
X40651Y-36723D01*
X40965Y-37353D02*
X40962Y-37383D01*
X40953Y-37412D01*
X40938Y-37439D01*
X40919Y-37463D01*
X40895Y-37483D01*
X40868Y-37497D01*
X40839Y-37506D01*
X40809Y-37509D01*
X40779Y-37507D01*
X40750Y-37498D01*
X40723Y-37484D01*
X40699Y-37465D01*
X40679Y-37441D01*
X40664Y-37414D01*
X40655Y-37385D01*
X40652Y-37355D01*
X40654Y-37325D01*
X40663Y-37296D01*
X40677Y-37268D01*
X40696Y-37244D01*
X40719Y-37225D01*
X40746Y-37210D01*
X40775Y-37200D01*
X40805Y-37197D01*
X40835Y-37199D01*
X40864Y-37207D01*
X40892Y-37221D01*
X40916Y-37240D01*
X40936Y-37263D01*
X40951Y-37290D01*
X40961Y-37319D01*
X40964Y-37349D01*
X40965Y-37353D01*
X40651Y-37196D02*
X40965Y-37510D01*
X40965Y-37196D02*
X40651Y-37510D01*
X37168Y-36616D02*
X37164Y-36647D01*
X37155Y-36676D01*
X37141Y-36704D01*
X37121Y-36728D01*
X37097Y-36748D01*
X37070Y-36763D01*
X37040Y-36772D01*
X37009Y-36775D01*
X36979Y-36773D01*
X36949Y-36764D01*
X36921Y-36749D01*
X36897Y-36730D01*
X36876Y-36706D01*
X36861Y-36679D01*
X36852Y-36649D01*
X36849Y-36618D01*
X36851Y-36588D01*
X36860Y-36558D01*
X36874Y-36530D01*
X36893Y-36505D01*
X36917Y-36485D01*
X36944Y-36470D01*
X36974Y-36460D01*
X37005Y-36457D01*
X37035Y-36459D01*
X37065Y-36467D01*
X37093Y-36481D01*
X37118Y-36501D01*
X37138Y-36524D01*
X37154Y-36551D01*
X37164Y-36581D01*
X37167Y-36612D01*
X37168Y-36616D01*
X36848Y-36616D02*
X37168Y-36616D01*
X37168Y-37616D02*
X37164Y-37647D01*
X37155Y-37676D01*
X37141Y-37704D01*
X37121Y-37728D01*
X37097Y-37748D01*
X37070Y-37763D01*
X37040Y-37772D01*
X37009Y-37775D01*
X36979Y-37773D01*
X36949Y-37764D01*
X36921Y-37749D01*
X36897Y-37730D01*
X36876Y-37706D01*
X36861Y-37679D01*
X36852Y-37649D01*
X36849Y-37618D01*
X36851Y-37588D01*
X36860Y-37558D01*
X36874Y-37530D01*
X36893Y-37505D01*
X36917Y-37485D01*
X36944Y-37470D01*
X36974Y-37460D01*
X37005Y-37457D01*
X37035Y-37459D01*
X37065Y-37467D01*
X37093Y-37481D01*
X37118Y-37501D01*
X37138Y-37524D01*
X37154Y-37551D01*
X37164Y-37581D01*
X37167Y-37612D01*
X37168Y-37616D01*
X36848Y-37616D02*
X37168Y-37616D01*
X42148Y-40573D02*
X42144Y-40604D01*
X42135Y-40633D01*
X42121Y-40661D01*
X42101Y-40685D01*
X42077Y-40705D01*
X42050Y-40720D01*
X42020Y-40729D01*
X41989Y-40732D01*
X41959Y-40730D01*
X41929Y-40721D01*
X41901Y-40706D01*
X41877Y-40687D01*
X41856Y-40663D01*
X41841Y-40636D01*
X41832Y-40606D01*
X41829Y-40575D01*
X41831Y-40545D01*
X41840Y-40515D01*
X41854Y-40487D01*
X41873Y-40462D01*
X41897Y-40442D01*
X41924Y-40427D01*
X41954Y-40417D01*
X41985Y-40414D01*
X42015Y-40416D01*
X42045Y-40424D01*
X42073Y-40438D01*
X42098Y-40458D01*
X42118Y-40481D01*
X42134Y-40508D01*
X42144Y-40538D01*
X42147Y-40569D01*
X42148Y-40573D01*
X41828Y-40573D02*
X42148Y-40573D01*
X42148Y-41573D02*
X42144Y-41604D01*
X42135Y-41633D01*
X42121Y-41661D01*
X42101Y-41685D01*
X42077Y-41705D01*
X42050Y-41720D01*
X42020Y-41729D01*
X41989Y-41732D01*
X41959Y-41730D01*
X41929Y-41721D01*
X41901Y-41706D01*
X41877Y-41687D01*
X41856Y-41663D01*
X41841Y-41636D01*
X41832Y-41606D01*
X41829Y-41575D01*
X41831Y-41545D01*
X41840Y-41515D01*
X41854Y-41487D01*
X41873Y-41462D01*
X41897Y-41442D01*
X41924Y-41427D01*
X41954Y-41417D01*
X41985Y-41414D01*
X42015Y-41416D01*
X42045Y-41424D01*
X42073Y-41438D01*
X42098Y-41458D01*
X42118Y-41481D01*
X42134Y-41508D01*
X42144Y-41538D01*
X42147Y-41569D01*
X42148Y-41573D01*
X41828Y-41573D02*
X42148Y-41573D01*
X29882Y-43750D02*
X29878Y-43788D01*
X29867Y-43825D01*
X29849Y-43859D01*
X29824Y-43888D01*
X29795Y-43913D01*
X29761Y-43931D01*
X29724Y-43942D01*
X29686Y-43946D01*
X29649Y-43943D01*
X29612Y-43932D01*
X29578Y-43914D01*
X29548Y-43890D01*
X29523Y-43861D01*
X29504Y-43827D01*
X29493Y-43790D01*
X29489Y-43752D01*
X29492Y-43715D01*
X29502Y-43678D01*
X29520Y-43644D01*
X29544Y-43614D01*
X29573Y-43589D01*
X29607Y-43570D01*
X29643Y-43558D01*
X29681Y-43554D01*
X29719Y-43556D01*
X29756Y-43567D01*
X29790Y-43584D01*
X29820Y-43608D01*
X29845Y-43637D01*
X29864Y-43670D01*
X29877Y-43707D01*
X29881Y-43745D01*
X29882Y-43750D01*
X29685Y-43553D02*
X29685Y-43947D01*
X36319Y-39390D02*
X36315Y-39428D01*
X36304Y-39465D01*
X36286Y-39499D01*
X36261Y-39528D01*
X36232Y-39553D01*
X36198Y-39571D01*
X36161Y-39582D01*
X36123Y-39586D01*
X36086Y-39583D01*
X36049Y-39572D01*
X36015Y-39554D01*
X35985Y-39530D01*
X35960Y-39501D01*
X35941Y-39467D01*
X35930Y-39430D01*
X35926Y-39392D01*
X35929Y-39355D01*
X35939Y-39318D01*
X35957Y-39284D01*
X35981Y-39254D01*
X36010Y-39229D01*
X36044Y-39210D01*
X36080Y-39198D01*
X36118Y-39194D01*
X36156Y-39196D01*
X36193Y-39207D01*
X36227Y-39224D01*
X36257Y-39248D01*
X36282Y-39277D01*
X36301Y-39310D01*
X36314Y-39347D01*
X36318Y-39385D01*
X36319Y-39390D01*
X36122Y-39193D02*
X36122Y-39587D01*
X37264Y-39380D02*
X37260Y-39418D01*
X37249Y-39455D01*
X37231Y-39489D01*
X37206Y-39518D01*
X37177Y-39543D01*
X37143Y-39561D01*
X37106Y-39572D01*
X37068Y-39576D01*
X37031Y-39573D01*
X36994Y-39562D01*
X36960Y-39544D01*
X36930Y-39520D01*
X36905Y-39491D01*
X36886Y-39457D01*
X36875Y-39420D01*
X36871Y-39382D01*
X36874Y-39345D01*
X36884Y-39308D01*
X36902Y-39274D01*
X36926Y-39244D01*
X36955Y-39219D01*
X36989Y-39200D01*
X37025Y-39188D01*
X37063Y-39184D01*
X37101Y-39186D01*
X37138Y-39197D01*
X37172Y-39214D01*
X37202Y-39238D01*
X37227Y-39267D01*
X37246Y-39300D01*
X37259Y-39337D01*
X37263Y-39375D01*
X37264Y-39380D01*
X37067Y-39183D02*
X37067Y-39577D01*
X41191Y-40573D02*
X41187Y-40611D01*
X41176Y-40648D01*
X41158Y-40682D01*
X41133Y-40711D01*
X41104Y-40736D01*
X41070Y-40754D01*
X41033Y-40765D01*
X40995Y-40769D01*
X40958Y-40766D01*
X40921Y-40755D01*
X40887Y-40737D01*
X40857Y-40713D01*
X40832Y-40684D01*
X40813Y-40650D01*
X40802Y-40613D01*
X40798Y-40575D01*
X40801Y-40538D01*
X40811Y-40501D01*
X40829Y-40467D01*
X40853Y-40437D01*
X40882Y-40412D01*
X40916Y-40393D01*
X40952Y-40381D01*
X40990Y-40377D01*
X41028Y-40379D01*
X41065Y-40390D01*
X41099Y-40407D01*
X41129Y-40431D01*
X41154Y-40460D01*
X41173Y-40493D01*
X41186Y-40530D01*
X41190Y-40568D01*
X41191Y-40573D01*
X40994Y-40376D02*
X40994Y-40770D01*
X41191Y-41573D02*
X41187Y-41611D01*
X41176Y-41648D01*
X41158Y-41682D01*
X41133Y-41711D01*
X41104Y-41736D01*
X41070Y-41754D01*
X41033Y-41765D01*
X40995Y-41769D01*
X40958Y-41766D01*
X40921Y-41755D01*
X40887Y-41737D01*
X40857Y-41713D01*
X40832Y-41684D01*
X40813Y-41650D01*
X40802Y-41613D01*
X40798Y-41575D01*
X40801Y-41538D01*
X40811Y-41501D01*
X40829Y-41467D01*
X40853Y-41437D01*
X40882Y-41412D01*
X40916Y-41393D01*
X40952Y-41381D01*
X40990Y-41377D01*
X41028Y-41379D01*
X41065Y-41390D01*
X41099Y-41407D01*
X41129Y-41431D01*
X41154Y-41460D01*
X41173Y-41493D01*
X41186Y-41530D01*
X41190Y-41568D01*
X41191Y-41573D01*
X40994Y-41376D02*
X40994Y-41770D01*
X20117Y-29224D02*
X20117Y-28942D01*
X19835Y-28942D01*
X19835Y-29224D01*
X20117Y-29224D01*
X20117Y-30224D02*
X20117Y-29942D01*
X19835Y-29942D01*
X19835Y-30224D01*
X20117Y-30224D01*
X20117Y-31224D02*
X20117Y-30942D01*
X19835Y-30942D01*
X19835Y-31224D01*
X20117Y-31224D01*
X20117Y-32224D02*
X20117Y-31942D01*
X19835Y-31942D01*
X19835Y-32224D01*
X20117Y-32224D01*
X20117Y-33224D02*
X20117Y-32942D01*
X19835Y-32942D01*
X19835Y-33224D01*
X20117Y-33224D01*
X20117Y-34224D02*
X20117Y-33942D01*
X19835Y-33942D01*
X19835Y-34224D01*
X20117Y-34224D01*
X20117Y-35224D02*
X20117Y-34942D01*
X19835Y-34942D01*
X19835Y-35224D01*
X20117Y-35224D01*
X21117Y-29224D02*
X21117Y-28942D01*
X20835Y-28942D01*
X20835Y-29224D01*
X21117Y-29224D01*
X21117Y-30224D02*
X21117Y-29942D01*
X20835Y-29942D01*
X20835Y-30224D01*
X21117Y-30224D01*
X21117Y-31224D02*
X21117Y-30942D01*
X20835Y-30942D01*
X20835Y-31224D01*
X21117Y-31224D01*
X21117Y-32224D02*
X21117Y-31942D01*
X20835Y-31942D01*
X20835Y-32224D01*
X21117Y-32224D01*
X21117Y-33224D02*
X21117Y-32942D01*
X20835Y-32942D01*
X20835Y-33224D01*
X21117Y-33224D01*
X21117Y-34224D02*
X21117Y-33942D01*
X20835Y-33942D01*
X20835Y-34224D01*
X21117Y-34224D01*
X21117Y-35224D02*
X21117Y-34942D01*
X20835Y-34942D01*
X20835Y-35224D01*
X21117Y-35224D01*
X22484Y-45586D02*
X22484Y-45304D01*
X22202Y-45304D01*
X22202Y-45586D01*
X22484Y-45586D01*
X22484Y-46586D02*
X22484Y-46304D01*
X22202Y-46304D01*
X22202Y-46586D01*
X22484Y-46586D01*
X27487Y-45718D02*
X27487Y-45436D01*
X27205Y-45436D01*
X27205Y-45718D01*
X27487Y-45718D01*
X27487Y-46718D02*
X27487Y-46436D01*
X27205Y-46436D01*
X27205Y-46718D01*
X27487Y-46718D01*
X28487Y-45718D02*
X28487Y-45436D01*
X28205Y-45436D01*
X28205Y-45718D01*
X28487Y-45718D01*
X28487Y-46718D02*
X28487Y-46436D01*
X28205Y-46436D01*
X28205Y-46718D01*
X28487Y-46718D01*
X29487Y-45718D02*
X29487Y-45436D01*
X29205Y-45436D01*
X29205Y-45718D01*
X29487Y-45718D01*
X29487Y-46718D02*
X29487Y-46436D01*
X29205Y-46436D01*
X29205Y-46718D01*
X29487Y-46718D01*
X30487Y-45718D02*
X30487Y-45436D01*
X30205Y-45436D01*
X30205Y-45718D01*
X30487Y-45718D01*
X30487Y-46718D02*
X30487Y-46436D01*
X30205Y-46436D01*
X30205Y-46718D01*
X30487Y-46718D01*
X31487Y-45718D02*
X31487Y-45436D01*
X31205Y-45436D01*
X31205Y-45718D01*
X31487Y-45718D01*
X31487Y-46718D02*
X31487Y-46436D01*
X31205Y-46436D01*
X31205Y-46718D01*
X31487Y-46718D01*
X32487Y-45718D02*
X32487Y-45436D01*
X32205Y-45436D01*
X32205Y-45718D01*
X32487Y-45718D01*
X32487Y-46718D02*
X32487Y-46436D01*
X32205Y-46436D01*
X32205Y-46718D01*
X32487Y-46718D01*
X33487Y-45718D02*
X33487Y-45436D01*
X33205Y-45436D01*
X33205Y-45718D01*
X33487Y-45718D01*
X33487Y-46718D02*
X33487Y-46436D01*
X33205Y-46436D01*
X33205Y-46718D01*
X33487Y-46718D01*
X34487Y-45718D02*
X34487Y-45436D01*
X34205Y-45436D01*
X34205Y-45718D01*
X34487Y-45718D01*
X34487Y-46718D02*
X34487Y-46436D01*
X34205Y-46436D01*
X34205Y-46718D01*
X34487Y-46718D01*
X35487Y-45718D02*
X35487Y-45436D01*
X35205Y-45436D01*
X35205Y-45718D01*
X35487Y-45718D01*
X35487Y-46718D02*
X35487Y-46436D01*
X35205Y-46436D01*
X35205Y-46718D01*
X35487Y-46718D01*
X35627Y-43822D02*
X35627Y-43540D01*
X35345Y-43540D01*
X35345Y-43822D01*
X35627Y-43822D01*
X36487Y-45718D02*
X36487Y-45436D01*
X36205Y-45436D01*
X36205Y-45718D01*
X36487Y-45718D01*
X36487Y-46718D02*
X36487Y-46436D01*
X36205Y-46436D01*
X36205Y-46718D01*
X36487Y-46718D01*
X36627Y-43822D02*
X36627Y-43540D01*
X36345Y-43540D01*
X36345Y-43822D01*
X36627Y-43822D01*
X37627Y-43822D02*
X37627Y-43540D01*
X37345Y-43540D01*
X37345Y-43822D01*
X37627Y-43822D01*
X37735Y-24421D02*
X37735Y-24139D01*
X37453Y-24139D01*
X37453Y-24421D01*
X37735Y-24421D01*
X37735Y-25421D02*
X37735Y-25139D01*
X37453Y-25139D01*
X37453Y-25421D01*
X37735Y-25421D01*
X37735Y-26421D02*
X37735Y-26139D01*
X37453Y-26139D01*
X37453Y-26421D01*
X37735Y-26421D01*
X37735Y-27421D02*
X37735Y-27139D01*
X37453Y-27139D01*
X37453Y-27421D01*
X37735Y-27421D01*
X38735Y-24421D02*
X38735Y-24139D01*
X38453Y-24139D01*
X38453Y-24421D01*
X38735Y-24421D01*
X38735Y-25421D02*
X38735Y-25139D01*
X38453Y-25139D01*
X38453Y-25421D01*
X38735Y-25421D01*
X38735Y-26421D02*
X38735Y-26139D01*
X38453Y-26139D01*
X38453Y-26421D01*
X38735Y-26421D01*
X38735Y-27421D02*
X38735Y-27139D01*
X38453Y-27139D01*
X38453Y-27421D01*
X38735Y-27421D01*
X39720Y-45937D02*
X40015Y-45642D01*
X39720Y-45347D01*
X39425Y-45642D01*
X39720Y-45937D01*
X41334Y-45937D02*
X41629Y-45642D01*
X41334Y-45347D01*
X41039Y-45642D01*
X41334Y-45937D01*
X42751Y-45937D02*
X43046Y-45642D01*
X42751Y-45347D01*
X42456Y-45642D01*
X42751Y-45937D01*
G54D12*
X06814Y-54340D02*
X06814Y-53540D01*
X07005Y-53540D01*
X07119Y-53578D01*
X07195Y-53654D01*
X07234Y-53730D01*
X07272Y-53883D01*
X07272Y-53997D01*
X07234Y-54149D01*
X07195Y-54226D01*
X07119Y-54302D01*
X07005Y-54340D01*
X06814Y-54340D01*
X07614Y-54340D02*
X07614Y-53806D01*
X07614Y-53959D02*
X07653Y-53883D01*
X07691Y-53845D01*
X07767Y-53806D01*
X07843Y-53806D01*
X08109Y-54340D02*
X08109Y-53806D01*
X08109Y-53540D02*
X08071Y-53578D01*
X08109Y-53616D01*
X08148Y-53578D01*
X08109Y-53540D01*
X08109Y-53616D01*
X08605Y-54340D02*
X08529Y-54302D01*
X08490Y-54226D01*
X08490Y-53540D01*
X09024Y-54340D02*
X08948Y-54302D01*
X08909Y-54226D01*
X08909Y-53540D01*
X09938Y-54340D02*
X09938Y-53540D01*
X10205Y-54111D01*
X10472Y-53540D01*
X10472Y-54340D01*
X11195Y-54340D02*
X11195Y-53921D01*
X11157Y-53845D01*
X11081Y-53806D01*
X10929Y-53806D01*
X10852Y-53845D01*
X11195Y-54302D02*
X11119Y-54340D01*
X10929Y-54340D01*
X10852Y-54302D01*
X10814Y-54226D01*
X10814Y-54149D01*
X10852Y-54073D01*
X10929Y-54035D01*
X11119Y-54035D01*
X11195Y-53997D01*
X11576Y-53806D02*
X11576Y-54606D01*
X11576Y-53845D02*
X11653Y-53806D01*
X11805Y-53806D01*
X11881Y-53845D01*
X11919Y-53883D01*
X11957Y-53959D01*
X11957Y-54187D01*
X11919Y-54264D01*
X11881Y-54302D01*
X11805Y-54340D01*
X11653Y-54340D01*
X11576Y-54302D01*
X12300Y-54264D02*
X12339Y-54302D01*
X12300Y-54340D01*
X12262Y-54302D01*
X12300Y-54264D01*
X12300Y-54340D01*
X12300Y-53845D02*
X12339Y-53883D01*
X12300Y-53921D01*
X12262Y-53883D01*
X12300Y-53845D01*
X12300Y-53921D01*
X06345Y-55657D02*
X06423Y-55735D01*
X06423Y-55657D02*
X06345Y-55735D01*
X06967Y-55220D02*
X07043Y-55220D01*
X07119Y-55258D01*
X07157Y-55296D01*
X07195Y-55372D01*
X07234Y-55525D01*
X07234Y-55715D01*
X07195Y-55867D01*
X07157Y-55944D01*
X07119Y-55982D01*
X07043Y-56020D01*
X06967Y-56020D01*
X06891Y-55982D01*
X06853Y-55944D01*
X06814Y-55867D01*
X06776Y-55715D01*
X06776Y-55525D01*
X06814Y-55372D01*
X06853Y-55296D01*
X06891Y-55258D01*
X06967Y-55220D01*
X07576Y-55944D02*
X07615Y-55982D01*
X07576Y-56020D01*
X07538Y-55982D01*
X07576Y-55944D01*
X07576Y-56020D01*
X08110Y-55220D02*
X08186Y-55220D01*
X08262Y-55258D01*
X08300Y-55296D01*
X08338Y-55372D01*
X08377Y-55525D01*
X08377Y-55715D01*
X08338Y-55867D01*
X08300Y-55944D01*
X08262Y-55982D01*
X08186Y-56020D01*
X08110Y-56020D01*
X08034Y-55982D01*
X07996Y-55944D01*
X07957Y-55867D01*
X07919Y-55715D01*
X07919Y-55525D01*
X07957Y-55372D01*
X07996Y-55296D01*
X08034Y-55258D01*
X08110Y-55220D01*
X08872Y-55220D02*
X08948Y-55220D01*
X09024Y-55258D01*
X09062Y-55296D01*
X09100Y-55372D01*
X09139Y-55525D01*
X09139Y-55715D01*
X09100Y-55867D01*
X09062Y-55944D01*
X09024Y-55982D01*
X08948Y-56020D01*
X08872Y-56020D01*
X08796Y-55982D01*
X08758Y-55944D01*
X08719Y-55867D01*
X08681Y-55715D01*
X08681Y-55525D01*
X08719Y-55372D01*
X08758Y-55296D01*
X08796Y-55258D01*
X08872Y-55220D01*
X09596Y-55563D02*
X09520Y-55525D01*
X09481Y-55486D01*
X09443Y-55410D01*
X09443Y-55372D01*
X09481Y-55296D01*
X09520Y-55258D01*
X09596Y-55220D01*
X09748Y-55220D01*
X09824Y-55258D01*
X09862Y-55296D01*
X09901Y-55372D01*
X09901Y-55410D01*
X09862Y-55486D01*
X09824Y-55525D01*
X09748Y-55563D01*
X09596Y-55563D01*
X09520Y-55601D01*
X09481Y-55639D01*
X09443Y-55715D01*
X09443Y-55867D01*
X09481Y-55944D01*
X09520Y-55982D01*
X09596Y-56020D01*
X09748Y-56020D01*
X09824Y-55982D01*
X09862Y-55944D01*
X09901Y-55867D01*
X09901Y-55715D01*
X09862Y-55639D01*
X09824Y-55601D01*
X09748Y-55563D01*
X10205Y-55220D02*
X10205Y-55372D01*
X10510Y-55220D02*
X10510Y-55372D01*
X12035Y-55182D02*
X11349Y-56210D01*
X13064Y-55220D02*
X13140Y-55220D01*
X13216Y-55258D01*
X13254Y-55296D01*
X13292Y-55372D01*
X13331Y-55525D01*
X13331Y-55715D01*
X13292Y-55867D01*
X13254Y-55944D01*
X13216Y-55982D01*
X13140Y-56020D01*
X13064Y-56020D01*
X12988Y-55982D01*
X12950Y-55944D01*
X12911Y-55867D01*
X12873Y-55715D01*
X12873Y-55525D01*
X12911Y-55372D01*
X12950Y-55296D01*
X12988Y-55258D01*
X13064Y-55220D01*
X13673Y-55944D02*
X13712Y-55982D01*
X13673Y-56020D01*
X13635Y-55982D01*
X13673Y-55944D01*
X13673Y-56020D01*
X14016Y-55296D02*
X14054Y-55258D01*
X14131Y-55220D01*
X14321Y-55220D01*
X14397Y-55258D01*
X14435Y-55296D01*
X14474Y-55372D01*
X14474Y-55448D01*
X14435Y-55563D01*
X13978Y-56020D01*
X14474Y-56020D01*
X14969Y-55220D02*
X15045Y-55220D01*
X15121Y-55258D01*
X15159Y-55296D01*
X15197Y-55372D01*
X15236Y-55525D01*
X15236Y-55715D01*
X15197Y-55867D01*
X15159Y-55944D01*
X15121Y-55982D01*
X15045Y-56020D01*
X14969Y-56020D01*
X14893Y-55982D01*
X14855Y-55944D01*
X14816Y-55867D01*
X14778Y-55715D01*
X14778Y-55525D01*
X14816Y-55372D01*
X14855Y-55296D01*
X14893Y-55258D01*
X14969Y-55220D01*
X15578Y-56020D02*
X15578Y-55486D01*
X15578Y-55563D02*
X15617Y-55525D01*
X15693Y-55486D01*
X15807Y-55486D01*
X15883Y-55525D01*
X15921Y-55601D01*
X15921Y-56020D01*
X15921Y-55601D02*
X15959Y-55525D01*
X16036Y-55486D01*
X16150Y-55486D01*
X16226Y-55525D01*
X16264Y-55601D01*
X16264Y-56020D01*
X16645Y-56020D02*
X16645Y-55486D01*
X16645Y-55563D02*
X16684Y-55525D01*
X16760Y-55486D01*
X16874Y-55486D01*
X16950Y-55525D01*
X16988Y-55601D01*
X16988Y-56020D01*
X16988Y-55601D02*
X17026Y-55525D01*
X17103Y-55486D01*
X17217Y-55486D01*
X17293Y-55525D01*
X17331Y-55601D01*
X17331Y-56020D01*
X18551Y-56325D02*
X18513Y-56286D01*
X18437Y-56172D01*
X18399Y-56096D01*
X18361Y-55982D01*
X18322Y-55791D01*
X18322Y-55639D01*
X18361Y-55448D01*
X18399Y-55334D01*
X18437Y-55258D01*
X18513Y-55144D01*
X18551Y-55106D01*
X18817Y-55296D02*
X18855Y-55258D01*
X18932Y-55220D01*
X19122Y-55220D01*
X19198Y-55258D01*
X19236Y-55296D01*
X19275Y-55372D01*
X19275Y-55448D01*
X19236Y-55563D01*
X18779Y-56020D01*
X19275Y-56020D01*
X19732Y-55563D02*
X19656Y-55525D01*
X19617Y-55486D01*
X19579Y-55410D01*
X19579Y-55372D01*
X19617Y-55296D01*
X19656Y-55258D01*
X19732Y-55220D01*
X19884Y-55220D01*
X19960Y-55258D01*
X19998Y-55296D01*
X20037Y-55372D01*
X20037Y-55410D01*
X19998Y-55486D01*
X19960Y-55525D01*
X19884Y-55563D01*
X19732Y-55563D01*
X19656Y-55601D01*
X19617Y-55639D01*
X19579Y-55715D01*
X19579Y-55867D01*
X19617Y-55944D01*
X19656Y-55982D01*
X19732Y-56020D01*
X19884Y-56020D01*
X19960Y-55982D01*
X19998Y-55944D01*
X20037Y-55867D01*
X20037Y-55715D01*
X19998Y-55639D01*
X19960Y-55601D01*
X19884Y-55563D01*
X20303Y-55220D02*
X20799Y-55220D01*
X20532Y-55525D01*
X20646Y-55525D01*
X20722Y-55563D01*
X20760Y-55601D01*
X20799Y-55677D01*
X20799Y-55867D01*
X20760Y-55944D01*
X20722Y-55982D01*
X20646Y-56020D01*
X20418Y-56020D01*
X20341Y-55982D01*
X20303Y-55944D01*
X21751Y-56020D02*
X21751Y-55220D01*
X22094Y-56020D02*
X22094Y-55601D01*
X22056Y-55525D01*
X21980Y-55486D01*
X21866Y-55486D01*
X21790Y-55525D01*
X21751Y-55563D01*
X22590Y-56020D02*
X22514Y-55982D01*
X22475Y-55944D01*
X22437Y-55867D01*
X22437Y-55639D01*
X22475Y-55563D01*
X22514Y-55525D01*
X22590Y-55486D01*
X22704Y-55486D01*
X22780Y-55525D01*
X22818Y-55563D01*
X22856Y-55639D01*
X22856Y-55867D01*
X22818Y-55944D01*
X22780Y-55982D01*
X22704Y-56020D01*
X22590Y-56020D01*
X23314Y-56020D02*
X23238Y-55982D01*
X23199Y-55906D01*
X23199Y-55220D01*
X23923Y-55982D02*
X23847Y-56020D01*
X23695Y-56020D01*
X23618Y-55982D01*
X23580Y-55906D01*
X23580Y-55601D01*
X23618Y-55525D01*
X23695Y-55486D01*
X23847Y-55486D01*
X23923Y-55525D01*
X23961Y-55601D01*
X23961Y-55677D01*
X23580Y-55753D01*
X24266Y-55982D02*
X24343Y-56020D01*
X24495Y-56020D01*
X24571Y-55982D01*
X24609Y-55906D01*
X24609Y-55867D01*
X24571Y-55791D01*
X24495Y-55753D01*
X24381Y-55753D01*
X24304Y-55715D01*
X24266Y-55639D01*
X24266Y-55601D01*
X24304Y-55525D01*
X24381Y-55486D01*
X24495Y-55486D01*
X24571Y-55525D01*
X24876Y-56325D02*
X24914Y-56286D01*
X24991Y-56172D01*
X25029Y-56096D01*
X25067Y-55982D01*
X25105Y-55791D01*
X25105Y-55639D01*
X25067Y-55448D01*
X25029Y-55334D01*
X24991Y-55258D01*
X24914Y-55144D01*
X24876Y-55106D01*
G54D10*
X06423Y-56751D02*
X06421Y-56766D01*
X06417Y-56780D01*
X06409Y-56794D01*
X06400Y-56805D01*
X06388Y-56815D01*
X06375Y-56822D01*
X06360Y-56827D01*
X06345Y-56828D01*
X06331Y-56827D01*
X06316Y-56823D01*
X06303Y-56816D01*
X06291Y-56806D01*
X06281Y-56795D01*
X06274Y-56781D01*
X06269Y-56767D01*
X06268Y-56752D01*
X06269Y-56737D01*
X06273Y-56723D01*
X06280Y-56709D01*
X06289Y-56697D01*
X06301Y-56687D01*
X06314Y-56680D01*
X06329Y-56675D01*
X06344Y-56674D01*
X06358Y-56675D01*
X06373Y-56679D01*
X06386Y-56686D01*
X06398Y-56695D01*
X06408Y-56707D01*
X06416Y-56720D01*
X06421Y-56734D01*
X06422Y-56749D01*
X06423Y-56751D01*
G54D12*
X06967Y-56275D02*
X07043Y-56275D01*
X07119Y-56313D01*
X07157Y-56351D01*
X07195Y-56427D01*
X07234Y-56580D01*
X07234Y-56770D01*
X07195Y-56922D01*
X07157Y-56999D01*
X07119Y-57037D01*
X07043Y-57075D01*
X06967Y-57075D01*
X06891Y-57037D01*
X06853Y-56999D01*
X06814Y-56922D01*
X06776Y-56770D01*
X06776Y-56580D01*
X06814Y-56427D01*
X06853Y-56351D01*
X06891Y-56313D01*
X06967Y-56275D01*
X07576Y-56999D02*
X07615Y-57037D01*
X07576Y-57075D01*
X07538Y-57037D01*
X07576Y-56999D01*
X07576Y-57075D01*
X08110Y-56275D02*
X08186Y-56275D01*
X08262Y-56313D01*
X08300Y-56351D01*
X08338Y-56427D01*
X08377Y-56580D01*
X08377Y-56770D01*
X08338Y-56922D01*
X08300Y-56999D01*
X08262Y-57037D01*
X08186Y-57075D01*
X08110Y-57075D01*
X08034Y-57037D01*
X07996Y-56999D01*
X07957Y-56922D01*
X07919Y-56770D01*
X07919Y-56580D01*
X07957Y-56427D01*
X07996Y-56351D01*
X08034Y-56313D01*
X08110Y-56275D01*
X09139Y-57075D02*
X08681Y-57075D01*
X08910Y-57075D02*
X08910Y-56275D01*
X08834Y-56389D01*
X08758Y-56465D01*
X08681Y-56503D01*
X09824Y-56275D02*
X09672Y-56275D01*
X09596Y-56313D01*
X09558Y-56351D01*
X09481Y-56465D01*
X09443Y-56618D01*
X09443Y-56922D01*
X09481Y-56999D01*
X09520Y-57037D01*
X09596Y-57075D01*
X09748Y-57075D01*
X09824Y-57037D01*
X09862Y-56999D01*
X09901Y-56922D01*
X09901Y-56732D01*
X09862Y-56656D01*
X09824Y-56618D01*
X09748Y-56580D01*
X09596Y-56580D01*
X09520Y-56618D01*
X09481Y-56656D01*
X09443Y-56732D01*
X10205Y-56275D02*
X10205Y-56427D01*
X10510Y-56275D02*
X10510Y-56427D01*
X12035Y-56237D02*
X11349Y-57265D01*
X13064Y-56275D02*
X13140Y-56275D01*
X13216Y-56313D01*
X13254Y-56351D01*
X13292Y-56427D01*
X13331Y-56580D01*
X13331Y-56770D01*
X13292Y-56922D01*
X13254Y-56999D01*
X13216Y-57037D01*
X13140Y-57075D01*
X13064Y-57075D01*
X12988Y-57037D01*
X12950Y-56999D01*
X12911Y-56922D01*
X12873Y-56770D01*
X12873Y-56580D01*
X12911Y-56427D01*
X12950Y-56351D01*
X12988Y-56313D01*
X13064Y-56275D01*
X13673Y-56999D02*
X13712Y-57037D01*
X13673Y-57075D01*
X13635Y-57037D01*
X13673Y-56999D01*
X13673Y-57075D01*
X14397Y-56541D02*
X14397Y-57075D01*
X14207Y-56237D02*
X14016Y-56808D01*
X14512Y-56808D01*
X14969Y-56275D02*
X15045Y-56275D01*
X15121Y-56313D01*
X15159Y-56351D01*
X15197Y-56427D01*
X15236Y-56580D01*
X15236Y-56770D01*
X15197Y-56922D01*
X15159Y-56999D01*
X15121Y-57037D01*
X15045Y-57075D01*
X14969Y-57075D01*
X14893Y-57037D01*
X14855Y-56999D01*
X14816Y-56922D01*
X14778Y-56770D01*
X14778Y-56580D01*
X14816Y-56427D01*
X14855Y-56351D01*
X14893Y-56313D01*
X14969Y-56275D01*
X15578Y-57075D02*
X15578Y-56541D01*
X15578Y-56618D02*
X15617Y-56580D01*
X15693Y-56541D01*
X15807Y-56541D01*
X15883Y-56580D01*
X15921Y-56656D01*
X15921Y-57075D01*
X15921Y-56656D02*
X15959Y-56580D01*
X16036Y-56541D01*
X16150Y-56541D01*
X16226Y-56580D01*
X16264Y-56656D01*
X16264Y-57075D01*
X16645Y-57075D02*
X16645Y-56541D01*
X16645Y-56618D02*
X16684Y-56580D01*
X16760Y-56541D01*
X16874Y-56541D01*
X16950Y-56580D01*
X16988Y-56656D01*
X16988Y-57075D01*
X16988Y-56656D02*
X17026Y-56580D01*
X17103Y-56541D01*
X17217Y-56541D01*
X17293Y-56580D01*
X17331Y-56656D01*
X17331Y-57075D01*
X18551Y-57380D02*
X18513Y-57341D01*
X18437Y-57227D01*
X18399Y-57151D01*
X18361Y-57037D01*
X18322Y-56846D01*
X18322Y-56694D01*
X18361Y-56503D01*
X18399Y-56389D01*
X18437Y-56313D01*
X18513Y-56199D01*
X18551Y-56161D01*
X18779Y-56275D02*
X19275Y-56275D01*
X19008Y-56580D01*
X19122Y-56580D01*
X19198Y-56618D01*
X19236Y-56656D01*
X19275Y-56732D01*
X19275Y-56922D01*
X19236Y-56999D01*
X19198Y-57037D01*
X19122Y-57075D01*
X18894Y-57075D01*
X18817Y-57037D01*
X18779Y-56999D01*
X20227Y-57075D02*
X20227Y-56275D01*
X20570Y-57075D02*
X20570Y-56656D01*
X20532Y-56580D01*
X20456Y-56541D01*
X20342Y-56541D01*
X20266Y-56580D01*
X20227Y-56618D01*
X21066Y-57075D02*
X20990Y-57037D01*
X20951Y-56999D01*
X20913Y-56922D01*
X20913Y-56694D01*
X20951Y-56618D01*
X20990Y-56580D01*
X21066Y-56541D01*
X21180Y-56541D01*
X21256Y-56580D01*
X21294Y-56618D01*
X21332Y-56694D01*
X21332Y-56922D01*
X21294Y-56999D01*
X21256Y-57037D01*
X21180Y-57075D01*
X21066Y-57075D01*
X21790Y-57075D02*
X21714Y-57037D01*
X21675Y-56961D01*
X21675Y-56275D01*
X22399Y-57037D02*
X22323Y-57075D01*
X22171Y-57075D01*
X22094Y-57037D01*
X22056Y-56961D01*
X22056Y-56656D01*
X22094Y-56580D01*
X22171Y-56541D01*
X22323Y-56541D01*
X22399Y-56580D01*
X22437Y-56656D01*
X22437Y-56732D01*
X22056Y-56808D01*
X22742Y-57037D02*
X22819Y-57075D01*
X22971Y-57075D01*
X23047Y-57037D01*
X23085Y-56961D01*
X23085Y-56922D01*
X23047Y-56846D01*
X22971Y-56808D01*
X22857Y-56808D01*
X22780Y-56770D01*
X22742Y-56694D01*
X22742Y-56656D01*
X22780Y-56580D01*
X22857Y-56541D01*
X22971Y-56541D01*
X23047Y-56580D01*
X23352Y-57380D02*
X23390Y-57341D01*
X23467Y-57227D01*
X23505Y-57151D01*
X23543Y-57037D01*
X23581Y-56846D01*
X23581Y-56694D01*
X23543Y-56503D01*
X23505Y-56389D01*
X23467Y-56313D01*
X23390Y-56199D01*
X23352Y-56161D01*
X06325Y-57708D02*
X06325Y-57904D01*
X06423Y-57806D02*
X06227Y-57806D01*
X06967Y-57330D02*
X07043Y-57330D01*
X07119Y-57368D01*
X07157Y-57406D01*
X07195Y-57482D01*
X07234Y-57635D01*
X07234Y-57825D01*
X07195Y-57977D01*
X07157Y-58054D01*
X07119Y-58092D01*
X07043Y-58130D01*
X06967Y-58130D01*
X06891Y-58092D01*
X06853Y-58054D01*
X06814Y-57977D01*
X06776Y-57825D01*
X06776Y-57635D01*
X06814Y-57482D01*
X06853Y-57406D01*
X06891Y-57368D01*
X06967Y-57330D01*
X07576Y-58054D02*
X07615Y-58092D01*
X07576Y-58130D01*
X07538Y-58092D01*
X07576Y-58054D01*
X07576Y-58130D01*
X08110Y-57330D02*
X08186Y-57330D01*
X08262Y-57368D01*
X08300Y-57406D01*
X08338Y-57482D01*
X08377Y-57635D01*
X08377Y-57825D01*
X08338Y-57977D01*
X08300Y-58054D01*
X08262Y-58092D01*
X08186Y-58130D01*
X08110Y-58130D01*
X08034Y-58092D01*
X07996Y-58054D01*
X07957Y-57977D01*
X07919Y-57825D01*
X07919Y-57635D01*
X07957Y-57482D01*
X07996Y-57406D01*
X08034Y-57368D01*
X08110Y-57330D01*
X08681Y-57406D02*
X08719Y-57368D01*
X08796Y-57330D01*
X08986Y-57330D01*
X09062Y-57368D01*
X09100Y-57406D01*
X09139Y-57482D01*
X09139Y-57558D01*
X09100Y-57673D01*
X08643Y-58130D01*
X09139Y-58130D01*
X09634Y-57330D02*
X09710Y-57330D01*
X09786Y-57368D01*
X09824Y-57406D01*
X09862Y-57482D01*
X09901Y-57635D01*
X09901Y-57825D01*
X09862Y-57977D01*
X09824Y-58054D01*
X09786Y-58092D01*
X09710Y-58130D01*
X09634Y-58130D01*
X09558Y-58092D01*
X09520Y-58054D01*
X09481Y-57977D01*
X09443Y-57825D01*
X09443Y-57635D01*
X09481Y-57482D01*
X09520Y-57406D01*
X09558Y-57368D01*
X09634Y-57330D01*
X10205Y-57330D02*
X10205Y-57482D01*
X10510Y-57330D02*
X10510Y-57482D01*
X12035Y-57292D02*
X11349Y-58320D01*
X13064Y-57330D02*
X13140Y-57330D01*
X13216Y-57368D01*
X13254Y-57406D01*
X13292Y-57482D01*
X13331Y-57635D01*
X13331Y-57825D01*
X13292Y-57977D01*
X13254Y-58054D01*
X13216Y-58092D01*
X13140Y-58130D01*
X13064Y-58130D01*
X12988Y-58092D01*
X12950Y-58054D01*
X12911Y-57977D01*
X12873Y-57825D01*
X12873Y-57635D01*
X12911Y-57482D01*
X12950Y-57406D01*
X12988Y-57368D01*
X13064Y-57330D01*
X13673Y-58054D02*
X13712Y-58092D01*
X13673Y-58130D01*
X13635Y-58092D01*
X13673Y-58054D01*
X13673Y-58130D01*
X14435Y-57330D02*
X14054Y-57330D01*
X14016Y-57711D01*
X14054Y-57673D01*
X14131Y-57635D01*
X14321Y-57635D01*
X14397Y-57673D01*
X14435Y-57711D01*
X14474Y-57787D01*
X14474Y-57977D01*
X14435Y-58054D01*
X14397Y-58092D01*
X14321Y-58130D01*
X14131Y-58130D01*
X14054Y-58092D01*
X14016Y-58054D01*
X14969Y-57330D02*
X15045Y-57330D01*
X15121Y-57368D01*
X15159Y-57406D01*
X15197Y-57482D01*
X15236Y-57635D01*
X15236Y-57825D01*
X15197Y-57977D01*
X15159Y-58054D01*
X15121Y-58092D01*
X15045Y-58130D01*
X14969Y-58130D01*
X14893Y-58092D01*
X14855Y-58054D01*
X14816Y-57977D01*
X14778Y-57825D01*
X14778Y-57635D01*
X14816Y-57482D01*
X14855Y-57406D01*
X14893Y-57368D01*
X14969Y-57330D01*
X15578Y-58130D02*
X15578Y-57596D01*
X15578Y-57673D02*
X15617Y-57635D01*
X15693Y-57596D01*
X15807Y-57596D01*
X15883Y-57635D01*
X15921Y-57711D01*
X15921Y-58130D01*
X15921Y-57711D02*
X15959Y-57635D01*
X16036Y-57596D01*
X16150Y-57596D01*
X16226Y-57635D01*
X16264Y-57711D01*
X16264Y-58130D01*
X16645Y-58130D02*
X16645Y-57596D01*
X16645Y-57673D02*
X16684Y-57635D01*
X16760Y-57596D01*
X16874Y-57596D01*
X16950Y-57635D01*
X16988Y-57711D01*
X16988Y-58130D01*
X16988Y-57711D02*
X17026Y-57635D01*
X17103Y-57596D01*
X17217Y-57596D01*
X17293Y-57635D01*
X17331Y-57711D01*
X17331Y-58130D01*
X18551Y-58435D02*
X18513Y-58396D01*
X18437Y-58282D01*
X18399Y-58206D01*
X18361Y-58092D01*
X18322Y-57901D01*
X18322Y-57749D01*
X18361Y-57558D01*
X18399Y-57444D01*
X18437Y-57368D01*
X18513Y-57254D01*
X18551Y-57216D01*
X18817Y-57406D02*
X18855Y-57368D01*
X18932Y-57330D01*
X19122Y-57330D01*
X19198Y-57368D01*
X19236Y-57406D01*
X19275Y-57482D01*
X19275Y-57558D01*
X19236Y-57673D01*
X18779Y-58130D01*
X19275Y-58130D01*
X20037Y-58130D02*
X19579Y-58130D01*
X19808Y-58130D02*
X19808Y-57330D01*
X19732Y-57444D01*
X19656Y-57520D01*
X19579Y-57558D01*
X20989Y-58130D02*
X20989Y-57330D01*
X21332Y-58130D02*
X21332Y-57711D01*
X21294Y-57635D01*
X21218Y-57596D01*
X21104Y-57596D01*
X21028Y-57635D01*
X20989Y-57673D01*
X21828Y-58130D02*
X21752Y-58092D01*
X21713Y-58054D01*
X21675Y-57977D01*
X21675Y-57749D01*
X21713Y-57673D01*
X21752Y-57635D01*
X21828Y-57596D01*
X21942Y-57596D01*
X22018Y-57635D01*
X22056Y-57673D01*
X22094Y-57749D01*
X22094Y-57977D01*
X22056Y-58054D01*
X22018Y-58092D01*
X21942Y-58130D01*
X21828Y-58130D01*
X22552Y-58130D02*
X22476Y-58092D01*
X22437Y-58016D01*
X22437Y-57330D01*
X23161Y-58092D02*
X23085Y-58130D01*
X22933Y-58130D01*
X22856Y-58092D01*
X22818Y-58016D01*
X22818Y-57711D01*
X22856Y-57635D01*
X22933Y-57596D01*
X23085Y-57596D01*
X23161Y-57635D01*
X23199Y-57711D01*
X23199Y-57787D01*
X22818Y-57863D01*
X23504Y-58092D02*
X23581Y-58130D01*
X23733Y-58130D01*
X23809Y-58092D01*
X23847Y-58016D01*
X23847Y-57977D01*
X23809Y-57901D01*
X23733Y-57863D01*
X23619Y-57863D01*
X23542Y-57825D01*
X23504Y-57749D01*
X23504Y-57711D01*
X23542Y-57635D01*
X23619Y-57596D01*
X23733Y-57596D01*
X23809Y-57635D01*
X24114Y-58435D02*
X24152Y-58396D01*
X24229Y-58282D01*
X24267Y-58206D01*
X24305Y-58092D01*
X24343Y-57901D01*
X24343Y-57749D01*
X24305Y-57558D01*
X24267Y-57444D01*
X24229Y-57368D01*
X24152Y-57254D01*
X24114Y-57216D01*
G54D10*
X06423Y-58861D02*
X06420Y-58891D01*
X06411Y-58920D01*
X06396Y-58947D01*
X06377Y-58971D01*
X06353Y-58991D01*
X06326Y-59005D01*
X06297Y-59014D01*
X06267Y-59017D01*
X06237Y-59015D01*
X06208Y-59006D01*
X06181Y-58992D01*
X06157Y-58973D01*
X06137Y-58949D01*
X06122Y-58922D01*
X06113Y-58893D01*
X06110Y-58863D01*
X06112Y-58833D01*
X06121Y-58804D01*
X06135Y-58776D01*
X06154Y-58752D01*
X06177Y-58733D01*
X06204Y-58718D01*
X06233Y-58708D01*
X06263Y-58705D01*
X06293Y-58707D01*
X06322Y-58715D01*
X06350Y-58729D01*
X06374Y-58748D01*
X06394Y-58771D01*
X06409Y-58798D01*
X06419Y-58827D01*
X06422Y-58857D01*
X06423Y-58861D01*
X06109Y-58704D02*
X06423Y-59018D01*
X06423Y-58704D02*
X06109Y-59018D01*
G54D12*
X06967Y-58385D02*
X07043Y-58385D01*
X07119Y-58423D01*
X07157Y-58461D01*
X07195Y-58537D01*
X07234Y-58690D01*
X07234Y-58880D01*
X07195Y-59032D01*
X07157Y-59109D01*
X07119Y-59147D01*
X07043Y-59185D01*
X06967Y-59185D01*
X06891Y-59147D01*
X06853Y-59109D01*
X06814Y-59032D01*
X06776Y-58880D01*
X06776Y-58690D01*
X06814Y-58537D01*
X06853Y-58461D01*
X06891Y-58423D01*
X06967Y-58385D01*
X07576Y-59109D02*
X07615Y-59147D01*
X07576Y-59185D01*
X07538Y-59147D01*
X07576Y-59109D01*
X07576Y-59185D01*
X08110Y-58385D02*
X08186Y-58385D01*
X08262Y-58423D01*
X08300Y-58461D01*
X08338Y-58537D01*
X08377Y-58690D01*
X08377Y-58880D01*
X08338Y-59032D01*
X08300Y-59109D01*
X08262Y-59147D01*
X08186Y-59185D01*
X08110Y-59185D01*
X08034Y-59147D01*
X07996Y-59109D01*
X07957Y-59032D01*
X07919Y-58880D01*
X07919Y-58690D01*
X07957Y-58537D01*
X07996Y-58461D01*
X08034Y-58423D01*
X08110Y-58385D01*
X08643Y-58385D02*
X09139Y-58385D01*
X08872Y-58690D01*
X08986Y-58690D01*
X09062Y-58728D01*
X09100Y-58766D01*
X09139Y-58842D01*
X09139Y-59032D01*
X09100Y-59109D01*
X09062Y-59147D01*
X08986Y-59185D01*
X08758Y-59185D01*
X08681Y-59147D01*
X08643Y-59109D01*
X09443Y-58461D02*
X09481Y-58423D01*
X09558Y-58385D01*
X09748Y-58385D01*
X09824Y-58423D01*
X09862Y-58461D01*
X09901Y-58537D01*
X09901Y-58613D01*
X09862Y-58728D01*
X09405Y-59185D01*
X09901Y-59185D01*
X10205Y-58385D02*
X10205Y-58537D01*
X10510Y-58385D02*
X10510Y-58537D01*
X12035Y-58347D02*
X11349Y-59375D01*
X13064Y-58385D02*
X13140Y-58385D01*
X13216Y-58423D01*
X13254Y-58461D01*
X13292Y-58537D01*
X13331Y-58690D01*
X13331Y-58880D01*
X13292Y-59032D01*
X13254Y-59109D01*
X13216Y-59147D01*
X13140Y-59185D01*
X13064Y-59185D01*
X12988Y-59147D01*
X12950Y-59109D01*
X12911Y-59032D01*
X12873Y-58880D01*
X12873Y-58690D01*
X12911Y-58537D01*
X12950Y-58461D01*
X12988Y-58423D01*
X13064Y-58385D01*
X13673Y-59109D02*
X13712Y-59147D01*
X13673Y-59185D01*
X13635Y-59147D01*
X13673Y-59109D01*
X13673Y-59185D01*
X14169Y-58728D02*
X14093Y-58690D01*
X14054Y-58651D01*
X14016Y-58575D01*
X14016Y-58537D01*
X14054Y-58461D01*
X14093Y-58423D01*
X14169Y-58385D01*
X14321Y-58385D01*
X14397Y-58423D01*
X14435Y-58461D01*
X14474Y-58537D01*
X14474Y-58575D01*
X14435Y-58651D01*
X14397Y-58690D01*
X14321Y-58728D01*
X14169Y-58728D01*
X14093Y-58766D01*
X14054Y-58804D01*
X14016Y-58880D01*
X14016Y-59032D01*
X14054Y-59109D01*
X14093Y-59147D01*
X14169Y-59185D01*
X14321Y-59185D01*
X14397Y-59147D01*
X14435Y-59109D01*
X14474Y-59032D01*
X14474Y-58880D01*
X14435Y-58804D01*
X14397Y-58766D01*
X14321Y-58728D01*
X14969Y-58385D02*
X15045Y-58385D01*
X15121Y-58423D01*
X15159Y-58461D01*
X15197Y-58537D01*
X15236Y-58690D01*
X15236Y-58880D01*
X15197Y-59032D01*
X15159Y-59109D01*
X15121Y-59147D01*
X15045Y-59185D01*
X14969Y-59185D01*
X14893Y-59147D01*
X14855Y-59109D01*
X14816Y-59032D01*
X14778Y-58880D01*
X14778Y-58690D01*
X14816Y-58537D01*
X14855Y-58461D01*
X14893Y-58423D01*
X14969Y-58385D01*
X15578Y-59185D02*
X15578Y-58651D01*
X15578Y-58728D02*
X15617Y-58690D01*
X15693Y-58651D01*
X15807Y-58651D01*
X15883Y-58690D01*
X15921Y-58766D01*
X15921Y-59185D01*
X15921Y-58766D02*
X15959Y-58690D01*
X16036Y-58651D01*
X16150Y-58651D01*
X16226Y-58690D01*
X16264Y-58766D01*
X16264Y-59185D01*
X16645Y-59185D02*
X16645Y-58651D01*
X16645Y-58728D02*
X16684Y-58690D01*
X16760Y-58651D01*
X16874Y-58651D01*
X16950Y-58690D01*
X16988Y-58766D01*
X16988Y-59185D01*
X16988Y-58766D02*
X17026Y-58690D01*
X17103Y-58651D01*
X17217Y-58651D01*
X17293Y-58690D01*
X17331Y-58766D01*
X17331Y-59185D01*
X18551Y-59490D02*
X18513Y-59451D01*
X18437Y-59337D01*
X18399Y-59261D01*
X18361Y-59147D01*
X18322Y-58956D01*
X18322Y-58804D01*
X18361Y-58613D01*
X18399Y-58499D01*
X18437Y-58423D01*
X18513Y-58309D01*
X18551Y-58271D01*
X18779Y-58385D02*
X19275Y-58385D01*
X19008Y-58690D01*
X19122Y-58690D01*
X19198Y-58728D01*
X19236Y-58766D01*
X19275Y-58842D01*
X19275Y-59032D01*
X19236Y-59109D01*
X19198Y-59147D01*
X19122Y-59185D01*
X18894Y-59185D01*
X18817Y-59147D01*
X18779Y-59109D01*
X19960Y-58385D02*
X19808Y-58385D01*
X19732Y-58423D01*
X19694Y-58461D01*
X19617Y-58575D01*
X19579Y-58728D01*
X19579Y-59032D01*
X19617Y-59109D01*
X19656Y-59147D01*
X19732Y-59185D01*
X19884Y-59185D01*
X19960Y-59147D01*
X19998Y-59109D01*
X20037Y-59032D01*
X20037Y-58842D01*
X19998Y-58766D01*
X19960Y-58728D01*
X19884Y-58690D01*
X19732Y-58690D01*
X19656Y-58728D01*
X19617Y-58766D01*
X19579Y-58842D01*
X20989Y-59185D02*
X20989Y-58385D01*
X21332Y-59185D02*
X21332Y-58766D01*
X21294Y-58690D01*
X21218Y-58651D01*
X21104Y-58651D01*
X21028Y-58690D01*
X20989Y-58728D01*
X21828Y-59185D02*
X21752Y-59147D01*
X21713Y-59109D01*
X21675Y-59032D01*
X21675Y-58804D01*
X21713Y-58728D01*
X21752Y-58690D01*
X21828Y-58651D01*
X21942Y-58651D01*
X22018Y-58690D01*
X22056Y-58728D01*
X22094Y-58804D01*
X22094Y-59032D01*
X22056Y-59109D01*
X22018Y-59147D01*
X21942Y-59185D01*
X21828Y-59185D01*
X22552Y-59185D02*
X22476Y-59147D01*
X22437Y-59071D01*
X22437Y-58385D01*
X23161Y-59147D02*
X23085Y-59185D01*
X22933Y-59185D01*
X22856Y-59147D01*
X22818Y-59071D01*
X22818Y-58766D01*
X22856Y-58690D01*
X22933Y-58651D01*
X23085Y-58651D01*
X23161Y-58690D01*
X23199Y-58766D01*
X23199Y-58842D01*
X22818Y-58918D01*
X23504Y-59147D02*
X23581Y-59185D01*
X23733Y-59185D01*
X23809Y-59147D01*
X23847Y-59071D01*
X23847Y-59032D01*
X23809Y-58956D01*
X23733Y-58918D01*
X23619Y-58918D01*
X23542Y-58880D01*
X23504Y-58804D01*
X23504Y-58766D01*
X23542Y-58690D01*
X23619Y-58651D01*
X23733Y-58651D01*
X23809Y-58690D01*
X24114Y-59490D02*
X24152Y-59451D01*
X24229Y-59337D01*
X24267Y-59261D01*
X24305Y-59147D01*
X24343Y-58956D01*
X24343Y-58804D01*
X24305Y-58613D01*
X24267Y-58499D01*
X24229Y-58423D01*
X24152Y-58309D01*
X24114Y-58271D01*
G54D10*
X06424Y-59916D02*
X06420Y-59947D01*
X06411Y-59976D01*
X06397Y-60004D01*
X06377Y-60028D01*
X06353Y-60048D01*
X06326Y-60063D01*
X06296Y-60072D01*
X06265Y-60075D01*
X06235Y-60073D01*
X06205Y-60064D01*
X06177Y-60049D01*
X06153Y-60030D01*
X06132Y-60006D01*
X06117Y-59979D01*
X06108Y-59949D01*
X06105Y-59918D01*
X06107Y-59888D01*
X06116Y-59858D01*
X06130Y-59830D01*
X06149Y-59805D01*
X06173Y-59785D01*
X06200Y-59770D01*
X06230Y-59760D01*
X06261Y-59757D01*
X06291Y-59759D01*
X06321Y-59767D01*
X06349Y-59781D01*
X06374Y-59801D01*
X06394Y-59824D01*
X06410Y-59851D01*
X06420Y-59881D01*
X06423Y-59912D01*
X06424Y-59916D01*
X06104Y-59916D02*
X06424Y-59916D01*
G54D12*
X06967Y-59440D02*
X07043Y-59440D01*
X07119Y-59478D01*
X07157Y-59516D01*
X07195Y-59592D01*
X07234Y-59745D01*
X07234Y-59935D01*
X07195Y-60087D01*
X07157Y-60164D01*
X07119Y-60202D01*
X07043Y-60240D01*
X06967Y-60240D01*
X06891Y-60202D01*
X06853Y-60164D01*
X06814Y-60087D01*
X06776Y-59935D01*
X06776Y-59745D01*
X06814Y-59592D01*
X06853Y-59516D01*
X06891Y-59478D01*
X06967Y-59440D01*
X07576Y-60164D02*
X07615Y-60202D01*
X07576Y-60240D01*
X07538Y-60202D01*
X07576Y-60164D01*
X07576Y-60240D01*
X08110Y-59440D02*
X08186Y-59440D01*
X08262Y-59478D01*
X08300Y-59516D01*
X08338Y-59592D01*
X08377Y-59745D01*
X08377Y-59935D01*
X08338Y-60087D01*
X08300Y-60164D01*
X08262Y-60202D01*
X08186Y-60240D01*
X08110Y-60240D01*
X08034Y-60202D01*
X07996Y-60164D01*
X07957Y-60087D01*
X07919Y-59935D01*
X07919Y-59745D01*
X07957Y-59592D01*
X07996Y-59516D01*
X08034Y-59478D01*
X08110Y-59440D01*
X08643Y-59440D02*
X09139Y-59440D01*
X08872Y-59745D01*
X08986Y-59745D01*
X09062Y-59783D01*
X09100Y-59821D01*
X09139Y-59897D01*
X09139Y-60087D01*
X09100Y-60164D01*
X09062Y-60202D01*
X08986Y-60240D01*
X08758Y-60240D01*
X08681Y-60202D01*
X08643Y-60164D01*
X09443Y-59516D02*
X09481Y-59478D01*
X09558Y-59440D01*
X09748Y-59440D01*
X09824Y-59478D01*
X09862Y-59516D01*
X09901Y-59592D01*
X09901Y-59668D01*
X09862Y-59783D01*
X09405Y-60240D01*
X09901Y-60240D01*
X10205Y-59440D02*
X10205Y-59592D01*
X10510Y-59440D02*
X10510Y-59592D01*
X12035Y-59402D02*
X11349Y-60430D01*
X13064Y-59440D02*
X13140Y-59440D01*
X13216Y-59478D01*
X13254Y-59516D01*
X13292Y-59592D01*
X13331Y-59745D01*
X13331Y-59935D01*
X13292Y-60087D01*
X13254Y-60164D01*
X13216Y-60202D01*
X13140Y-60240D01*
X13064Y-60240D01*
X12988Y-60202D01*
X12950Y-60164D01*
X12911Y-60087D01*
X12873Y-59935D01*
X12873Y-59745D01*
X12911Y-59592D01*
X12950Y-59516D01*
X12988Y-59478D01*
X13064Y-59440D01*
X13673Y-60164D02*
X13712Y-60202D01*
X13673Y-60240D01*
X13635Y-60202D01*
X13673Y-60164D01*
X13673Y-60240D01*
X14169Y-59783D02*
X14093Y-59745D01*
X14054Y-59706D01*
X14016Y-59630D01*
X14016Y-59592D01*
X14054Y-59516D01*
X14093Y-59478D01*
X14169Y-59440D01*
X14321Y-59440D01*
X14397Y-59478D01*
X14435Y-59516D01*
X14474Y-59592D01*
X14474Y-59630D01*
X14435Y-59706D01*
X14397Y-59745D01*
X14321Y-59783D01*
X14169Y-59783D01*
X14093Y-59821D01*
X14054Y-59859D01*
X14016Y-59935D01*
X14016Y-60087D01*
X14054Y-60164D01*
X14093Y-60202D01*
X14169Y-60240D01*
X14321Y-60240D01*
X14397Y-60202D01*
X14435Y-60164D01*
X14474Y-60087D01*
X14474Y-59935D01*
X14435Y-59859D01*
X14397Y-59821D01*
X14321Y-59783D01*
X15236Y-60240D02*
X14778Y-60240D01*
X15007Y-60240D02*
X15007Y-59440D01*
X14931Y-59554D01*
X14855Y-59630D01*
X14778Y-59668D01*
X15578Y-60240D02*
X15578Y-59706D01*
X15578Y-59783D02*
X15617Y-59745D01*
X15693Y-59706D01*
X15807Y-59706D01*
X15883Y-59745D01*
X15921Y-59821D01*
X15921Y-60240D01*
X15921Y-59821D02*
X15959Y-59745D01*
X16036Y-59706D01*
X16150Y-59706D01*
X16226Y-59745D01*
X16264Y-59821D01*
X16264Y-60240D01*
X16645Y-60240D02*
X16645Y-59706D01*
X16645Y-59783D02*
X16684Y-59745D01*
X16760Y-59706D01*
X16874Y-59706D01*
X16950Y-59745D01*
X16988Y-59821D01*
X16988Y-60240D01*
X16988Y-59821D02*
X17026Y-59745D01*
X17103Y-59706D01*
X17217Y-59706D01*
X17293Y-59745D01*
X17331Y-59821D01*
X17331Y-60240D01*
X18551Y-60545D02*
X18513Y-60506D01*
X18437Y-60392D01*
X18399Y-60316D01*
X18361Y-60202D01*
X18322Y-60011D01*
X18322Y-59859D01*
X18361Y-59668D01*
X18399Y-59554D01*
X18437Y-59478D01*
X18513Y-59364D01*
X18551Y-59326D01*
X19198Y-59706D02*
X19198Y-60240D01*
X19008Y-59402D02*
X18817Y-59973D01*
X19313Y-59973D01*
X20227Y-60240D02*
X20227Y-59440D01*
X20570Y-60240D02*
X20570Y-59821D01*
X20532Y-59745D01*
X20456Y-59706D01*
X20342Y-59706D01*
X20266Y-59745D01*
X20227Y-59783D01*
X21066Y-60240D02*
X20990Y-60202D01*
X20951Y-60164D01*
X20913Y-60087D01*
X20913Y-59859D01*
X20951Y-59783D01*
X20990Y-59745D01*
X21066Y-59706D01*
X21180Y-59706D01*
X21256Y-59745D01*
X21294Y-59783D01*
X21332Y-59859D01*
X21332Y-60087D01*
X21294Y-60164D01*
X21256Y-60202D01*
X21180Y-60240D01*
X21066Y-60240D01*
X21790Y-60240D02*
X21714Y-60202D01*
X21675Y-60126D01*
X21675Y-59440D01*
X22399Y-60202D02*
X22323Y-60240D01*
X22171Y-60240D01*
X22094Y-60202D01*
X22056Y-60126D01*
X22056Y-59821D01*
X22094Y-59745D01*
X22171Y-59706D01*
X22323Y-59706D01*
X22399Y-59745D01*
X22437Y-59821D01*
X22437Y-59897D01*
X22056Y-59973D01*
X22742Y-60202D02*
X22819Y-60240D01*
X22971Y-60240D01*
X23047Y-60202D01*
X23085Y-60126D01*
X23085Y-60087D01*
X23047Y-60011D01*
X22971Y-59973D01*
X22857Y-59973D01*
X22780Y-59935D01*
X22742Y-59859D01*
X22742Y-59821D01*
X22780Y-59745D01*
X22857Y-59706D01*
X22971Y-59706D01*
X23047Y-59745D01*
X23352Y-60545D02*
X23390Y-60506D01*
X23467Y-60392D01*
X23505Y-60316D01*
X23543Y-60202D01*
X23581Y-60011D01*
X23581Y-59859D01*
X23543Y-59668D01*
X23505Y-59554D01*
X23467Y-59478D01*
X23390Y-59364D01*
X23352Y-59326D01*
G54D10*
X06424Y-60971D02*
X06420Y-61009D01*
X06409Y-61046D01*
X06391Y-61080D01*
X06366Y-61109D01*
X06337Y-61134D01*
X06303Y-61152D01*
X06266Y-61163D01*
X06228Y-61167D01*
X06191Y-61164D01*
X06154Y-61153D01*
X06120Y-61135D01*
X06090Y-61111D01*
X06065Y-61082D01*
X06046Y-61048D01*
X06035Y-61011D01*
X06031Y-60973D01*
X06034Y-60936D01*
X06044Y-60899D01*
X06062Y-60865D01*
X06086Y-60835D01*
X06115Y-60810D01*
X06149Y-60791D01*
X06185Y-60779D01*
X06223Y-60775D01*
X06261Y-60777D01*
X06298Y-60788D01*
X06332Y-60805D01*
X06362Y-60829D01*
X06387Y-60858D01*
X06406Y-60891D01*
X06419Y-60928D01*
X06423Y-60966D01*
X06424Y-60971D01*
X06227Y-60774D02*
X06227Y-61168D01*
G54D12*
X06967Y-60495D02*
X07043Y-60495D01*
X07119Y-60533D01*
X07157Y-60571D01*
X07195Y-60647D01*
X07234Y-60800D01*
X07234Y-60990D01*
X07195Y-61142D01*
X07157Y-61219D01*
X07119Y-61257D01*
X07043Y-61295D01*
X06967Y-61295D01*
X06891Y-61257D01*
X06853Y-61219D01*
X06814Y-61142D01*
X06776Y-60990D01*
X06776Y-60800D01*
X06814Y-60647D01*
X06853Y-60571D01*
X06891Y-60533D01*
X06967Y-60495D01*
X07576Y-61219D02*
X07615Y-61257D01*
X07576Y-61295D01*
X07538Y-61257D01*
X07576Y-61219D01*
X07576Y-61295D01*
X08110Y-60495D02*
X08186Y-60495D01*
X08262Y-60533D01*
X08300Y-60571D01*
X08338Y-60647D01*
X08377Y-60800D01*
X08377Y-60990D01*
X08338Y-61142D01*
X08300Y-61219D01*
X08262Y-61257D01*
X08186Y-61295D01*
X08110Y-61295D01*
X08034Y-61257D01*
X07996Y-61219D01*
X07957Y-61142D01*
X07919Y-60990D01*
X07919Y-60800D01*
X07957Y-60647D01*
X07996Y-60571D01*
X08034Y-60533D01*
X08110Y-60495D01*
X08643Y-60495D02*
X09139Y-60495D01*
X08872Y-60800D01*
X08986Y-60800D01*
X09062Y-60838D01*
X09100Y-60876D01*
X09139Y-60952D01*
X09139Y-61142D01*
X09100Y-61219D01*
X09062Y-61257D01*
X08986Y-61295D01*
X08758Y-61295D01*
X08681Y-61257D01*
X08643Y-61219D01*
X09520Y-61295D02*
X09672Y-61295D01*
X09748Y-61257D01*
X09786Y-61219D01*
X09862Y-61104D01*
X09901Y-60952D01*
X09901Y-60647D01*
X09862Y-60571D01*
X09824Y-60533D01*
X09748Y-60495D01*
X09596Y-60495D01*
X09520Y-60533D01*
X09481Y-60571D01*
X09443Y-60647D01*
X09443Y-60838D01*
X09481Y-60914D01*
X09520Y-60952D01*
X09596Y-60990D01*
X09748Y-60990D01*
X09824Y-60952D01*
X09862Y-60914D01*
X09901Y-60838D01*
X10205Y-60495D02*
X10205Y-60647D01*
X10510Y-60495D02*
X10510Y-60647D01*
X12035Y-60457D02*
X11349Y-61485D01*
X13331Y-61295D02*
X12873Y-61295D01*
X13102Y-61295D02*
X13102Y-60495D01*
X13026Y-60609D01*
X12950Y-60685D01*
X12873Y-60723D01*
X13673Y-61219D02*
X13712Y-61257D01*
X13673Y-61295D01*
X13635Y-61257D01*
X13673Y-61219D01*
X13673Y-61295D01*
X14207Y-60495D02*
X14283Y-60495D01*
X14359Y-60533D01*
X14397Y-60571D01*
X14435Y-60647D01*
X14474Y-60800D01*
X14474Y-60990D01*
X14435Y-61142D01*
X14397Y-61219D01*
X14359Y-61257D01*
X14283Y-61295D01*
X14207Y-61295D01*
X14131Y-61257D01*
X14093Y-61219D01*
X14054Y-61142D01*
X14016Y-60990D01*
X14016Y-60800D01*
X14054Y-60647D01*
X14093Y-60571D01*
X14131Y-60533D01*
X14207Y-60495D01*
X14969Y-60495D02*
X15045Y-60495D01*
X15121Y-60533D01*
X15159Y-60571D01*
X15197Y-60647D01*
X15236Y-60800D01*
X15236Y-60990D01*
X15197Y-61142D01*
X15159Y-61219D01*
X15121Y-61257D01*
X15045Y-61295D01*
X14969Y-61295D01*
X14893Y-61257D01*
X14855Y-61219D01*
X14816Y-61142D01*
X14778Y-60990D01*
X14778Y-60800D01*
X14816Y-60647D01*
X14855Y-60571D01*
X14893Y-60533D01*
X14969Y-60495D01*
X15578Y-61295D02*
X15578Y-60761D01*
X15578Y-60838D02*
X15617Y-60800D01*
X15693Y-60761D01*
X15807Y-60761D01*
X15883Y-60800D01*
X15921Y-60876D01*
X15921Y-61295D01*
X15921Y-60876D02*
X15959Y-60800D01*
X16036Y-60761D01*
X16150Y-60761D01*
X16226Y-60800D01*
X16264Y-60876D01*
X16264Y-61295D01*
X16645Y-61295D02*
X16645Y-60761D01*
X16645Y-60838D02*
X16684Y-60800D01*
X16760Y-60761D01*
X16874Y-60761D01*
X16950Y-60800D01*
X16988Y-60876D01*
X16988Y-61295D01*
X16988Y-60876D02*
X17026Y-60800D01*
X17103Y-60761D01*
X17217Y-60761D01*
X17293Y-60800D01*
X17331Y-60876D01*
X17331Y-61295D01*
X18551Y-61600D02*
X18513Y-61561D01*
X18437Y-61447D01*
X18399Y-61371D01*
X18361Y-61257D01*
X18322Y-61066D01*
X18322Y-60914D01*
X18361Y-60723D01*
X18399Y-60609D01*
X18437Y-60533D01*
X18513Y-60419D01*
X18551Y-60381D01*
X19236Y-60495D02*
X18855Y-60495D01*
X18817Y-60876D01*
X18855Y-60838D01*
X18932Y-60800D01*
X19122Y-60800D01*
X19198Y-60838D01*
X19236Y-60876D01*
X19275Y-60952D01*
X19275Y-61142D01*
X19236Y-61219D01*
X19198Y-61257D01*
X19122Y-61295D01*
X18932Y-61295D01*
X18855Y-61257D01*
X18817Y-61219D01*
X20227Y-61295D02*
X20227Y-60495D01*
X20570Y-61295D02*
X20570Y-60876D01*
X20532Y-60800D01*
X20456Y-60761D01*
X20342Y-60761D01*
X20266Y-60800D01*
X20227Y-60838D01*
X21066Y-61295D02*
X20990Y-61257D01*
X20951Y-61219D01*
X20913Y-61142D01*
X20913Y-60914D01*
X20951Y-60838D01*
X20990Y-60800D01*
X21066Y-60761D01*
X21180Y-60761D01*
X21256Y-60800D01*
X21294Y-60838D01*
X21332Y-60914D01*
X21332Y-61142D01*
X21294Y-61219D01*
X21256Y-61257D01*
X21180Y-61295D01*
X21066Y-61295D01*
X21790Y-61295D02*
X21714Y-61257D01*
X21675Y-61181D01*
X21675Y-60495D01*
X22399Y-61257D02*
X22323Y-61295D01*
X22171Y-61295D01*
X22094Y-61257D01*
X22056Y-61181D01*
X22056Y-60876D01*
X22094Y-60800D01*
X22171Y-60761D01*
X22323Y-60761D01*
X22399Y-60800D01*
X22437Y-60876D01*
X22437Y-60952D01*
X22056Y-61028D01*
X22742Y-61257D02*
X22819Y-61295D01*
X22971Y-61295D01*
X23047Y-61257D01*
X23085Y-61181D01*
X23085Y-61142D01*
X23047Y-61066D01*
X22971Y-61028D01*
X22857Y-61028D01*
X22780Y-60990D01*
X22742Y-60914D01*
X22742Y-60876D01*
X22780Y-60800D01*
X22857Y-60761D01*
X22971Y-60761D01*
X23047Y-60800D01*
X23352Y-61600D02*
X23390Y-61561D01*
X23467Y-61447D01*
X23505Y-61371D01*
X23543Y-61257D01*
X23581Y-61066D01*
X23581Y-60914D01*
X23543Y-60723D01*
X23505Y-60609D01*
X23467Y-60533D01*
X23390Y-60419D01*
X23352Y-60381D01*
G54D10*
X06365Y-62167D02*
X06365Y-61885D01*
X06083Y-61885D01*
X06083Y-62167D01*
X06365Y-62167D01*
G54D12*
X06967Y-61550D02*
X07043Y-61550D01*
X07119Y-61588D01*
X07157Y-61626D01*
X07195Y-61702D01*
X07234Y-61855D01*
X07234Y-62045D01*
X07195Y-62197D01*
X07157Y-62274D01*
X07119Y-62312D01*
X07043Y-62350D01*
X06967Y-62350D01*
X06891Y-62312D01*
X06853Y-62274D01*
X06814Y-62197D01*
X06776Y-62045D01*
X06776Y-61855D01*
X06814Y-61702D01*
X06853Y-61626D01*
X06891Y-61588D01*
X06967Y-61550D01*
X07576Y-62274D02*
X07615Y-62312D01*
X07576Y-62350D01*
X07538Y-62312D01*
X07576Y-62274D01*
X07576Y-62350D01*
X08110Y-61550D02*
X08186Y-61550D01*
X08262Y-61588D01*
X08300Y-61626D01*
X08338Y-61702D01*
X08377Y-61855D01*
X08377Y-62045D01*
X08338Y-62197D01*
X08300Y-62274D01*
X08262Y-62312D01*
X08186Y-62350D01*
X08110Y-62350D01*
X08034Y-62312D01*
X07996Y-62274D01*
X07957Y-62197D01*
X07919Y-62045D01*
X07919Y-61855D01*
X07957Y-61702D01*
X07996Y-61626D01*
X08034Y-61588D01*
X08110Y-61550D01*
X09062Y-61816D02*
X09062Y-62350D01*
X08872Y-61512D02*
X08681Y-62083D01*
X09177Y-62083D01*
X09634Y-61550D02*
X09710Y-61550D01*
X09786Y-61588D01*
X09824Y-61626D01*
X09862Y-61702D01*
X09901Y-61855D01*
X09901Y-62045D01*
X09862Y-62197D01*
X09824Y-62274D01*
X09786Y-62312D01*
X09710Y-62350D01*
X09634Y-62350D01*
X09558Y-62312D01*
X09520Y-62274D01*
X09481Y-62197D01*
X09443Y-62045D01*
X09443Y-61855D01*
X09481Y-61702D01*
X09520Y-61626D01*
X09558Y-61588D01*
X09634Y-61550D01*
X10205Y-61550D02*
X10205Y-61702D01*
X10510Y-61550D02*
X10510Y-61702D01*
X12035Y-61512D02*
X11349Y-62540D01*
X13331Y-62350D02*
X12873Y-62350D01*
X13102Y-62350D02*
X13102Y-61550D01*
X13026Y-61664D01*
X12950Y-61740D01*
X12873Y-61778D01*
X13673Y-62274D02*
X13712Y-62312D01*
X13673Y-62350D01*
X13635Y-62312D01*
X13673Y-62274D01*
X13673Y-62350D01*
X14207Y-61550D02*
X14283Y-61550D01*
X14359Y-61588D01*
X14397Y-61626D01*
X14435Y-61702D01*
X14474Y-61855D01*
X14474Y-62045D01*
X14435Y-62197D01*
X14397Y-62274D01*
X14359Y-62312D01*
X14283Y-62350D01*
X14207Y-62350D01*
X14131Y-62312D01*
X14093Y-62274D01*
X14054Y-62197D01*
X14016Y-62045D01*
X14016Y-61855D01*
X14054Y-61702D01*
X14093Y-61626D01*
X14131Y-61588D01*
X14207Y-61550D01*
X14778Y-61626D02*
X14816Y-61588D01*
X14893Y-61550D01*
X15083Y-61550D01*
X15159Y-61588D01*
X15197Y-61626D01*
X15236Y-61702D01*
X15236Y-61778D01*
X15197Y-61893D01*
X14740Y-62350D01*
X15236Y-62350D01*
X15578Y-62350D02*
X15578Y-61816D01*
X15578Y-61893D02*
X15617Y-61855D01*
X15693Y-61816D01*
X15807Y-61816D01*
X15883Y-61855D01*
X15921Y-61931D01*
X15921Y-62350D01*
X15921Y-61931D02*
X15959Y-61855D01*
X16036Y-61816D01*
X16150Y-61816D01*
X16226Y-61855D01*
X16264Y-61931D01*
X16264Y-62350D01*
X16645Y-62350D02*
X16645Y-61816D01*
X16645Y-61893D02*
X16684Y-61855D01*
X16760Y-61816D01*
X16874Y-61816D01*
X16950Y-61855D01*
X16988Y-61931D01*
X16988Y-62350D01*
X16988Y-61931D02*
X17026Y-61855D01*
X17103Y-61816D01*
X17217Y-61816D01*
X17293Y-61855D01*
X17331Y-61931D01*
X17331Y-62350D01*
X18551Y-62655D02*
X18513Y-62616D01*
X18437Y-62502D01*
X18399Y-62426D01*
X18361Y-62312D01*
X18322Y-62121D01*
X18322Y-61969D01*
X18361Y-61778D01*
X18399Y-61664D01*
X18437Y-61588D01*
X18513Y-61474D01*
X18551Y-61436D01*
X19198Y-61816D02*
X19198Y-62350D01*
X19008Y-61512D02*
X18817Y-62083D01*
X19313Y-62083D01*
X19541Y-61550D02*
X20075Y-61550D01*
X19732Y-62350D01*
X20989Y-62350D02*
X20989Y-61550D01*
X21332Y-62350D02*
X21332Y-61931D01*
X21294Y-61855D01*
X21218Y-61816D01*
X21104Y-61816D01*
X21028Y-61855D01*
X20989Y-61893D01*
X21828Y-62350D02*
X21752Y-62312D01*
X21713Y-62274D01*
X21675Y-62197D01*
X21675Y-61969D01*
X21713Y-61893D01*
X21752Y-61855D01*
X21828Y-61816D01*
X21942Y-61816D01*
X22018Y-61855D01*
X22056Y-61893D01*
X22094Y-61969D01*
X22094Y-62197D01*
X22056Y-62274D01*
X22018Y-62312D01*
X21942Y-62350D01*
X21828Y-62350D01*
X22552Y-62350D02*
X22476Y-62312D01*
X22437Y-62236D01*
X22437Y-61550D01*
X23161Y-62312D02*
X23085Y-62350D01*
X22933Y-62350D01*
X22856Y-62312D01*
X22818Y-62236D01*
X22818Y-61931D01*
X22856Y-61855D01*
X22933Y-61816D01*
X23085Y-61816D01*
X23161Y-61855D01*
X23199Y-61931D01*
X23199Y-62007D01*
X22818Y-62083D01*
X23504Y-62312D02*
X23581Y-62350D01*
X23733Y-62350D01*
X23809Y-62312D01*
X23847Y-62236D01*
X23847Y-62197D01*
X23809Y-62121D01*
X23733Y-62083D01*
X23619Y-62083D01*
X23542Y-62045D01*
X23504Y-61969D01*
X23504Y-61931D01*
X23542Y-61855D01*
X23619Y-61816D01*
X23733Y-61816D01*
X23809Y-61855D01*
X24114Y-62655D02*
X24152Y-62616D01*
X24229Y-62502D01*
X24267Y-62426D01*
X24305Y-62312D01*
X24343Y-62121D01*
X24343Y-61969D01*
X24305Y-61778D01*
X24267Y-61664D01*
X24229Y-61588D01*
X24152Y-61474D01*
X24114Y-61436D01*
G54D10*
X06128Y-63376D02*
X06423Y-63081D01*
X06128Y-62786D01*
X05833Y-63081D01*
X06128Y-63376D01*
G54D12*
X06967Y-62605D02*
X07043Y-62605D01*
X07119Y-62643D01*
X07157Y-62681D01*
X07195Y-62757D01*
X07234Y-62910D01*
X07234Y-63100D01*
X07195Y-63252D01*
X07157Y-63329D01*
X07119Y-63367D01*
X07043Y-63405D01*
X06967Y-63405D01*
X06891Y-63367D01*
X06853Y-63329D01*
X06814Y-63252D01*
X06776Y-63100D01*
X06776Y-62910D01*
X06814Y-62757D01*
X06853Y-62681D01*
X06891Y-62643D01*
X06967Y-62605D01*
X07576Y-63329D02*
X07615Y-63367D01*
X07576Y-63405D01*
X07538Y-63367D01*
X07576Y-63329D01*
X07576Y-63405D01*
X08110Y-62605D02*
X08186Y-62605D01*
X08262Y-62643D01*
X08300Y-62681D01*
X08338Y-62757D01*
X08377Y-62910D01*
X08377Y-63100D01*
X08338Y-63252D01*
X08300Y-63329D01*
X08262Y-63367D01*
X08186Y-63405D01*
X08110Y-63405D01*
X08034Y-63367D01*
X07996Y-63329D01*
X07957Y-63252D01*
X07919Y-63100D01*
X07919Y-62910D01*
X07957Y-62757D01*
X07996Y-62681D01*
X08034Y-62643D01*
X08110Y-62605D01*
X09100Y-62605D02*
X08719Y-62605D01*
X08681Y-62986D01*
X08719Y-62948D01*
X08796Y-62910D01*
X08986Y-62910D01*
X09062Y-62948D01*
X09100Y-62986D01*
X09139Y-63062D01*
X09139Y-63252D01*
X09100Y-63329D01*
X09062Y-63367D01*
X08986Y-63405D01*
X08796Y-63405D01*
X08719Y-63367D01*
X08681Y-63329D01*
X09520Y-63405D02*
X09672Y-63405D01*
X09748Y-63367D01*
X09786Y-63329D01*
X09862Y-63214D01*
X09901Y-63062D01*
X09901Y-62757D01*
X09862Y-62681D01*
X09824Y-62643D01*
X09748Y-62605D01*
X09596Y-62605D01*
X09520Y-62643D01*
X09481Y-62681D01*
X09443Y-62757D01*
X09443Y-62948D01*
X09481Y-63024D01*
X09520Y-63062D01*
X09596Y-63100D01*
X09748Y-63100D01*
X09824Y-63062D01*
X09862Y-63024D01*
X09901Y-62948D01*
X10205Y-62605D02*
X10205Y-62757D01*
X10510Y-62605D02*
X10510Y-62757D01*
X12035Y-62567D02*
X11349Y-63595D01*
X13331Y-63405D02*
X12873Y-63405D01*
X13102Y-63405D02*
X13102Y-62605D01*
X13026Y-62719D01*
X12950Y-62795D01*
X12873Y-62833D01*
X13673Y-63329D02*
X13712Y-63367D01*
X13673Y-63405D01*
X13635Y-63367D01*
X13673Y-63329D01*
X13673Y-63405D01*
X14435Y-62605D02*
X14054Y-62605D01*
X14016Y-62986D01*
X14054Y-62948D01*
X14131Y-62910D01*
X14321Y-62910D01*
X14397Y-62948D01*
X14435Y-62986D01*
X14474Y-63062D01*
X14474Y-63252D01*
X14435Y-63329D01*
X14397Y-63367D01*
X14321Y-63405D01*
X14131Y-63405D01*
X14054Y-63367D01*
X14016Y-63329D01*
X14969Y-62605D02*
X15045Y-62605D01*
X15121Y-62643D01*
X15159Y-62681D01*
X15197Y-62757D01*
X15236Y-62910D01*
X15236Y-63100D01*
X15197Y-63252D01*
X15159Y-63329D01*
X15121Y-63367D01*
X15045Y-63405D01*
X14969Y-63405D01*
X14893Y-63367D01*
X14855Y-63329D01*
X14816Y-63252D01*
X14778Y-63100D01*
X14778Y-62910D01*
X14816Y-62757D01*
X14855Y-62681D01*
X14893Y-62643D01*
X14969Y-62605D01*
X15578Y-63405D02*
X15578Y-62871D01*
X15578Y-62948D02*
X15617Y-62910D01*
X15693Y-62871D01*
X15807Y-62871D01*
X15883Y-62910D01*
X15921Y-62986D01*
X15921Y-63405D01*
X15921Y-62986D02*
X15959Y-62910D01*
X16036Y-62871D01*
X16150Y-62871D01*
X16226Y-62910D01*
X16264Y-62986D01*
X16264Y-63405D01*
X16645Y-63405D02*
X16645Y-62871D01*
X16645Y-62948D02*
X16684Y-62910D01*
X16760Y-62871D01*
X16874Y-62871D01*
X16950Y-62910D01*
X16988Y-62986D01*
X16988Y-63405D01*
X16988Y-62986D02*
X17026Y-62910D01*
X17103Y-62871D01*
X17217Y-62871D01*
X17293Y-62910D01*
X17331Y-62986D01*
X17331Y-63405D01*
X18551Y-63710D02*
X18513Y-63671D01*
X18437Y-63557D01*
X18399Y-63481D01*
X18361Y-63367D01*
X18322Y-63176D01*
X18322Y-63024D01*
X18361Y-62833D01*
X18399Y-62719D01*
X18437Y-62643D01*
X18513Y-62529D01*
X18551Y-62491D01*
X18779Y-62605D02*
X19275Y-62605D01*
X19008Y-62910D01*
X19122Y-62910D01*
X19198Y-62948D01*
X19236Y-62986D01*
X19275Y-63062D01*
X19275Y-63252D01*
X19236Y-63329D01*
X19198Y-63367D01*
X19122Y-63405D01*
X18894Y-63405D01*
X18817Y-63367D01*
X18779Y-63329D01*
X20227Y-63405D02*
X20227Y-62605D01*
X20570Y-63405D02*
X20570Y-62986D01*
X20532Y-62910D01*
X20456Y-62871D01*
X20342Y-62871D01*
X20266Y-62910D01*
X20227Y-62948D01*
X21066Y-63405D02*
X20990Y-63367D01*
X20951Y-63329D01*
X20913Y-63252D01*
X20913Y-63024D01*
X20951Y-62948D01*
X20990Y-62910D01*
X21066Y-62871D01*
X21180Y-62871D01*
X21256Y-62910D01*
X21294Y-62948D01*
X21332Y-63024D01*
X21332Y-63252D01*
X21294Y-63329D01*
X21256Y-63367D01*
X21180Y-63405D01*
X21066Y-63405D01*
X21790Y-63405D02*
X21714Y-63367D01*
X21675Y-63291D01*
X21675Y-62605D01*
X22399Y-63367D02*
X22323Y-63405D01*
X22171Y-63405D01*
X22094Y-63367D01*
X22056Y-63291D01*
X22056Y-62986D01*
X22094Y-62910D01*
X22171Y-62871D01*
X22323Y-62871D01*
X22399Y-62910D01*
X22437Y-62986D01*
X22437Y-63062D01*
X22056Y-63138D01*
X22742Y-63367D02*
X22819Y-63405D01*
X22971Y-63405D01*
X23047Y-63367D01*
X23085Y-63291D01*
X23085Y-63252D01*
X23047Y-63176D01*
X22971Y-63138D01*
X22857Y-63138D01*
X22780Y-63100D01*
X22742Y-63024D01*
X22742Y-62986D01*
X22780Y-62910D01*
X22857Y-62871D01*
X22971Y-62871D01*
X23047Y-62910D01*
X23352Y-63710D02*
X23390Y-63671D01*
X23467Y-63557D01*
X23505Y-63481D01*
X23543Y-63367D01*
X23581Y-63176D01*
X23581Y-63024D01*
X23543Y-62833D01*
X23505Y-62719D01*
X23467Y-62643D01*
X23390Y-62529D01*
X23352Y-62491D01*
M02*
