G04 (created by PCBNEW (2012-01-19 BZR 3256)-stable) date Mon 08 Oct 2012 20:52:08 BST*
G01*
G70*
G90*
%MOIN*%
G04 Gerber Fmt 3.4, Leading zero omitted, Abs format*
%FSLAX34Y34*%
G04 APERTURE LIST*
%ADD10C,0.001000*%
%ADD11C,0.015000*%
%ADD12C,0.008000*%
G04 APERTURE END LIST*
G54D10*
G54D11*
X18366Y-49035D02*
X42618Y-49035D01*
X18307Y-20039D02*
X18307Y-48425D01*
X42933Y-19400D02*
X18681Y-19400D01*
X43435Y-48277D02*
X43435Y-19970D01*
G54D10*
X40940Y-47355D02*
X41452Y-47867D01*
X41452Y-47355D02*
X40940Y-47867D01*
X39990Y-34459D02*
X39981Y-34548D01*
X39955Y-34635D01*
X39912Y-34714D01*
X39855Y-34784D01*
X39786Y-34842D01*
X39707Y-34884D01*
X39620Y-34911D01*
X39531Y-34920D01*
X39442Y-34912D01*
X39355Y-34887D01*
X39276Y-34845D01*
X39205Y-34789D01*
X39147Y-34720D01*
X39104Y-34641D01*
X39077Y-34555D01*
X39067Y-34465D01*
X39074Y-34376D01*
X39099Y-34289D01*
X39140Y-34209D01*
X39196Y-34139D01*
X39265Y-34080D01*
X39344Y-34036D01*
X39429Y-34008D01*
X39519Y-33998D01*
X39608Y-34005D01*
X39695Y-34029D01*
X39775Y-34069D01*
X39846Y-34125D01*
X39905Y-34193D01*
X39950Y-34272D01*
X39978Y-34357D01*
X39989Y-34447D01*
X39990Y-34459D01*
X39990Y-38062D02*
X39981Y-38151D01*
X39955Y-38238D01*
X39912Y-38317D01*
X39855Y-38387D01*
X39786Y-38445D01*
X39707Y-38487D01*
X39620Y-38514D01*
X39531Y-38523D01*
X39442Y-38515D01*
X39355Y-38490D01*
X39276Y-38448D01*
X39205Y-38392D01*
X39147Y-38323D01*
X39104Y-38244D01*
X39077Y-38158D01*
X39067Y-38068D01*
X39074Y-37979D01*
X39099Y-37892D01*
X39140Y-37812D01*
X39196Y-37742D01*
X39265Y-37683D01*
X39344Y-37639D01*
X39429Y-37611D01*
X39519Y-37601D01*
X39608Y-37608D01*
X39695Y-37632D01*
X39775Y-37672D01*
X39846Y-37728D01*
X39905Y-37796D01*
X39950Y-37875D01*
X39978Y-37960D01*
X39989Y-38050D01*
X39990Y-38062D01*
G54D12*
X06814Y-54340D02*
X06814Y-53540D01*
X07005Y-53540D01*
X07119Y-53578D01*
X07195Y-53654D01*
X07234Y-53730D01*
X07272Y-53883D01*
X07272Y-53997D01*
X07234Y-54149D01*
X07195Y-54226D01*
X07119Y-54302D01*
X07005Y-54340D01*
X06814Y-54340D01*
X07614Y-54340D02*
X07614Y-53806D01*
X07614Y-53959D02*
X07653Y-53883D01*
X07691Y-53845D01*
X07767Y-53806D01*
X07843Y-53806D01*
X08109Y-54340D02*
X08109Y-53806D01*
X08109Y-53540D02*
X08071Y-53578D01*
X08109Y-53616D01*
X08148Y-53578D01*
X08109Y-53540D01*
X08109Y-53616D01*
X08605Y-54340D02*
X08529Y-54302D01*
X08490Y-54226D01*
X08490Y-53540D01*
X09024Y-54340D02*
X08948Y-54302D01*
X08909Y-54226D01*
X08909Y-53540D01*
X09938Y-54340D02*
X09938Y-53540D01*
X10205Y-54111D01*
X10472Y-53540D01*
X10472Y-54340D01*
X11195Y-54340D02*
X11195Y-53921D01*
X11157Y-53845D01*
X11081Y-53806D01*
X10929Y-53806D01*
X10852Y-53845D01*
X11195Y-54302D02*
X11119Y-54340D01*
X10929Y-54340D01*
X10852Y-54302D01*
X10814Y-54226D01*
X10814Y-54149D01*
X10852Y-54073D01*
X10929Y-54035D01*
X11119Y-54035D01*
X11195Y-53997D01*
X11576Y-53806D02*
X11576Y-54606D01*
X11576Y-53845D02*
X11653Y-53806D01*
X11805Y-53806D01*
X11881Y-53845D01*
X11919Y-53883D01*
X11957Y-53959D01*
X11957Y-54187D01*
X11919Y-54264D01*
X11881Y-54302D01*
X11805Y-54340D01*
X11653Y-54340D01*
X11576Y-54302D01*
X12300Y-54264D02*
X12339Y-54302D01*
X12300Y-54340D01*
X12262Y-54302D01*
X12300Y-54264D01*
X12300Y-54340D01*
X12300Y-53845D02*
X12339Y-53883D01*
X12300Y-53921D01*
X12262Y-53883D01*
X12300Y-53845D01*
X12300Y-53921D01*
X05912Y-55440D02*
X06424Y-55952D01*
X06424Y-55440D02*
X05912Y-55952D01*
X07234Y-56020D02*
X06776Y-56020D01*
X07005Y-56020D02*
X07005Y-55220D01*
X06929Y-55334D01*
X06853Y-55410D01*
X06776Y-55448D01*
X07576Y-55944D02*
X07615Y-55982D01*
X07576Y-56020D01*
X07538Y-55982D01*
X07576Y-55944D01*
X07576Y-56020D01*
X07881Y-55220D02*
X08377Y-55220D01*
X08110Y-55525D01*
X08224Y-55525D01*
X08300Y-55563D01*
X08338Y-55601D01*
X08377Y-55677D01*
X08377Y-55867D01*
X08338Y-55944D01*
X08300Y-55982D01*
X08224Y-56020D01*
X07996Y-56020D01*
X07919Y-55982D01*
X07881Y-55944D01*
X08872Y-55220D02*
X08948Y-55220D01*
X09024Y-55258D01*
X09062Y-55296D01*
X09100Y-55372D01*
X09139Y-55525D01*
X09139Y-55715D01*
X09100Y-55867D01*
X09062Y-55944D01*
X09024Y-55982D01*
X08948Y-56020D01*
X08872Y-56020D01*
X08796Y-55982D01*
X08758Y-55944D01*
X08719Y-55867D01*
X08681Y-55715D01*
X08681Y-55525D01*
X08719Y-55372D01*
X08758Y-55296D01*
X08796Y-55258D01*
X08872Y-55220D01*
X09481Y-56020D02*
X09481Y-55486D01*
X09481Y-55563D02*
X09520Y-55525D01*
X09596Y-55486D01*
X09710Y-55486D01*
X09786Y-55525D01*
X09824Y-55601D01*
X09824Y-56020D01*
X09824Y-55601D02*
X09862Y-55525D01*
X09939Y-55486D01*
X10053Y-55486D01*
X10129Y-55525D01*
X10167Y-55601D01*
X10167Y-56020D01*
X10548Y-56020D02*
X10548Y-55486D01*
X10548Y-55563D02*
X10587Y-55525D01*
X10663Y-55486D01*
X10777Y-55486D01*
X10853Y-55525D01*
X10891Y-55601D01*
X10891Y-56020D01*
X10891Y-55601D02*
X10929Y-55525D01*
X11006Y-55486D01*
X11120Y-55486D01*
X11196Y-55525D01*
X11234Y-55601D01*
X11234Y-56020D01*
X12797Y-55182D02*
X12111Y-56210D01*
X13826Y-55220D02*
X13902Y-55220D01*
X13978Y-55258D01*
X14016Y-55296D01*
X14054Y-55372D01*
X14093Y-55525D01*
X14093Y-55715D01*
X14054Y-55867D01*
X14016Y-55944D01*
X13978Y-55982D01*
X13902Y-56020D01*
X13826Y-56020D01*
X13750Y-55982D01*
X13712Y-55944D01*
X13673Y-55867D01*
X13635Y-55715D01*
X13635Y-55525D01*
X13673Y-55372D01*
X13712Y-55296D01*
X13750Y-55258D01*
X13826Y-55220D01*
X14435Y-55944D02*
X14474Y-55982D01*
X14435Y-56020D01*
X14397Y-55982D01*
X14435Y-55944D01*
X14435Y-56020D01*
X14969Y-55220D02*
X15045Y-55220D01*
X15121Y-55258D01*
X15159Y-55296D01*
X15197Y-55372D01*
X15236Y-55525D01*
X15236Y-55715D01*
X15197Y-55867D01*
X15159Y-55944D01*
X15121Y-55982D01*
X15045Y-56020D01*
X14969Y-56020D01*
X14893Y-55982D01*
X14855Y-55944D01*
X14816Y-55867D01*
X14778Y-55715D01*
X14778Y-55525D01*
X14816Y-55372D01*
X14855Y-55296D01*
X14893Y-55258D01*
X14969Y-55220D01*
X15959Y-55220D02*
X15578Y-55220D01*
X15540Y-55601D01*
X15578Y-55563D01*
X15655Y-55525D01*
X15845Y-55525D01*
X15921Y-55563D01*
X15959Y-55601D01*
X15998Y-55677D01*
X15998Y-55867D01*
X15959Y-55944D01*
X15921Y-55982D01*
X15845Y-56020D01*
X15655Y-56020D01*
X15578Y-55982D01*
X15540Y-55944D01*
X16760Y-56020D02*
X16302Y-56020D01*
X16531Y-56020D02*
X16531Y-55220D01*
X16455Y-55334D01*
X16379Y-55410D01*
X16302Y-55448D01*
X17064Y-55220D02*
X17064Y-55372D01*
X17369Y-55220D02*
X17369Y-55372D01*
X18551Y-56325D02*
X18513Y-56286D01*
X18437Y-56172D01*
X18399Y-56096D01*
X18361Y-55982D01*
X18322Y-55791D01*
X18322Y-55639D01*
X18361Y-55448D01*
X18399Y-55334D01*
X18437Y-55258D01*
X18513Y-55144D01*
X18551Y-55106D01*
X19275Y-56020D02*
X18817Y-56020D01*
X19046Y-56020D02*
X19046Y-55220D01*
X18970Y-55334D01*
X18894Y-55410D01*
X18817Y-55448D01*
X20227Y-56020D02*
X20227Y-55220D01*
X20570Y-56020D02*
X20570Y-55601D01*
X20532Y-55525D01*
X20456Y-55486D01*
X20342Y-55486D01*
X20266Y-55525D01*
X20227Y-55563D01*
X21066Y-56020D02*
X20990Y-55982D01*
X20951Y-55944D01*
X20913Y-55867D01*
X20913Y-55639D01*
X20951Y-55563D01*
X20990Y-55525D01*
X21066Y-55486D01*
X21180Y-55486D01*
X21256Y-55525D01*
X21294Y-55563D01*
X21332Y-55639D01*
X21332Y-55867D01*
X21294Y-55944D01*
X21256Y-55982D01*
X21180Y-56020D01*
X21066Y-56020D01*
X21790Y-56020D02*
X21714Y-55982D01*
X21675Y-55906D01*
X21675Y-55220D01*
X22399Y-55982D02*
X22323Y-56020D01*
X22171Y-56020D01*
X22094Y-55982D01*
X22056Y-55906D01*
X22056Y-55601D01*
X22094Y-55525D01*
X22171Y-55486D01*
X22323Y-55486D01*
X22399Y-55525D01*
X22437Y-55601D01*
X22437Y-55677D01*
X22056Y-55753D01*
X22704Y-56325D02*
X22742Y-56286D01*
X22819Y-56172D01*
X22857Y-56096D01*
X22895Y-55982D01*
X22933Y-55791D01*
X22933Y-55639D01*
X22895Y-55448D01*
X22857Y-55334D01*
X22819Y-55258D01*
X22742Y-55144D01*
X22704Y-55106D01*
G54D10*
X06423Y-56751D02*
X06414Y-56840D01*
X06388Y-56927D01*
X06345Y-57006D01*
X06288Y-57076D01*
X06219Y-57134D01*
X06140Y-57176D01*
X06053Y-57203D01*
X05964Y-57212D01*
X05875Y-57204D01*
X05788Y-57179D01*
X05709Y-57137D01*
X05638Y-57081D01*
X05580Y-57012D01*
X05537Y-56933D01*
X05510Y-56847D01*
X05500Y-56757D01*
X05507Y-56668D01*
X05532Y-56581D01*
X05573Y-56501D01*
X05629Y-56431D01*
X05698Y-56372D01*
X05777Y-56328D01*
X05862Y-56300D01*
X05952Y-56290D01*
X06041Y-56297D01*
X06128Y-56321D01*
X06208Y-56361D01*
X06279Y-56417D01*
X06338Y-56485D01*
X06383Y-56564D01*
X06411Y-56649D01*
X06422Y-56739D01*
X06423Y-56751D01*
G54D12*
X06776Y-56351D02*
X06814Y-56313D01*
X06891Y-56275D01*
X07081Y-56275D01*
X07157Y-56313D01*
X07195Y-56351D01*
X07234Y-56427D01*
X07234Y-56503D01*
X07195Y-56618D01*
X06738Y-57075D01*
X07234Y-57075D01*
X07576Y-56999D02*
X07615Y-57037D01*
X07576Y-57075D01*
X07538Y-57037D01*
X07576Y-56999D01*
X07576Y-57075D01*
X07881Y-56275D02*
X08377Y-56275D01*
X08110Y-56580D01*
X08224Y-56580D01*
X08300Y-56618D01*
X08338Y-56656D01*
X08377Y-56732D01*
X08377Y-56922D01*
X08338Y-56999D01*
X08300Y-57037D01*
X08224Y-57075D01*
X07996Y-57075D01*
X07919Y-57037D01*
X07881Y-56999D01*
X09100Y-56275D02*
X08719Y-56275D01*
X08681Y-56656D01*
X08719Y-56618D01*
X08796Y-56580D01*
X08986Y-56580D01*
X09062Y-56618D01*
X09100Y-56656D01*
X09139Y-56732D01*
X09139Y-56922D01*
X09100Y-56999D01*
X09062Y-57037D01*
X08986Y-57075D01*
X08796Y-57075D01*
X08719Y-57037D01*
X08681Y-56999D01*
X09481Y-57075D02*
X09481Y-56541D01*
X09481Y-56618D02*
X09520Y-56580D01*
X09596Y-56541D01*
X09710Y-56541D01*
X09786Y-56580D01*
X09824Y-56656D01*
X09824Y-57075D01*
X09824Y-56656D02*
X09862Y-56580D01*
X09939Y-56541D01*
X10053Y-56541D01*
X10129Y-56580D01*
X10167Y-56656D01*
X10167Y-57075D01*
X10548Y-57075D02*
X10548Y-56541D01*
X10548Y-56618D02*
X10587Y-56580D01*
X10663Y-56541D01*
X10777Y-56541D01*
X10853Y-56580D01*
X10891Y-56656D01*
X10891Y-57075D01*
X10891Y-56656D02*
X10929Y-56580D01*
X11006Y-56541D01*
X11120Y-56541D01*
X11196Y-56580D01*
X11234Y-56656D01*
X11234Y-57075D01*
X12797Y-56237D02*
X12111Y-57265D01*
X13826Y-56275D02*
X13902Y-56275D01*
X13978Y-56313D01*
X14016Y-56351D01*
X14054Y-56427D01*
X14093Y-56580D01*
X14093Y-56770D01*
X14054Y-56922D01*
X14016Y-56999D01*
X13978Y-57037D01*
X13902Y-57075D01*
X13826Y-57075D01*
X13750Y-57037D01*
X13712Y-56999D01*
X13673Y-56922D01*
X13635Y-56770D01*
X13635Y-56580D01*
X13673Y-56427D01*
X13712Y-56351D01*
X13750Y-56313D01*
X13826Y-56275D01*
X14435Y-56999D02*
X14474Y-57037D01*
X14435Y-57075D01*
X14397Y-57037D01*
X14435Y-56999D01*
X14435Y-57075D01*
X14969Y-56275D02*
X15045Y-56275D01*
X15121Y-56313D01*
X15159Y-56351D01*
X15197Y-56427D01*
X15236Y-56580D01*
X15236Y-56770D01*
X15197Y-56922D01*
X15159Y-56999D01*
X15121Y-57037D01*
X15045Y-57075D01*
X14969Y-57075D01*
X14893Y-57037D01*
X14855Y-56999D01*
X14816Y-56922D01*
X14778Y-56770D01*
X14778Y-56580D01*
X14816Y-56427D01*
X14855Y-56351D01*
X14893Y-56313D01*
X14969Y-56275D01*
X15617Y-57075D02*
X15769Y-57075D01*
X15845Y-57037D01*
X15883Y-56999D01*
X15959Y-56884D01*
X15998Y-56732D01*
X15998Y-56427D01*
X15959Y-56351D01*
X15921Y-56313D01*
X15845Y-56275D01*
X15693Y-56275D01*
X15617Y-56313D01*
X15578Y-56351D01*
X15540Y-56427D01*
X15540Y-56618D01*
X15578Y-56694D01*
X15617Y-56732D01*
X15693Y-56770D01*
X15845Y-56770D01*
X15921Y-56732D01*
X15959Y-56694D01*
X15998Y-56618D01*
X16302Y-56351D02*
X16340Y-56313D01*
X16417Y-56275D01*
X16607Y-56275D01*
X16683Y-56313D01*
X16721Y-56351D01*
X16760Y-56427D01*
X16760Y-56503D01*
X16721Y-56618D01*
X16264Y-57075D01*
X16760Y-57075D01*
X17064Y-56275D02*
X17064Y-56427D01*
X17369Y-56275D02*
X17369Y-56427D01*
X18551Y-57380D02*
X18513Y-57341D01*
X18437Y-57227D01*
X18399Y-57151D01*
X18361Y-57037D01*
X18322Y-56846D01*
X18322Y-56694D01*
X18361Y-56503D01*
X18399Y-56389D01*
X18437Y-56313D01*
X18513Y-56199D01*
X18551Y-56161D01*
X18817Y-56351D02*
X18855Y-56313D01*
X18932Y-56275D01*
X19122Y-56275D01*
X19198Y-56313D01*
X19236Y-56351D01*
X19275Y-56427D01*
X19275Y-56503D01*
X19236Y-56618D01*
X18779Y-57075D01*
X19275Y-57075D01*
X20227Y-57075D02*
X20227Y-56275D01*
X20570Y-57075D02*
X20570Y-56656D01*
X20532Y-56580D01*
X20456Y-56541D01*
X20342Y-56541D01*
X20266Y-56580D01*
X20227Y-56618D01*
X21066Y-57075D02*
X20990Y-57037D01*
X20951Y-56999D01*
X20913Y-56922D01*
X20913Y-56694D01*
X20951Y-56618D01*
X20990Y-56580D01*
X21066Y-56541D01*
X21180Y-56541D01*
X21256Y-56580D01*
X21294Y-56618D01*
X21332Y-56694D01*
X21332Y-56922D01*
X21294Y-56999D01*
X21256Y-57037D01*
X21180Y-57075D01*
X21066Y-57075D01*
X21790Y-57075D02*
X21714Y-57037D01*
X21675Y-56961D01*
X21675Y-56275D01*
X22399Y-57037D02*
X22323Y-57075D01*
X22171Y-57075D01*
X22094Y-57037D01*
X22056Y-56961D01*
X22056Y-56656D01*
X22094Y-56580D01*
X22171Y-56541D01*
X22323Y-56541D01*
X22399Y-56580D01*
X22437Y-56656D01*
X22437Y-56732D01*
X22056Y-56808D01*
X22742Y-57037D02*
X22819Y-57075D01*
X22971Y-57075D01*
X23047Y-57037D01*
X23085Y-56961D01*
X23085Y-56922D01*
X23047Y-56846D01*
X22971Y-56808D01*
X22857Y-56808D01*
X22780Y-56770D01*
X22742Y-56694D01*
X22742Y-56656D01*
X22780Y-56580D01*
X22857Y-56541D01*
X22971Y-56541D01*
X23047Y-56580D01*
X23352Y-57380D02*
X23390Y-57341D01*
X23467Y-57227D01*
X23505Y-57151D01*
X23543Y-57037D01*
X23581Y-56846D01*
X23581Y-56694D01*
X23543Y-56503D01*
X23505Y-56389D01*
X23467Y-56313D01*
X23390Y-56199D01*
X23352Y-56161D01*
M02*
