G04 (created by PCBNEW-RS274X (2012-01-19 BZR 3256)-stable) date Mon 15 Oct 2012 17:11:54 BST*
G01*
G70*
G90*
%MOIN*%
G04 Gerber Fmt 3.4, Leading zero omitted, Abs format*
%FSLAX34Y34*%
G04 APERTURE LIST*
%ADD10C,0.006000*%
%ADD11C,0.012000*%
%ADD12R,0.080000X0.080000*%
%ADD13C,0.080000*%
%ADD14C,0.177500*%
%ADD15C,0.071200*%
%ADD16C,0.118400*%
%ADD17C,0.031600*%
%ADD18C,0.070900*%
%ADD19R,0.075000X0.075000*%
%ADD20C,0.075000*%
%ADD21R,0.118400X0.177500*%
%ADD22C,0.216900*%
G04 APERTURE END LIST*
G54D10*
G54D11*
X07114Y-39203D02*
X07200Y-39241D01*
X07343Y-39241D01*
X07400Y-39203D01*
X07429Y-39165D01*
X07457Y-39088D01*
X07457Y-39012D01*
X07429Y-38936D01*
X07400Y-38898D01*
X07343Y-38860D01*
X07229Y-38822D01*
X07171Y-38784D01*
X07143Y-38746D01*
X07114Y-38669D01*
X07114Y-38593D01*
X07143Y-38517D01*
X07171Y-38479D01*
X07229Y-38441D01*
X07371Y-38441D01*
X07457Y-38479D01*
X07800Y-39241D02*
X07742Y-39203D01*
X07714Y-39165D01*
X07685Y-39088D01*
X07685Y-38860D01*
X07714Y-38784D01*
X07742Y-38746D01*
X07800Y-38707D01*
X07885Y-38707D01*
X07942Y-38746D01*
X07971Y-38784D01*
X08000Y-38860D01*
X08000Y-39088D01*
X07971Y-39165D01*
X07942Y-39203D01*
X07885Y-39241D01*
X07800Y-39241D01*
X08343Y-39241D02*
X08285Y-39203D01*
X08257Y-39127D01*
X08257Y-38441D01*
X08828Y-39241D02*
X08828Y-38441D01*
X08828Y-39203D02*
X08771Y-39241D01*
X08657Y-39241D01*
X08599Y-39203D01*
X08571Y-39165D01*
X08542Y-39088D01*
X08542Y-38860D01*
X08571Y-38784D01*
X08599Y-38746D01*
X08657Y-38707D01*
X08771Y-38707D01*
X08828Y-38746D01*
X09342Y-39203D02*
X09285Y-39241D01*
X09171Y-39241D01*
X09114Y-39203D01*
X09085Y-39127D01*
X09085Y-38822D01*
X09114Y-38746D01*
X09171Y-38707D01*
X09285Y-38707D01*
X09342Y-38746D01*
X09371Y-38822D01*
X09371Y-38898D01*
X09085Y-38974D01*
X09628Y-39241D02*
X09628Y-38707D01*
X09628Y-38860D02*
X09656Y-38784D01*
X09685Y-38746D01*
X09742Y-38707D01*
X09799Y-38707D01*
X10456Y-39241D02*
X10456Y-38441D01*
X10656Y-39012D01*
X10856Y-38441D01*
X10856Y-39241D01*
X11399Y-39241D02*
X11399Y-38822D01*
X11370Y-38746D01*
X11313Y-38707D01*
X11199Y-38707D01*
X11142Y-38746D01*
X11399Y-39203D02*
X11342Y-39241D01*
X11199Y-39241D01*
X11142Y-39203D01*
X11113Y-39127D01*
X11113Y-39050D01*
X11142Y-38974D01*
X11199Y-38936D01*
X11342Y-38936D01*
X11399Y-38898D01*
X11656Y-39203D02*
X11713Y-39241D01*
X11828Y-39241D01*
X11885Y-39203D01*
X11913Y-39127D01*
X11913Y-39088D01*
X11885Y-39012D01*
X11828Y-38974D01*
X11742Y-38974D01*
X11685Y-38936D01*
X11656Y-38860D01*
X11656Y-38822D01*
X11685Y-38746D01*
X11742Y-38707D01*
X11828Y-38707D01*
X11885Y-38746D01*
X12171Y-39241D02*
X12171Y-38441D01*
X12228Y-38936D02*
X12399Y-39241D01*
X12399Y-38707D02*
X12171Y-39012D01*
X13285Y-39546D02*
X13257Y-39507D01*
X13200Y-39393D01*
X13171Y-39317D01*
X13142Y-39203D01*
X13114Y-39012D01*
X13114Y-38860D01*
X13142Y-38669D01*
X13171Y-38555D01*
X13200Y-38479D01*
X13257Y-38365D01*
X13285Y-38327D01*
X13714Y-38822D02*
X13800Y-38860D01*
X13828Y-38898D01*
X13857Y-38974D01*
X13857Y-39088D01*
X13828Y-39165D01*
X13800Y-39203D01*
X13742Y-39241D01*
X13514Y-39241D01*
X13514Y-38441D01*
X13714Y-38441D01*
X13771Y-38479D01*
X13800Y-38517D01*
X13828Y-38593D01*
X13828Y-38669D01*
X13800Y-38746D01*
X13771Y-38784D01*
X13714Y-38822D01*
X13514Y-38822D01*
X14371Y-39241D02*
X14371Y-38822D01*
X14342Y-38746D01*
X14285Y-38707D01*
X14171Y-38707D01*
X14114Y-38746D01*
X14371Y-39203D02*
X14314Y-39241D01*
X14171Y-39241D01*
X14114Y-39203D01*
X14085Y-39127D01*
X14085Y-39050D01*
X14114Y-38974D01*
X14171Y-38936D01*
X14314Y-38936D01*
X14371Y-38898D01*
X14914Y-39203D02*
X14857Y-39241D01*
X14743Y-39241D01*
X14685Y-39203D01*
X14657Y-39165D01*
X14628Y-39088D01*
X14628Y-38860D01*
X14657Y-38784D01*
X14685Y-38746D01*
X14743Y-38707D01*
X14857Y-38707D01*
X14914Y-38746D01*
X15171Y-39241D02*
X15171Y-38441D01*
X15228Y-38936D02*
X15399Y-39241D01*
X15399Y-38707D02*
X15171Y-39012D01*
X15600Y-39546D02*
X15628Y-39507D01*
X15685Y-39393D01*
X15714Y-39317D01*
X15743Y-39203D01*
X15771Y-39012D01*
X15771Y-38860D01*
X15743Y-38669D01*
X15714Y-38555D01*
X15685Y-38479D01*
X15628Y-38365D01*
X15600Y-38327D01*
G54D12*
X19976Y-29083D03*
G54D13*
X20976Y-29083D03*
X19976Y-30083D03*
X20976Y-30083D03*
X19976Y-31083D03*
X20976Y-31083D03*
X19976Y-32083D03*
X20976Y-32083D03*
X19976Y-33083D03*
X20976Y-33083D03*
X19976Y-34083D03*
X20976Y-34083D03*
X19976Y-35083D03*
X20976Y-35083D03*
G54D14*
X41811Y-39094D03*
G54D15*
X40807Y-33416D03*
X40020Y-33022D03*
X40807Y-32628D03*
X40020Y-32235D03*
X40807Y-31841D03*
X40020Y-31447D03*
X40807Y-31054D03*
X40020Y-30660D03*
X40807Y-30266D03*
X40020Y-29872D03*
X40020Y-33810D03*
G54D16*
X39528Y-34459D03*
G54D15*
X40808Y-34991D03*
X40020Y-35385D03*
X40808Y-35778D03*
X40020Y-36172D03*
X40808Y-36566D03*
X40020Y-36959D03*
X40808Y-37353D03*
X39036Y-29873D03*
X38249Y-30266D03*
X39036Y-30660D03*
X38249Y-31054D03*
X39036Y-31447D03*
X38249Y-31841D03*
X39036Y-32235D03*
X38249Y-32629D03*
X39036Y-33022D03*
X38249Y-33416D03*
X39036Y-33810D03*
X38249Y-34991D03*
X39036Y-35385D03*
X38249Y-35778D03*
X39036Y-36172D03*
X38249Y-36566D03*
X39036Y-36959D03*
X38249Y-37353D03*
G54D16*
X39528Y-38062D03*
G54D17*
X21929Y-34516D03*
G54D18*
X29685Y-43750D03*
X35591Y-39843D03*
G54D19*
X40994Y-40573D03*
G54D20*
X40994Y-41573D03*
G54D17*
X31496Y-39173D03*
X20571Y-36683D03*
X23327Y-43789D03*
X24547Y-43848D03*
X21427Y-45266D03*
X23189Y-39793D03*
X24478Y-39823D03*
X21270Y-40344D03*
G54D12*
X36346Y-45577D03*
G54D13*
X36346Y-46577D03*
X35346Y-45577D03*
X35346Y-46577D03*
X34346Y-45577D03*
X34346Y-46577D03*
X33346Y-45577D03*
X33346Y-46577D03*
X32346Y-45577D03*
X32346Y-46577D03*
X31346Y-45577D03*
X31346Y-46577D03*
X30346Y-45577D03*
X30346Y-46577D03*
X29346Y-45577D03*
X29346Y-46577D03*
X28346Y-45577D03*
X28346Y-46577D03*
X27346Y-45577D03*
X27346Y-46577D03*
G54D12*
X22343Y-46445D03*
G54D13*
X22343Y-45445D03*
G54D21*
X39720Y-45642D03*
X41334Y-45642D03*
X42751Y-45642D03*
G54D15*
X41196Y-47611D03*
G54D19*
X37008Y-36616D03*
G54D20*
X37008Y-37616D03*
G54D19*
X41988Y-40573D03*
G54D20*
X41988Y-41573D03*
G54D12*
X38594Y-27280D03*
G54D13*
X37594Y-27280D03*
X38594Y-26280D03*
X37594Y-26280D03*
X38594Y-25280D03*
X37594Y-25280D03*
X38594Y-24280D03*
X37594Y-24280D03*
G54D12*
X35486Y-43681D03*
G54D13*
X36486Y-43681D03*
X37486Y-43681D03*
G54D19*
X24311Y-44923D03*
G54D20*
X24311Y-45923D03*
G54D19*
X27266Y-39823D03*
G54D20*
X28266Y-39823D03*
G54D22*
X22417Y-20685D03*
X39752Y-20685D03*
X19776Y-47677D03*
G54D19*
X36557Y-39547D03*
G54D20*
X37557Y-39547D03*
G54D19*
X24301Y-36110D03*
G54D20*
X24301Y-35110D03*
M02*
