G04 (created by PCBNEW-RS274X (2012-01-19 BZR 3256)-stable) date Tue 02 Oct 2012 00:54:15 BST*
G01*
G70*
G90*
%MOIN*%
G04 Gerber Fmt 3.4, Leading zero omitted, Abs format*
%FSLAX34Y34*%
G04 APERTURE LIST*
%ADD10C,0.006000*%
%ADD11C,0.012000*%
%ADD12C,0.031600*%
%ADD13C,0.070900*%
%ADD14C,0.071200*%
%ADD15R,0.075000X0.075000*%
%ADD16C,0.075000*%
%ADD17R,0.080000X0.080000*%
%ADD18C,0.080000*%
%ADD19R,0.118400X0.177500*%
G04 APERTURE END LIST*
G54D10*
G54D11*
X07114Y-39203D02*
X07200Y-39241D01*
X07343Y-39241D01*
X07400Y-39203D01*
X07429Y-39165D01*
X07457Y-39088D01*
X07457Y-39012D01*
X07429Y-38936D01*
X07400Y-38898D01*
X07343Y-38860D01*
X07229Y-38822D01*
X07171Y-38784D01*
X07143Y-38746D01*
X07114Y-38669D01*
X07114Y-38593D01*
X07143Y-38517D01*
X07171Y-38479D01*
X07229Y-38441D01*
X07371Y-38441D01*
X07457Y-38479D01*
X07800Y-39241D02*
X07742Y-39203D01*
X07714Y-39165D01*
X07685Y-39088D01*
X07685Y-38860D01*
X07714Y-38784D01*
X07742Y-38746D01*
X07800Y-38707D01*
X07885Y-38707D01*
X07942Y-38746D01*
X07971Y-38784D01*
X08000Y-38860D01*
X08000Y-39088D01*
X07971Y-39165D01*
X07942Y-39203D01*
X07885Y-39241D01*
X07800Y-39241D01*
X08343Y-39241D02*
X08285Y-39203D01*
X08257Y-39127D01*
X08257Y-38441D01*
X08828Y-39241D02*
X08828Y-38441D01*
X08828Y-39203D02*
X08771Y-39241D01*
X08657Y-39241D01*
X08599Y-39203D01*
X08571Y-39165D01*
X08542Y-39088D01*
X08542Y-38860D01*
X08571Y-38784D01*
X08599Y-38746D01*
X08657Y-38707D01*
X08771Y-38707D01*
X08828Y-38746D01*
X09342Y-39203D02*
X09285Y-39241D01*
X09171Y-39241D01*
X09114Y-39203D01*
X09085Y-39127D01*
X09085Y-38822D01*
X09114Y-38746D01*
X09171Y-38707D01*
X09285Y-38707D01*
X09342Y-38746D01*
X09371Y-38822D01*
X09371Y-38898D01*
X09085Y-38974D01*
X09628Y-39241D02*
X09628Y-38707D01*
X09628Y-38860D02*
X09656Y-38784D01*
X09685Y-38746D01*
X09742Y-38707D01*
X09799Y-38707D01*
X10456Y-39241D02*
X10456Y-38441D01*
X10656Y-39012D01*
X10856Y-38441D01*
X10856Y-39241D01*
X11399Y-39241D02*
X11399Y-38822D01*
X11370Y-38746D01*
X11313Y-38707D01*
X11199Y-38707D01*
X11142Y-38746D01*
X11399Y-39203D02*
X11342Y-39241D01*
X11199Y-39241D01*
X11142Y-39203D01*
X11113Y-39127D01*
X11113Y-39050D01*
X11142Y-38974D01*
X11199Y-38936D01*
X11342Y-38936D01*
X11399Y-38898D01*
X11656Y-39203D02*
X11713Y-39241D01*
X11828Y-39241D01*
X11885Y-39203D01*
X11913Y-39127D01*
X11913Y-39088D01*
X11885Y-39012D01*
X11828Y-38974D01*
X11742Y-38974D01*
X11685Y-38936D01*
X11656Y-38860D01*
X11656Y-38822D01*
X11685Y-38746D01*
X11742Y-38707D01*
X11828Y-38707D01*
X11885Y-38746D01*
X12171Y-39241D02*
X12171Y-38441D01*
X12228Y-38936D02*
X12399Y-39241D01*
X12399Y-38707D02*
X12171Y-39012D01*
X13285Y-39546D02*
X13257Y-39507D01*
X13200Y-39393D01*
X13171Y-39317D01*
X13142Y-39203D01*
X13114Y-39012D01*
X13114Y-38860D01*
X13142Y-38669D01*
X13171Y-38555D01*
X13200Y-38479D01*
X13257Y-38365D01*
X13285Y-38327D01*
X13714Y-38822D02*
X13800Y-38860D01*
X13828Y-38898D01*
X13857Y-38974D01*
X13857Y-39088D01*
X13828Y-39165D01*
X13800Y-39203D01*
X13742Y-39241D01*
X13514Y-39241D01*
X13514Y-38441D01*
X13714Y-38441D01*
X13771Y-38479D01*
X13800Y-38517D01*
X13828Y-38593D01*
X13828Y-38669D01*
X13800Y-38746D01*
X13771Y-38784D01*
X13714Y-38822D01*
X13514Y-38822D01*
X14371Y-39241D02*
X14371Y-38822D01*
X14342Y-38746D01*
X14285Y-38707D01*
X14171Y-38707D01*
X14114Y-38746D01*
X14371Y-39203D02*
X14314Y-39241D01*
X14171Y-39241D01*
X14114Y-39203D01*
X14085Y-39127D01*
X14085Y-39050D01*
X14114Y-38974D01*
X14171Y-38936D01*
X14314Y-38936D01*
X14371Y-38898D01*
X14914Y-39203D02*
X14857Y-39241D01*
X14743Y-39241D01*
X14685Y-39203D01*
X14657Y-39165D01*
X14628Y-39088D01*
X14628Y-38860D01*
X14657Y-38784D01*
X14685Y-38746D01*
X14743Y-38707D01*
X14857Y-38707D01*
X14914Y-38746D01*
X15171Y-39241D02*
X15171Y-38441D01*
X15228Y-38936D02*
X15399Y-39241D01*
X15399Y-38707D02*
X15171Y-39012D01*
X15600Y-39546D02*
X15628Y-39507D01*
X15685Y-39393D01*
X15714Y-39317D01*
X15743Y-39203D01*
X15771Y-39012D01*
X15771Y-38860D01*
X15743Y-38669D01*
X15714Y-38555D01*
X15685Y-38479D01*
X15628Y-38365D01*
X15600Y-38327D01*
G54D12*
X22685Y-36035D03*
G54D13*
X29478Y-43976D03*
G54D14*
X39630Y-34351D03*
X39630Y-38071D03*
G54D13*
X37150Y-39374D03*
X39220Y-39902D03*
G54D15*
X41171Y-40238D03*
G54D16*
X41171Y-41238D03*
G54D12*
X31496Y-39173D03*
X20571Y-36683D03*
X23327Y-43789D03*
X24547Y-43848D03*
X21427Y-45266D03*
X23189Y-39793D03*
X24478Y-39823D03*
X21270Y-40344D03*
G54D17*
X36386Y-45941D03*
G54D18*
X36386Y-46941D03*
X35386Y-45941D03*
X35386Y-46941D03*
X34386Y-45941D03*
X34386Y-46941D03*
X33386Y-45941D03*
X33386Y-46941D03*
X32386Y-45941D03*
X32386Y-46941D03*
X31386Y-45941D03*
X31386Y-46941D03*
X30386Y-45941D03*
X30386Y-46941D03*
X29386Y-45941D03*
X29386Y-46941D03*
X28386Y-45941D03*
X28386Y-46941D03*
X27386Y-45941D03*
X27386Y-46941D03*
G54D17*
X22343Y-46445D03*
G54D18*
X22343Y-45445D03*
G54D19*
X39720Y-45642D03*
X41334Y-45642D03*
X42751Y-45642D03*
G54D14*
X41196Y-47611D03*
M02*
