G04 (created by PCBNEW-RS274X (2012-01-19 BZR 3256)-stable) date Tue 02 Oct 2012 00:54:15 BST*
G01*
G70*
G90*
%MOIN*%
G04 Gerber Fmt 3.4, Leading zero omitted, Abs format*
%FSLAX34Y34*%
G04 APERTURE LIST*
%ADD10C,0.006000*%
%ADD11C,0.012000*%
G04 APERTURE END LIST*
G54D10*
G54D11*
X07405Y-30640D02*
X07491Y-30678D01*
X07634Y-30678D01*
X07691Y-30640D01*
X07720Y-30602D01*
X07748Y-30525D01*
X07748Y-30449D01*
X07720Y-30373D01*
X07691Y-30335D01*
X07634Y-30297D01*
X07520Y-30259D01*
X07462Y-30221D01*
X07434Y-30183D01*
X07405Y-30106D01*
X07405Y-30030D01*
X07434Y-29954D01*
X07462Y-29916D01*
X07520Y-29878D01*
X07662Y-29878D01*
X07748Y-29916D01*
X08091Y-30678D02*
X08033Y-30640D01*
X08005Y-30602D01*
X07976Y-30525D01*
X07976Y-30297D01*
X08005Y-30221D01*
X08033Y-30183D01*
X08091Y-30144D01*
X08176Y-30144D01*
X08233Y-30183D01*
X08262Y-30221D01*
X08291Y-30297D01*
X08291Y-30525D01*
X08262Y-30602D01*
X08233Y-30640D01*
X08176Y-30678D01*
X08091Y-30678D01*
X08634Y-30678D02*
X08576Y-30640D01*
X08548Y-30564D01*
X08548Y-29878D01*
X09119Y-30678D02*
X09119Y-29878D01*
X09119Y-30640D02*
X09062Y-30678D01*
X08948Y-30678D01*
X08890Y-30640D01*
X08862Y-30602D01*
X08833Y-30525D01*
X08833Y-30297D01*
X08862Y-30221D01*
X08890Y-30183D01*
X08948Y-30144D01*
X09062Y-30144D01*
X09119Y-30183D01*
X09633Y-30640D02*
X09576Y-30678D01*
X09462Y-30678D01*
X09405Y-30640D01*
X09376Y-30564D01*
X09376Y-30259D01*
X09405Y-30183D01*
X09462Y-30144D01*
X09576Y-30144D01*
X09633Y-30183D01*
X09662Y-30259D01*
X09662Y-30335D01*
X09376Y-30411D01*
X09919Y-30678D02*
X09919Y-30144D01*
X09919Y-30297D02*
X09947Y-30221D01*
X09976Y-30183D01*
X10033Y-30144D01*
X10090Y-30144D01*
X10747Y-30678D02*
X10747Y-29878D01*
X10975Y-29878D01*
X11033Y-29916D01*
X11061Y-29954D01*
X11090Y-30030D01*
X11090Y-30144D01*
X11061Y-30221D01*
X11033Y-30259D01*
X10975Y-30297D01*
X10747Y-30297D01*
X11604Y-30678D02*
X11604Y-30259D01*
X11575Y-30183D01*
X11518Y-30144D01*
X11404Y-30144D01*
X11347Y-30183D01*
X11604Y-30640D02*
X11547Y-30678D01*
X11404Y-30678D01*
X11347Y-30640D01*
X11318Y-30564D01*
X11318Y-30487D01*
X11347Y-30411D01*
X11404Y-30373D01*
X11547Y-30373D01*
X11604Y-30335D01*
X11861Y-30640D02*
X11918Y-30678D01*
X12033Y-30678D01*
X12090Y-30640D01*
X12118Y-30564D01*
X12118Y-30525D01*
X12090Y-30449D01*
X12033Y-30411D01*
X11947Y-30411D01*
X11890Y-30373D01*
X11861Y-30297D01*
X11861Y-30259D01*
X11890Y-30183D01*
X11947Y-30144D01*
X12033Y-30144D01*
X12090Y-30183D01*
X12290Y-30144D02*
X12519Y-30144D01*
X12376Y-29878D02*
X12376Y-30564D01*
X12404Y-30640D01*
X12462Y-30678D01*
X12519Y-30678D01*
X12947Y-30640D02*
X12890Y-30678D01*
X12776Y-30678D01*
X12719Y-30640D01*
X12690Y-30564D01*
X12690Y-30259D01*
X12719Y-30183D01*
X12776Y-30144D01*
X12890Y-30144D01*
X12947Y-30183D01*
X12976Y-30259D01*
X12976Y-30335D01*
X12690Y-30411D01*
X13861Y-30983D02*
X13833Y-30944D01*
X13776Y-30830D01*
X13747Y-30754D01*
X13718Y-30640D01*
X13690Y-30449D01*
X13690Y-30297D01*
X13718Y-30106D01*
X13747Y-29992D01*
X13776Y-29916D01*
X13833Y-29802D01*
X13861Y-29764D01*
X14290Y-30259D02*
X14376Y-30297D01*
X14404Y-30335D01*
X14433Y-30411D01*
X14433Y-30525D01*
X14404Y-30602D01*
X14376Y-30640D01*
X14318Y-30678D01*
X14090Y-30678D01*
X14090Y-29878D01*
X14290Y-29878D01*
X14347Y-29916D01*
X14376Y-29954D01*
X14404Y-30030D01*
X14404Y-30106D01*
X14376Y-30183D01*
X14347Y-30221D01*
X14290Y-30259D01*
X14090Y-30259D01*
X14947Y-30678D02*
X14947Y-30259D01*
X14918Y-30183D01*
X14861Y-30144D01*
X14747Y-30144D01*
X14690Y-30183D01*
X14947Y-30640D02*
X14890Y-30678D01*
X14747Y-30678D01*
X14690Y-30640D01*
X14661Y-30564D01*
X14661Y-30487D01*
X14690Y-30411D01*
X14747Y-30373D01*
X14890Y-30373D01*
X14947Y-30335D01*
X15490Y-30640D02*
X15433Y-30678D01*
X15319Y-30678D01*
X15261Y-30640D01*
X15233Y-30602D01*
X15204Y-30525D01*
X15204Y-30297D01*
X15233Y-30221D01*
X15261Y-30183D01*
X15319Y-30144D01*
X15433Y-30144D01*
X15490Y-30183D01*
X15747Y-30678D02*
X15747Y-29878D01*
X15804Y-30373D02*
X15975Y-30678D01*
X15975Y-30144D02*
X15747Y-30449D01*
X16176Y-30983D02*
X16204Y-30944D01*
X16261Y-30830D01*
X16290Y-30754D01*
X16319Y-30640D01*
X16347Y-30449D01*
X16347Y-30297D01*
X16319Y-30106D01*
X16290Y-29992D01*
X16261Y-29916D01*
X16204Y-29802D01*
X16176Y-29764D01*
M02*
