G04 (created by PCBNEW-RS274X (2012-01-19 BZR 3256)-stable) date Thu 04 Oct 2012 23:16:49 BST*
G01*
G70*
G90*
%MOIN*%
G04 Gerber Fmt 3.4, Leading zero omitted, Abs format*
%FSLAX34Y34*%
G04 APERTURE LIST*
%ADD10C,0.006000*%
%ADD11C,0.012000*%
%ADD12C,0.039400*%
%ADD13C,0.078700*%
%ADD14R,0.055000X0.055000*%
%ADD15C,0.055000*%
%ADD16R,0.060000X0.060000*%
%ADD17C,0.060000*%
%ADD18R,0.098400X0.157500*%
%ADD19C,0.019700*%
%ADD20C,0.035400*%
%ADD21C,0.031500*%
%ADD22C,0.005900*%
%ADD23C,0.039400*%
%ADD24C,0.011800*%
%ADD25C,0.007900*%
%ADD26C,0.019700*%
%ADD27C,0.010000*%
G04 APERTURE END LIST*
G54D10*
G54D11*
X06827Y-26224D02*
X06913Y-26262D01*
X06941Y-26300D01*
X06970Y-26376D01*
X06970Y-26490D01*
X06941Y-26567D01*
X06913Y-26605D01*
X06855Y-26643D01*
X06627Y-26643D01*
X06627Y-25843D01*
X06827Y-25843D01*
X06884Y-25881D01*
X06913Y-25919D01*
X06941Y-25995D01*
X06941Y-26071D01*
X06913Y-26148D01*
X06884Y-26186D01*
X06827Y-26224D01*
X06627Y-26224D01*
X07484Y-26643D02*
X07484Y-26224D01*
X07455Y-26148D01*
X07398Y-26109D01*
X07284Y-26109D01*
X07227Y-26148D01*
X07484Y-26605D02*
X07427Y-26643D01*
X07284Y-26643D01*
X07227Y-26605D01*
X07198Y-26529D01*
X07198Y-26452D01*
X07227Y-26376D01*
X07284Y-26338D01*
X07427Y-26338D01*
X07484Y-26300D01*
X08027Y-26605D02*
X07970Y-26643D01*
X07856Y-26643D01*
X07798Y-26605D01*
X07770Y-26567D01*
X07741Y-26490D01*
X07741Y-26262D01*
X07770Y-26186D01*
X07798Y-26148D01*
X07856Y-26109D01*
X07970Y-26109D01*
X08027Y-26148D01*
X08284Y-26643D02*
X08284Y-25843D01*
X08341Y-26338D02*
X08512Y-26643D01*
X08512Y-26109D02*
X08284Y-26414D01*
X09398Y-26948D02*
X09370Y-26909D01*
X09313Y-26795D01*
X09284Y-26719D01*
X09255Y-26605D01*
X09227Y-26414D01*
X09227Y-26262D01*
X09255Y-26071D01*
X09284Y-25957D01*
X09313Y-25881D01*
X09370Y-25767D01*
X09398Y-25729D01*
X09827Y-26224D02*
X09913Y-26262D01*
X09941Y-26300D01*
X09970Y-26376D01*
X09970Y-26490D01*
X09941Y-26567D01*
X09913Y-26605D01*
X09855Y-26643D01*
X09627Y-26643D01*
X09627Y-25843D01*
X09827Y-25843D01*
X09884Y-25881D01*
X09913Y-25919D01*
X09941Y-25995D01*
X09941Y-26071D01*
X09913Y-26148D01*
X09884Y-26186D01*
X09827Y-26224D01*
X09627Y-26224D01*
X10313Y-26643D02*
X10255Y-26605D01*
X10227Y-26567D01*
X10198Y-26490D01*
X10198Y-26262D01*
X10227Y-26186D01*
X10255Y-26148D01*
X10313Y-26109D01*
X10398Y-26109D01*
X10455Y-26148D01*
X10484Y-26186D01*
X10513Y-26262D01*
X10513Y-26490D01*
X10484Y-26567D01*
X10455Y-26605D01*
X10398Y-26643D01*
X10313Y-26643D01*
X10684Y-26109D02*
X10913Y-26109D01*
X10770Y-25843D02*
X10770Y-26529D01*
X10798Y-26605D01*
X10856Y-26643D01*
X10913Y-26643D01*
X11027Y-26109D02*
X11256Y-26109D01*
X11113Y-25843D02*
X11113Y-26529D01*
X11141Y-26605D01*
X11199Y-26643D01*
X11256Y-26643D01*
X11542Y-26643D02*
X11484Y-26605D01*
X11456Y-26567D01*
X11427Y-26490D01*
X11427Y-26262D01*
X11456Y-26186D01*
X11484Y-26148D01*
X11542Y-26109D01*
X11627Y-26109D01*
X11684Y-26148D01*
X11713Y-26186D01*
X11742Y-26262D01*
X11742Y-26490D01*
X11713Y-26567D01*
X11684Y-26605D01*
X11627Y-26643D01*
X11542Y-26643D01*
X11999Y-26643D02*
X11999Y-26109D01*
X11999Y-26186D02*
X12027Y-26148D01*
X12085Y-26109D01*
X12170Y-26109D01*
X12227Y-26148D01*
X12256Y-26224D01*
X12256Y-26643D01*
X12256Y-26224D02*
X12285Y-26148D01*
X12342Y-26109D01*
X12427Y-26109D01*
X12485Y-26148D01*
X12513Y-26224D01*
X12513Y-26643D01*
X12742Y-26948D02*
X12770Y-26909D01*
X12827Y-26795D01*
X12856Y-26719D01*
X12885Y-26605D01*
X12913Y-26414D01*
X12913Y-26262D01*
X12885Y-26071D01*
X12856Y-25957D01*
X12827Y-25881D01*
X12770Y-25767D01*
X12742Y-25729D01*
X13999Y-26567D02*
X13970Y-26605D01*
X13884Y-26643D01*
X13827Y-26643D01*
X13742Y-26605D01*
X13684Y-26529D01*
X13656Y-26452D01*
X13627Y-26300D01*
X13627Y-26186D01*
X13656Y-26033D01*
X13684Y-25957D01*
X13742Y-25881D01*
X13827Y-25843D01*
X13884Y-25843D01*
X13970Y-25881D01*
X13999Y-25919D01*
X14342Y-26643D02*
X14284Y-26605D01*
X14256Y-26567D01*
X14227Y-26490D01*
X14227Y-26262D01*
X14256Y-26186D01*
X14284Y-26148D01*
X14342Y-26109D01*
X14427Y-26109D01*
X14484Y-26148D01*
X14513Y-26186D01*
X14542Y-26262D01*
X14542Y-26490D01*
X14513Y-26567D01*
X14484Y-26605D01*
X14427Y-26643D01*
X14342Y-26643D01*
X14799Y-26109D02*
X14799Y-26909D01*
X14799Y-26148D02*
X14856Y-26109D01*
X14970Y-26109D01*
X15027Y-26148D01*
X15056Y-26186D01*
X15085Y-26262D01*
X15085Y-26490D01*
X15056Y-26567D01*
X15027Y-26605D01*
X14970Y-26643D01*
X14856Y-26643D01*
X14799Y-26605D01*
X15342Y-26109D02*
X15342Y-26909D01*
X15342Y-26148D02*
X15399Y-26109D01*
X15513Y-26109D01*
X15570Y-26148D01*
X15599Y-26186D01*
X15628Y-26262D01*
X15628Y-26490D01*
X15599Y-26567D01*
X15570Y-26605D01*
X15513Y-26643D01*
X15399Y-26643D01*
X15342Y-26605D01*
X16113Y-26605D02*
X16056Y-26643D01*
X15942Y-26643D01*
X15885Y-26605D01*
X15856Y-26529D01*
X15856Y-26224D01*
X15885Y-26148D01*
X15942Y-26109D01*
X16056Y-26109D01*
X16113Y-26148D01*
X16142Y-26224D01*
X16142Y-26300D01*
X15856Y-26376D01*
X16399Y-26643D02*
X16399Y-26109D01*
X16399Y-26262D02*
X16427Y-26186D01*
X16456Y-26148D01*
X16513Y-26109D01*
X16570Y-26109D01*
G54D12*
X22685Y-36035D03*
G54D13*
X29478Y-43976D03*
X36122Y-39390D03*
X37067Y-39380D03*
G54D14*
X40994Y-40573D03*
G54D15*
X40994Y-41573D03*
G54D12*
X31496Y-39173D03*
X20571Y-36683D03*
X23327Y-43789D03*
X24547Y-43848D03*
X21427Y-45266D03*
X23189Y-39793D03*
X24478Y-39823D03*
X21270Y-40344D03*
G54D16*
X36346Y-45577D03*
G54D17*
X36346Y-46577D03*
X35346Y-45577D03*
X35346Y-46577D03*
X34346Y-45577D03*
X34346Y-46577D03*
X33346Y-45577D03*
X33346Y-46577D03*
X32346Y-45577D03*
X32346Y-46577D03*
X31346Y-45577D03*
X31346Y-46577D03*
X30346Y-45577D03*
X30346Y-46577D03*
X29346Y-45577D03*
X29346Y-46577D03*
X28346Y-45577D03*
X28346Y-46577D03*
X27346Y-45577D03*
X27346Y-46577D03*
G54D16*
X22343Y-46445D03*
G54D17*
X22343Y-45445D03*
G54D18*
X39720Y-45642D03*
X41334Y-45642D03*
X42751Y-45642D03*
G54D14*
X37008Y-36616D03*
G54D15*
X37008Y-37616D03*
G54D14*
X41988Y-40573D03*
G54D15*
X41988Y-41573D03*
G54D16*
X19976Y-29083D03*
G54D17*
X20976Y-29083D03*
X19976Y-30083D03*
X20976Y-30083D03*
X19976Y-31083D03*
X20976Y-31083D03*
X19976Y-32083D03*
X20976Y-32083D03*
X19976Y-33083D03*
X20976Y-33083D03*
X19976Y-34083D03*
X20976Y-34083D03*
X19976Y-35083D03*
X20976Y-35083D03*
G54D16*
X38594Y-27280D03*
G54D17*
X37594Y-27280D03*
X38594Y-26280D03*
X37594Y-26280D03*
X38594Y-25280D03*
X37594Y-25280D03*
X38594Y-24280D03*
X37594Y-24280D03*
G54D16*
X42087Y-37258D03*
G54D17*
X42087Y-38258D03*
X42087Y-39258D03*
G54D19*
X40354Y-44006D03*
G54D20*
X35394Y-26417D03*
G54D19*
X32785Y-35689D03*
X24045Y-43819D03*
G54D20*
X35177Y-23780D03*
G54D19*
X33425Y-38976D03*
X31988Y-33150D03*
X32311Y-40201D03*
X33425Y-39654D03*
X19882Y-36024D03*
X31988Y-33583D03*
X29882Y-37333D03*
X28602Y-35217D03*
G54D20*
X34941Y-23199D03*
G54D19*
X31093Y-37333D03*
X30423Y-23907D03*
X26732Y-36890D03*
X28652Y-42146D03*
X27953Y-37638D03*
X22386Y-40335D03*
X31024Y-28228D03*
X24370Y-41850D03*
X32776Y-36634D03*
X29311Y-33159D03*
X39417Y-27685D03*
X32707Y-33445D03*
X19793Y-44409D03*
X30118Y-41732D03*
X28150Y-36319D03*
X28976Y-42205D03*
X33898Y-23819D03*
X31020Y-25950D03*
X32008Y-23858D03*
X29370Y-39488D03*
X32352Y-36634D03*
X29311Y-33583D03*
X28150Y-35217D03*
X30728Y-33583D03*
X32200Y-37229D03*
X31102Y-37756D03*
X31102Y-40748D03*
X32283Y-33868D03*
X28602Y-36939D03*
X28602Y-36319D03*
X23356Y-41663D03*
X28159Y-36939D03*
X29882Y-37766D03*
X30728Y-33150D03*
X32638Y-37746D03*
X32352Y-35689D03*
X27008Y-37953D03*
X22874Y-43947D03*
X20030Y-43159D03*
X29480Y-29260D03*
X28049Y-30691D03*
X28366Y-31929D03*
X29390Y-30906D03*
X35646Y-33142D03*
X41689Y-32638D03*
X35339Y-34165D03*
X37185Y-33413D03*
X37319Y-34354D03*
X35646Y-34256D03*
X37264Y-34610D03*
X35157Y-34543D03*
X35642Y-38287D03*
X35646Y-37870D03*
X24280Y-36791D03*
X25433Y-37724D03*
X28850Y-24150D03*
X27709Y-24150D03*
X24882Y-37480D03*
X26465Y-37516D03*
X26870Y-34555D03*
X29161Y-24429D03*
X25780Y-33492D03*
X26874Y-28177D03*
X24673Y-34638D03*
X26886Y-33925D03*
X28780Y-25285D03*
X29026Y-25846D03*
X25679Y-37116D03*
X24459Y-37116D03*
X24222Y-35374D03*
X25679Y-35374D03*
X24104Y-35059D03*
X25669Y-35049D03*
X29996Y-30335D03*
X36917Y-30248D03*
X30201Y-30555D03*
X36921Y-30535D03*
X41665Y-31878D03*
X35622Y-31803D03*
X35642Y-33969D03*
X36925Y-34134D03*
X30413Y-30736D03*
X37122Y-30740D03*
X30886Y-30929D03*
X37236Y-31256D03*
X31240Y-31898D03*
X41945Y-31472D03*
X31433Y-31693D03*
X42189Y-31677D03*
X36781Y-34675D03*
X35463Y-34675D03*
X36673Y-34911D03*
X35610Y-34902D03*
X32835Y-24537D03*
X31142Y-29636D03*
X32343Y-24902D03*
X31555Y-30128D03*
X26646Y-26898D03*
X26642Y-22035D03*
X31831Y-30138D03*
X31890Y-25089D03*
X32146Y-30128D03*
X26961Y-26898D03*
X31772Y-25354D03*
X26961Y-21760D03*
X35207Y-36791D03*
X35797Y-36791D03*
X27272Y-21976D03*
X27276Y-26890D03*
X27496Y-22248D03*
X27591Y-26642D03*
X30000Y-26496D03*
X28307Y-26496D03*
X28209Y-26909D03*
X30906Y-26713D03*
X27903Y-25000D03*
X30768Y-26496D03*
X28642Y-26260D03*
X30256Y-26260D03*
X32626Y-29051D03*
X28858Y-26063D03*
X30020Y-26063D03*
X32608Y-30148D03*
X33256Y-29059D03*
X32874Y-30138D03*
X33575Y-29055D03*
X33150Y-30128D03*
X34202Y-29024D03*
X33435Y-30118D03*
X23287Y-33248D03*
X26329Y-33701D03*
X23100Y-32913D03*
X26585Y-32894D03*
X34183Y-44449D03*
X34063Y-38984D03*
X26043Y-37941D03*
X27685Y-38898D03*
X26110Y-37528D03*
X28630Y-39870D03*
X33768Y-38961D03*
X32421Y-39754D03*
X32844Y-39961D03*
X35118Y-41909D03*
X24459Y-25226D03*
X25974Y-26890D03*
X25709Y-26860D03*
X24161Y-25217D03*
X25453Y-26841D03*
X23839Y-25197D03*
X23531Y-25165D03*
X25197Y-26831D03*
X23134Y-25201D03*
X28327Y-39181D03*
X28909Y-39181D03*
X25000Y-27057D03*
X29232Y-31693D03*
X23228Y-31886D03*
X23012Y-32087D03*
X29433Y-31441D03*
X29791Y-31705D03*
X22791Y-32283D03*
X30197Y-31858D03*
X22591Y-32480D03*
X22386Y-32697D03*
X30630Y-31909D03*
X38041Y-43268D03*
X41535Y-43268D03*
X39016Y-42982D03*
X38435Y-42982D03*
X41083Y-42766D03*
X37736Y-43268D03*
X25752Y-34555D03*
X23539Y-34378D03*
X25748Y-34291D03*
X23858Y-34173D03*
X41528Y-43709D03*
X41524Y-44524D03*
X27732Y-29346D03*
X22134Y-24898D03*
X21240Y-24894D03*
X21004Y-24665D03*
X22331Y-25102D03*
X27283Y-29134D03*
X41260Y-43512D03*
X41236Y-44520D03*
X34205Y-38067D03*
X26350Y-37933D03*
X25677Y-36638D03*
X27768Y-38638D03*
X30374Y-41545D03*
X29360Y-39006D03*
X30108Y-40472D03*
X21093Y-22923D03*
X21024Y-21742D03*
X40098Y-33553D03*
X34382Y-29484D03*
X32386Y-41650D03*
X30980Y-43835D03*
X32992Y-37648D03*
X33228Y-22051D03*
X25856Y-44242D03*
X32390Y-40602D03*
X21024Y-37303D03*
X39311Y-43750D03*
X40098Y-32854D03*
X31055Y-22496D03*
X32756Y-22547D03*
X26929Y-35571D03*
X30876Y-37982D03*
X26933Y-30791D03*
X26323Y-28189D03*
X38921Y-30665D03*
X34937Y-27531D03*
G54D21*
X23181Y-40441D03*
G54D19*
X35740Y-22173D03*
G54D20*
X29724Y-36171D03*
G54D19*
X34433Y-43280D03*
X31348Y-37992D03*
X20020Y-24685D03*
X30354Y-40161D03*
X37559Y-36579D03*
X35047Y-32724D03*
X29772Y-40114D03*
G54D20*
X31172Y-36132D03*
G54D21*
X23799Y-41106D03*
G54D19*
X33012Y-36949D03*
G54D21*
X39516Y-32075D03*
G54D19*
X40699Y-24252D03*
X30256Y-37992D03*
G54D20*
X29754Y-34734D03*
G54D19*
X20020Y-24291D03*
X29311Y-37953D03*
G54D21*
X40091Y-31260D03*
G54D20*
X30522Y-35482D03*
G54D19*
X40699Y-24646D03*
X34646Y-38740D03*
X34433Y-39776D03*
X32303Y-37992D03*
X40571Y-21693D03*
X41740Y-35787D03*
X41728Y-33425D03*
X27933Y-35531D03*
X30433Y-28228D03*
X40640Y-22874D03*
X38866Y-32634D03*
X32618Y-32933D03*
G54D21*
X39516Y-31260D03*
G54D19*
X33012Y-35433D03*
G54D21*
X24012Y-40476D03*
G54D19*
X21614Y-37303D03*
X33012Y-33642D03*
X31821Y-37982D03*
G54D21*
X40098Y-32075D03*
G54D19*
X29941Y-32933D03*
X19951Y-39823D03*
X33012Y-35876D03*
X28209Y-33169D03*
G54D20*
X22037Y-37382D03*
X31201Y-34744D03*
G54D19*
X38455Y-41535D03*
X30728Y-41762D03*
X22728Y-25118D03*
X27274Y-28652D03*
X27480Y-28868D03*
X22524Y-24909D03*
X26929Y-28494D03*
X22925Y-24906D03*
X25886Y-29906D03*
X23862Y-29906D03*
X23866Y-33768D03*
X25756Y-33768D03*
X23626Y-33957D03*
X25756Y-34028D03*
X41516Y-42116D03*
X42539Y-43947D03*
X31644Y-37106D03*
X31644Y-37756D03*
X31713Y-40098D03*
X28130Y-36053D03*
X34673Y-40051D03*
X28829Y-36053D03*
X34673Y-41157D03*
X29646Y-42451D03*
G54D20*
X25063Y-39756D03*
X27004Y-38343D03*
G54D19*
X25724Y-40921D03*
X26677Y-41102D03*
X19909Y-40760D03*
G54D20*
X24787Y-39228D03*
G54D22*
X42854Y-43208D02*
X42854Y-38025D01*
X42854Y-43208D02*
X42854Y-43977D01*
X42854Y-43977D02*
X42107Y-44724D01*
X42107Y-44724D02*
X41072Y-44724D01*
X41072Y-44724D02*
X40354Y-44006D01*
X42854Y-38025D02*
X42087Y-37258D01*
G54D23*
X42087Y-37258D02*
X42082Y-37258D01*
X42082Y-37258D02*
X40659Y-38681D01*
X42614Y-30016D02*
X42614Y-36731D01*
X39409Y-26811D02*
X42614Y-30016D01*
X42614Y-36731D02*
X42087Y-37258D01*
G54D22*
X31812Y-39606D02*
X31812Y-39702D01*
G54D23*
X30423Y-21407D02*
X27106Y-21407D01*
G54D24*
X35394Y-26417D02*
X36723Y-26417D01*
X37117Y-26811D02*
X39409Y-26811D01*
X36723Y-26417D02*
X37117Y-26811D01*
G54D23*
X34673Y-39366D02*
X33539Y-39366D01*
X38593Y-21939D02*
X39409Y-22755D01*
G54D25*
X28602Y-36319D02*
X28150Y-36319D01*
G54D23*
X38593Y-21939D02*
X38553Y-21939D01*
X39409Y-22755D02*
X39409Y-26417D01*
G54D22*
X33898Y-21693D02*
X34184Y-21407D01*
G54D26*
X26732Y-37953D02*
X26732Y-36890D01*
G54D25*
X32352Y-36634D02*
X32776Y-36634D01*
G54D26*
X34941Y-21407D02*
X34941Y-23199D01*
G54D23*
X40659Y-38681D02*
X39045Y-38681D01*
X39045Y-38681D02*
X35358Y-38681D01*
X31693Y-39606D02*
X31812Y-39606D01*
X19488Y-39056D02*
X19488Y-36024D01*
X39409Y-26417D02*
X39409Y-26811D01*
X38021Y-21407D02*
X34941Y-21407D01*
X38553Y-21939D02*
X38021Y-21407D01*
G54D26*
X19804Y-38740D02*
X19488Y-39056D01*
G54D23*
X30807Y-40492D02*
X31693Y-39606D01*
G54D24*
X28661Y-42137D02*
X28652Y-42146D01*
G54D23*
X29016Y-41496D02*
X29331Y-41496D01*
G54D26*
X25945Y-38740D02*
X19804Y-38740D01*
G54D22*
X31020Y-25950D02*
X31020Y-25954D01*
X28602Y-36989D02*
X28602Y-36939D01*
G54D25*
X31102Y-37342D02*
X31093Y-37333D01*
G54D24*
X33425Y-38976D02*
X33425Y-39252D01*
G54D22*
X32008Y-21624D02*
X32225Y-21407D01*
X19802Y-44400D02*
X23464Y-44400D01*
G54D23*
X24370Y-41850D02*
X24724Y-41496D01*
G54D24*
X32638Y-37667D02*
X32200Y-37229D01*
G54D23*
X19488Y-42165D02*
X19488Y-39056D01*
G54D22*
X32008Y-23858D02*
X32008Y-21624D01*
G54D24*
X29016Y-42165D02*
X29016Y-41496D01*
G54D22*
X31109Y-28143D02*
X31024Y-28228D01*
G54D25*
X29882Y-37333D02*
X29882Y-37766D01*
G54D22*
X39409Y-27677D02*
X39409Y-26811D01*
X39417Y-27685D02*
X39409Y-27677D01*
G54D25*
X28602Y-35217D02*
X28150Y-35217D01*
G54D23*
X33539Y-39366D02*
X33425Y-39252D01*
G54D25*
X29882Y-41496D02*
X29803Y-41496D01*
G54D23*
X31812Y-39606D02*
X32166Y-39252D01*
G54D25*
X29311Y-33583D02*
X29311Y-33159D01*
X32707Y-33445D02*
X32706Y-33445D01*
G54D23*
X32166Y-39252D02*
X33425Y-39252D01*
G54D25*
X31102Y-37342D02*
X31102Y-37756D01*
G54D22*
X19793Y-44409D02*
X19802Y-44400D01*
G54D24*
X28661Y-41496D02*
X28661Y-42137D01*
G54D25*
X30118Y-41732D02*
X29882Y-41496D01*
G54D22*
X31109Y-26043D02*
X31109Y-28143D01*
G54D23*
X19163Y-22373D02*
X20158Y-21378D01*
X20158Y-21378D02*
X25286Y-21378D01*
G54D22*
X23464Y-44400D02*
X24045Y-43819D01*
G54D23*
X35358Y-38681D02*
X34673Y-39366D01*
X28661Y-41496D02*
X29016Y-41496D01*
G54D22*
X31812Y-39702D02*
X32311Y-40201D01*
G54D23*
X23858Y-42362D02*
X19685Y-42362D01*
G54D22*
X29331Y-41496D02*
X29331Y-39527D01*
G54D23*
X27077Y-21378D02*
X25286Y-21378D01*
G54D26*
X30423Y-23907D02*
X30423Y-21407D01*
G54D23*
X27106Y-21407D02*
X27077Y-21378D01*
G54D25*
X28159Y-36939D02*
X28602Y-36939D01*
G54D22*
X33425Y-39252D02*
X33425Y-39654D01*
G54D26*
X26732Y-37953D02*
X25945Y-38740D01*
G54D23*
X19488Y-36024D02*
X19488Y-36023D01*
G54D22*
X22386Y-40335D02*
X23356Y-41305D01*
G54D25*
X30846Y-40492D02*
X30807Y-40492D01*
X30728Y-33583D02*
X30728Y-33150D01*
X32706Y-33445D02*
X32283Y-33868D01*
G54D22*
X29331Y-39527D02*
X29370Y-39488D01*
G54D25*
X28976Y-42205D02*
X29016Y-42165D01*
G54D23*
X19163Y-35698D02*
X19163Y-22373D01*
X19488Y-36023D02*
X19163Y-35698D01*
X30807Y-40492D02*
X29803Y-41496D01*
G54D22*
X27008Y-37953D02*
X26732Y-37953D01*
G54D23*
X29331Y-41496D02*
X29803Y-41496D01*
X34941Y-21407D02*
X34184Y-21407D01*
G54D22*
X31020Y-25954D02*
X31109Y-26043D01*
G54D23*
X24724Y-41496D02*
X28661Y-41496D01*
G54D22*
X23356Y-41305D02*
X23356Y-41663D01*
G54D23*
X24370Y-41850D02*
X23858Y-42362D01*
X32225Y-21407D02*
X30423Y-21407D01*
G54D22*
X33898Y-23819D02*
X33898Y-21693D01*
G54D25*
X32352Y-35689D02*
X32785Y-35689D01*
G54D23*
X19685Y-42362D02*
X19488Y-42165D01*
G54D25*
X19882Y-36024D02*
X19488Y-36024D01*
G54D22*
X27953Y-37638D02*
X28602Y-36989D01*
G54D23*
X34184Y-21407D02*
X32225Y-21407D01*
G54D24*
X32638Y-37667D02*
X32638Y-37746D01*
G54D25*
X31102Y-40748D02*
X30846Y-40492D01*
X31988Y-33583D02*
X31988Y-33150D01*
G54D22*
X20818Y-43947D02*
X22874Y-43947D01*
X20030Y-43159D02*
X20818Y-43947D01*
X28049Y-30691D02*
X29480Y-29260D01*
X29389Y-30906D02*
X29390Y-30906D01*
X28366Y-31929D02*
X29389Y-30906D01*
X41185Y-33142D02*
X41689Y-32638D01*
X35646Y-33142D02*
X41185Y-33142D01*
X35811Y-33413D02*
X37185Y-33413D01*
X35339Y-34165D02*
X35339Y-33885D01*
X35339Y-33885D02*
X35811Y-33413D01*
X36732Y-34256D02*
X36830Y-34354D01*
X36830Y-34354D02*
X37319Y-34354D01*
X35646Y-34256D02*
X36732Y-34256D01*
X37134Y-34480D02*
X37264Y-34610D01*
X35324Y-34543D02*
X35157Y-34543D01*
X35409Y-34458D02*
X36725Y-34458D01*
X35409Y-34458D02*
X35324Y-34543D01*
X36725Y-34458D02*
X36747Y-34480D01*
X36747Y-34480D02*
X37134Y-34480D01*
X35646Y-38283D02*
X35646Y-37870D01*
X35642Y-38287D02*
X35646Y-38283D01*
X25433Y-37724D02*
X25426Y-37717D01*
X24674Y-37717D02*
X24138Y-37181D01*
X24138Y-37181D02*
X24138Y-36933D01*
X28850Y-24150D02*
X27709Y-24150D01*
X24138Y-36933D02*
X24280Y-36791D01*
X25426Y-37717D02*
X24674Y-37717D01*
X25027Y-37335D02*
X24882Y-37480D01*
X26465Y-37516D02*
X26465Y-37512D01*
X26465Y-37512D02*
X26288Y-37335D01*
X26288Y-37335D02*
X25027Y-37335D01*
X27854Y-26339D02*
X27854Y-27197D01*
X27630Y-24878D02*
X27630Y-26115D01*
X25780Y-33492D02*
X26843Y-34555D01*
X26843Y-34555D02*
X26870Y-34555D01*
X27854Y-27197D02*
X26874Y-28177D01*
X27630Y-26115D02*
X27854Y-26339D01*
X27630Y-24878D02*
X28079Y-24429D01*
X28079Y-24429D02*
X29161Y-24429D01*
X24673Y-34638D02*
X24779Y-34744D01*
X27094Y-34133D02*
X27094Y-34623D01*
X27094Y-34623D02*
X26973Y-34744D01*
X27094Y-34133D02*
X26886Y-33925D01*
X24779Y-34744D02*
X26973Y-34744D01*
X24469Y-37106D02*
X24459Y-37116D01*
X28780Y-25600D02*
X28780Y-25285D01*
X25669Y-37106D02*
X24469Y-37106D01*
X29026Y-25846D02*
X28780Y-25600D01*
X25669Y-37106D02*
X25679Y-37116D01*
X24222Y-35374D02*
X25679Y-35374D01*
X24104Y-35059D02*
X24114Y-35049D01*
X24114Y-35049D02*
X25669Y-35049D01*
X30007Y-30346D02*
X36819Y-30346D01*
X29996Y-30335D02*
X30007Y-30346D01*
X36819Y-30346D02*
X36917Y-30248D01*
X30201Y-30555D02*
X30217Y-30539D01*
X36917Y-30539D02*
X36921Y-30535D01*
X30217Y-30539D02*
X36917Y-30539D01*
X35622Y-31803D02*
X35634Y-31815D01*
X35634Y-31815D02*
X41602Y-31815D01*
X41602Y-31815D02*
X41665Y-31878D01*
X35642Y-33969D02*
X36760Y-33969D01*
X36760Y-33969D02*
X36925Y-34134D01*
X37118Y-30736D02*
X37122Y-30740D01*
X30413Y-30736D02*
X37118Y-30736D01*
X30886Y-30929D02*
X36909Y-30929D01*
X36909Y-30929D02*
X37236Y-31256D01*
X41889Y-31528D02*
X41945Y-31472D01*
X31240Y-31898D02*
X31240Y-31571D01*
X31240Y-31571D02*
X31661Y-31150D01*
X36792Y-31150D02*
X37170Y-31528D01*
X31661Y-31150D02*
X36792Y-31150D01*
X37170Y-31528D02*
X41889Y-31528D01*
X37098Y-31669D02*
X42181Y-31669D01*
X36882Y-31453D02*
X37098Y-31669D01*
X31673Y-31453D02*
X36882Y-31453D01*
X31433Y-31693D02*
X31673Y-31453D01*
X42181Y-31669D02*
X42189Y-31677D01*
X36781Y-34675D02*
X35463Y-34675D01*
X36673Y-34911D02*
X36664Y-34902D01*
X36664Y-34902D02*
X35610Y-34902D01*
X32835Y-24537D02*
X32687Y-24685D01*
X32687Y-24685D02*
X31693Y-24685D01*
X31230Y-25148D02*
X31230Y-29548D01*
X31230Y-29548D02*
X31142Y-29636D01*
X31693Y-24685D02*
X31230Y-25148D01*
X32333Y-24892D02*
X31673Y-24892D01*
X32343Y-24902D02*
X32333Y-24892D01*
X31358Y-25207D02*
X31358Y-29931D01*
X31673Y-24892D02*
X31358Y-25207D01*
X31358Y-29931D02*
X31555Y-30128D01*
X26642Y-26894D02*
X26642Y-22035D01*
X31486Y-25247D02*
X31486Y-29793D01*
X31890Y-25089D02*
X31644Y-25089D01*
X26646Y-26898D02*
X26642Y-26894D01*
X31644Y-25089D02*
X31486Y-25247D01*
X31486Y-29793D02*
X31831Y-30138D01*
X26961Y-26898D02*
X26961Y-21760D01*
X32146Y-25728D02*
X32146Y-30128D01*
X31772Y-25354D02*
X32146Y-25728D01*
X35797Y-36791D02*
X35207Y-36791D01*
X27272Y-26886D02*
X27272Y-21976D01*
X27276Y-26890D02*
X27272Y-26886D01*
X27496Y-26547D02*
X27496Y-22248D01*
X27591Y-26642D02*
X27496Y-26547D01*
X30000Y-26496D02*
X28307Y-26496D01*
X28406Y-26713D02*
X28210Y-26909D01*
X30906Y-26713D02*
X28406Y-26713D01*
X28210Y-26909D02*
X28209Y-26909D01*
X30768Y-26496D02*
X29272Y-25000D01*
X29272Y-25000D02*
X27903Y-25000D01*
X30256Y-26260D02*
X28642Y-26260D01*
X30020Y-26063D02*
X28858Y-26063D01*
X32626Y-29051D02*
X32626Y-30130D01*
X32626Y-30130D02*
X32608Y-30148D01*
X32874Y-29744D02*
X32874Y-30138D01*
X33256Y-29059D02*
X33268Y-29071D01*
X33268Y-29071D02*
X33268Y-29350D01*
X33268Y-29350D02*
X32874Y-29744D01*
X33150Y-29764D02*
X33150Y-30128D01*
X33575Y-29055D02*
X33573Y-29057D01*
X33573Y-29057D02*
X33573Y-29341D01*
X33573Y-29341D02*
X33150Y-29764D01*
X33878Y-29348D02*
X34202Y-29024D01*
X33878Y-29348D02*
X33878Y-29350D01*
X33445Y-29783D02*
X33878Y-29350D01*
X33435Y-30118D02*
X33445Y-30108D01*
X33445Y-30108D02*
X33445Y-29783D01*
X26329Y-33701D02*
X25876Y-33248D01*
X25876Y-33248D02*
X23287Y-33248D01*
X23119Y-32894D02*
X23100Y-32913D01*
X26585Y-32894D02*
X23119Y-32894D01*
X35346Y-45577D02*
X35311Y-45577D01*
X35311Y-45577D02*
X34183Y-44449D01*
X26110Y-37874D02*
X26110Y-37528D01*
X29220Y-38639D02*
X33718Y-38639D01*
X28961Y-38898D02*
X29220Y-38639D01*
X27685Y-38898D02*
X28961Y-38898D01*
X33718Y-38639D02*
X34063Y-38984D01*
X26043Y-37941D02*
X26110Y-37874D01*
X29134Y-38897D02*
X29271Y-38760D01*
X29271Y-38760D02*
X33567Y-38760D01*
X28630Y-39870D02*
X29134Y-39366D01*
X29134Y-39366D02*
X29134Y-38897D01*
X33567Y-38760D02*
X33768Y-38961D01*
X32421Y-39754D02*
X32628Y-39961D01*
X32628Y-39961D02*
X32844Y-39961D01*
X33296Y-43031D02*
X32892Y-43031D01*
X33996Y-43031D02*
X33296Y-43031D01*
X35118Y-41909D02*
X33996Y-43031D01*
X32892Y-43031D02*
X30346Y-45577D01*
X25974Y-26890D02*
X25974Y-26741D01*
X25974Y-26741D02*
X24459Y-25226D01*
X25709Y-26765D02*
X24161Y-25217D01*
X25709Y-26860D02*
X25709Y-26765D01*
X25453Y-26841D02*
X25453Y-26811D01*
X25453Y-26811D02*
X23839Y-25197D01*
X25197Y-26831D02*
X23531Y-25165D01*
X28909Y-39181D02*
X28327Y-39181D01*
X24990Y-27057D02*
X23134Y-25201D01*
X25000Y-27057D02*
X24990Y-27057D01*
X29232Y-31693D02*
X29232Y-31713D01*
X28783Y-32162D02*
X24830Y-32162D01*
X23504Y-32162D02*
X23228Y-31886D01*
X29232Y-31713D02*
X28783Y-32162D01*
X24830Y-32162D02*
X23504Y-32162D01*
X23208Y-32283D02*
X23012Y-32087D01*
X24779Y-32283D02*
X28922Y-32283D01*
X24779Y-32283D02*
X23208Y-32283D01*
X29433Y-31772D02*
X29433Y-31441D01*
X28922Y-32283D02*
X29433Y-31772D01*
X24641Y-32421D02*
X29075Y-32421D01*
X24641Y-32421D02*
X22929Y-32421D01*
X29075Y-32421D02*
X29791Y-31705D01*
X22929Y-32421D02*
X22791Y-32283D01*
X30197Y-31858D02*
X29506Y-32549D01*
X29506Y-32549D02*
X24363Y-32549D01*
X22660Y-32549D02*
X22591Y-32480D01*
X24363Y-32549D02*
X22660Y-32549D01*
X24138Y-32697D02*
X22386Y-32697D01*
X24339Y-32697D02*
X24138Y-32697D01*
X30630Y-31909D02*
X30393Y-32146D01*
X29839Y-32697D02*
X24339Y-32697D01*
X30390Y-32146D02*
X29839Y-32697D01*
X30393Y-32146D02*
X30390Y-32146D01*
X38041Y-43268D02*
X41535Y-43268D01*
X38435Y-42982D02*
X39016Y-42982D01*
X38238Y-42766D02*
X41083Y-42766D01*
X37736Y-43268D02*
X38238Y-42766D01*
X25568Y-34378D02*
X23539Y-34378D01*
X25752Y-34555D02*
X25745Y-34555D01*
X25745Y-34555D02*
X25568Y-34378D01*
X25748Y-34291D02*
X25747Y-34291D01*
X25629Y-34173D02*
X23858Y-34173D01*
X25747Y-34291D02*
X25629Y-34173D01*
X41528Y-44520D02*
X41528Y-43709D01*
X41524Y-44524D02*
X41528Y-44520D01*
X27732Y-29346D02*
X26291Y-29346D01*
X22134Y-25189D02*
X22134Y-24898D01*
X26291Y-29346D02*
X22134Y-25189D01*
X22134Y-24898D02*
X21244Y-24898D01*
X21240Y-24894D02*
X21244Y-24898D01*
X21673Y-24665D02*
X22254Y-24665D01*
X21004Y-24665D02*
X21673Y-24665D01*
X26283Y-29134D02*
X22331Y-25182D01*
X27283Y-29134D02*
X26283Y-29134D01*
X22331Y-24742D02*
X22331Y-25102D01*
X22254Y-24665D02*
X22331Y-24742D01*
X22331Y-25182D02*
X22331Y-25102D01*
X41260Y-44496D02*
X41260Y-43512D01*
X41236Y-44520D02*
X41260Y-44496D01*
X26350Y-37934D02*
X26123Y-38161D01*
X22685Y-36035D02*
X25074Y-36035D01*
X29169Y-38518D02*
X29049Y-38638D01*
X25677Y-36638D02*
X25074Y-36035D01*
X26350Y-37933D02*
X26350Y-37934D01*
X29049Y-38638D02*
X27768Y-38638D01*
X26123Y-38161D02*
X24811Y-38161D01*
X34205Y-38067D02*
X34205Y-38071D01*
X24811Y-38161D02*
X22685Y-36035D01*
X33758Y-38518D02*
X29169Y-38518D01*
X34205Y-38071D02*
X33758Y-38518D01*
X30108Y-39390D02*
X29724Y-39006D01*
X30108Y-40472D02*
X30108Y-39390D01*
X29724Y-39006D02*
X29360Y-39006D01*
X40098Y-32075D02*
X40098Y-32854D01*
G54D24*
X27933Y-35531D02*
X27933Y-33150D01*
G54D22*
X32386Y-42453D02*
X32386Y-41650D01*
G54D24*
X32618Y-32933D02*
X29941Y-32933D01*
X30522Y-35482D02*
X30413Y-35482D01*
G54D22*
X25856Y-44242D02*
X25856Y-44232D01*
G54D24*
X31358Y-37982D02*
X31348Y-37992D01*
G54D22*
X31004Y-43835D02*
X32386Y-42453D01*
X30980Y-43835D02*
X31004Y-43835D01*
G54D24*
X29685Y-34665D02*
X29754Y-34734D01*
X29350Y-37992D02*
X29311Y-37953D01*
X32618Y-32933D02*
X33012Y-33327D01*
X31211Y-34754D02*
X31201Y-34744D01*
X29685Y-32933D02*
X29941Y-32933D01*
X33012Y-33327D02*
X33012Y-34754D01*
X31201Y-34744D02*
X31201Y-34803D01*
X30266Y-37982D02*
X30256Y-37992D01*
X29754Y-34734D02*
X29774Y-34734D01*
X31201Y-34803D02*
X30522Y-35482D01*
X33012Y-35433D02*
X33012Y-35837D01*
X30876Y-37982D02*
X30266Y-37982D01*
X33012Y-36132D02*
X33012Y-36949D01*
X28061Y-33022D02*
X28150Y-32933D01*
X31831Y-37992D02*
X31821Y-37982D01*
G54D22*
X33012Y-35876D02*
X33012Y-35837D01*
G54D24*
X32303Y-37992D02*
X31831Y-37992D01*
G54D26*
X39516Y-32075D02*
X40098Y-32075D01*
G54D24*
X33012Y-35837D02*
X33012Y-36132D01*
X33012Y-36949D02*
X33012Y-37628D01*
G54D22*
X34646Y-38740D02*
X34661Y-38740D01*
G54D24*
X32992Y-37727D02*
X32727Y-37992D01*
G54D22*
X30522Y-35482D02*
X31172Y-36132D01*
G54D24*
X29774Y-34734D02*
X30522Y-35482D01*
X32727Y-37992D02*
X32303Y-37992D01*
X33012Y-34754D02*
X31211Y-34754D01*
X30256Y-37992D02*
X29557Y-37992D01*
G54D22*
X28062Y-33022D02*
X28209Y-33169D01*
G54D24*
X31821Y-37982D02*
X31358Y-37982D01*
X29557Y-37992D02*
X29350Y-37992D01*
X30413Y-35482D02*
X29724Y-36171D01*
X33012Y-36132D02*
X31172Y-36132D01*
G54D22*
X21614Y-37303D02*
X21289Y-37333D01*
X38866Y-32634D02*
X38957Y-32634D01*
G54D24*
X33012Y-37628D02*
X32992Y-37648D01*
X32992Y-37648D02*
X32992Y-37727D01*
X31348Y-37992D02*
X30886Y-37992D01*
X29557Y-37992D02*
X29557Y-36338D01*
X33012Y-34754D02*
X33012Y-35433D01*
G54D22*
X38957Y-32634D02*
X39516Y-32075D01*
G54D24*
X29685Y-32933D02*
X29685Y-34665D01*
G54D22*
X28061Y-33022D02*
X28062Y-33022D01*
G54D24*
X28150Y-32933D02*
X29685Y-32933D01*
X27933Y-33150D02*
X28061Y-33022D01*
X29557Y-36338D02*
X29724Y-36171D01*
X30886Y-37992D02*
X30876Y-37982D01*
G54D22*
X31788Y-41762D02*
X30728Y-41762D01*
X32192Y-41358D02*
X38278Y-41358D01*
X32192Y-41358D02*
X31788Y-41762D01*
X38278Y-41358D02*
X38455Y-41535D01*
X26190Y-28697D02*
X22728Y-25235D01*
X22728Y-25235D02*
X22728Y-25118D01*
X27265Y-28652D02*
X27220Y-28697D01*
X27274Y-28652D02*
X27265Y-28652D01*
X27051Y-28697D02*
X27096Y-28652D01*
X27096Y-28652D02*
X27274Y-28652D01*
X26190Y-28697D02*
X27051Y-28697D01*
X27480Y-28868D02*
X26189Y-28868D01*
X22524Y-25203D02*
X22524Y-24909D01*
X26189Y-28868D02*
X22524Y-25203D01*
X26929Y-28494D02*
X26159Y-28494D01*
X22925Y-25260D02*
X22925Y-24906D01*
X26159Y-28494D02*
X22925Y-25260D01*
X25886Y-29906D02*
X23862Y-29906D01*
X23866Y-33768D02*
X25756Y-33768D01*
X25681Y-33957D02*
X23626Y-33957D01*
X25752Y-34028D02*
X25681Y-33957D01*
X25756Y-34028D02*
X25752Y-34028D01*
X42539Y-43139D02*
X42539Y-43947D01*
X41516Y-42116D02*
X42539Y-43139D01*
X32020Y-40512D02*
X32020Y-40209D01*
X32020Y-40209D02*
X31909Y-40098D01*
X31909Y-40098D02*
X31713Y-40098D01*
X30469Y-41735D02*
X31713Y-40491D01*
X30394Y-42431D02*
X29666Y-42431D01*
X31713Y-40491D02*
X31713Y-40098D01*
X29666Y-42431D02*
X29646Y-42451D01*
X34673Y-41157D02*
X34673Y-40051D01*
X34673Y-41157D02*
X32665Y-41157D01*
X32665Y-41157D02*
X32020Y-40512D01*
X30469Y-42356D02*
X30469Y-41735D01*
X31644Y-37106D02*
X31644Y-37756D01*
X30394Y-42431D02*
X30469Y-42356D01*
X28130Y-36053D02*
X28829Y-36053D01*
G54D23*
X27004Y-38343D02*
X27284Y-38343D01*
X27351Y-38276D02*
X27551Y-38276D01*
X27284Y-38343D02*
X27351Y-38276D01*
G54D26*
X26071Y-39756D02*
X25063Y-39756D01*
X27551Y-38276D02*
X26071Y-39756D01*
G54D23*
X25685Y-39488D02*
X25709Y-39512D01*
X25709Y-39512D02*
X25988Y-39512D01*
X25063Y-39488D02*
X25685Y-39488D01*
X25063Y-39756D02*
X25063Y-39488D01*
G54D22*
X19909Y-40760D02*
X21445Y-40760D01*
X21445Y-40760D02*
X22077Y-40128D01*
G54D26*
X26917Y-38291D02*
X25980Y-39228D01*
X27004Y-38343D02*
X26917Y-38291D01*
X25980Y-39228D02*
X24787Y-39228D01*
G54D22*
X25724Y-40921D02*
X25905Y-41102D01*
X25905Y-41102D02*
X26677Y-41102D01*
G54D23*
X24787Y-39228D02*
X24787Y-39480D01*
X27004Y-38343D02*
X27004Y-38540D01*
X27004Y-38540D02*
X26154Y-39390D01*
X24787Y-39480D02*
X25063Y-39756D01*
G54D22*
X22077Y-40128D02*
X24173Y-40128D01*
X24173Y-40128D02*
X24478Y-39823D01*
G54D10*
G36*
X29163Y-42706D02*
X28347Y-42706D01*
X28347Y-41653D01*
X29134Y-41644D01*
X29163Y-41644D01*
X29163Y-42706D01*
X29163Y-42706D01*
G37*
G54D27*
X29163Y-42706D02*
X28347Y-42706D01*
X28347Y-41653D01*
X29134Y-41644D01*
X29163Y-41644D01*
X29163Y-42706D01*
G54D10*
G36*
X24637Y-38956D02*
X24564Y-39005D01*
X24496Y-39107D01*
X24472Y-39228D01*
X24472Y-39480D01*
X24477Y-39508D01*
X24416Y-39508D01*
X24300Y-39556D01*
X24211Y-39644D01*
X24163Y-39760D01*
X24163Y-39885D01*
X24176Y-39916D01*
X24112Y-39981D01*
X23446Y-39981D01*
X23456Y-39972D01*
X23504Y-39856D01*
X23504Y-39731D01*
X23456Y-39615D01*
X23368Y-39526D01*
X23252Y-39478D01*
X23127Y-39478D01*
X23011Y-39526D01*
X22922Y-39614D01*
X22874Y-39730D01*
X22874Y-39855D01*
X22922Y-39971D01*
X22931Y-39981D01*
X22077Y-39981D01*
X22076Y-39981D01*
X22065Y-39983D01*
X22021Y-39992D01*
X21973Y-40024D01*
X21971Y-40026D01*
X21581Y-40416D01*
X21585Y-40407D01*
X21585Y-40282D01*
X21537Y-40166D01*
X21449Y-40077D01*
X21333Y-40029D01*
X21208Y-40029D01*
X21092Y-40077D01*
X21003Y-40165D01*
X20955Y-40281D01*
X20955Y-40406D01*
X21003Y-40522D01*
X21091Y-40611D01*
X21095Y-40613D01*
X20067Y-40613D01*
X20031Y-40577D01*
X19952Y-40544D01*
X19866Y-40544D01*
X19803Y-40570D01*
X19803Y-39056D01*
X19803Y-39046D01*
X19893Y-38956D01*
X24637Y-38956D01*
X24637Y-38956D01*
G37*
G54D25*
X24637Y-38956D02*
X24564Y-39005D01*
X24496Y-39107D01*
X24472Y-39228D01*
X24472Y-39480D01*
X24477Y-39508D01*
X24416Y-39508D01*
X24300Y-39556D01*
X24211Y-39644D01*
X24163Y-39760D01*
X24163Y-39885D01*
X24176Y-39916D01*
X24112Y-39981D01*
X23446Y-39981D01*
X23456Y-39972D01*
X23504Y-39856D01*
X23504Y-39731D01*
X23456Y-39615D01*
X23368Y-39526D01*
X23252Y-39478D01*
X23127Y-39478D01*
X23011Y-39526D01*
X22922Y-39614D01*
X22874Y-39730D01*
X22874Y-39855D01*
X22922Y-39971D01*
X22931Y-39981D01*
X22077Y-39981D01*
X22076Y-39981D01*
X22065Y-39983D01*
X22021Y-39992D01*
X21973Y-40024D01*
X21971Y-40026D01*
X21581Y-40416D01*
X21585Y-40407D01*
X21585Y-40282D01*
X21537Y-40166D01*
X21449Y-40077D01*
X21333Y-40029D01*
X21208Y-40029D01*
X21092Y-40077D01*
X21003Y-40165D01*
X20955Y-40281D01*
X20955Y-40406D01*
X21003Y-40522D01*
X21091Y-40611D01*
X21095Y-40613D01*
X20067Y-40613D01*
X20031Y-40577D01*
X19952Y-40544D01*
X19866Y-40544D01*
X19803Y-40570D01*
X19803Y-39056D01*
X19803Y-39046D01*
X19893Y-38956D01*
X24637Y-38956D01*
G54D10*
G36*
X29184Y-41181D02*
X29016Y-41181D01*
X28661Y-41181D01*
X26877Y-41181D01*
X26893Y-41145D01*
X26893Y-41059D01*
X26860Y-40980D01*
X26799Y-40919D01*
X26720Y-40886D01*
X26634Y-40886D01*
X26555Y-40919D01*
X26519Y-40955D01*
X25966Y-40955D01*
X25940Y-40929D01*
X25940Y-40878D01*
X25907Y-40799D01*
X25846Y-40738D01*
X25767Y-40705D01*
X25681Y-40705D01*
X25602Y-40738D01*
X25541Y-40799D01*
X25508Y-40878D01*
X25508Y-40964D01*
X25541Y-41043D01*
X25602Y-41104D01*
X25681Y-41137D01*
X25732Y-41137D01*
X25776Y-41181D01*
X24724Y-41181D01*
X24603Y-41205D01*
X24501Y-41273D01*
X24499Y-41275D01*
X24147Y-41627D01*
X23727Y-42047D01*
X19815Y-42047D01*
X19803Y-42034D01*
X19803Y-40949D01*
X19866Y-40976D01*
X19952Y-40976D01*
X20031Y-40943D01*
X20067Y-40907D01*
X21445Y-40907D01*
X21501Y-40896D01*
X21502Y-40896D01*
X21549Y-40864D01*
X22137Y-40275D01*
X22177Y-40275D01*
X22170Y-40292D01*
X22170Y-40378D01*
X22203Y-40457D01*
X22264Y-40518D01*
X22343Y-40551D01*
X22394Y-40551D01*
X23209Y-41366D01*
X23209Y-41505D01*
X23173Y-41541D01*
X23140Y-41620D01*
X23140Y-41706D01*
X23173Y-41785D01*
X23234Y-41846D01*
X23313Y-41879D01*
X23399Y-41879D01*
X23478Y-41846D01*
X23539Y-41785D01*
X23572Y-41706D01*
X23572Y-41620D01*
X23539Y-41541D01*
X23503Y-41505D01*
X23503Y-41305D01*
X23502Y-41304D01*
X23503Y-41304D01*
X23500Y-41293D01*
X23492Y-41249D01*
X23491Y-41248D01*
X23460Y-41201D01*
X23459Y-41200D01*
X22602Y-40343D01*
X22602Y-40292D01*
X22594Y-40275D01*
X24173Y-40275D01*
X24229Y-40264D01*
X24230Y-40264D01*
X24277Y-40232D01*
X24383Y-40125D01*
X24415Y-40138D01*
X24540Y-40138D01*
X24656Y-40090D01*
X24745Y-40002D01*
X24779Y-39918D01*
X24840Y-39979D01*
X24942Y-40047D01*
X24943Y-40047D01*
X25063Y-40071D01*
X25183Y-40047D01*
X25184Y-40047D01*
X25286Y-39979D01*
X25290Y-39972D01*
X26071Y-39972D01*
X26154Y-39956D01*
X26224Y-39909D01*
X27542Y-38591D01*
X27551Y-38591D01*
X27553Y-38590D01*
X27552Y-38595D01*
X27552Y-38681D01*
X27565Y-38713D01*
X27563Y-38715D01*
X27502Y-38776D01*
X27469Y-38855D01*
X27469Y-38941D01*
X27502Y-39020D01*
X27563Y-39081D01*
X27642Y-39114D01*
X27728Y-39114D01*
X27807Y-39081D01*
X27843Y-39045D01*
X28158Y-39045D01*
X28144Y-39059D01*
X28111Y-39138D01*
X28111Y-39224D01*
X28144Y-39303D01*
X28205Y-39364D01*
X28284Y-39397D01*
X28370Y-39397D01*
X28449Y-39364D01*
X28485Y-39328D01*
X28751Y-39328D01*
X28787Y-39364D01*
X28866Y-39397D01*
X28895Y-39397D01*
X28638Y-39654D01*
X28587Y-39654D01*
X28508Y-39687D01*
X28447Y-39748D01*
X28414Y-39827D01*
X28414Y-39913D01*
X28447Y-39992D01*
X28508Y-40053D01*
X28587Y-40086D01*
X28673Y-40086D01*
X28752Y-40053D01*
X28813Y-39992D01*
X28846Y-39913D01*
X28846Y-39861D01*
X29160Y-39546D01*
X29184Y-39602D01*
X29184Y-41181D01*
X29184Y-41181D01*
G37*
G54D25*
X29184Y-41181D02*
X29016Y-41181D01*
X28661Y-41181D01*
X26877Y-41181D01*
X26893Y-41145D01*
X26893Y-41059D01*
X26860Y-40980D01*
X26799Y-40919D01*
X26720Y-40886D01*
X26634Y-40886D01*
X26555Y-40919D01*
X26519Y-40955D01*
X25966Y-40955D01*
X25940Y-40929D01*
X25940Y-40878D01*
X25907Y-40799D01*
X25846Y-40738D01*
X25767Y-40705D01*
X25681Y-40705D01*
X25602Y-40738D01*
X25541Y-40799D01*
X25508Y-40878D01*
X25508Y-40964D01*
X25541Y-41043D01*
X25602Y-41104D01*
X25681Y-41137D01*
X25732Y-41137D01*
X25776Y-41181D01*
X24724Y-41181D01*
X24603Y-41205D01*
X24501Y-41273D01*
X24499Y-41275D01*
X24147Y-41627D01*
X23727Y-42047D01*
X19815Y-42047D01*
X19803Y-42034D01*
X19803Y-40949D01*
X19866Y-40976D01*
X19952Y-40976D01*
X20031Y-40943D01*
X20067Y-40907D01*
X21445Y-40907D01*
X21501Y-40896D01*
X21502Y-40896D01*
X21549Y-40864D01*
X22137Y-40275D01*
X22177Y-40275D01*
X22170Y-40292D01*
X22170Y-40378D01*
X22203Y-40457D01*
X22264Y-40518D01*
X22343Y-40551D01*
X22394Y-40551D01*
X23209Y-41366D01*
X23209Y-41505D01*
X23173Y-41541D01*
X23140Y-41620D01*
X23140Y-41706D01*
X23173Y-41785D01*
X23234Y-41846D01*
X23313Y-41879D01*
X23399Y-41879D01*
X23478Y-41846D01*
X23539Y-41785D01*
X23572Y-41706D01*
X23572Y-41620D01*
X23539Y-41541D01*
X23503Y-41505D01*
X23503Y-41305D01*
X23502Y-41304D01*
X23503Y-41304D01*
X23500Y-41293D01*
X23492Y-41249D01*
X23491Y-41248D01*
X23460Y-41201D01*
X23459Y-41200D01*
X22602Y-40343D01*
X22602Y-40292D01*
X22594Y-40275D01*
X24173Y-40275D01*
X24229Y-40264D01*
X24230Y-40264D01*
X24277Y-40232D01*
X24383Y-40125D01*
X24415Y-40138D01*
X24540Y-40138D01*
X24656Y-40090D01*
X24745Y-40002D01*
X24779Y-39918D01*
X24840Y-39979D01*
X24942Y-40047D01*
X24943Y-40047D01*
X25063Y-40071D01*
X25183Y-40047D01*
X25184Y-40047D01*
X25286Y-39979D01*
X25290Y-39972D01*
X26071Y-39972D01*
X26154Y-39956D01*
X26224Y-39909D01*
X27542Y-38591D01*
X27551Y-38591D01*
X27553Y-38590D01*
X27552Y-38595D01*
X27552Y-38681D01*
X27565Y-38713D01*
X27563Y-38715D01*
X27502Y-38776D01*
X27469Y-38855D01*
X27469Y-38941D01*
X27502Y-39020D01*
X27563Y-39081D01*
X27642Y-39114D01*
X27728Y-39114D01*
X27807Y-39081D01*
X27843Y-39045D01*
X28158Y-39045D01*
X28144Y-39059D01*
X28111Y-39138D01*
X28111Y-39224D01*
X28144Y-39303D01*
X28205Y-39364D01*
X28284Y-39397D01*
X28370Y-39397D01*
X28449Y-39364D01*
X28485Y-39328D01*
X28751Y-39328D01*
X28787Y-39364D01*
X28866Y-39397D01*
X28895Y-39397D01*
X28638Y-39654D01*
X28587Y-39654D01*
X28508Y-39687D01*
X28447Y-39748D01*
X28414Y-39827D01*
X28414Y-39913D01*
X28447Y-39992D01*
X28508Y-40053D01*
X28587Y-40086D01*
X28673Y-40086D01*
X28752Y-40053D01*
X28813Y-39992D01*
X28846Y-39913D01*
X28846Y-39861D01*
X29160Y-39546D01*
X29184Y-39602D01*
X29184Y-41181D01*
G54D10*
G36*
X30176Y-40677D02*
X29672Y-41181D01*
X29478Y-41181D01*
X29478Y-39676D01*
X29492Y-39671D01*
X29553Y-39610D01*
X29586Y-39531D01*
X29586Y-39445D01*
X29553Y-39366D01*
X29492Y-39305D01*
X29413Y-39272D01*
X29327Y-39272D01*
X29281Y-39291D01*
X29281Y-39206D01*
X29317Y-39222D01*
X29403Y-39222D01*
X29482Y-39189D01*
X29518Y-39153D01*
X29663Y-39153D01*
X29961Y-39451D01*
X29961Y-40314D01*
X29925Y-40350D01*
X29892Y-40429D01*
X29892Y-40515D01*
X29925Y-40594D01*
X29986Y-40655D01*
X30065Y-40688D01*
X30151Y-40688D01*
X30176Y-40677D01*
X30176Y-40677D01*
G37*
G54D25*
X30176Y-40677D02*
X29672Y-41181D01*
X29478Y-41181D01*
X29478Y-39676D01*
X29492Y-39671D01*
X29553Y-39610D01*
X29586Y-39531D01*
X29586Y-39445D01*
X29553Y-39366D01*
X29492Y-39305D01*
X29413Y-39272D01*
X29327Y-39272D01*
X29281Y-39291D01*
X29281Y-39206D01*
X29317Y-39222D01*
X29403Y-39222D01*
X29482Y-39189D01*
X29518Y-39153D01*
X29663Y-39153D01*
X29961Y-39451D01*
X29961Y-40314D01*
X29925Y-40350D01*
X29892Y-40429D01*
X29892Y-40515D01*
X29925Y-40594D01*
X29986Y-40655D01*
X30065Y-40688D01*
X30151Y-40688D01*
X30176Y-40677D01*
G54D10*
G36*
X31385Y-39468D02*
X30584Y-40269D01*
X30582Y-40271D01*
X30313Y-40540D01*
X30324Y-40515D01*
X30324Y-40429D01*
X30291Y-40350D01*
X30255Y-40314D01*
X30255Y-39390D01*
X30244Y-39334D01*
X30244Y-39333D01*
X30212Y-39286D01*
X29833Y-38907D01*
X31316Y-38907D01*
X31229Y-38994D01*
X31181Y-39110D01*
X31181Y-39235D01*
X31229Y-39351D01*
X31317Y-39440D01*
X31385Y-39468D01*
X31385Y-39468D01*
G37*
G54D25*
X31385Y-39468D02*
X30584Y-40269D01*
X30582Y-40271D01*
X30313Y-40540D01*
X30324Y-40515D01*
X30324Y-40429D01*
X30291Y-40350D01*
X30255Y-40314D01*
X30255Y-39390D01*
X30244Y-39334D01*
X30244Y-39333D01*
X30212Y-39286D01*
X29833Y-38907D01*
X31316Y-38907D01*
X31229Y-38994D01*
X31181Y-39110D01*
X31181Y-39235D01*
X31229Y-39351D01*
X31317Y-39440D01*
X31385Y-39468D01*
G54D10*
G36*
X42299Y-31488D02*
X42232Y-31461D01*
X42161Y-31461D01*
X42161Y-31429D01*
X42128Y-31350D01*
X42067Y-31289D01*
X41988Y-31256D01*
X41902Y-31256D01*
X41823Y-31289D01*
X41762Y-31350D01*
X41749Y-31381D01*
X37416Y-31381D01*
X37419Y-31378D01*
X37452Y-31299D01*
X37452Y-31213D01*
X37419Y-31134D01*
X37358Y-31073D01*
X37279Y-31040D01*
X37228Y-31040D01*
X37144Y-30956D01*
X37165Y-30956D01*
X37244Y-30923D01*
X37305Y-30862D01*
X37338Y-30783D01*
X37338Y-30697D01*
X37305Y-30618D01*
X37244Y-30557D01*
X37165Y-30524D01*
X37137Y-30524D01*
X37137Y-30492D01*
X37104Y-30413D01*
X37080Y-30389D01*
X37100Y-30370D01*
X37133Y-30291D01*
X37133Y-30205D01*
X37100Y-30126D01*
X37039Y-30065D01*
X36960Y-30032D01*
X36874Y-30032D01*
X36795Y-30065D01*
X36734Y-30126D01*
X36703Y-30199D01*
X33635Y-30199D01*
X33651Y-30161D01*
X33651Y-30075D01*
X33618Y-29996D01*
X33592Y-29970D01*
X33592Y-29844D01*
X33982Y-29454D01*
X33982Y-29452D01*
X33986Y-29448D01*
X33986Y-29447D01*
X34194Y-29240D01*
X34245Y-29240D01*
X34324Y-29207D01*
X34385Y-29146D01*
X34418Y-29067D01*
X34418Y-28981D01*
X34385Y-28902D01*
X34324Y-28841D01*
X34245Y-28808D01*
X34159Y-28808D01*
X34080Y-28841D01*
X34019Y-28902D01*
X33986Y-28981D01*
X33986Y-29032D01*
X33774Y-29244D01*
X33769Y-29250D01*
X33720Y-29300D01*
X33720Y-29215D01*
X33758Y-29177D01*
X33791Y-29098D01*
X33791Y-29012D01*
X33758Y-28933D01*
X33697Y-28872D01*
X33618Y-28839D01*
X33532Y-28839D01*
X33453Y-28872D01*
X33413Y-28911D01*
X33378Y-28876D01*
X33299Y-28843D01*
X33213Y-28843D01*
X33134Y-28876D01*
X33073Y-28937D01*
X33040Y-29016D01*
X33040Y-29102D01*
X33073Y-29181D01*
X33121Y-29229D01*
X33121Y-29289D01*
X32773Y-29637D01*
X32773Y-29209D01*
X32809Y-29173D01*
X32842Y-29094D01*
X32842Y-29008D01*
X32809Y-28929D01*
X32748Y-28868D01*
X32669Y-28835D01*
X32583Y-28835D01*
X32504Y-28868D01*
X32443Y-28929D01*
X32410Y-29008D01*
X32410Y-29094D01*
X32443Y-29173D01*
X32479Y-29209D01*
X32479Y-29972D01*
X32425Y-30026D01*
X32392Y-30105D01*
X32392Y-30191D01*
X32395Y-30199D01*
X32350Y-30199D01*
X32362Y-30171D01*
X32362Y-30085D01*
X32329Y-30006D01*
X32293Y-29970D01*
X32293Y-25728D01*
X32292Y-25727D01*
X32282Y-25672D01*
X32281Y-25671D01*
X32250Y-25624D01*
X32249Y-25623D01*
X31988Y-25362D01*
X31988Y-25311D01*
X31977Y-25286D01*
X32012Y-25272D01*
X32073Y-25211D01*
X32106Y-25132D01*
X32106Y-25046D01*
X32103Y-25039D01*
X32175Y-25039D01*
X32221Y-25085D01*
X32300Y-25118D01*
X32386Y-25118D01*
X32465Y-25085D01*
X32526Y-25024D01*
X32559Y-24945D01*
X32559Y-24859D01*
X32547Y-24832D01*
X32687Y-24832D01*
X32743Y-24821D01*
X32744Y-24821D01*
X32791Y-24789D01*
X32827Y-24753D01*
X32878Y-24753D01*
X32957Y-24720D01*
X33018Y-24659D01*
X33051Y-24580D01*
X33051Y-24494D01*
X33018Y-24415D01*
X32957Y-24354D01*
X32878Y-24321D01*
X32792Y-24321D01*
X32713Y-24354D01*
X32652Y-24415D01*
X32619Y-24494D01*
X32619Y-24538D01*
X31693Y-24538D01*
X31692Y-24538D01*
X31681Y-24540D01*
X31637Y-24549D01*
X31589Y-24581D01*
X31587Y-24583D01*
X31126Y-25044D01*
X31094Y-25091D01*
X31083Y-25148D01*
X31083Y-25742D01*
X31063Y-25734D01*
X30977Y-25734D01*
X30898Y-25767D01*
X30837Y-25828D01*
X30804Y-25907D01*
X30804Y-25993D01*
X30837Y-26072D01*
X30898Y-26133D01*
X30962Y-26159D01*
X30962Y-26400D01*
X30951Y-26374D01*
X30890Y-26313D01*
X30811Y-26280D01*
X30759Y-26280D01*
X29376Y-24896D01*
X29329Y-24864D01*
X29272Y-24853D01*
X28061Y-24853D01*
X28025Y-24817D01*
X27946Y-24784D01*
X27932Y-24784D01*
X28140Y-24576D01*
X29003Y-24576D01*
X29039Y-24612D01*
X29118Y-24645D01*
X29204Y-24645D01*
X29283Y-24612D01*
X29344Y-24551D01*
X29377Y-24472D01*
X29377Y-24386D01*
X29344Y-24307D01*
X29283Y-24246D01*
X29204Y-24213D01*
X29118Y-24213D01*
X29044Y-24243D01*
X29066Y-24193D01*
X29066Y-24107D01*
X29033Y-24028D01*
X28972Y-23967D01*
X28893Y-23934D01*
X28807Y-23934D01*
X28728Y-23967D01*
X28692Y-24003D01*
X27867Y-24003D01*
X27831Y-23967D01*
X27752Y-23934D01*
X27666Y-23934D01*
X27643Y-23943D01*
X27643Y-22406D01*
X27679Y-22370D01*
X27712Y-22291D01*
X27712Y-22205D01*
X27679Y-22126D01*
X27618Y-22065D01*
X27539Y-22032D01*
X27482Y-22032D01*
X27488Y-22019D01*
X27488Y-21933D01*
X27455Y-21854D01*
X27394Y-21793D01*
X27315Y-21760D01*
X27229Y-21760D01*
X27177Y-21781D01*
X27177Y-21722D01*
X30207Y-21722D01*
X30207Y-23864D01*
X30207Y-23907D01*
X30207Y-23950D01*
X30222Y-23986D01*
X30223Y-23990D01*
X30224Y-23992D01*
X30240Y-24029D01*
X30267Y-24056D01*
X30270Y-24060D01*
X30273Y-24062D01*
X30301Y-24090D01*
X30337Y-24105D01*
X30340Y-24107D01*
X30343Y-24107D01*
X30380Y-24123D01*
X30423Y-24123D01*
X30466Y-24123D01*
X30502Y-24107D01*
X30506Y-24107D01*
X30508Y-24105D01*
X30545Y-24090D01*
X30572Y-24062D01*
X30576Y-24060D01*
X30578Y-24056D01*
X30606Y-24029D01*
X30621Y-23992D01*
X30623Y-23990D01*
X30623Y-23986D01*
X30639Y-23950D01*
X30639Y-23907D01*
X30639Y-23864D01*
X30639Y-21722D01*
X31861Y-21722D01*
X31861Y-23700D01*
X31825Y-23736D01*
X31792Y-23815D01*
X31792Y-23901D01*
X31825Y-23980D01*
X31886Y-24041D01*
X31965Y-24074D01*
X32051Y-24074D01*
X32130Y-24041D01*
X32191Y-23980D01*
X32224Y-23901D01*
X32224Y-23815D01*
X32191Y-23736D01*
X32155Y-23700D01*
X32155Y-21722D01*
X32225Y-21722D01*
X33751Y-21722D01*
X33751Y-23661D01*
X33715Y-23697D01*
X33682Y-23776D01*
X33682Y-23862D01*
X33715Y-23941D01*
X33776Y-24002D01*
X33855Y-24035D01*
X33941Y-24035D01*
X34020Y-24002D01*
X34081Y-23941D01*
X34114Y-23862D01*
X34114Y-23776D01*
X34081Y-23697D01*
X34045Y-23661D01*
X34045Y-21754D01*
X34077Y-21722D01*
X34184Y-21722D01*
X34725Y-21722D01*
X34725Y-22999D01*
X34692Y-23032D01*
X34647Y-23140D01*
X34647Y-23257D01*
X34692Y-23365D01*
X34774Y-23448D01*
X34882Y-23493D01*
X34999Y-23493D01*
X35107Y-23448D01*
X35190Y-23366D01*
X35235Y-23258D01*
X35235Y-23141D01*
X35190Y-23033D01*
X35157Y-22999D01*
X35157Y-21722D01*
X37890Y-21722D01*
X38328Y-22159D01*
X38330Y-22162D01*
X38432Y-22230D01*
X38433Y-22230D01*
X38439Y-22231D01*
X39094Y-22885D01*
X39094Y-26417D01*
X39094Y-26634D01*
X38831Y-26634D01*
X38948Y-26517D01*
X39012Y-26363D01*
X39012Y-26197D01*
X39012Y-25363D01*
X39012Y-25197D01*
X39012Y-24363D01*
X39012Y-24197D01*
X38948Y-24043D01*
X38831Y-23926D01*
X38677Y-23862D01*
X38511Y-23862D01*
X38357Y-23926D01*
X38240Y-24043D01*
X38176Y-24197D01*
X38176Y-24363D01*
X38240Y-24517D01*
X38357Y-24634D01*
X38511Y-24698D01*
X38677Y-24698D01*
X38831Y-24634D01*
X38948Y-24517D01*
X39012Y-24363D01*
X39012Y-25197D01*
X38948Y-25043D01*
X38831Y-24926D01*
X38677Y-24862D01*
X38511Y-24862D01*
X38357Y-24926D01*
X38240Y-25043D01*
X38176Y-25197D01*
X38176Y-25363D01*
X38240Y-25517D01*
X38357Y-25634D01*
X38511Y-25698D01*
X38677Y-25698D01*
X38831Y-25634D01*
X38948Y-25517D01*
X39012Y-25363D01*
X39012Y-26197D01*
X38948Y-26043D01*
X38831Y-25926D01*
X38677Y-25862D01*
X38511Y-25862D01*
X38357Y-25926D01*
X38240Y-26043D01*
X38176Y-26197D01*
X38176Y-26363D01*
X38240Y-26517D01*
X38357Y-26634D01*
X37831Y-26634D01*
X37948Y-26517D01*
X38012Y-26363D01*
X38012Y-26197D01*
X38012Y-25363D01*
X38012Y-25197D01*
X37994Y-25153D01*
X37994Y-24316D01*
X37977Y-24160D01*
X37950Y-24094D01*
X37899Y-24059D01*
X37815Y-24142D01*
X37815Y-23975D01*
X37780Y-23924D01*
X37630Y-23880D01*
X37474Y-23897D01*
X37408Y-23924D01*
X37373Y-23975D01*
X37594Y-24197D01*
X37815Y-23975D01*
X37815Y-24142D01*
X37677Y-24280D01*
X37899Y-24501D01*
X37950Y-24466D01*
X37994Y-24316D01*
X37994Y-25153D01*
X37948Y-25043D01*
X37831Y-24926D01*
X37815Y-24919D01*
X37815Y-24585D01*
X37594Y-24363D01*
X37511Y-24446D01*
X37511Y-24280D01*
X37289Y-24059D01*
X37238Y-24094D01*
X37194Y-24244D01*
X37211Y-24400D01*
X37238Y-24466D01*
X37289Y-24501D01*
X37511Y-24280D01*
X37511Y-24446D01*
X37373Y-24585D01*
X37408Y-24636D01*
X37558Y-24680D01*
X37714Y-24663D01*
X37780Y-24636D01*
X37815Y-24585D01*
X37815Y-24919D01*
X37677Y-24862D01*
X37511Y-24862D01*
X37357Y-24926D01*
X37240Y-25043D01*
X37176Y-25197D01*
X37176Y-25363D01*
X37240Y-25517D01*
X37357Y-25634D01*
X37511Y-25698D01*
X37677Y-25698D01*
X37831Y-25634D01*
X37948Y-25517D01*
X38012Y-25363D01*
X38012Y-26197D01*
X37948Y-26043D01*
X37831Y-25926D01*
X37677Y-25862D01*
X37511Y-25862D01*
X37357Y-25926D01*
X37240Y-26043D01*
X37176Y-26197D01*
X37176Y-26363D01*
X37240Y-26517D01*
X37357Y-26634D01*
X37190Y-26634D01*
X36848Y-26292D01*
X36791Y-26253D01*
X36723Y-26240D01*
X35632Y-26240D01*
X35561Y-26168D01*
X35471Y-26130D01*
X35471Y-23839D01*
X35471Y-23722D01*
X35426Y-23614D01*
X35344Y-23531D01*
X35236Y-23486D01*
X35119Y-23486D01*
X35011Y-23531D01*
X34928Y-23613D01*
X34883Y-23721D01*
X34883Y-23838D01*
X34928Y-23946D01*
X35010Y-24029D01*
X35118Y-24074D01*
X35235Y-24074D01*
X35343Y-24029D01*
X35426Y-23947D01*
X35471Y-23839D01*
X35471Y-26130D01*
X35453Y-26123D01*
X35336Y-26123D01*
X35228Y-26168D01*
X35145Y-26250D01*
X35100Y-26358D01*
X35100Y-26475D01*
X35145Y-26583D01*
X35227Y-26666D01*
X35335Y-26711D01*
X35452Y-26711D01*
X35560Y-26666D01*
X35632Y-26594D01*
X36650Y-26594D01*
X36992Y-26936D01*
X37049Y-26975D01*
X37117Y-26988D01*
X37295Y-26988D01*
X37240Y-27043D01*
X37176Y-27197D01*
X37176Y-27363D01*
X37240Y-27517D01*
X37357Y-27634D01*
X37511Y-27698D01*
X37677Y-27698D01*
X37831Y-27634D01*
X37948Y-27517D01*
X38012Y-27363D01*
X38012Y-27197D01*
X37948Y-27043D01*
X37893Y-26988D01*
X38176Y-26988D01*
X38176Y-27003D01*
X38176Y-27603D01*
X38194Y-27646D01*
X38227Y-27680D01*
X38270Y-27698D01*
X38317Y-27698D01*
X38917Y-27698D01*
X38960Y-27680D01*
X38994Y-27647D01*
X39012Y-27604D01*
X39012Y-27557D01*
X39012Y-26988D01*
X39155Y-26988D01*
X39186Y-27034D01*
X39262Y-27109D01*
X39262Y-27535D01*
X39234Y-27563D01*
X39201Y-27642D01*
X39201Y-27728D01*
X39234Y-27807D01*
X39295Y-27868D01*
X39374Y-27901D01*
X39460Y-27901D01*
X39539Y-27868D01*
X39600Y-27807D01*
X39633Y-27728D01*
X39633Y-27642D01*
X39600Y-27563D01*
X39556Y-27519D01*
X39556Y-27403D01*
X42299Y-30146D01*
X42299Y-31488D01*
X42299Y-31488D01*
G37*
G54D25*
X42299Y-31488D02*
X42232Y-31461D01*
X42161Y-31461D01*
X42161Y-31429D01*
X42128Y-31350D01*
X42067Y-31289D01*
X41988Y-31256D01*
X41902Y-31256D01*
X41823Y-31289D01*
X41762Y-31350D01*
X41749Y-31381D01*
X37416Y-31381D01*
X37419Y-31378D01*
X37452Y-31299D01*
X37452Y-31213D01*
X37419Y-31134D01*
X37358Y-31073D01*
X37279Y-31040D01*
X37228Y-31040D01*
X37144Y-30956D01*
X37165Y-30956D01*
X37244Y-30923D01*
X37305Y-30862D01*
X37338Y-30783D01*
X37338Y-30697D01*
X37305Y-30618D01*
X37244Y-30557D01*
X37165Y-30524D01*
X37137Y-30524D01*
X37137Y-30492D01*
X37104Y-30413D01*
X37080Y-30389D01*
X37100Y-30370D01*
X37133Y-30291D01*
X37133Y-30205D01*
X37100Y-30126D01*
X37039Y-30065D01*
X36960Y-30032D01*
X36874Y-30032D01*
X36795Y-30065D01*
X36734Y-30126D01*
X36703Y-30199D01*
X33635Y-30199D01*
X33651Y-30161D01*
X33651Y-30075D01*
X33618Y-29996D01*
X33592Y-29970D01*
X33592Y-29844D01*
X33982Y-29454D01*
X33982Y-29452D01*
X33986Y-29448D01*
X33986Y-29447D01*
X34194Y-29240D01*
X34245Y-29240D01*
X34324Y-29207D01*
X34385Y-29146D01*
X34418Y-29067D01*
X34418Y-28981D01*
X34385Y-28902D01*
X34324Y-28841D01*
X34245Y-28808D01*
X34159Y-28808D01*
X34080Y-28841D01*
X34019Y-28902D01*
X33986Y-28981D01*
X33986Y-29032D01*
X33774Y-29244D01*
X33769Y-29250D01*
X33720Y-29300D01*
X33720Y-29215D01*
X33758Y-29177D01*
X33791Y-29098D01*
X33791Y-29012D01*
X33758Y-28933D01*
X33697Y-28872D01*
X33618Y-28839D01*
X33532Y-28839D01*
X33453Y-28872D01*
X33413Y-28911D01*
X33378Y-28876D01*
X33299Y-28843D01*
X33213Y-28843D01*
X33134Y-28876D01*
X33073Y-28937D01*
X33040Y-29016D01*
X33040Y-29102D01*
X33073Y-29181D01*
X33121Y-29229D01*
X33121Y-29289D01*
X32773Y-29637D01*
X32773Y-29209D01*
X32809Y-29173D01*
X32842Y-29094D01*
X32842Y-29008D01*
X32809Y-28929D01*
X32748Y-28868D01*
X32669Y-28835D01*
X32583Y-28835D01*
X32504Y-28868D01*
X32443Y-28929D01*
X32410Y-29008D01*
X32410Y-29094D01*
X32443Y-29173D01*
X32479Y-29209D01*
X32479Y-29972D01*
X32425Y-30026D01*
X32392Y-30105D01*
X32392Y-30191D01*
X32395Y-30199D01*
X32350Y-30199D01*
X32362Y-30171D01*
X32362Y-30085D01*
X32329Y-30006D01*
X32293Y-29970D01*
X32293Y-25728D01*
X32292Y-25727D01*
X32282Y-25672D01*
X32281Y-25671D01*
X32250Y-25624D01*
X32249Y-25623D01*
X31988Y-25362D01*
X31988Y-25311D01*
X31977Y-25286D01*
X32012Y-25272D01*
X32073Y-25211D01*
X32106Y-25132D01*
X32106Y-25046D01*
X32103Y-25039D01*
X32175Y-25039D01*
X32221Y-25085D01*
X32300Y-25118D01*
X32386Y-25118D01*
X32465Y-25085D01*
X32526Y-25024D01*
X32559Y-24945D01*
X32559Y-24859D01*
X32547Y-24832D01*
X32687Y-24832D01*
X32743Y-24821D01*
X32744Y-24821D01*
X32791Y-24789D01*
X32827Y-24753D01*
X32878Y-24753D01*
X32957Y-24720D01*
X33018Y-24659D01*
X33051Y-24580D01*
X33051Y-24494D01*
X33018Y-24415D01*
X32957Y-24354D01*
X32878Y-24321D01*
X32792Y-24321D01*
X32713Y-24354D01*
X32652Y-24415D01*
X32619Y-24494D01*
X32619Y-24538D01*
X31693Y-24538D01*
X31692Y-24538D01*
X31681Y-24540D01*
X31637Y-24549D01*
X31589Y-24581D01*
X31587Y-24583D01*
X31126Y-25044D01*
X31094Y-25091D01*
X31083Y-25148D01*
X31083Y-25742D01*
X31063Y-25734D01*
X30977Y-25734D01*
X30898Y-25767D01*
X30837Y-25828D01*
X30804Y-25907D01*
X30804Y-25993D01*
X30837Y-26072D01*
X30898Y-26133D01*
X30962Y-26159D01*
X30962Y-26400D01*
X30951Y-26374D01*
X30890Y-26313D01*
X30811Y-26280D01*
X30759Y-26280D01*
X29376Y-24896D01*
X29329Y-24864D01*
X29272Y-24853D01*
X28061Y-24853D01*
X28025Y-24817D01*
X27946Y-24784D01*
X27932Y-24784D01*
X28140Y-24576D01*
X29003Y-24576D01*
X29039Y-24612D01*
X29118Y-24645D01*
X29204Y-24645D01*
X29283Y-24612D01*
X29344Y-24551D01*
X29377Y-24472D01*
X29377Y-24386D01*
X29344Y-24307D01*
X29283Y-24246D01*
X29204Y-24213D01*
X29118Y-24213D01*
X29044Y-24243D01*
X29066Y-24193D01*
X29066Y-24107D01*
X29033Y-24028D01*
X28972Y-23967D01*
X28893Y-23934D01*
X28807Y-23934D01*
X28728Y-23967D01*
X28692Y-24003D01*
X27867Y-24003D01*
X27831Y-23967D01*
X27752Y-23934D01*
X27666Y-23934D01*
X27643Y-23943D01*
X27643Y-22406D01*
X27679Y-22370D01*
X27712Y-22291D01*
X27712Y-22205D01*
X27679Y-22126D01*
X27618Y-22065D01*
X27539Y-22032D01*
X27482Y-22032D01*
X27488Y-22019D01*
X27488Y-21933D01*
X27455Y-21854D01*
X27394Y-21793D01*
X27315Y-21760D01*
X27229Y-21760D01*
X27177Y-21781D01*
X27177Y-21722D01*
X30207Y-21722D01*
X30207Y-23864D01*
X30207Y-23907D01*
X30207Y-23950D01*
X30222Y-23986D01*
X30223Y-23990D01*
X30224Y-23992D01*
X30240Y-24029D01*
X30267Y-24056D01*
X30270Y-24060D01*
X30273Y-24062D01*
X30301Y-24090D01*
X30337Y-24105D01*
X30340Y-24107D01*
X30343Y-24107D01*
X30380Y-24123D01*
X30423Y-24123D01*
X30466Y-24123D01*
X30502Y-24107D01*
X30506Y-24107D01*
X30508Y-24105D01*
X30545Y-24090D01*
X30572Y-24062D01*
X30576Y-24060D01*
X30578Y-24056D01*
X30606Y-24029D01*
X30621Y-23992D01*
X30623Y-23990D01*
X30623Y-23986D01*
X30639Y-23950D01*
X30639Y-23907D01*
X30639Y-23864D01*
X30639Y-21722D01*
X31861Y-21722D01*
X31861Y-23700D01*
X31825Y-23736D01*
X31792Y-23815D01*
X31792Y-23901D01*
X31825Y-23980D01*
X31886Y-24041D01*
X31965Y-24074D01*
X32051Y-24074D01*
X32130Y-24041D01*
X32191Y-23980D01*
X32224Y-23901D01*
X32224Y-23815D01*
X32191Y-23736D01*
X32155Y-23700D01*
X32155Y-21722D01*
X32225Y-21722D01*
X33751Y-21722D01*
X33751Y-23661D01*
X33715Y-23697D01*
X33682Y-23776D01*
X33682Y-23862D01*
X33715Y-23941D01*
X33776Y-24002D01*
X33855Y-24035D01*
X33941Y-24035D01*
X34020Y-24002D01*
X34081Y-23941D01*
X34114Y-23862D01*
X34114Y-23776D01*
X34081Y-23697D01*
X34045Y-23661D01*
X34045Y-21754D01*
X34077Y-21722D01*
X34184Y-21722D01*
X34725Y-21722D01*
X34725Y-22999D01*
X34692Y-23032D01*
X34647Y-23140D01*
X34647Y-23257D01*
X34692Y-23365D01*
X34774Y-23448D01*
X34882Y-23493D01*
X34999Y-23493D01*
X35107Y-23448D01*
X35190Y-23366D01*
X35235Y-23258D01*
X35235Y-23141D01*
X35190Y-23033D01*
X35157Y-22999D01*
X35157Y-21722D01*
X37890Y-21722D01*
X38328Y-22159D01*
X38330Y-22162D01*
X38432Y-22230D01*
X38433Y-22230D01*
X38439Y-22231D01*
X39094Y-22885D01*
X39094Y-26417D01*
X39094Y-26634D01*
X38831Y-26634D01*
X38948Y-26517D01*
X39012Y-26363D01*
X39012Y-26197D01*
X39012Y-25363D01*
X39012Y-25197D01*
X39012Y-24363D01*
X39012Y-24197D01*
X38948Y-24043D01*
X38831Y-23926D01*
X38677Y-23862D01*
X38511Y-23862D01*
X38357Y-23926D01*
X38240Y-24043D01*
X38176Y-24197D01*
X38176Y-24363D01*
X38240Y-24517D01*
X38357Y-24634D01*
X38511Y-24698D01*
X38677Y-24698D01*
X38831Y-24634D01*
X38948Y-24517D01*
X39012Y-24363D01*
X39012Y-25197D01*
X38948Y-25043D01*
X38831Y-24926D01*
X38677Y-24862D01*
X38511Y-24862D01*
X38357Y-24926D01*
X38240Y-25043D01*
X38176Y-25197D01*
X38176Y-25363D01*
X38240Y-25517D01*
X38357Y-25634D01*
X38511Y-25698D01*
X38677Y-25698D01*
X38831Y-25634D01*
X38948Y-25517D01*
X39012Y-25363D01*
X39012Y-26197D01*
X38948Y-26043D01*
X38831Y-25926D01*
X38677Y-25862D01*
X38511Y-25862D01*
X38357Y-25926D01*
X38240Y-26043D01*
X38176Y-26197D01*
X38176Y-26363D01*
X38240Y-26517D01*
X38357Y-26634D01*
X37831Y-26634D01*
X37948Y-26517D01*
X38012Y-26363D01*
X38012Y-26197D01*
X38012Y-25363D01*
X38012Y-25197D01*
X37994Y-25153D01*
X37994Y-24316D01*
X37977Y-24160D01*
X37950Y-24094D01*
X37899Y-24059D01*
X37815Y-24142D01*
X37815Y-23975D01*
X37780Y-23924D01*
X37630Y-23880D01*
X37474Y-23897D01*
X37408Y-23924D01*
X37373Y-23975D01*
X37594Y-24197D01*
X37815Y-23975D01*
X37815Y-24142D01*
X37677Y-24280D01*
X37899Y-24501D01*
X37950Y-24466D01*
X37994Y-24316D01*
X37994Y-25153D01*
X37948Y-25043D01*
X37831Y-24926D01*
X37815Y-24919D01*
X37815Y-24585D01*
X37594Y-24363D01*
X37511Y-24446D01*
X37511Y-24280D01*
X37289Y-24059D01*
X37238Y-24094D01*
X37194Y-24244D01*
X37211Y-24400D01*
X37238Y-24466D01*
X37289Y-24501D01*
X37511Y-24280D01*
X37511Y-24446D01*
X37373Y-24585D01*
X37408Y-24636D01*
X37558Y-24680D01*
X37714Y-24663D01*
X37780Y-24636D01*
X37815Y-24585D01*
X37815Y-24919D01*
X37677Y-24862D01*
X37511Y-24862D01*
X37357Y-24926D01*
X37240Y-25043D01*
X37176Y-25197D01*
X37176Y-25363D01*
X37240Y-25517D01*
X37357Y-25634D01*
X37511Y-25698D01*
X37677Y-25698D01*
X37831Y-25634D01*
X37948Y-25517D01*
X38012Y-25363D01*
X38012Y-26197D01*
X37948Y-26043D01*
X37831Y-25926D01*
X37677Y-25862D01*
X37511Y-25862D01*
X37357Y-25926D01*
X37240Y-26043D01*
X37176Y-26197D01*
X37176Y-26363D01*
X37240Y-26517D01*
X37357Y-26634D01*
X37190Y-26634D01*
X36848Y-26292D01*
X36791Y-26253D01*
X36723Y-26240D01*
X35632Y-26240D01*
X35561Y-26168D01*
X35471Y-26130D01*
X35471Y-23839D01*
X35471Y-23722D01*
X35426Y-23614D01*
X35344Y-23531D01*
X35236Y-23486D01*
X35119Y-23486D01*
X35011Y-23531D01*
X34928Y-23613D01*
X34883Y-23721D01*
X34883Y-23838D01*
X34928Y-23946D01*
X35010Y-24029D01*
X35118Y-24074D01*
X35235Y-24074D01*
X35343Y-24029D01*
X35426Y-23947D01*
X35471Y-23839D01*
X35471Y-26130D01*
X35453Y-26123D01*
X35336Y-26123D01*
X35228Y-26168D01*
X35145Y-26250D01*
X35100Y-26358D01*
X35100Y-26475D01*
X35145Y-26583D01*
X35227Y-26666D01*
X35335Y-26711D01*
X35452Y-26711D01*
X35560Y-26666D01*
X35632Y-26594D01*
X36650Y-26594D01*
X36992Y-26936D01*
X37049Y-26975D01*
X37117Y-26988D01*
X37295Y-26988D01*
X37240Y-27043D01*
X37176Y-27197D01*
X37176Y-27363D01*
X37240Y-27517D01*
X37357Y-27634D01*
X37511Y-27698D01*
X37677Y-27698D01*
X37831Y-27634D01*
X37948Y-27517D01*
X38012Y-27363D01*
X38012Y-27197D01*
X37948Y-27043D01*
X37893Y-26988D01*
X38176Y-26988D01*
X38176Y-27003D01*
X38176Y-27603D01*
X38194Y-27646D01*
X38227Y-27680D01*
X38270Y-27698D01*
X38317Y-27698D01*
X38917Y-27698D01*
X38960Y-27680D01*
X38994Y-27647D01*
X39012Y-27604D01*
X39012Y-27557D01*
X39012Y-26988D01*
X39155Y-26988D01*
X39186Y-27034D01*
X39262Y-27109D01*
X39262Y-27535D01*
X39234Y-27563D01*
X39201Y-27642D01*
X39201Y-27728D01*
X39234Y-27807D01*
X39295Y-27868D01*
X39374Y-27901D01*
X39460Y-27901D01*
X39539Y-27868D01*
X39600Y-27807D01*
X39633Y-27728D01*
X39633Y-27642D01*
X39600Y-27563D01*
X39556Y-27519D01*
X39556Y-27403D01*
X42299Y-30146D01*
X42299Y-31488D01*
G54D10*
G36*
X42299Y-36600D02*
X42059Y-36840D01*
X41905Y-36840D01*
X41905Y-32681D01*
X41905Y-32595D01*
X41872Y-32516D01*
X41811Y-32455D01*
X41732Y-32422D01*
X41646Y-32422D01*
X41567Y-32455D01*
X41506Y-32516D01*
X41473Y-32595D01*
X41473Y-32646D01*
X41124Y-32995D01*
X35804Y-32995D01*
X35768Y-32959D01*
X35689Y-32926D01*
X35603Y-32926D01*
X35524Y-32959D01*
X35463Y-33020D01*
X35430Y-33099D01*
X35430Y-33185D01*
X35463Y-33264D01*
X35524Y-33325D01*
X35603Y-33358D01*
X35658Y-33358D01*
X35235Y-33781D01*
X35203Y-33828D01*
X35192Y-33885D01*
X35192Y-34007D01*
X35156Y-34043D01*
X35123Y-34122D01*
X35123Y-34208D01*
X35156Y-34287D01*
X35196Y-34327D01*
X35114Y-34327D01*
X35035Y-34360D01*
X34974Y-34421D01*
X34941Y-34500D01*
X34941Y-34586D01*
X34974Y-34665D01*
X35035Y-34726D01*
X35114Y-34759D01*
X35200Y-34759D01*
X35254Y-34736D01*
X35280Y-34797D01*
X35341Y-34858D01*
X35394Y-34880D01*
X35394Y-34945D01*
X35427Y-35024D01*
X35488Y-35085D01*
X35567Y-35118D01*
X35653Y-35118D01*
X35732Y-35085D01*
X35768Y-35049D01*
X36506Y-35049D01*
X36551Y-35094D01*
X36630Y-35127D01*
X36716Y-35127D01*
X36795Y-35094D01*
X36856Y-35033D01*
X36889Y-34954D01*
X36889Y-34868D01*
X36887Y-34864D01*
X36903Y-34858D01*
X36964Y-34797D01*
X36997Y-34718D01*
X36997Y-34632D01*
X36994Y-34627D01*
X37048Y-34627D01*
X37048Y-34653D01*
X37081Y-34732D01*
X37142Y-34793D01*
X37221Y-34826D01*
X37307Y-34826D01*
X37386Y-34793D01*
X37447Y-34732D01*
X37480Y-34653D01*
X37480Y-34567D01*
X37459Y-34518D01*
X37502Y-34476D01*
X37535Y-34397D01*
X37535Y-34311D01*
X37502Y-34232D01*
X37441Y-34171D01*
X37362Y-34138D01*
X37276Y-34138D01*
X37197Y-34171D01*
X37161Y-34207D01*
X37128Y-34207D01*
X37141Y-34177D01*
X37141Y-34091D01*
X37108Y-34012D01*
X37047Y-33951D01*
X36968Y-33918D01*
X36917Y-33918D01*
X36864Y-33865D01*
X36817Y-33833D01*
X36760Y-33822D01*
X35800Y-33822D01*
X35764Y-33786D01*
X35685Y-33753D01*
X35679Y-33753D01*
X35872Y-33560D01*
X37027Y-33560D01*
X37063Y-33596D01*
X37142Y-33629D01*
X37228Y-33629D01*
X37307Y-33596D01*
X37368Y-33535D01*
X37401Y-33456D01*
X37401Y-33370D01*
X37368Y-33291D01*
X37366Y-33289D01*
X41185Y-33289D01*
X41241Y-33278D01*
X41242Y-33278D01*
X41289Y-33246D01*
X41680Y-32854D01*
X41732Y-32854D01*
X41811Y-32821D01*
X41872Y-32760D01*
X41905Y-32681D01*
X41905Y-36840D01*
X41764Y-36840D01*
X41721Y-36858D01*
X41687Y-36891D01*
X41669Y-36934D01*
X41669Y-36981D01*
X41669Y-37225D01*
X40528Y-38366D01*
X39863Y-38366D01*
X39947Y-38283D01*
X40004Y-38146D01*
X40004Y-37997D01*
X40004Y-34426D01*
X40004Y-34277D01*
X39947Y-34140D01*
X39842Y-34034D01*
X39705Y-33977D01*
X39556Y-33977D01*
X39419Y-34034D01*
X39313Y-34139D01*
X39256Y-34276D01*
X39256Y-34425D01*
X39313Y-34562D01*
X39418Y-34668D01*
X39555Y-34725D01*
X39704Y-34725D01*
X39841Y-34668D01*
X39947Y-34563D01*
X40004Y-34426D01*
X40004Y-37997D01*
X39947Y-37860D01*
X39842Y-37754D01*
X39705Y-37697D01*
X39556Y-37697D01*
X39419Y-37754D01*
X39313Y-37859D01*
X39256Y-37996D01*
X39256Y-38145D01*
X39313Y-38282D01*
X39396Y-38366D01*
X39045Y-38366D01*
X37401Y-38366D01*
X37401Y-36915D01*
X37401Y-36868D01*
X37401Y-36318D01*
X37383Y-36275D01*
X37350Y-36241D01*
X37307Y-36223D01*
X37260Y-36223D01*
X36710Y-36223D01*
X36667Y-36241D01*
X36633Y-36274D01*
X36615Y-36317D01*
X36615Y-36364D01*
X36615Y-36914D01*
X36633Y-36957D01*
X36666Y-36991D01*
X36709Y-37009D01*
X36756Y-37009D01*
X37306Y-37009D01*
X37349Y-36991D01*
X37383Y-36958D01*
X37401Y-36915D01*
X37401Y-38366D01*
X37400Y-38366D01*
X37400Y-37694D01*
X37400Y-37538D01*
X37340Y-37394D01*
X37230Y-37284D01*
X37086Y-37224D01*
X36930Y-37224D01*
X36786Y-37284D01*
X36676Y-37394D01*
X36616Y-37538D01*
X36616Y-37694D01*
X36676Y-37838D01*
X36786Y-37948D01*
X36930Y-38008D01*
X37086Y-38008D01*
X37230Y-37948D01*
X37340Y-37838D01*
X37400Y-37694D01*
X37400Y-38366D01*
X36013Y-38366D01*
X36013Y-36834D01*
X36013Y-36748D01*
X35980Y-36669D01*
X35919Y-36608D01*
X35840Y-36575D01*
X35754Y-36575D01*
X35675Y-36608D01*
X35639Y-36644D01*
X35365Y-36644D01*
X35329Y-36608D01*
X35250Y-36575D01*
X35164Y-36575D01*
X35085Y-36608D01*
X35024Y-36669D01*
X34991Y-36748D01*
X34991Y-36834D01*
X35024Y-36913D01*
X35085Y-36974D01*
X35164Y-37007D01*
X35250Y-37007D01*
X35329Y-36974D01*
X35365Y-36938D01*
X35639Y-36938D01*
X35675Y-36974D01*
X35754Y-37007D01*
X35840Y-37007D01*
X35919Y-36974D01*
X35980Y-36913D01*
X36013Y-36834D01*
X36013Y-38366D01*
X35842Y-38366D01*
X35858Y-38330D01*
X35858Y-38244D01*
X35825Y-38165D01*
X35793Y-38133D01*
X35793Y-38028D01*
X35829Y-37992D01*
X35862Y-37913D01*
X35862Y-37827D01*
X35829Y-37748D01*
X35768Y-37687D01*
X35689Y-37654D01*
X35603Y-37654D01*
X35524Y-37687D01*
X35463Y-37748D01*
X35430Y-37827D01*
X35430Y-37913D01*
X35463Y-37992D01*
X35499Y-38028D01*
X35499Y-38125D01*
X35459Y-38165D01*
X35426Y-38244D01*
X35426Y-38330D01*
X35441Y-38366D01*
X35358Y-38366D01*
X35357Y-38366D01*
X35237Y-38390D01*
X35135Y-38458D01*
X35133Y-38460D01*
X34542Y-39051D01*
X34268Y-39051D01*
X34279Y-39027D01*
X34279Y-38941D01*
X34246Y-38862D01*
X34185Y-38801D01*
X34106Y-38768D01*
X34055Y-38768D01*
X33885Y-38598D01*
X34201Y-38283D01*
X34248Y-38283D01*
X34327Y-38250D01*
X34388Y-38189D01*
X34421Y-38110D01*
X34421Y-38024D01*
X34388Y-37945D01*
X34327Y-37884D01*
X34248Y-37851D01*
X34162Y-37851D01*
X34083Y-37884D01*
X34022Y-37945D01*
X33989Y-38024D01*
X33989Y-38079D01*
X33697Y-38371D01*
X33001Y-38371D01*
X33001Y-35732D01*
X33001Y-35646D01*
X32968Y-35567D01*
X32923Y-35522D01*
X32923Y-33488D01*
X32923Y-33402D01*
X32890Y-33323D01*
X32829Y-33262D01*
X32750Y-33229D01*
X32664Y-33229D01*
X32585Y-33262D01*
X32524Y-33323D01*
X32491Y-33402D01*
X32491Y-33438D01*
X32277Y-33652D01*
X32240Y-33652D01*
X32183Y-33675D01*
X32204Y-33626D01*
X32204Y-33540D01*
X32171Y-33461D01*
X32145Y-33435D01*
X32145Y-33298D01*
X32171Y-33272D01*
X32204Y-33193D01*
X32204Y-33107D01*
X32171Y-33028D01*
X32110Y-32967D01*
X32031Y-32934D01*
X31945Y-32934D01*
X31866Y-32967D01*
X31805Y-33028D01*
X31772Y-33107D01*
X31772Y-33193D01*
X31805Y-33272D01*
X31831Y-33298D01*
X31831Y-33435D01*
X31805Y-33461D01*
X31772Y-33540D01*
X31772Y-33626D01*
X31805Y-33705D01*
X31866Y-33766D01*
X31945Y-33799D01*
X32031Y-33799D01*
X32087Y-33775D01*
X32067Y-33825D01*
X32067Y-33911D01*
X32100Y-33990D01*
X32161Y-34051D01*
X32240Y-34084D01*
X32326Y-34084D01*
X32405Y-34051D01*
X32466Y-33990D01*
X32499Y-33911D01*
X32499Y-33874D01*
X32712Y-33661D01*
X32750Y-33661D01*
X32829Y-33628D01*
X32890Y-33567D01*
X32923Y-33488D01*
X32923Y-35522D01*
X32907Y-35506D01*
X32828Y-35473D01*
X32742Y-35473D01*
X32663Y-35506D01*
X32637Y-35532D01*
X32500Y-35532D01*
X32474Y-35506D01*
X32395Y-35473D01*
X32309Y-35473D01*
X32230Y-35506D01*
X32169Y-35567D01*
X32136Y-35646D01*
X32136Y-35732D01*
X32169Y-35811D01*
X32230Y-35872D01*
X32309Y-35905D01*
X32395Y-35905D01*
X32474Y-35872D01*
X32500Y-35846D01*
X32637Y-35846D01*
X32663Y-35872D01*
X32742Y-35905D01*
X32828Y-35905D01*
X32907Y-35872D01*
X32968Y-35811D01*
X33001Y-35732D01*
X33001Y-38371D01*
X32992Y-38371D01*
X32992Y-36677D01*
X32992Y-36591D01*
X32959Y-36512D01*
X32898Y-36451D01*
X32819Y-36418D01*
X32733Y-36418D01*
X32654Y-36451D01*
X32628Y-36477D01*
X32500Y-36477D01*
X32474Y-36451D01*
X32395Y-36418D01*
X32309Y-36418D01*
X32230Y-36451D01*
X32169Y-36512D01*
X32136Y-36591D01*
X32136Y-36677D01*
X32169Y-36756D01*
X32230Y-36817D01*
X32309Y-36850D01*
X32395Y-36850D01*
X32474Y-36817D01*
X32500Y-36791D01*
X32628Y-36791D01*
X32654Y-36817D01*
X32733Y-36850D01*
X32819Y-36850D01*
X32898Y-36817D01*
X32959Y-36756D01*
X32992Y-36677D01*
X32992Y-38371D01*
X32854Y-38371D01*
X32854Y-37789D01*
X32854Y-37703D01*
X32821Y-37624D01*
X32803Y-37606D01*
X32802Y-37599D01*
X32763Y-37542D01*
X32416Y-37195D01*
X32416Y-37186D01*
X32383Y-37107D01*
X32322Y-37046D01*
X32243Y-37013D01*
X32157Y-37013D01*
X32078Y-37046D01*
X32017Y-37107D01*
X31984Y-37186D01*
X31984Y-37272D01*
X32017Y-37351D01*
X32078Y-37412D01*
X32157Y-37445D01*
X32166Y-37445D01*
X32422Y-37701D01*
X32422Y-37703D01*
X32422Y-37789D01*
X32455Y-37868D01*
X32516Y-37929D01*
X32595Y-37962D01*
X32681Y-37962D01*
X32760Y-37929D01*
X32821Y-37868D01*
X32854Y-37789D01*
X32854Y-38371D01*
X31860Y-38371D01*
X31860Y-37799D01*
X31860Y-37713D01*
X31827Y-37634D01*
X31791Y-37598D01*
X31791Y-37264D01*
X31827Y-37228D01*
X31860Y-37149D01*
X31860Y-37063D01*
X31827Y-36984D01*
X31766Y-36923D01*
X31687Y-36890D01*
X31601Y-36890D01*
X31522Y-36923D01*
X31461Y-36984D01*
X31428Y-37063D01*
X31428Y-37149D01*
X31461Y-37228D01*
X31497Y-37264D01*
X31497Y-37598D01*
X31461Y-37634D01*
X31428Y-37713D01*
X31428Y-37799D01*
X31461Y-37878D01*
X31522Y-37939D01*
X31601Y-37972D01*
X31687Y-37972D01*
X31766Y-37939D01*
X31827Y-37878D01*
X31860Y-37799D01*
X31860Y-38371D01*
X31318Y-38371D01*
X31318Y-37799D01*
X31318Y-37713D01*
X31285Y-37634D01*
X31259Y-37608D01*
X31259Y-37472D01*
X31276Y-37455D01*
X31309Y-37376D01*
X31309Y-37290D01*
X31276Y-37211D01*
X31215Y-37150D01*
X31136Y-37117D01*
X31050Y-37117D01*
X30971Y-37150D01*
X30944Y-37177D01*
X30944Y-33626D01*
X30944Y-33540D01*
X30911Y-33461D01*
X30885Y-33435D01*
X30885Y-33298D01*
X30911Y-33272D01*
X30944Y-33193D01*
X30944Y-33107D01*
X30911Y-33028D01*
X30850Y-32967D01*
X30846Y-32965D01*
X30846Y-31952D01*
X30846Y-31866D01*
X30813Y-31787D01*
X30752Y-31726D01*
X30673Y-31693D01*
X30587Y-31693D01*
X30508Y-31726D01*
X30447Y-31787D01*
X30414Y-31866D01*
X30414Y-31917D01*
X30400Y-31930D01*
X30413Y-31901D01*
X30413Y-31815D01*
X30380Y-31736D01*
X30319Y-31675D01*
X30240Y-31642D01*
X30154Y-31642D01*
X30075Y-31675D01*
X30014Y-31736D01*
X29981Y-31815D01*
X29981Y-31866D01*
X29445Y-32402D01*
X29302Y-32402D01*
X29783Y-31921D01*
X29834Y-31921D01*
X29913Y-31888D01*
X29974Y-31827D01*
X30007Y-31748D01*
X30007Y-31662D01*
X29974Y-31583D01*
X29913Y-31522D01*
X29834Y-31489D01*
X29748Y-31489D01*
X29696Y-31510D01*
X29696Y-29303D01*
X29696Y-29217D01*
X29663Y-29138D01*
X29602Y-29077D01*
X29523Y-29044D01*
X29437Y-29044D01*
X29358Y-29077D01*
X29297Y-29138D01*
X29264Y-29217D01*
X29264Y-29268D01*
X28057Y-30475D01*
X28006Y-30475D01*
X27927Y-30508D01*
X27866Y-30569D01*
X27833Y-30648D01*
X27833Y-30734D01*
X27866Y-30813D01*
X27927Y-30874D01*
X28006Y-30907D01*
X28092Y-30907D01*
X28171Y-30874D01*
X28232Y-30813D01*
X28265Y-30734D01*
X28265Y-30682D01*
X29471Y-29476D01*
X29523Y-29476D01*
X29602Y-29443D01*
X29663Y-29382D01*
X29696Y-29303D01*
X29696Y-31510D01*
X29669Y-31522D01*
X29608Y-31583D01*
X29580Y-31650D01*
X29580Y-31599D01*
X29616Y-31563D01*
X29649Y-31484D01*
X29649Y-31398D01*
X29616Y-31319D01*
X29555Y-31258D01*
X29476Y-31225D01*
X29390Y-31225D01*
X29311Y-31258D01*
X29250Y-31319D01*
X29217Y-31398D01*
X29217Y-31477D01*
X29189Y-31477D01*
X29110Y-31510D01*
X29049Y-31571D01*
X29016Y-31650D01*
X29016Y-31721D01*
X28722Y-32015D01*
X28564Y-32015D01*
X28582Y-31972D01*
X28582Y-31920D01*
X29380Y-31122D01*
X29433Y-31122D01*
X29512Y-31089D01*
X29573Y-31028D01*
X29606Y-30949D01*
X29606Y-30863D01*
X29573Y-30784D01*
X29512Y-30723D01*
X29433Y-30690D01*
X29347Y-30690D01*
X29268Y-30723D01*
X29207Y-30784D01*
X29174Y-30863D01*
X29174Y-30913D01*
X28374Y-31713D01*
X28323Y-31713D01*
X28244Y-31746D01*
X28183Y-31807D01*
X28150Y-31886D01*
X28150Y-31972D01*
X28167Y-32015D01*
X26102Y-32015D01*
X26102Y-29949D01*
X26102Y-29863D01*
X26069Y-29784D01*
X26008Y-29723D01*
X25929Y-29690D01*
X25843Y-29690D01*
X25764Y-29723D01*
X25728Y-29759D01*
X24020Y-29759D01*
X23984Y-29723D01*
X23905Y-29690D01*
X23819Y-29690D01*
X23740Y-29723D01*
X23679Y-29784D01*
X23646Y-29863D01*
X23646Y-29949D01*
X23679Y-30028D01*
X23740Y-30089D01*
X23819Y-30122D01*
X23905Y-30122D01*
X23984Y-30089D01*
X24020Y-30053D01*
X25728Y-30053D01*
X25764Y-30089D01*
X25843Y-30122D01*
X25929Y-30122D01*
X26008Y-30089D01*
X26069Y-30028D01*
X26102Y-29949D01*
X26102Y-32015D01*
X24830Y-32015D01*
X23565Y-32015D01*
X23444Y-31894D01*
X23444Y-31843D01*
X23411Y-31764D01*
X23350Y-31703D01*
X23271Y-31670D01*
X23185Y-31670D01*
X23106Y-31703D01*
X23045Y-31764D01*
X23012Y-31843D01*
X23012Y-31871D01*
X22969Y-31871D01*
X22890Y-31904D01*
X22829Y-31965D01*
X22796Y-32044D01*
X22796Y-32067D01*
X22748Y-32067D01*
X22669Y-32100D01*
X22608Y-32161D01*
X22575Y-32240D01*
X22575Y-32264D01*
X22548Y-32264D01*
X22469Y-32297D01*
X22408Y-32358D01*
X22375Y-32437D01*
X22375Y-32481D01*
X22343Y-32481D01*
X22264Y-32514D01*
X22203Y-32575D01*
X22170Y-32654D01*
X22170Y-32740D01*
X22203Y-32819D01*
X22264Y-32880D01*
X22343Y-32913D01*
X22429Y-32913D01*
X22508Y-32880D01*
X22544Y-32844D01*
X22894Y-32844D01*
X22884Y-32870D01*
X22884Y-32956D01*
X22917Y-33035D01*
X22978Y-33096D01*
X23057Y-33129D01*
X23102Y-33129D01*
X23071Y-33205D01*
X23071Y-33291D01*
X23104Y-33370D01*
X23165Y-33431D01*
X23244Y-33464D01*
X23330Y-33464D01*
X23409Y-33431D01*
X23445Y-33395D01*
X25586Y-33395D01*
X25564Y-33449D01*
X25564Y-33535D01*
X25597Y-33614D01*
X25601Y-33618D01*
X25598Y-33621D01*
X24024Y-33621D01*
X23988Y-33585D01*
X23909Y-33552D01*
X23823Y-33552D01*
X23744Y-33585D01*
X23683Y-33646D01*
X23650Y-33725D01*
X23650Y-33741D01*
X23583Y-33741D01*
X23504Y-33774D01*
X23443Y-33835D01*
X23410Y-33914D01*
X23410Y-34000D01*
X23443Y-34079D01*
X23504Y-34140D01*
X23556Y-34162D01*
X23496Y-34162D01*
X23417Y-34195D01*
X23356Y-34256D01*
X23323Y-34335D01*
X23323Y-34421D01*
X23356Y-34500D01*
X23417Y-34561D01*
X23496Y-34594D01*
X23582Y-34594D01*
X23661Y-34561D01*
X23697Y-34525D01*
X24486Y-34525D01*
X24457Y-34595D01*
X24457Y-34681D01*
X24490Y-34760D01*
X24551Y-34821D01*
X24630Y-34854D01*
X24684Y-34854D01*
X24722Y-34879D01*
X24723Y-34880D01*
X24778Y-34890D01*
X24779Y-34891D01*
X25522Y-34891D01*
X25511Y-34902D01*
X24252Y-34902D01*
X24226Y-34876D01*
X24147Y-34843D01*
X24061Y-34843D01*
X23982Y-34876D01*
X23921Y-34937D01*
X23888Y-35016D01*
X23888Y-35102D01*
X23921Y-35181D01*
X23982Y-35242D01*
X24034Y-35263D01*
X24006Y-35331D01*
X24006Y-35417D01*
X24039Y-35496D01*
X24100Y-35557D01*
X24179Y-35590D01*
X24265Y-35590D01*
X24344Y-35557D01*
X24380Y-35521D01*
X25521Y-35521D01*
X25557Y-35557D01*
X25636Y-35590D01*
X25722Y-35590D01*
X25801Y-35557D01*
X25862Y-35496D01*
X25895Y-35417D01*
X25895Y-35331D01*
X25862Y-35252D01*
X25816Y-35206D01*
X25852Y-35171D01*
X25885Y-35092D01*
X25885Y-35006D01*
X25852Y-34927D01*
X25816Y-34891D01*
X26973Y-34891D01*
X27029Y-34880D01*
X27030Y-34880D01*
X27077Y-34848D01*
X27198Y-34727D01*
X27230Y-34680D01*
X27230Y-34679D01*
X27241Y-34623D01*
X27241Y-34133D01*
X27230Y-34077D01*
X27230Y-34076D01*
X27198Y-34029D01*
X27102Y-33933D01*
X27102Y-33882D01*
X27069Y-33803D01*
X27008Y-33742D01*
X26929Y-33709D01*
X26843Y-33709D01*
X26764Y-33742D01*
X26703Y-33803D01*
X26670Y-33882D01*
X26670Y-33968D01*
X26703Y-34047D01*
X26764Y-34108D01*
X26843Y-34141D01*
X26894Y-34141D01*
X26947Y-34194D01*
X26947Y-34353D01*
X26913Y-34339D01*
X26835Y-34339D01*
X26400Y-33904D01*
X26451Y-33884D01*
X26512Y-33823D01*
X26545Y-33744D01*
X26545Y-33658D01*
X26512Y-33579D01*
X26451Y-33518D01*
X26372Y-33485D01*
X26320Y-33485D01*
X25980Y-33144D01*
X25933Y-33112D01*
X25876Y-33101D01*
X23445Y-33101D01*
X23409Y-33065D01*
X23351Y-33041D01*
X26427Y-33041D01*
X26463Y-33077D01*
X26542Y-33110D01*
X26628Y-33110D01*
X26707Y-33077D01*
X26768Y-33016D01*
X26801Y-32937D01*
X26801Y-32851D01*
X26798Y-32844D01*
X29839Y-32844D01*
X29895Y-32833D01*
X29896Y-32833D01*
X29943Y-32801D01*
X30487Y-32256D01*
X30488Y-32256D01*
X30497Y-32250D01*
X30622Y-32125D01*
X30673Y-32125D01*
X30752Y-32092D01*
X30813Y-32031D01*
X30846Y-31952D01*
X30846Y-32965D01*
X30771Y-32934D01*
X30685Y-32934D01*
X30606Y-32967D01*
X30545Y-33028D01*
X30512Y-33107D01*
X30512Y-33193D01*
X30545Y-33272D01*
X30571Y-33298D01*
X30571Y-33435D01*
X30545Y-33461D01*
X30512Y-33540D01*
X30512Y-33626D01*
X30545Y-33705D01*
X30606Y-33766D01*
X30685Y-33799D01*
X30771Y-33799D01*
X30850Y-33766D01*
X30911Y-33705D01*
X30944Y-33626D01*
X30944Y-37177D01*
X30910Y-37211D01*
X30877Y-37290D01*
X30877Y-37376D01*
X30910Y-37455D01*
X30945Y-37490D01*
X30945Y-37608D01*
X30919Y-37634D01*
X30886Y-37713D01*
X30886Y-37799D01*
X30919Y-37878D01*
X30980Y-37939D01*
X31059Y-37972D01*
X31145Y-37972D01*
X31224Y-37939D01*
X31285Y-37878D01*
X31318Y-37799D01*
X31318Y-38371D01*
X30098Y-38371D01*
X30098Y-37809D01*
X30098Y-37723D01*
X30065Y-37644D01*
X30039Y-37618D01*
X30039Y-37481D01*
X30065Y-37455D01*
X30098Y-37376D01*
X30098Y-37290D01*
X30065Y-37211D01*
X30004Y-37150D01*
X29925Y-37117D01*
X29839Y-37117D01*
X29760Y-37150D01*
X29699Y-37211D01*
X29666Y-37290D01*
X29666Y-37376D01*
X29699Y-37455D01*
X29725Y-37481D01*
X29725Y-37618D01*
X29699Y-37644D01*
X29666Y-37723D01*
X29666Y-37809D01*
X29699Y-37888D01*
X29760Y-37949D01*
X29839Y-37982D01*
X29925Y-37982D01*
X30004Y-37949D01*
X30065Y-37888D01*
X30098Y-37809D01*
X30098Y-38371D01*
X29527Y-38371D01*
X29527Y-33626D01*
X29527Y-33540D01*
X29494Y-33461D01*
X29468Y-33435D01*
X29468Y-33307D01*
X29494Y-33281D01*
X29527Y-33202D01*
X29527Y-33116D01*
X29494Y-33037D01*
X29433Y-32976D01*
X29354Y-32943D01*
X29268Y-32943D01*
X29189Y-32976D01*
X29128Y-33037D01*
X29095Y-33116D01*
X29095Y-33202D01*
X29128Y-33281D01*
X29154Y-33307D01*
X29154Y-33435D01*
X29128Y-33461D01*
X29095Y-33540D01*
X29095Y-33626D01*
X29128Y-33705D01*
X29189Y-33766D01*
X29268Y-33799D01*
X29354Y-33799D01*
X29433Y-33766D01*
X29494Y-33705D01*
X29527Y-33626D01*
X29527Y-38371D01*
X29169Y-38371D01*
X29113Y-38382D01*
X29065Y-38414D01*
X29063Y-38416D01*
X29045Y-38434D01*
X29045Y-36096D01*
X29045Y-36010D01*
X29012Y-35931D01*
X28951Y-35870D01*
X28872Y-35837D01*
X28818Y-35837D01*
X28818Y-35260D01*
X28818Y-35174D01*
X28785Y-35095D01*
X28724Y-35034D01*
X28645Y-35001D01*
X28559Y-35001D01*
X28480Y-35034D01*
X28454Y-35060D01*
X28298Y-35060D01*
X28272Y-35034D01*
X28193Y-35001D01*
X28107Y-35001D01*
X28028Y-35034D01*
X27967Y-35095D01*
X27934Y-35174D01*
X27934Y-35260D01*
X27967Y-35339D01*
X28028Y-35400D01*
X28107Y-35433D01*
X28193Y-35433D01*
X28272Y-35400D01*
X28298Y-35374D01*
X28454Y-35374D01*
X28480Y-35400D01*
X28559Y-35433D01*
X28645Y-35433D01*
X28724Y-35400D01*
X28785Y-35339D01*
X28818Y-35260D01*
X28818Y-35837D01*
X28786Y-35837D01*
X28707Y-35870D01*
X28671Y-35906D01*
X28288Y-35906D01*
X28252Y-35870D01*
X28173Y-35837D01*
X28087Y-35837D01*
X28008Y-35870D01*
X27947Y-35931D01*
X27914Y-36010D01*
X27914Y-36096D01*
X27947Y-36175D01*
X27968Y-36196D01*
X27967Y-36197D01*
X27934Y-36276D01*
X27934Y-36362D01*
X27967Y-36441D01*
X28028Y-36502D01*
X28107Y-36535D01*
X28193Y-36535D01*
X28272Y-36502D01*
X28298Y-36476D01*
X28454Y-36476D01*
X28480Y-36502D01*
X28559Y-36535D01*
X28645Y-36535D01*
X28724Y-36502D01*
X28785Y-36441D01*
X28818Y-36362D01*
X28818Y-36276D01*
X28815Y-36269D01*
X28872Y-36269D01*
X28951Y-36236D01*
X29012Y-36175D01*
X29045Y-36096D01*
X29045Y-38434D01*
X28988Y-38491D01*
X28818Y-38491D01*
X28818Y-36982D01*
X28818Y-36896D01*
X28785Y-36817D01*
X28724Y-36756D01*
X28645Y-36723D01*
X28559Y-36723D01*
X28480Y-36756D01*
X28454Y-36782D01*
X28307Y-36782D01*
X28281Y-36756D01*
X28202Y-36723D01*
X28116Y-36723D01*
X28037Y-36756D01*
X27976Y-36817D01*
X27943Y-36896D01*
X27943Y-36982D01*
X27976Y-37061D01*
X28037Y-37122D01*
X28116Y-37155D01*
X28202Y-37155D01*
X28246Y-37136D01*
X27961Y-37422D01*
X27910Y-37422D01*
X27831Y-37455D01*
X27770Y-37516D01*
X27737Y-37595D01*
X27737Y-37681D01*
X27770Y-37760D01*
X27831Y-37821D01*
X27910Y-37854D01*
X27996Y-37854D01*
X28075Y-37821D01*
X28136Y-37760D01*
X28169Y-37681D01*
X28169Y-37630D01*
X28644Y-37155D01*
X28645Y-37155D01*
X28724Y-37122D01*
X28785Y-37061D01*
X28818Y-36982D01*
X28818Y-38491D01*
X27926Y-38491D01*
X27890Y-38455D01*
X27822Y-38426D01*
X27842Y-38397D01*
X27866Y-38276D01*
X27842Y-38155D01*
X27774Y-38053D01*
X27672Y-37985D01*
X27551Y-37961D01*
X27351Y-37961D01*
X27350Y-37961D01*
X27230Y-37985D01*
X27224Y-37989D01*
X27224Y-37910D01*
X27191Y-37831D01*
X27130Y-37770D01*
X27051Y-37737D01*
X26965Y-37737D01*
X26948Y-37744D01*
X26948Y-36933D01*
X26948Y-36890D01*
X26948Y-36847D01*
X26932Y-36810D01*
X26932Y-36807D01*
X26930Y-36804D01*
X26915Y-36768D01*
X26887Y-36740D01*
X26885Y-36737D01*
X26881Y-36734D01*
X26854Y-36707D01*
X26817Y-36691D01*
X26815Y-36690D01*
X26811Y-36689D01*
X26775Y-36674D01*
X26732Y-36674D01*
X26689Y-36674D01*
X26652Y-36689D01*
X26649Y-36690D01*
X26646Y-36691D01*
X26610Y-36707D01*
X26582Y-36734D01*
X26579Y-36737D01*
X26576Y-36740D01*
X26549Y-36768D01*
X26533Y-36804D01*
X26532Y-36807D01*
X26531Y-36810D01*
X26516Y-36847D01*
X26516Y-36890D01*
X26516Y-36933D01*
X26516Y-37303D01*
X26508Y-37300D01*
X26461Y-37300D01*
X26392Y-37231D01*
X26345Y-37199D01*
X26288Y-37188D01*
X25882Y-37188D01*
X25895Y-37159D01*
X25895Y-37073D01*
X25862Y-36994D01*
X25801Y-36933D01*
X25722Y-36900D01*
X25636Y-36900D01*
X25557Y-36933D01*
X25531Y-36959D01*
X24607Y-36959D01*
X24581Y-36933D01*
X24502Y-36900D01*
X24468Y-36900D01*
X24496Y-36834D01*
X24496Y-36748D01*
X24463Y-36669D01*
X24402Y-36608D01*
X24323Y-36575D01*
X24237Y-36575D01*
X24158Y-36608D01*
X24097Y-36669D01*
X24064Y-36748D01*
X24064Y-36799D01*
X24034Y-36829D01*
X24002Y-36876D01*
X23991Y-36933D01*
X23991Y-37133D01*
X23040Y-36182D01*
X25013Y-36182D01*
X25461Y-36629D01*
X25461Y-36681D01*
X25494Y-36760D01*
X25555Y-36821D01*
X25634Y-36854D01*
X25720Y-36854D01*
X25799Y-36821D01*
X25860Y-36760D01*
X25893Y-36681D01*
X25893Y-36595D01*
X25860Y-36516D01*
X25799Y-36455D01*
X25720Y-36422D01*
X25668Y-36422D01*
X25178Y-35931D01*
X25131Y-35899D01*
X25074Y-35888D01*
X22964Y-35888D01*
X22952Y-35857D01*
X22864Y-35768D01*
X22748Y-35720D01*
X22623Y-35720D01*
X22507Y-35768D01*
X22418Y-35856D01*
X22370Y-35972D01*
X22370Y-36097D01*
X22418Y-36213D01*
X22506Y-36302D01*
X22622Y-36350D01*
X22747Y-36350D01*
X22778Y-36336D01*
X24707Y-38265D01*
X24754Y-38296D01*
X24755Y-38297D01*
X24811Y-38308D01*
X26071Y-38308D01*
X25855Y-38524D01*
X21394Y-38524D01*
X21394Y-34166D01*
X21394Y-34000D01*
X21394Y-33166D01*
X21394Y-33000D01*
X21394Y-32166D01*
X21394Y-32000D01*
X21394Y-31166D01*
X21394Y-31000D01*
X21394Y-30166D01*
X21394Y-30000D01*
X21394Y-29166D01*
X21394Y-29000D01*
X21330Y-28846D01*
X21213Y-28729D01*
X21059Y-28665D01*
X20893Y-28665D01*
X20739Y-28729D01*
X20622Y-28846D01*
X20558Y-29000D01*
X20558Y-29166D01*
X20622Y-29320D01*
X20739Y-29437D01*
X20893Y-29501D01*
X21059Y-29501D01*
X21213Y-29437D01*
X21330Y-29320D01*
X21394Y-29166D01*
X21394Y-30000D01*
X21330Y-29846D01*
X21213Y-29729D01*
X21059Y-29665D01*
X20893Y-29665D01*
X20739Y-29729D01*
X20622Y-29846D01*
X20558Y-30000D01*
X20558Y-30166D01*
X20622Y-30320D01*
X20739Y-30437D01*
X20893Y-30501D01*
X21059Y-30501D01*
X21213Y-30437D01*
X21330Y-30320D01*
X21394Y-30166D01*
X21394Y-31000D01*
X21330Y-30846D01*
X21213Y-30729D01*
X21059Y-30665D01*
X20893Y-30665D01*
X20739Y-30729D01*
X20622Y-30846D01*
X20558Y-31000D01*
X20558Y-31166D01*
X20622Y-31320D01*
X20739Y-31437D01*
X20893Y-31501D01*
X21059Y-31501D01*
X21213Y-31437D01*
X21330Y-31320D01*
X21394Y-31166D01*
X21394Y-32000D01*
X21330Y-31846D01*
X21213Y-31729D01*
X21059Y-31665D01*
X20893Y-31665D01*
X20739Y-31729D01*
X20622Y-31846D01*
X20558Y-32000D01*
X20558Y-32166D01*
X20622Y-32320D01*
X20739Y-32437D01*
X20893Y-32501D01*
X21059Y-32501D01*
X21213Y-32437D01*
X21330Y-32320D01*
X21394Y-32166D01*
X21394Y-33000D01*
X21330Y-32846D01*
X21213Y-32729D01*
X21059Y-32665D01*
X20893Y-32665D01*
X20739Y-32729D01*
X20622Y-32846D01*
X20558Y-33000D01*
X20558Y-33166D01*
X20622Y-33320D01*
X20739Y-33437D01*
X20893Y-33501D01*
X21059Y-33501D01*
X21213Y-33437D01*
X21330Y-33320D01*
X21394Y-33166D01*
X21394Y-34000D01*
X21330Y-33846D01*
X21213Y-33729D01*
X21059Y-33665D01*
X20893Y-33665D01*
X20739Y-33729D01*
X20622Y-33846D01*
X20558Y-34000D01*
X20558Y-34166D01*
X20622Y-34320D01*
X20739Y-34437D01*
X20893Y-34501D01*
X21059Y-34501D01*
X21213Y-34437D01*
X21330Y-34320D01*
X21394Y-34166D01*
X21394Y-38524D01*
X21376Y-38524D01*
X21376Y-35119D01*
X21359Y-34963D01*
X21332Y-34897D01*
X21281Y-34862D01*
X21197Y-34945D01*
X21197Y-34778D01*
X21162Y-34727D01*
X21012Y-34683D01*
X20856Y-34700D01*
X20790Y-34727D01*
X20755Y-34778D01*
X20976Y-35000D01*
X21197Y-34778D01*
X21197Y-34945D01*
X21059Y-35083D01*
X21281Y-35304D01*
X21332Y-35269D01*
X21376Y-35119D01*
X21376Y-38524D01*
X21197Y-38524D01*
X21197Y-35388D01*
X20976Y-35166D01*
X20893Y-35249D01*
X20893Y-35083D01*
X20671Y-34862D01*
X20620Y-34897D01*
X20576Y-35047D01*
X20593Y-35203D01*
X20620Y-35269D01*
X20671Y-35304D01*
X20893Y-35083D01*
X20893Y-35249D01*
X20755Y-35388D01*
X20790Y-35439D01*
X20940Y-35483D01*
X21096Y-35466D01*
X21162Y-35439D01*
X21197Y-35388D01*
X21197Y-38524D01*
X20886Y-38524D01*
X20886Y-36746D01*
X20886Y-36621D01*
X20838Y-36505D01*
X20750Y-36416D01*
X20634Y-36368D01*
X20509Y-36368D01*
X20394Y-36415D01*
X20394Y-35166D01*
X20394Y-35000D01*
X20394Y-34166D01*
X20394Y-34000D01*
X20394Y-33166D01*
X20394Y-33000D01*
X20394Y-32166D01*
X20394Y-32000D01*
X20394Y-31166D01*
X20394Y-31000D01*
X20394Y-30166D01*
X20394Y-30000D01*
X20394Y-29407D01*
X20394Y-29360D01*
X20394Y-28760D01*
X20376Y-28717D01*
X20343Y-28683D01*
X20300Y-28665D01*
X20253Y-28665D01*
X19653Y-28665D01*
X19610Y-28683D01*
X19576Y-28716D01*
X19558Y-28759D01*
X19558Y-28806D01*
X19558Y-29406D01*
X19576Y-29449D01*
X19609Y-29483D01*
X19652Y-29501D01*
X19699Y-29501D01*
X20299Y-29501D01*
X20342Y-29483D01*
X20376Y-29450D01*
X20394Y-29407D01*
X20394Y-30000D01*
X20330Y-29846D01*
X20213Y-29729D01*
X20059Y-29665D01*
X19893Y-29665D01*
X19739Y-29729D01*
X19622Y-29846D01*
X19558Y-30000D01*
X19558Y-30166D01*
X19622Y-30320D01*
X19739Y-30437D01*
X19893Y-30501D01*
X20059Y-30501D01*
X20213Y-30437D01*
X20330Y-30320D01*
X20394Y-30166D01*
X20394Y-31000D01*
X20330Y-30846D01*
X20213Y-30729D01*
X20059Y-30665D01*
X19893Y-30665D01*
X19739Y-30729D01*
X19622Y-30846D01*
X19558Y-31000D01*
X19558Y-31166D01*
X19622Y-31320D01*
X19739Y-31437D01*
X19893Y-31501D01*
X20059Y-31501D01*
X20213Y-31437D01*
X20330Y-31320D01*
X20394Y-31166D01*
X20394Y-32000D01*
X20330Y-31846D01*
X20213Y-31729D01*
X20059Y-31665D01*
X19893Y-31665D01*
X19739Y-31729D01*
X19622Y-31846D01*
X19558Y-32000D01*
X19558Y-32166D01*
X19622Y-32320D01*
X19739Y-32437D01*
X19893Y-32501D01*
X20059Y-32501D01*
X20213Y-32437D01*
X20330Y-32320D01*
X20394Y-32166D01*
X20394Y-33000D01*
X20330Y-32846D01*
X20213Y-32729D01*
X20059Y-32665D01*
X19893Y-32665D01*
X19739Y-32729D01*
X19622Y-32846D01*
X19558Y-33000D01*
X19558Y-33166D01*
X19622Y-33320D01*
X19739Y-33437D01*
X19893Y-33501D01*
X20059Y-33501D01*
X20213Y-33437D01*
X20330Y-33320D01*
X20394Y-33166D01*
X20394Y-34000D01*
X20330Y-33846D01*
X20213Y-33729D01*
X20059Y-33665D01*
X19893Y-33665D01*
X19739Y-33729D01*
X19622Y-33846D01*
X19558Y-34000D01*
X19558Y-34166D01*
X19622Y-34320D01*
X19739Y-34437D01*
X19893Y-34501D01*
X20059Y-34501D01*
X20213Y-34437D01*
X20330Y-34320D01*
X20394Y-34166D01*
X20394Y-35000D01*
X20330Y-34846D01*
X20213Y-34729D01*
X20059Y-34665D01*
X19893Y-34665D01*
X19739Y-34729D01*
X19622Y-34846D01*
X19558Y-35000D01*
X19558Y-35166D01*
X19622Y-35320D01*
X19739Y-35437D01*
X19893Y-35501D01*
X20059Y-35501D01*
X20213Y-35437D01*
X20330Y-35320D01*
X20394Y-35166D01*
X20394Y-36415D01*
X20393Y-36416D01*
X20304Y-36504D01*
X20256Y-36620D01*
X20256Y-36745D01*
X20304Y-36861D01*
X20392Y-36950D01*
X20508Y-36998D01*
X20633Y-36998D01*
X20749Y-36950D01*
X20838Y-36862D01*
X20886Y-36746D01*
X20886Y-38524D01*
X19804Y-38524D01*
X19803Y-38524D01*
X19803Y-36224D01*
X19839Y-36240D01*
X19925Y-36240D01*
X20004Y-36207D01*
X20065Y-36146D01*
X20098Y-36067D01*
X20098Y-35981D01*
X20065Y-35902D01*
X20004Y-35841D01*
X19925Y-35808D01*
X19839Y-35808D01*
X19760Y-35841D01*
X19747Y-35854D01*
X19733Y-35834D01*
X19711Y-35801D01*
X19711Y-35800D01*
X19708Y-35798D01*
X19478Y-35567D01*
X19478Y-22504D01*
X20289Y-21693D01*
X25286Y-21693D01*
X26755Y-21693D01*
X26745Y-21717D01*
X26745Y-21803D01*
X26766Y-21854D01*
X26764Y-21852D01*
X26685Y-21819D01*
X26599Y-21819D01*
X26520Y-21852D01*
X26459Y-21913D01*
X26426Y-21992D01*
X26426Y-22078D01*
X26459Y-22157D01*
X26495Y-22193D01*
X26495Y-26744D01*
X26463Y-26776D01*
X26430Y-26855D01*
X26430Y-26941D01*
X26463Y-27020D01*
X26524Y-27081D01*
X26603Y-27114D01*
X26689Y-27114D01*
X26768Y-27081D01*
X26803Y-27045D01*
X26839Y-27081D01*
X26918Y-27114D01*
X27004Y-27114D01*
X27083Y-27081D01*
X27122Y-27041D01*
X27154Y-27073D01*
X27233Y-27106D01*
X27319Y-27106D01*
X27398Y-27073D01*
X27459Y-27012D01*
X27492Y-26933D01*
X27492Y-26847D01*
X27485Y-26831D01*
X27548Y-26858D01*
X27634Y-26858D01*
X27707Y-26827D01*
X27707Y-27136D01*
X26882Y-27961D01*
X26831Y-27961D01*
X26752Y-27994D01*
X26691Y-28055D01*
X26658Y-28134D01*
X26658Y-28220D01*
X26691Y-28299D01*
X26739Y-28347D01*
X26220Y-28347D01*
X25115Y-27242D01*
X25122Y-27240D01*
X25183Y-27179D01*
X25216Y-27100D01*
X25216Y-27047D01*
X25240Y-27047D01*
X25319Y-27014D01*
X25320Y-27013D01*
X25331Y-27024D01*
X25410Y-27057D01*
X25496Y-27057D01*
X25570Y-27026D01*
X25587Y-27043D01*
X25666Y-27076D01*
X25752Y-27076D01*
X25824Y-27045D01*
X25852Y-27073D01*
X25931Y-27106D01*
X26017Y-27106D01*
X26096Y-27073D01*
X26157Y-27012D01*
X26190Y-26933D01*
X26190Y-26847D01*
X26157Y-26768D01*
X26118Y-26729D01*
X26110Y-26685D01*
X26109Y-26684D01*
X26078Y-26637D01*
X24675Y-25234D01*
X24675Y-25183D01*
X24642Y-25104D01*
X24581Y-25043D01*
X24502Y-25010D01*
X24416Y-25010D01*
X24337Y-25043D01*
X24314Y-25065D01*
X24283Y-25034D01*
X24204Y-25001D01*
X24118Y-25001D01*
X24039Y-25034D01*
X24010Y-25063D01*
X23961Y-25014D01*
X23882Y-24981D01*
X23796Y-24981D01*
X23717Y-25014D01*
X23701Y-25030D01*
X23653Y-24982D01*
X23574Y-24949D01*
X23488Y-24949D01*
X23409Y-24982D01*
X23348Y-25043D01*
X23324Y-25098D01*
X23317Y-25079D01*
X23256Y-25018D01*
X23177Y-24985D01*
X23125Y-24985D01*
X23141Y-24949D01*
X23141Y-24863D01*
X23108Y-24784D01*
X23047Y-24723D01*
X22968Y-24690D01*
X22882Y-24690D01*
X22803Y-24723D01*
X22742Y-24784D01*
X22723Y-24827D01*
X22707Y-24787D01*
X22646Y-24726D01*
X22567Y-24693D01*
X22481Y-24693D01*
X22469Y-24697D01*
X22467Y-24686D01*
X22466Y-24685D01*
X22435Y-24638D01*
X22434Y-24637D01*
X22358Y-24561D01*
X22311Y-24529D01*
X22254Y-24518D01*
X21673Y-24518D01*
X21162Y-24518D01*
X21126Y-24482D01*
X21047Y-24449D01*
X20961Y-24449D01*
X20882Y-24482D01*
X20821Y-24543D01*
X20788Y-24622D01*
X20788Y-24708D01*
X20821Y-24787D01*
X20882Y-24848D01*
X20961Y-24881D01*
X21024Y-24881D01*
X21024Y-24937D01*
X21057Y-25016D01*
X21118Y-25077D01*
X21197Y-25110D01*
X21283Y-25110D01*
X21362Y-25077D01*
X21394Y-25045D01*
X21976Y-25045D01*
X21987Y-25056D01*
X21987Y-25189D01*
X21998Y-25246D01*
X22030Y-25293D01*
X26186Y-29449D01*
X26187Y-29450D01*
X26234Y-29481D01*
X26235Y-29482D01*
X26290Y-29492D01*
X26291Y-29493D01*
X27574Y-29493D01*
X27610Y-29529D01*
X27689Y-29562D01*
X27775Y-29562D01*
X27854Y-29529D01*
X27915Y-29468D01*
X27948Y-29389D01*
X27948Y-29303D01*
X27915Y-29224D01*
X27854Y-29163D01*
X27775Y-29130D01*
X27689Y-29130D01*
X27610Y-29163D01*
X27574Y-29199D01*
X27489Y-29199D01*
X27499Y-29177D01*
X27499Y-29091D01*
X27496Y-29084D01*
X27523Y-29084D01*
X27602Y-29051D01*
X27663Y-28990D01*
X27696Y-28911D01*
X27696Y-28825D01*
X27663Y-28746D01*
X27602Y-28685D01*
X27523Y-28652D01*
X27490Y-28652D01*
X27490Y-28609D01*
X27457Y-28530D01*
X27396Y-28469D01*
X27317Y-28436D01*
X27231Y-28436D01*
X27152Y-28469D01*
X27145Y-28476D01*
X27145Y-28451D01*
X27112Y-28372D01*
X27051Y-28311D01*
X27046Y-28309D01*
X27057Y-28299D01*
X27090Y-28220D01*
X27090Y-28169D01*
X27957Y-27302D01*
X27957Y-27301D01*
X27958Y-27301D01*
X27989Y-27254D01*
X27990Y-27253D01*
X28000Y-27198D01*
X28001Y-27197D01*
X28001Y-26971D01*
X28026Y-27031D01*
X28087Y-27092D01*
X28166Y-27125D01*
X28252Y-27125D01*
X28331Y-27092D01*
X28392Y-27031D01*
X28425Y-26952D01*
X28425Y-26902D01*
X28467Y-26860D01*
X30748Y-26860D01*
X30784Y-26896D01*
X30863Y-26929D01*
X30949Y-26929D01*
X30962Y-26923D01*
X30962Y-28019D01*
X30902Y-28045D01*
X30841Y-28106D01*
X30808Y-28185D01*
X30808Y-28271D01*
X30841Y-28350D01*
X30902Y-28411D01*
X30981Y-28444D01*
X31067Y-28444D01*
X31083Y-28437D01*
X31083Y-29426D01*
X31020Y-29453D01*
X30959Y-29514D01*
X30926Y-29593D01*
X30926Y-29679D01*
X30959Y-29758D01*
X31020Y-29819D01*
X31099Y-29852D01*
X31185Y-29852D01*
X31211Y-29841D01*
X31211Y-29931D01*
X31222Y-29988D01*
X31254Y-30035D01*
X31339Y-30120D01*
X31339Y-30171D01*
X31350Y-30199D01*
X30165Y-30199D01*
X30118Y-30152D01*
X30039Y-30119D01*
X29953Y-30119D01*
X29874Y-30152D01*
X29813Y-30213D01*
X29780Y-30292D01*
X29780Y-30378D01*
X29813Y-30457D01*
X29874Y-30518D01*
X29953Y-30551D01*
X29985Y-30551D01*
X29985Y-30598D01*
X30018Y-30677D01*
X30079Y-30738D01*
X30158Y-30771D01*
X30197Y-30771D01*
X30197Y-30779D01*
X30230Y-30858D01*
X30291Y-30919D01*
X30370Y-30952D01*
X30456Y-30952D01*
X30535Y-30919D01*
X30571Y-30883D01*
X30671Y-30883D01*
X30670Y-30886D01*
X30670Y-30972D01*
X30703Y-31051D01*
X30764Y-31112D01*
X30843Y-31145D01*
X30929Y-31145D01*
X31008Y-31112D01*
X31044Y-31076D01*
X31527Y-31076D01*
X31136Y-31467D01*
X31104Y-31514D01*
X31093Y-31571D01*
X31093Y-31740D01*
X31057Y-31776D01*
X31024Y-31855D01*
X31024Y-31941D01*
X31057Y-32020D01*
X31118Y-32081D01*
X31197Y-32114D01*
X31283Y-32114D01*
X31362Y-32081D01*
X31423Y-32020D01*
X31456Y-31941D01*
X31456Y-31909D01*
X31476Y-31909D01*
X31555Y-31876D01*
X31616Y-31815D01*
X31649Y-31736D01*
X31649Y-31685D01*
X31734Y-31600D01*
X35547Y-31600D01*
X35500Y-31620D01*
X35439Y-31681D01*
X35406Y-31760D01*
X35406Y-31846D01*
X35439Y-31925D01*
X35500Y-31986D01*
X35579Y-32019D01*
X35665Y-32019D01*
X35744Y-31986D01*
X35768Y-31962D01*
X41466Y-31962D01*
X41482Y-32000D01*
X41543Y-32061D01*
X41622Y-32094D01*
X41708Y-32094D01*
X41787Y-32061D01*
X41848Y-32000D01*
X41881Y-31921D01*
X41881Y-31835D01*
X41873Y-31816D01*
X42023Y-31816D01*
X42067Y-31860D01*
X42146Y-31893D01*
X42232Y-31893D01*
X42299Y-31865D01*
X42299Y-36600D01*
X42299Y-36600D01*
G37*
G54D25*
X42299Y-36600D02*
X42059Y-36840D01*
X41905Y-36840D01*
X41905Y-32681D01*
X41905Y-32595D01*
X41872Y-32516D01*
X41811Y-32455D01*
X41732Y-32422D01*
X41646Y-32422D01*
X41567Y-32455D01*
X41506Y-32516D01*
X41473Y-32595D01*
X41473Y-32646D01*
X41124Y-32995D01*
X35804Y-32995D01*
X35768Y-32959D01*
X35689Y-32926D01*
X35603Y-32926D01*
X35524Y-32959D01*
X35463Y-33020D01*
X35430Y-33099D01*
X35430Y-33185D01*
X35463Y-33264D01*
X35524Y-33325D01*
X35603Y-33358D01*
X35658Y-33358D01*
X35235Y-33781D01*
X35203Y-33828D01*
X35192Y-33885D01*
X35192Y-34007D01*
X35156Y-34043D01*
X35123Y-34122D01*
X35123Y-34208D01*
X35156Y-34287D01*
X35196Y-34327D01*
X35114Y-34327D01*
X35035Y-34360D01*
X34974Y-34421D01*
X34941Y-34500D01*
X34941Y-34586D01*
X34974Y-34665D01*
X35035Y-34726D01*
X35114Y-34759D01*
X35200Y-34759D01*
X35254Y-34736D01*
X35280Y-34797D01*
X35341Y-34858D01*
X35394Y-34880D01*
X35394Y-34945D01*
X35427Y-35024D01*
X35488Y-35085D01*
X35567Y-35118D01*
X35653Y-35118D01*
X35732Y-35085D01*
X35768Y-35049D01*
X36506Y-35049D01*
X36551Y-35094D01*
X36630Y-35127D01*
X36716Y-35127D01*
X36795Y-35094D01*
X36856Y-35033D01*
X36889Y-34954D01*
X36889Y-34868D01*
X36887Y-34864D01*
X36903Y-34858D01*
X36964Y-34797D01*
X36997Y-34718D01*
X36997Y-34632D01*
X36994Y-34627D01*
X37048Y-34627D01*
X37048Y-34653D01*
X37081Y-34732D01*
X37142Y-34793D01*
X37221Y-34826D01*
X37307Y-34826D01*
X37386Y-34793D01*
X37447Y-34732D01*
X37480Y-34653D01*
X37480Y-34567D01*
X37459Y-34518D01*
X37502Y-34476D01*
X37535Y-34397D01*
X37535Y-34311D01*
X37502Y-34232D01*
X37441Y-34171D01*
X37362Y-34138D01*
X37276Y-34138D01*
X37197Y-34171D01*
X37161Y-34207D01*
X37128Y-34207D01*
X37141Y-34177D01*
X37141Y-34091D01*
X37108Y-34012D01*
X37047Y-33951D01*
X36968Y-33918D01*
X36917Y-33918D01*
X36864Y-33865D01*
X36817Y-33833D01*
X36760Y-33822D01*
X35800Y-33822D01*
X35764Y-33786D01*
X35685Y-33753D01*
X35679Y-33753D01*
X35872Y-33560D01*
X37027Y-33560D01*
X37063Y-33596D01*
X37142Y-33629D01*
X37228Y-33629D01*
X37307Y-33596D01*
X37368Y-33535D01*
X37401Y-33456D01*
X37401Y-33370D01*
X37368Y-33291D01*
X37366Y-33289D01*
X41185Y-33289D01*
X41241Y-33278D01*
X41242Y-33278D01*
X41289Y-33246D01*
X41680Y-32854D01*
X41732Y-32854D01*
X41811Y-32821D01*
X41872Y-32760D01*
X41905Y-32681D01*
X41905Y-36840D01*
X41764Y-36840D01*
X41721Y-36858D01*
X41687Y-36891D01*
X41669Y-36934D01*
X41669Y-36981D01*
X41669Y-37225D01*
X40528Y-38366D01*
X39863Y-38366D01*
X39947Y-38283D01*
X40004Y-38146D01*
X40004Y-37997D01*
X40004Y-34426D01*
X40004Y-34277D01*
X39947Y-34140D01*
X39842Y-34034D01*
X39705Y-33977D01*
X39556Y-33977D01*
X39419Y-34034D01*
X39313Y-34139D01*
X39256Y-34276D01*
X39256Y-34425D01*
X39313Y-34562D01*
X39418Y-34668D01*
X39555Y-34725D01*
X39704Y-34725D01*
X39841Y-34668D01*
X39947Y-34563D01*
X40004Y-34426D01*
X40004Y-37997D01*
X39947Y-37860D01*
X39842Y-37754D01*
X39705Y-37697D01*
X39556Y-37697D01*
X39419Y-37754D01*
X39313Y-37859D01*
X39256Y-37996D01*
X39256Y-38145D01*
X39313Y-38282D01*
X39396Y-38366D01*
X39045Y-38366D01*
X37401Y-38366D01*
X37401Y-36915D01*
X37401Y-36868D01*
X37401Y-36318D01*
X37383Y-36275D01*
X37350Y-36241D01*
X37307Y-36223D01*
X37260Y-36223D01*
X36710Y-36223D01*
X36667Y-36241D01*
X36633Y-36274D01*
X36615Y-36317D01*
X36615Y-36364D01*
X36615Y-36914D01*
X36633Y-36957D01*
X36666Y-36991D01*
X36709Y-37009D01*
X36756Y-37009D01*
X37306Y-37009D01*
X37349Y-36991D01*
X37383Y-36958D01*
X37401Y-36915D01*
X37401Y-38366D01*
X37400Y-38366D01*
X37400Y-37694D01*
X37400Y-37538D01*
X37340Y-37394D01*
X37230Y-37284D01*
X37086Y-37224D01*
X36930Y-37224D01*
X36786Y-37284D01*
X36676Y-37394D01*
X36616Y-37538D01*
X36616Y-37694D01*
X36676Y-37838D01*
X36786Y-37948D01*
X36930Y-38008D01*
X37086Y-38008D01*
X37230Y-37948D01*
X37340Y-37838D01*
X37400Y-37694D01*
X37400Y-38366D01*
X36013Y-38366D01*
X36013Y-36834D01*
X36013Y-36748D01*
X35980Y-36669D01*
X35919Y-36608D01*
X35840Y-36575D01*
X35754Y-36575D01*
X35675Y-36608D01*
X35639Y-36644D01*
X35365Y-36644D01*
X35329Y-36608D01*
X35250Y-36575D01*
X35164Y-36575D01*
X35085Y-36608D01*
X35024Y-36669D01*
X34991Y-36748D01*
X34991Y-36834D01*
X35024Y-36913D01*
X35085Y-36974D01*
X35164Y-37007D01*
X35250Y-37007D01*
X35329Y-36974D01*
X35365Y-36938D01*
X35639Y-36938D01*
X35675Y-36974D01*
X35754Y-37007D01*
X35840Y-37007D01*
X35919Y-36974D01*
X35980Y-36913D01*
X36013Y-36834D01*
X36013Y-38366D01*
X35842Y-38366D01*
X35858Y-38330D01*
X35858Y-38244D01*
X35825Y-38165D01*
X35793Y-38133D01*
X35793Y-38028D01*
X35829Y-37992D01*
X35862Y-37913D01*
X35862Y-37827D01*
X35829Y-37748D01*
X35768Y-37687D01*
X35689Y-37654D01*
X35603Y-37654D01*
X35524Y-37687D01*
X35463Y-37748D01*
X35430Y-37827D01*
X35430Y-37913D01*
X35463Y-37992D01*
X35499Y-38028D01*
X35499Y-38125D01*
X35459Y-38165D01*
X35426Y-38244D01*
X35426Y-38330D01*
X35441Y-38366D01*
X35358Y-38366D01*
X35357Y-38366D01*
X35237Y-38390D01*
X35135Y-38458D01*
X35133Y-38460D01*
X34542Y-39051D01*
X34268Y-39051D01*
X34279Y-39027D01*
X34279Y-38941D01*
X34246Y-38862D01*
X34185Y-38801D01*
X34106Y-38768D01*
X34055Y-38768D01*
X33885Y-38598D01*
X34201Y-38283D01*
X34248Y-38283D01*
X34327Y-38250D01*
X34388Y-38189D01*
X34421Y-38110D01*
X34421Y-38024D01*
X34388Y-37945D01*
X34327Y-37884D01*
X34248Y-37851D01*
X34162Y-37851D01*
X34083Y-37884D01*
X34022Y-37945D01*
X33989Y-38024D01*
X33989Y-38079D01*
X33697Y-38371D01*
X33001Y-38371D01*
X33001Y-35732D01*
X33001Y-35646D01*
X32968Y-35567D01*
X32923Y-35522D01*
X32923Y-33488D01*
X32923Y-33402D01*
X32890Y-33323D01*
X32829Y-33262D01*
X32750Y-33229D01*
X32664Y-33229D01*
X32585Y-33262D01*
X32524Y-33323D01*
X32491Y-33402D01*
X32491Y-33438D01*
X32277Y-33652D01*
X32240Y-33652D01*
X32183Y-33675D01*
X32204Y-33626D01*
X32204Y-33540D01*
X32171Y-33461D01*
X32145Y-33435D01*
X32145Y-33298D01*
X32171Y-33272D01*
X32204Y-33193D01*
X32204Y-33107D01*
X32171Y-33028D01*
X32110Y-32967D01*
X32031Y-32934D01*
X31945Y-32934D01*
X31866Y-32967D01*
X31805Y-33028D01*
X31772Y-33107D01*
X31772Y-33193D01*
X31805Y-33272D01*
X31831Y-33298D01*
X31831Y-33435D01*
X31805Y-33461D01*
X31772Y-33540D01*
X31772Y-33626D01*
X31805Y-33705D01*
X31866Y-33766D01*
X31945Y-33799D01*
X32031Y-33799D01*
X32087Y-33775D01*
X32067Y-33825D01*
X32067Y-33911D01*
X32100Y-33990D01*
X32161Y-34051D01*
X32240Y-34084D01*
X32326Y-34084D01*
X32405Y-34051D01*
X32466Y-33990D01*
X32499Y-33911D01*
X32499Y-33874D01*
X32712Y-33661D01*
X32750Y-33661D01*
X32829Y-33628D01*
X32890Y-33567D01*
X32923Y-33488D01*
X32923Y-35522D01*
X32907Y-35506D01*
X32828Y-35473D01*
X32742Y-35473D01*
X32663Y-35506D01*
X32637Y-35532D01*
X32500Y-35532D01*
X32474Y-35506D01*
X32395Y-35473D01*
X32309Y-35473D01*
X32230Y-35506D01*
X32169Y-35567D01*
X32136Y-35646D01*
X32136Y-35732D01*
X32169Y-35811D01*
X32230Y-35872D01*
X32309Y-35905D01*
X32395Y-35905D01*
X32474Y-35872D01*
X32500Y-35846D01*
X32637Y-35846D01*
X32663Y-35872D01*
X32742Y-35905D01*
X32828Y-35905D01*
X32907Y-35872D01*
X32968Y-35811D01*
X33001Y-35732D01*
X33001Y-38371D01*
X32992Y-38371D01*
X32992Y-36677D01*
X32992Y-36591D01*
X32959Y-36512D01*
X32898Y-36451D01*
X32819Y-36418D01*
X32733Y-36418D01*
X32654Y-36451D01*
X32628Y-36477D01*
X32500Y-36477D01*
X32474Y-36451D01*
X32395Y-36418D01*
X32309Y-36418D01*
X32230Y-36451D01*
X32169Y-36512D01*
X32136Y-36591D01*
X32136Y-36677D01*
X32169Y-36756D01*
X32230Y-36817D01*
X32309Y-36850D01*
X32395Y-36850D01*
X32474Y-36817D01*
X32500Y-36791D01*
X32628Y-36791D01*
X32654Y-36817D01*
X32733Y-36850D01*
X32819Y-36850D01*
X32898Y-36817D01*
X32959Y-36756D01*
X32992Y-36677D01*
X32992Y-38371D01*
X32854Y-38371D01*
X32854Y-37789D01*
X32854Y-37703D01*
X32821Y-37624D01*
X32803Y-37606D01*
X32802Y-37599D01*
X32763Y-37542D01*
X32416Y-37195D01*
X32416Y-37186D01*
X32383Y-37107D01*
X32322Y-37046D01*
X32243Y-37013D01*
X32157Y-37013D01*
X32078Y-37046D01*
X32017Y-37107D01*
X31984Y-37186D01*
X31984Y-37272D01*
X32017Y-37351D01*
X32078Y-37412D01*
X32157Y-37445D01*
X32166Y-37445D01*
X32422Y-37701D01*
X32422Y-37703D01*
X32422Y-37789D01*
X32455Y-37868D01*
X32516Y-37929D01*
X32595Y-37962D01*
X32681Y-37962D01*
X32760Y-37929D01*
X32821Y-37868D01*
X32854Y-37789D01*
X32854Y-38371D01*
X31860Y-38371D01*
X31860Y-37799D01*
X31860Y-37713D01*
X31827Y-37634D01*
X31791Y-37598D01*
X31791Y-37264D01*
X31827Y-37228D01*
X31860Y-37149D01*
X31860Y-37063D01*
X31827Y-36984D01*
X31766Y-36923D01*
X31687Y-36890D01*
X31601Y-36890D01*
X31522Y-36923D01*
X31461Y-36984D01*
X31428Y-37063D01*
X31428Y-37149D01*
X31461Y-37228D01*
X31497Y-37264D01*
X31497Y-37598D01*
X31461Y-37634D01*
X31428Y-37713D01*
X31428Y-37799D01*
X31461Y-37878D01*
X31522Y-37939D01*
X31601Y-37972D01*
X31687Y-37972D01*
X31766Y-37939D01*
X31827Y-37878D01*
X31860Y-37799D01*
X31860Y-38371D01*
X31318Y-38371D01*
X31318Y-37799D01*
X31318Y-37713D01*
X31285Y-37634D01*
X31259Y-37608D01*
X31259Y-37472D01*
X31276Y-37455D01*
X31309Y-37376D01*
X31309Y-37290D01*
X31276Y-37211D01*
X31215Y-37150D01*
X31136Y-37117D01*
X31050Y-37117D01*
X30971Y-37150D01*
X30944Y-37177D01*
X30944Y-33626D01*
X30944Y-33540D01*
X30911Y-33461D01*
X30885Y-33435D01*
X30885Y-33298D01*
X30911Y-33272D01*
X30944Y-33193D01*
X30944Y-33107D01*
X30911Y-33028D01*
X30850Y-32967D01*
X30846Y-32965D01*
X30846Y-31952D01*
X30846Y-31866D01*
X30813Y-31787D01*
X30752Y-31726D01*
X30673Y-31693D01*
X30587Y-31693D01*
X30508Y-31726D01*
X30447Y-31787D01*
X30414Y-31866D01*
X30414Y-31917D01*
X30400Y-31930D01*
X30413Y-31901D01*
X30413Y-31815D01*
X30380Y-31736D01*
X30319Y-31675D01*
X30240Y-31642D01*
X30154Y-31642D01*
X30075Y-31675D01*
X30014Y-31736D01*
X29981Y-31815D01*
X29981Y-31866D01*
X29445Y-32402D01*
X29302Y-32402D01*
X29783Y-31921D01*
X29834Y-31921D01*
X29913Y-31888D01*
X29974Y-31827D01*
X30007Y-31748D01*
X30007Y-31662D01*
X29974Y-31583D01*
X29913Y-31522D01*
X29834Y-31489D01*
X29748Y-31489D01*
X29696Y-31510D01*
X29696Y-29303D01*
X29696Y-29217D01*
X29663Y-29138D01*
X29602Y-29077D01*
X29523Y-29044D01*
X29437Y-29044D01*
X29358Y-29077D01*
X29297Y-29138D01*
X29264Y-29217D01*
X29264Y-29268D01*
X28057Y-30475D01*
X28006Y-30475D01*
X27927Y-30508D01*
X27866Y-30569D01*
X27833Y-30648D01*
X27833Y-30734D01*
X27866Y-30813D01*
X27927Y-30874D01*
X28006Y-30907D01*
X28092Y-30907D01*
X28171Y-30874D01*
X28232Y-30813D01*
X28265Y-30734D01*
X28265Y-30682D01*
X29471Y-29476D01*
X29523Y-29476D01*
X29602Y-29443D01*
X29663Y-29382D01*
X29696Y-29303D01*
X29696Y-31510D01*
X29669Y-31522D01*
X29608Y-31583D01*
X29580Y-31650D01*
X29580Y-31599D01*
X29616Y-31563D01*
X29649Y-31484D01*
X29649Y-31398D01*
X29616Y-31319D01*
X29555Y-31258D01*
X29476Y-31225D01*
X29390Y-31225D01*
X29311Y-31258D01*
X29250Y-31319D01*
X29217Y-31398D01*
X29217Y-31477D01*
X29189Y-31477D01*
X29110Y-31510D01*
X29049Y-31571D01*
X29016Y-31650D01*
X29016Y-31721D01*
X28722Y-32015D01*
X28564Y-32015D01*
X28582Y-31972D01*
X28582Y-31920D01*
X29380Y-31122D01*
X29433Y-31122D01*
X29512Y-31089D01*
X29573Y-31028D01*
X29606Y-30949D01*
X29606Y-30863D01*
X29573Y-30784D01*
X29512Y-30723D01*
X29433Y-30690D01*
X29347Y-30690D01*
X29268Y-30723D01*
X29207Y-30784D01*
X29174Y-30863D01*
X29174Y-30913D01*
X28374Y-31713D01*
X28323Y-31713D01*
X28244Y-31746D01*
X28183Y-31807D01*
X28150Y-31886D01*
X28150Y-31972D01*
X28167Y-32015D01*
X26102Y-32015D01*
X26102Y-29949D01*
X26102Y-29863D01*
X26069Y-29784D01*
X26008Y-29723D01*
X25929Y-29690D01*
X25843Y-29690D01*
X25764Y-29723D01*
X25728Y-29759D01*
X24020Y-29759D01*
X23984Y-29723D01*
X23905Y-29690D01*
X23819Y-29690D01*
X23740Y-29723D01*
X23679Y-29784D01*
X23646Y-29863D01*
X23646Y-29949D01*
X23679Y-30028D01*
X23740Y-30089D01*
X23819Y-30122D01*
X23905Y-30122D01*
X23984Y-30089D01*
X24020Y-30053D01*
X25728Y-30053D01*
X25764Y-30089D01*
X25843Y-30122D01*
X25929Y-30122D01*
X26008Y-30089D01*
X26069Y-30028D01*
X26102Y-29949D01*
X26102Y-32015D01*
X24830Y-32015D01*
X23565Y-32015D01*
X23444Y-31894D01*
X23444Y-31843D01*
X23411Y-31764D01*
X23350Y-31703D01*
X23271Y-31670D01*
X23185Y-31670D01*
X23106Y-31703D01*
X23045Y-31764D01*
X23012Y-31843D01*
X23012Y-31871D01*
X22969Y-31871D01*
X22890Y-31904D01*
X22829Y-31965D01*
X22796Y-32044D01*
X22796Y-32067D01*
X22748Y-32067D01*
X22669Y-32100D01*
X22608Y-32161D01*
X22575Y-32240D01*
X22575Y-32264D01*
X22548Y-32264D01*
X22469Y-32297D01*
X22408Y-32358D01*
X22375Y-32437D01*
X22375Y-32481D01*
X22343Y-32481D01*
X22264Y-32514D01*
X22203Y-32575D01*
X22170Y-32654D01*
X22170Y-32740D01*
X22203Y-32819D01*
X22264Y-32880D01*
X22343Y-32913D01*
X22429Y-32913D01*
X22508Y-32880D01*
X22544Y-32844D01*
X22894Y-32844D01*
X22884Y-32870D01*
X22884Y-32956D01*
X22917Y-33035D01*
X22978Y-33096D01*
X23057Y-33129D01*
X23102Y-33129D01*
X23071Y-33205D01*
X23071Y-33291D01*
X23104Y-33370D01*
X23165Y-33431D01*
X23244Y-33464D01*
X23330Y-33464D01*
X23409Y-33431D01*
X23445Y-33395D01*
X25586Y-33395D01*
X25564Y-33449D01*
X25564Y-33535D01*
X25597Y-33614D01*
X25601Y-33618D01*
X25598Y-33621D01*
X24024Y-33621D01*
X23988Y-33585D01*
X23909Y-33552D01*
X23823Y-33552D01*
X23744Y-33585D01*
X23683Y-33646D01*
X23650Y-33725D01*
X23650Y-33741D01*
X23583Y-33741D01*
X23504Y-33774D01*
X23443Y-33835D01*
X23410Y-33914D01*
X23410Y-34000D01*
X23443Y-34079D01*
X23504Y-34140D01*
X23556Y-34162D01*
X23496Y-34162D01*
X23417Y-34195D01*
X23356Y-34256D01*
X23323Y-34335D01*
X23323Y-34421D01*
X23356Y-34500D01*
X23417Y-34561D01*
X23496Y-34594D01*
X23582Y-34594D01*
X23661Y-34561D01*
X23697Y-34525D01*
X24486Y-34525D01*
X24457Y-34595D01*
X24457Y-34681D01*
X24490Y-34760D01*
X24551Y-34821D01*
X24630Y-34854D01*
X24684Y-34854D01*
X24722Y-34879D01*
X24723Y-34880D01*
X24778Y-34890D01*
X24779Y-34891D01*
X25522Y-34891D01*
X25511Y-34902D01*
X24252Y-34902D01*
X24226Y-34876D01*
X24147Y-34843D01*
X24061Y-34843D01*
X23982Y-34876D01*
X23921Y-34937D01*
X23888Y-35016D01*
X23888Y-35102D01*
X23921Y-35181D01*
X23982Y-35242D01*
X24034Y-35263D01*
X24006Y-35331D01*
X24006Y-35417D01*
X24039Y-35496D01*
X24100Y-35557D01*
X24179Y-35590D01*
X24265Y-35590D01*
X24344Y-35557D01*
X24380Y-35521D01*
X25521Y-35521D01*
X25557Y-35557D01*
X25636Y-35590D01*
X25722Y-35590D01*
X25801Y-35557D01*
X25862Y-35496D01*
X25895Y-35417D01*
X25895Y-35331D01*
X25862Y-35252D01*
X25816Y-35206D01*
X25852Y-35171D01*
X25885Y-35092D01*
X25885Y-35006D01*
X25852Y-34927D01*
X25816Y-34891D01*
X26973Y-34891D01*
X27029Y-34880D01*
X27030Y-34880D01*
X27077Y-34848D01*
X27198Y-34727D01*
X27230Y-34680D01*
X27230Y-34679D01*
X27241Y-34623D01*
X27241Y-34133D01*
X27230Y-34077D01*
X27230Y-34076D01*
X27198Y-34029D01*
X27102Y-33933D01*
X27102Y-33882D01*
X27069Y-33803D01*
X27008Y-33742D01*
X26929Y-33709D01*
X26843Y-33709D01*
X26764Y-33742D01*
X26703Y-33803D01*
X26670Y-33882D01*
X26670Y-33968D01*
X26703Y-34047D01*
X26764Y-34108D01*
X26843Y-34141D01*
X26894Y-34141D01*
X26947Y-34194D01*
X26947Y-34353D01*
X26913Y-34339D01*
X26835Y-34339D01*
X26400Y-33904D01*
X26451Y-33884D01*
X26512Y-33823D01*
X26545Y-33744D01*
X26545Y-33658D01*
X26512Y-33579D01*
X26451Y-33518D01*
X26372Y-33485D01*
X26320Y-33485D01*
X25980Y-33144D01*
X25933Y-33112D01*
X25876Y-33101D01*
X23445Y-33101D01*
X23409Y-33065D01*
X23351Y-33041D01*
X26427Y-33041D01*
X26463Y-33077D01*
X26542Y-33110D01*
X26628Y-33110D01*
X26707Y-33077D01*
X26768Y-33016D01*
X26801Y-32937D01*
X26801Y-32851D01*
X26798Y-32844D01*
X29839Y-32844D01*
X29895Y-32833D01*
X29896Y-32833D01*
X29943Y-32801D01*
X30487Y-32256D01*
X30488Y-32256D01*
X30497Y-32250D01*
X30622Y-32125D01*
X30673Y-32125D01*
X30752Y-32092D01*
X30813Y-32031D01*
X30846Y-31952D01*
X30846Y-32965D01*
X30771Y-32934D01*
X30685Y-32934D01*
X30606Y-32967D01*
X30545Y-33028D01*
X30512Y-33107D01*
X30512Y-33193D01*
X30545Y-33272D01*
X30571Y-33298D01*
X30571Y-33435D01*
X30545Y-33461D01*
X30512Y-33540D01*
X30512Y-33626D01*
X30545Y-33705D01*
X30606Y-33766D01*
X30685Y-33799D01*
X30771Y-33799D01*
X30850Y-33766D01*
X30911Y-33705D01*
X30944Y-33626D01*
X30944Y-37177D01*
X30910Y-37211D01*
X30877Y-37290D01*
X30877Y-37376D01*
X30910Y-37455D01*
X30945Y-37490D01*
X30945Y-37608D01*
X30919Y-37634D01*
X30886Y-37713D01*
X30886Y-37799D01*
X30919Y-37878D01*
X30980Y-37939D01*
X31059Y-37972D01*
X31145Y-37972D01*
X31224Y-37939D01*
X31285Y-37878D01*
X31318Y-37799D01*
X31318Y-38371D01*
X30098Y-38371D01*
X30098Y-37809D01*
X30098Y-37723D01*
X30065Y-37644D01*
X30039Y-37618D01*
X30039Y-37481D01*
X30065Y-37455D01*
X30098Y-37376D01*
X30098Y-37290D01*
X30065Y-37211D01*
X30004Y-37150D01*
X29925Y-37117D01*
X29839Y-37117D01*
X29760Y-37150D01*
X29699Y-37211D01*
X29666Y-37290D01*
X29666Y-37376D01*
X29699Y-37455D01*
X29725Y-37481D01*
X29725Y-37618D01*
X29699Y-37644D01*
X29666Y-37723D01*
X29666Y-37809D01*
X29699Y-37888D01*
X29760Y-37949D01*
X29839Y-37982D01*
X29925Y-37982D01*
X30004Y-37949D01*
X30065Y-37888D01*
X30098Y-37809D01*
X30098Y-38371D01*
X29527Y-38371D01*
X29527Y-33626D01*
X29527Y-33540D01*
X29494Y-33461D01*
X29468Y-33435D01*
X29468Y-33307D01*
X29494Y-33281D01*
X29527Y-33202D01*
X29527Y-33116D01*
X29494Y-33037D01*
X29433Y-32976D01*
X29354Y-32943D01*
X29268Y-32943D01*
X29189Y-32976D01*
X29128Y-33037D01*
X29095Y-33116D01*
X29095Y-33202D01*
X29128Y-33281D01*
X29154Y-33307D01*
X29154Y-33435D01*
X29128Y-33461D01*
X29095Y-33540D01*
X29095Y-33626D01*
X29128Y-33705D01*
X29189Y-33766D01*
X29268Y-33799D01*
X29354Y-33799D01*
X29433Y-33766D01*
X29494Y-33705D01*
X29527Y-33626D01*
X29527Y-38371D01*
X29169Y-38371D01*
X29113Y-38382D01*
X29065Y-38414D01*
X29063Y-38416D01*
X29045Y-38434D01*
X29045Y-36096D01*
X29045Y-36010D01*
X29012Y-35931D01*
X28951Y-35870D01*
X28872Y-35837D01*
X28818Y-35837D01*
X28818Y-35260D01*
X28818Y-35174D01*
X28785Y-35095D01*
X28724Y-35034D01*
X28645Y-35001D01*
X28559Y-35001D01*
X28480Y-35034D01*
X28454Y-35060D01*
X28298Y-35060D01*
X28272Y-35034D01*
X28193Y-35001D01*
X28107Y-35001D01*
X28028Y-35034D01*
X27967Y-35095D01*
X27934Y-35174D01*
X27934Y-35260D01*
X27967Y-35339D01*
X28028Y-35400D01*
X28107Y-35433D01*
X28193Y-35433D01*
X28272Y-35400D01*
X28298Y-35374D01*
X28454Y-35374D01*
X28480Y-35400D01*
X28559Y-35433D01*
X28645Y-35433D01*
X28724Y-35400D01*
X28785Y-35339D01*
X28818Y-35260D01*
X28818Y-35837D01*
X28786Y-35837D01*
X28707Y-35870D01*
X28671Y-35906D01*
X28288Y-35906D01*
X28252Y-35870D01*
X28173Y-35837D01*
X28087Y-35837D01*
X28008Y-35870D01*
X27947Y-35931D01*
X27914Y-36010D01*
X27914Y-36096D01*
X27947Y-36175D01*
X27968Y-36196D01*
X27967Y-36197D01*
X27934Y-36276D01*
X27934Y-36362D01*
X27967Y-36441D01*
X28028Y-36502D01*
X28107Y-36535D01*
X28193Y-36535D01*
X28272Y-36502D01*
X28298Y-36476D01*
X28454Y-36476D01*
X28480Y-36502D01*
X28559Y-36535D01*
X28645Y-36535D01*
X28724Y-36502D01*
X28785Y-36441D01*
X28818Y-36362D01*
X28818Y-36276D01*
X28815Y-36269D01*
X28872Y-36269D01*
X28951Y-36236D01*
X29012Y-36175D01*
X29045Y-36096D01*
X29045Y-38434D01*
X28988Y-38491D01*
X28818Y-38491D01*
X28818Y-36982D01*
X28818Y-36896D01*
X28785Y-36817D01*
X28724Y-36756D01*
X28645Y-36723D01*
X28559Y-36723D01*
X28480Y-36756D01*
X28454Y-36782D01*
X28307Y-36782D01*
X28281Y-36756D01*
X28202Y-36723D01*
X28116Y-36723D01*
X28037Y-36756D01*
X27976Y-36817D01*
X27943Y-36896D01*
X27943Y-36982D01*
X27976Y-37061D01*
X28037Y-37122D01*
X28116Y-37155D01*
X28202Y-37155D01*
X28246Y-37136D01*
X27961Y-37422D01*
X27910Y-37422D01*
X27831Y-37455D01*
X27770Y-37516D01*
X27737Y-37595D01*
X27737Y-37681D01*
X27770Y-37760D01*
X27831Y-37821D01*
X27910Y-37854D01*
X27996Y-37854D01*
X28075Y-37821D01*
X28136Y-37760D01*
X28169Y-37681D01*
X28169Y-37630D01*
X28644Y-37155D01*
X28645Y-37155D01*
X28724Y-37122D01*
X28785Y-37061D01*
X28818Y-36982D01*
X28818Y-38491D01*
X27926Y-38491D01*
X27890Y-38455D01*
X27822Y-38426D01*
X27842Y-38397D01*
X27866Y-38276D01*
X27842Y-38155D01*
X27774Y-38053D01*
X27672Y-37985D01*
X27551Y-37961D01*
X27351Y-37961D01*
X27350Y-37961D01*
X27230Y-37985D01*
X27224Y-37989D01*
X27224Y-37910D01*
X27191Y-37831D01*
X27130Y-37770D01*
X27051Y-37737D01*
X26965Y-37737D01*
X26948Y-37744D01*
X26948Y-36933D01*
X26948Y-36890D01*
X26948Y-36847D01*
X26932Y-36810D01*
X26932Y-36807D01*
X26930Y-36804D01*
X26915Y-36768D01*
X26887Y-36740D01*
X26885Y-36737D01*
X26881Y-36734D01*
X26854Y-36707D01*
X26817Y-36691D01*
X26815Y-36690D01*
X26811Y-36689D01*
X26775Y-36674D01*
X26732Y-36674D01*
X26689Y-36674D01*
X26652Y-36689D01*
X26649Y-36690D01*
X26646Y-36691D01*
X26610Y-36707D01*
X26582Y-36734D01*
X26579Y-36737D01*
X26576Y-36740D01*
X26549Y-36768D01*
X26533Y-36804D01*
X26532Y-36807D01*
X26531Y-36810D01*
X26516Y-36847D01*
X26516Y-36890D01*
X26516Y-36933D01*
X26516Y-37303D01*
X26508Y-37300D01*
X26461Y-37300D01*
X26392Y-37231D01*
X26345Y-37199D01*
X26288Y-37188D01*
X25882Y-37188D01*
X25895Y-37159D01*
X25895Y-37073D01*
X25862Y-36994D01*
X25801Y-36933D01*
X25722Y-36900D01*
X25636Y-36900D01*
X25557Y-36933D01*
X25531Y-36959D01*
X24607Y-36959D01*
X24581Y-36933D01*
X24502Y-36900D01*
X24468Y-36900D01*
X24496Y-36834D01*
X24496Y-36748D01*
X24463Y-36669D01*
X24402Y-36608D01*
X24323Y-36575D01*
X24237Y-36575D01*
X24158Y-36608D01*
X24097Y-36669D01*
X24064Y-36748D01*
X24064Y-36799D01*
X24034Y-36829D01*
X24002Y-36876D01*
X23991Y-36933D01*
X23991Y-37133D01*
X23040Y-36182D01*
X25013Y-36182D01*
X25461Y-36629D01*
X25461Y-36681D01*
X25494Y-36760D01*
X25555Y-36821D01*
X25634Y-36854D01*
X25720Y-36854D01*
X25799Y-36821D01*
X25860Y-36760D01*
X25893Y-36681D01*
X25893Y-36595D01*
X25860Y-36516D01*
X25799Y-36455D01*
X25720Y-36422D01*
X25668Y-36422D01*
X25178Y-35931D01*
X25131Y-35899D01*
X25074Y-35888D01*
X22964Y-35888D01*
X22952Y-35857D01*
X22864Y-35768D01*
X22748Y-35720D01*
X22623Y-35720D01*
X22507Y-35768D01*
X22418Y-35856D01*
X22370Y-35972D01*
X22370Y-36097D01*
X22418Y-36213D01*
X22506Y-36302D01*
X22622Y-36350D01*
X22747Y-36350D01*
X22778Y-36336D01*
X24707Y-38265D01*
X24754Y-38296D01*
X24755Y-38297D01*
X24811Y-38308D01*
X26071Y-38308D01*
X25855Y-38524D01*
X21394Y-38524D01*
X21394Y-34166D01*
X21394Y-34000D01*
X21394Y-33166D01*
X21394Y-33000D01*
X21394Y-32166D01*
X21394Y-32000D01*
X21394Y-31166D01*
X21394Y-31000D01*
X21394Y-30166D01*
X21394Y-30000D01*
X21394Y-29166D01*
X21394Y-29000D01*
X21330Y-28846D01*
X21213Y-28729D01*
X21059Y-28665D01*
X20893Y-28665D01*
X20739Y-28729D01*
X20622Y-28846D01*
X20558Y-29000D01*
X20558Y-29166D01*
X20622Y-29320D01*
X20739Y-29437D01*
X20893Y-29501D01*
X21059Y-29501D01*
X21213Y-29437D01*
X21330Y-29320D01*
X21394Y-29166D01*
X21394Y-30000D01*
X21330Y-29846D01*
X21213Y-29729D01*
X21059Y-29665D01*
X20893Y-29665D01*
X20739Y-29729D01*
X20622Y-29846D01*
X20558Y-30000D01*
X20558Y-30166D01*
X20622Y-30320D01*
X20739Y-30437D01*
X20893Y-30501D01*
X21059Y-30501D01*
X21213Y-30437D01*
X21330Y-30320D01*
X21394Y-30166D01*
X21394Y-31000D01*
X21330Y-30846D01*
X21213Y-30729D01*
X21059Y-30665D01*
X20893Y-30665D01*
X20739Y-30729D01*
X20622Y-30846D01*
X20558Y-31000D01*
X20558Y-31166D01*
X20622Y-31320D01*
X20739Y-31437D01*
X20893Y-31501D01*
X21059Y-31501D01*
X21213Y-31437D01*
X21330Y-31320D01*
X21394Y-31166D01*
X21394Y-32000D01*
X21330Y-31846D01*
X21213Y-31729D01*
X21059Y-31665D01*
X20893Y-31665D01*
X20739Y-31729D01*
X20622Y-31846D01*
X20558Y-32000D01*
X20558Y-32166D01*
X20622Y-32320D01*
X20739Y-32437D01*
X20893Y-32501D01*
X21059Y-32501D01*
X21213Y-32437D01*
X21330Y-32320D01*
X21394Y-32166D01*
X21394Y-33000D01*
X21330Y-32846D01*
X21213Y-32729D01*
X21059Y-32665D01*
X20893Y-32665D01*
X20739Y-32729D01*
X20622Y-32846D01*
X20558Y-33000D01*
X20558Y-33166D01*
X20622Y-33320D01*
X20739Y-33437D01*
X20893Y-33501D01*
X21059Y-33501D01*
X21213Y-33437D01*
X21330Y-33320D01*
X21394Y-33166D01*
X21394Y-34000D01*
X21330Y-33846D01*
X21213Y-33729D01*
X21059Y-33665D01*
X20893Y-33665D01*
X20739Y-33729D01*
X20622Y-33846D01*
X20558Y-34000D01*
X20558Y-34166D01*
X20622Y-34320D01*
X20739Y-34437D01*
X20893Y-34501D01*
X21059Y-34501D01*
X21213Y-34437D01*
X21330Y-34320D01*
X21394Y-34166D01*
X21394Y-38524D01*
X21376Y-38524D01*
X21376Y-35119D01*
X21359Y-34963D01*
X21332Y-34897D01*
X21281Y-34862D01*
X21197Y-34945D01*
X21197Y-34778D01*
X21162Y-34727D01*
X21012Y-34683D01*
X20856Y-34700D01*
X20790Y-34727D01*
X20755Y-34778D01*
X20976Y-35000D01*
X21197Y-34778D01*
X21197Y-34945D01*
X21059Y-35083D01*
X21281Y-35304D01*
X21332Y-35269D01*
X21376Y-35119D01*
X21376Y-38524D01*
X21197Y-38524D01*
X21197Y-35388D01*
X20976Y-35166D01*
X20893Y-35249D01*
X20893Y-35083D01*
X20671Y-34862D01*
X20620Y-34897D01*
X20576Y-35047D01*
X20593Y-35203D01*
X20620Y-35269D01*
X20671Y-35304D01*
X20893Y-35083D01*
X20893Y-35249D01*
X20755Y-35388D01*
X20790Y-35439D01*
X20940Y-35483D01*
X21096Y-35466D01*
X21162Y-35439D01*
X21197Y-35388D01*
X21197Y-38524D01*
X20886Y-38524D01*
X20886Y-36746D01*
X20886Y-36621D01*
X20838Y-36505D01*
X20750Y-36416D01*
X20634Y-36368D01*
X20509Y-36368D01*
X20394Y-36415D01*
X20394Y-35166D01*
X20394Y-35000D01*
X20394Y-34166D01*
X20394Y-34000D01*
X20394Y-33166D01*
X20394Y-33000D01*
X20394Y-32166D01*
X20394Y-32000D01*
X20394Y-31166D01*
X20394Y-31000D01*
X20394Y-30166D01*
X20394Y-30000D01*
X20394Y-29407D01*
X20394Y-29360D01*
X20394Y-28760D01*
X20376Y-28717D01*
X20343Y-28683D01*
X20300Y-28665D01*
X20253Y-28665D01*
X19653Y-28665D01*
X19610Y-28683D01*
X19576Y-28716D01*
X19558Y-28759D01*
X19558Y-28806D01*
X19558Y-29406D01*
X19576Y-29449D01*
X19609Y-29483D01*
X19652Y-29501D01*
X19699Y-29501D01*
X20299Y-29501D01*
X20342Y-29483D01*
X20376Y-29450D01*
X20394Y-29407D01*
X20394Y-30000D01*
X20330Y-29846D01*
X20213Y-29729D01*
X20059Y-29665D01*
X19893Y-29665D01*
X19739Y-29729D01*
X19622Y-29846D01*
X19558Y-30000D01*
X19558Y-30166D01*
X19622Y-30320D01*
X19739Y-30437D01*
X19893Y-30501D01*
X20059Y-30501D01*
X20213Y-30437D01*
X20330Y-30320D01*
X20394Y-30166D01*
X20394Y-31000D01*
X20330Y-30846D01*
X20213Y-30729D01*
X20059Y-30665D01*
X19893Y-30665D01*
X19739Y-30729D01*
X19622Y-30846D01*
X19558Y-31000D01*
X19558Y-31166D01*
X19622Y-31320D01*
X19739Y-31437D01*
X19893Y-31501D01*
X20059Y-31501D01*
X20213Y-31437D01*
X20330Y-31320D01*
X20394Y-31166D01*
X20394Y-32000D01*
X20330Y-31846D01*
X20213Y-31729D01*
X20059Y-31665D01*
X19893Y-31665D01*
X19739Y-31729D01*
X19622Y-31846D01*
X19558Y-32000D01*
X19558Y-32166D01*
X19622Y-32320D01*
X19739Y-32437D01*
X19893Y-32501D01*
X20059Y-32501D01*
X20213Y-32437D01*
X20330Y-32320D01*
X20394Y-32166D01*
X20394Y-33000D01*
X20330Y-32846D01*
X20213Y-32729D01*
X20059Y-32665D01*
X19893Y-32665D01*
X19739Y-32729D01*
X19622Y-32846D01*
X19558Y-33000D01*
X19558Y-33166D01*
X19622Y-33320D01*
X19739Y-33437D01*
X19893Y-33501D01*
X20059Y-33501D01*
X20213Y-33437D01*
X20330Y-33320D01*
X20394Y-33166D01*
X20394Y-34000D01*
X20330Y-33846D01*
X20213Y-33729D01*
X20059Y-33665D01*
X19893Y-33665D01*
X19739Y-33729D01*
X19622Y-33846D01*
X19558Y-34000D01*
X19558Y-34166D01*
X19622Y-34320D01*
X19739Y-34437D01*
X19893Y-34501D01*
X20059Y-34501D01*
X20213Y-34437D01*
X20330Y-34320D01*
X20394Y-34166D01*
X20394Y-35000D01*
X20330Y-34846D01*
X20213Y-34729D01*
X20059Y-34665D01*
X19893Y-34665D01*
X19739Y-34729D01*
X19622Y-34846D01*
X19558Y-35000D01*
X19558Y-35166D01*
X19622Y-35320D01*
X19739Y-35437D01*
X19893Y-35501D01*
X20059Y-35501D01*
X20213Y-35437D01*
X20330Y-35320D01*
X20394Y-35166D01*
X20394Y-36415D01*
X20393Y-36416D01*
X20304Y-36504D01*
X20256Y-36620D01*
X20256Y-36745D01*
X20304Y-36861D01*
X20392Y-36950D01*
X20508Y-36998D01*
X20633Y-36998D01*
X20749Y-36950D01*
X20838Y-36862D01*
X20886Y-36746D01*
X20886Y-38524D01*
X19804Y-38524D01*
X19803Y-38524D01*
X19803Y-36224D01*
X19839Y-36240D01*
X19925Y-36240D01*
X20004Y-36207D01*
X20065Y-36146D01*
X20098Y-36067D01*
X20098Y-35981D01*
X20065Y-35902D01*
X20004Y-35841D01*
X19925Y-35808D01*
X19839Y-35808D01*
X19760Y-35841D01*
X19747Y-35854D01*
X19733Y-35834D01*
X19711Y-35801D01*
X19711Y-35800D01*
X19708Y-35798D01*
X19478Y-35567D01*
X19478Y-22504D01*
X20289Y-21693D01*
X25286Y-21693D01*
X26755Y-21693D01*
X26745Y-21717D01*
X26745Y-21803D01*
X26766Y-21854D01*
X26764Y-21852D01*
X26685Y-21819D01*
X26599Y-21819D01*
X26520Y-21852D01*
X26459Y-21913D01*
X26426Y-21992D01*
X26426Y-22078D01*
X26459Y-22157D01*
X26495Y-22193D01*
X26495Y-26744D01*
X26463Y-26776D01*
X26430Y-26855D01*
X26430Y-26941D01*
X26463Y-27020D01*
X26524Y-27081D01*
X26603Y-27114D01*
X26689Y-27114D01*
X26768Y-27081D01*
X26803Y-27045D01*
X26839Y-27081D01*
X26918Y-27114D01*
X27004Y-27114D01*
X27083Y-27081D01*
X27122Y-27041D01*
X27154Y-27073D01*
X27233Y-27106D01*
X27319Y-27106D01*
X27398Y-27073D01*
X27459Y-27012D01*
X27492Y-26933D01*
X27492Y-26847D01*
X27485Y-26831D01*
X27548Y-26858D01*
X27634Y-26858D01*
X27707Y-26827D01*
X27707Y-27136D01*
X26882Y-27961D01*
X26831Y-27961D01*
X26752Y-27994D01*
X26691Y-28055D01*
X26658Y-28134D01*
X26658Y-28220D01*
X26691Y-28299D01*
X26739Y-28347D01*
X26220Y-28347D01*
X25115Y-27242D01*
X25122Y-27240D01*
X25183Y-27179D01*
X25216Y-27100D01*
X25216Y-27047D01*
X25240Y-27047D01*
X25319Y-27014D01*
X25320Y-27013D01*
X25331Y-27024D01*
X25410Y-27057D01*
X25496Y-27057D01*
X25570Y-27026D01*
X25587Y-27043D01*
X25666Y-27076D01*
X25752Y-27076D01*
X25824Y-27045D01*
X25852Y-27073D01*
X25931Y-27106D01*
X26017Y-27106D01*
X26096Y-27073D01*
X26157Y-27012D01*
X26190Y-26933D01*
X26190Y-26847D01*
X26157Y-26768D01*
X26118Y-26729D01*
X26110Y-26685D01*
X26109Y-26684D01*
X26078Y-26637D01*
X24675Y-25234D01*
X24675Y-25183D01*
X24642Y-25104D01*
X24581Y-25043D01*
X24502Y-25010D01*
X24416Y-25010D01*
X24337Y-25043D01*
X24314Y-25065D01*
X24283Y-25034D01*
X24204Y-25001D01*
X24118Y-25001D01*
X24039Y-25034D01*
X24010Y-25063D01*
X23961Y-25014D01*
X23882Y-24981D01*
X23796Y-24981D01*
X23717Y-25014D01*
X23701Y-25030D01*
X23653Y-24982D01*
X23574Y-24949D01*
X23488Y-24949D01*
X23409Y-24982D01*
X23348Y-25043D01*
X23324Y-25098D01*
X23317Y-25079D01*
X23256Y-25018D01*
X23177Y-24985D01*
X23125Y-24985D01*
X23141Y-24949D01*
X23141Y-24863D01*
X23108Y-24784D01*
X23047Y-24723D01*
X22968Y-24690D01*
X22882Y-24690D01*
X22803Y-24723D01*
X22742Y-24784D01*
X22723Y-24827D01*
X22707Y-24787D01*
X22646Y-24726D01*
X22567Y-24693D01*
X22481Y-24693D01*
X22469Y-24697D01*
X22467Y-24686D01*
X22466Y-24685D01*
X22435Y-24638D01*
X22434Y-24637D01*
X22358Y-24561D01*
X22311Y-24529D01*
X22254Y-24518D01*
X21673Y-24518D01*
X21162Y-24518D01*
X21126Y-24482D01*
X21047Y-24449D01*
X20961Y-24449D01*
X20882Y-24482D01*
X20821Y-24543D01*
X20788Y-24622D01*
X20788Y-24708D01*
X20821Y-24787D01*
X20882Y-24848D01*
X20961Y-24881D01*
X21024Y-24881D01*
X21024Y-24937D01*
X21057Y-25016D01*
X21118Y-25077D01*
X21197Y-25110D01*
X21283Y-25110D01*
X21362Y-25077D01*
X21394Y-25045D01*
X21976Y-25045D01*
X21987Y-25056D01*
X21987Y-25189D01*
X21998Y-25246D01*
X22030Y-25293D01*
X26186Y-29449D01*
X26187Y-29450D01*
X26234Y-29481D01*
X26235Y-29482D01*
X26290Y-29492D01*
X26291Y-29493D01*
X27574Y-29493D01*
X27610Y-29529D01*
X27689Y-29562D01*
X27775Y-29562D01*
X27854Y-29529D01*
X27915Y-29468D01*
X27948Y-29389D01*
X27948Y-29303D01*
X27915Y-29224D01*
X27854Y-29163D01*
X27775Y-29130D01*
X27689Y-29130D01*
X27610Y-29163D01*
X27574Y-29199D01*
X27489Y-29199D01*
X27499Y-29177D01*
X27499Y-29091D01*
X27496Y-29084D01*
X27523Y-29084D01*
X27602Y-29051D01*
X27663Y-28990D01*
X27696Y-28911D01*
X27696Y-28825D01*
X27663Y-28746D01*
X27602Y-28685D01*
X27523Y-28652D01*
X27490Y-28652D01*
X27490Y-28609D01*
X27457Y-28530D01*
X27396Y-28469D01*
X27317Y-28436D01*
X27231Y-28436D01*
X27152Y-28469D01*
X27145Y-28476D01*
X27145Y-28451D01*
X27112Y-28372D01*
X27051Y-28311D01*
X27046Y-28309D01*
X27057Y-28299D01*
X27090Y-28220D01*
X27090Y-28169D01*
X27957Y-27302D01*
X27957Y-27301D01*
X27958Y-27301D01*
X27989Y-27254D01*
X27990Y-27253D01*
X28000Y-27198D01*
X28001Y-27197D01*
X28001Y-26971D01*
X28026Y-27031D01*
X28087Y-27092D01*
X28166Y-27125D01*
X28252Y-27125D01*
X28331Y-27092D01*
X28392Y-27031D01*
X28425Y-26952D01*
X28425Y-26902D01*
X28467Y-26860D01*
X30748Y-26860D01*
X30784Y-26896D01*
X30863Y-26929D01*
X30949Y-26929D01*
X30962Y-26923D01*
X30962Y-28019D01*
X30902Y-28045D01*
X30841Y-28106D01*
X30808Y-28185D01*
X30808Y-28271D01*
X30841Y-28350D01*
X30902Y-28411D01*
X30981Y-28444D01*
X31067Y-28444D01*
X31083Y-28437D01*
X31083Y-29426D01*
X31020Y-29453D01*
X30959Y-29514D01*
X30926Y-29593D01*
X30926Y-29679D01*
X30959Y-29758D01*
X31020Y-29819D01*
X31099Y-29852D01*
X31185Y-29852D01*
X31211Y-29841D01*
X31211Y-29931D01*
X31222Y-29988D01*
X31254Y-30035D01*
X31339Y-30120D01*
X31339Y-30171D01*
X31350Y-30199D01*
X30165Y-30199D01*
X30118Y-30152D01*
X30039Y-30119D01*
X29953Y-30119D01*
X29874Y-30152D01*
X29813Y-30213D01*
X29780Y-30292D01*
X29780Y-30378D01*
X29813Y-30457D01*
X29874Y-30518D01*
X29953Y-30551D01*
X29985Y-30551D01*
X29985Y-30598D01*
X30018Y-30677D01*
X30079Y-30738D01*
X30158Y-30771D01*
X30197Y-30771D01*
X30197Y-30779D01*
X30230Y-30858D01*
X30291Y-30919D01*
X30370Y-30952D01*
X30456Y-30952D01*
X30535Y-30919D01*
X30571Y-30883D01*
X30671Y-30883D01*
X30670Y-30886D01*
X30670Y-30972D01*
X30703Y-31051D01*
X30764Y-31112D01*
X30843Y-31145D01*
X30929Y-31145D01*
X31008Y-31112D01*
X31044Y-31076D01*
X31527Y-31076D01*
X31136Y-31467D01*
X31104Y-31514D01*
X31093Y-31571D01*
X31093Y-31740D01*
X31057Y-31776D01*
X31024Y-31855D01*
X31024Y-31941D01*
X31057Y-32020D01*
X31118Y-32081D01*
X31197Y-32114D01*
X31283Y-32114D01*
X31362Y-32081D01*
X31423Y-32020D01*
X31456Y-31941D01*
X31456Y-31909D01*
X31476Y-31909D01*
X31555Y-31876D01*
X31616Y-31815D01*
X31649Y-31736D01*
X31649Y-31685D01*
X31734Y-31600D01*
X35547Y-31600D01*
X35500Y-31620D01*
X35439Y-31681D01*
X35406Y-31760D01*
X35406Y-31846D01*
X35439Y-31925D01*
X35500Y-31986D01*
X35579Y-32019D01*
X35665Y-32019D01*
X35744Y-31986D01*
X35768Y-31962D01*
X41466Y-31962D01*
X41482Y-32000D01*
X41543Y-32061D01*
X41622Y-32094D01*
X41708Y-32094D01*
X41787Y-32061D01*
X41848Y-32000D01*
X41881Y-31921D01*
X41881Y-31835D01*
X41873Y-31816D01*
X42023Y-31816D01*
X42067Y-31860D01*
X42146Y-31893D01*
X42232Y-31893D01*
X42299Y-31865D01*
X42299Y-36600D01*
G54D10*
G36*
X43285Y-48810D02*
X41570Y-48809D01*
X41570Y-47686D01*
X41570Y-47537D01*
X41513Y-47400D01*
X41408Y-47294D01*
X41271Y-47237D01*
X41122Y-47237D01*
X40985Y-47294D01*
X40879Y-47399D01*
X40822Y-47536D01*
X40822Y-47685D01*
X40879Y-47822D01*
X40984Y-47928D01*
X41121Y-47985D01*
X41270Y-47985D01*
X41407Y-47928D01*
X41513Y-47823D01*
X41570Y-47686D01*
X41570Y-48809D01*
X40314Y-48809D01*
X40314Y-45726D01*
X40314Y-45558D01*
X40313Y-44835D01*
X40298Y-44798D01*
X40269Y-44769D01*
X40232Y-44754D01*
X40192Y-44754D01*
X39804Y-44753D01*
X39779Y-44778D01*
X39779Y-45583D01*
X40289Y-45583D01*
X40314Y-45558D01*
X40314Y-45726D01*
X40289Y-45701D01*
X39779Y-45701D01*
X39779Y-46506D01*
X39804Y-46531D01*
X40192Y-46530D01*
X40232Y-46530D01*
X40269Y-46515D01*
X40298Y-46486D01*
X40313Y-46449D01*
X40314Y-45726D01*
X40314Y-48809D01*
X39661Y-48808D01*
X39661Y-46506D01*
X39661Y-45701D01*
X39661Y-45583D01*
X39661Y-44778D01*
X39636Y-44753D01*
X39248Y-44754D01*
X39208Y-44754D01*
X39171Y-44769D01*
X39142Y-44798D01*
X39127Y-44835D01*
X39126Y-45558D01*
X39151Y-45583D01*
X39661Y-45583D01*
X39661Y-45701D01*
X39151Y-45701D01*
X39126Y-45726D01*
X39127Y-46449D01*
X39142Y-46486D01*
X39171Y-46515D01*
X39208Y-46530D01*
X39248Y-46530D01*
X39636Y-46531D01*
X39661Y-46506D01*
X39661Y-48808D01*
X36764Y-48808D01*
X36764Y-46660D01*
X36764Y-46494D01*
X36764Y-45901D01*
X36764Y-45854D01*
X36764Y-45254D01*
X36746Y-45211D01*
X36713Y-45177D01*
X36670Y-45159D01*
X36623Y-45159D01*
X36023Y-45159D01*
X35980Y-45177D01*
X35946Y-45210D01*
X35928Y-45253D01*
X35928Y-45300D01*
X35928Y-45900D01*
X35946Y-45943D01*
X35979Y-45977D01*
X36022Y-45995D01*
X36069Y-45995D01*
X36669Y-45995D01*
X36712Y-45977D01*
X36746Y-45944D01*
X36764Y-45901D01*
X36764Y-46494D01*
X36700Y-46340D01*
X36583Y-46223D01*
X36429Y-46159D01*
X36263Y-46159D01*
X36109Y-46223D01*
X35992Y-46340D01*
X35928Y-46494D01*
X35928Y-46660D01*
X35992Y-46814D01*
X36109Y-46931D01*
X36263Y-46995D01*
X36429Y-46995D01*
X36583Y-46931D01*
X36700Y-46814D01*
X36764Y-46660D01*
X36764Y-48808D01*
X35764Y-48807D01*
X35764Y-45660D01*
X35764Y-45494D01*
X35700Y-45340D01*
X35583Y-45223D01*
X35429Y-45159D01*
X35334Y-45159D01*
X35334Y-41952D01*
X35334Y-41866D01*
X35301Y-41787D01*
X35240Y-41726D01*
X35161Y-41693D01*
X35075Y-41693D01*
X34996Y-41726D01*
X34935Y-41787D01*
X34902Y-41866D01*
X34902Y-41917D01*
X33935Y-42884D01*
X33296Y-42884D01*
X32892Y-42884D01*
X32836Y-42895D01*
X32788Y-42927D01*
X30518Y-45196D01*
X30429Y-45159D01*
X30263Y-45159D01*
X30109Y-45223D01*
X29992Y-45340D01*
X29989Y-45347D01*
X29989Y-44078D01*
X29989Y-43875D01*
X29964Y-43814D01*
X29911Y-43687D01*
X29768Y-43543D01*
X29580Y-43465D01*
X29377Y-43465D01*
X29189Y-43543D01*
X29045Y-43686D01*
X28967Y-43874D01*
X28967Y-44077D01*
X29045Y-44265D01*
X29188Y-44409D01*
X29376Y-44487D01*
X29579Y-44487D01*
X29767Y-44409D01*
X29911Y-44266D01*
X29964Y-44138D01*
X29989Y-44078D01*
X29989Y-45347D01*
X29964Y-45407D01*
X29928Y-45494D01*
X29928Y-45660D01*
X29964Y-45746D01*
X29992Y-45814D01*
X30109Y-45931D01*
X30263Y-45995D01*
X30429Y-45995D01*
X30583Y-45931D01*
X30700Y-45814D01*
X30764Y-45660D01*
X30764Y-45494D01*
X30726Y-45404D01*
X32953Y-43178D01*
X33296Y-43178D01*
X33996Y-43178D01*
X34052Y-43167D01*
X34053Y-43167D01*
X34100Y-43135D01*
X35109Y-42125D01*
X35161Y-42125D01*
X35240Y-42092D01*
X35301Y-42031D01*
X35334Y-41952D01*
X35334Y-45159D01*
X35263Y-45159D01*
X35148Y-45206D01*
X34399Y-44457D01*
X34399Y-44406D01*
X34366Y-44327D01*
X34305Y-44266D01*
X34226Y-44233D01*
X34140Y-44233D01*
X34061Y-44266D01*
X34000Y-44327D01*
X33967Y-44406D01*
X33967Y-44492D01*
X34000Y-44571D01*
X34061Y-44632D01*
X34140Y-44665D01*
X34191Y-44665D01*
X34955Y-45429D01*
X34928Y-45494D01*
X34928Y-45660D01*
X34992Y-45814D01*
X35109Y-45931D01*
X35263Y-45995D01*
X35429Y-45995D01*
X35583Y-45931D01*
X35700Y-45814D01*
X35764Y-45660D01*
X35764Y-48807D01*
X35746Y-48807D01*
X35746Y-46613D01*
X35729Y-46457D01*
X35702Y-46391D01*
X35651Y-46356D01*
X35567Y-46439D01*
X35567Y-46272D01*
X35532Y-46221D01*
X35382Y-46177D01*
X35226Y-46194D01*
X35160Y-46221D01*
X35125Y-46272D01*
X35346Y-46494D01*
X35567Y-46272D01*
X35567Y-46439D01*
X35429Y-46577D01*
X35651Y-46798D01*
X35702Y-46763D01*
X35746Y-46613D01*
X35746Y-48807D01*
X35567Y-48807D01*
X35567Y-46882D01*
X35346Y-46660D01*
X35263Y-46743D01*
X35263Y-46577D01*
X35041Y-46356D01*
X34990Y-46391D01*
X34946Y-46541D01*
X34963Y-46697D01*
X34990Y-46763D01*
X35041Y-46798D01*
X35263Y-46577D01*
X35263Y-46743D01*
X35125Y-46882D01*
X35160Y-46933D01*
X35310Y-46977D01*
X35466Y-46960D01*
X35532Y-46933D01*
X35567Y-46882D01*
X35567Y-48807D01*
X34764Y-48807D01*
X34764Y-46660D01*
X34764Y-46494D01*
X34764Y-45660D01*
X34764Y-45494D01*
X34700Y-45340D01*
X34583Y-45223D01*
X34429Y-45159D01*
X34263Y-45159D01*
X34109Y-45223D01*
X33992Y-45340D01*
X33928Y-45494D01*
X33928Y-45660D01*
X33992Y-45814D01*
X34109Y-45931D01*
X34263Y-45995D01*
X34429Y-45995D01*
X34583Y-45931D01*
X34700Y-45814D01*
X34764Y-45660D01*
X34764Y-46494D01*
X34700Y-46340D01*
X34583Y-46223D01*
X34429Y-46159D01*
X34263Y-46159D01*
X34109Y-46223D01*
X33992Y-46340D01*
X33928Y-46494D01*
X33928Y-46660D01*
X33992Y-46814D01*
X34109Y-46931D01*
X34263Y-46995D01*
X34429Y-46995D01*
X34583Y-46931D01*
X34700Y-46814D01*
X34764Y-46660D01*
X34764Y-48807D01*
X33764Y-48807D01*
X33764Y-45660D01*
X33764Y-45494D01*
X33700Y-45340D01*
X33583Y-45223D01*
X33429Y-45159D01*
X33263Y-45159D01*
X33109Y-45223D01*
X32992Y-45340D01*
X32928Y-45494D01*
X32928Y-45660D01*
X32992Y-45814D01*
X33109Y-45931D01*
X33263Y-45995D01*
X33429Y-45995D01*
X33583Y-45931D01*
X33700Y-45814D01*
X33764Y-45660D01*
X33764Y-48807D01*
X33746Y-48807D01*
X33746Y-46613D01*
X33729Y-46457D01*
X33702Y-46391D01*
X33651Y-46356D01*
X33567Y-46439D01*
X33567Y-46272D01*
X33532Y-46221D01*
X33382Y-46177D01*
X33226Y-46194D01*
X33160Y-46221D01*
X33125Y-46272D01*
X33346Y-46494D01*
X33567Y-46272D01*
X33567Y-46439D01*
X33429Y-46577D01*
X33651Y-46798D01*
X33702Y-46763D01*
X33746Y-46613D01*
X33746Y-48807D01*
X33567Y-48807D01*
X33567Y-46882D01*
X33346Y-46660D01*
X33263Y-46743D01*
X33263Y-46577D01*
X33041Y-46356D01*
X32990Y-46391D01*
X32946Y-46541D01*
X32963Y-46697D01*
X32990Y-46763D01*
X33041Y-46798D01*
X33263Y-46577D01*
X33263Y-46743D01*
X33125Y-46882D01*
X33160Y-46933D01*
X33310Y-46977D01*
X33466Y-46960D01*
X33532Y-46933D01*
X33567Y-46882D01*
X33567Y-48807D01*
X32764Y-48806D01*
X32764Y-46660D01*
X32764Y-46494D01*
X32764Y-45660D01*
X32764Y-45494D01*
X32700Y-45340D01*
X32583Y-45223D01*
X32429Y-45159D01*
X32263Y-45159D01*
X32109Y-45223D01*
X31992Y-45340D01*
X31928Y-45494D01*
X31928Y-45660D01*
X31992Y-45814D01*
X32109Y-45931D01*
X32263Y-45995D01*
X32429Y-45995D01*
X32583Y-45931D01*
X32700Y-45814D01*
X32764Y-45660D01*
X32764Y-46494D01*
X32700Y-46340D01*
X32583Y-46223D01*
X32429Y-46159D01*
X32263Y-46159D01*
X32109Y-46223D01*
X31992Y-46340D01*
X31928Y-46494D01*
X31928Y-46660D01*
X31992Y-46814D01*
X32109Y-46931D01*
X32263Y-46995D01*
X32429Y-46995D01*
X32583Y-46931D01*
X32700Y-46814D01*
X32764Y-46660D01*
X32764Y-48806D01*
X31764Y-48806D01*
X31764Y-45660D01*
X31764Y-45494D01*
X31700Y-45340D01*
X31583Y-45223D01*
X31429Y-45159D01*
X31263Y-45159D01*
X31109Y-45223D01*
X30992Y-45340D01*
X30928Y-45494D01*
X30928Y-45660D01*
X30992Y-45814D01*
X31109Y-45931D01*
X31263Y-45995D01*
X31429Y-45995D01*
X31583Y-45931D01*
X31700Y-45814D01*
X31764Y-45660D01*
X31764Y-48806D01*
X31746Y-48806D01*
X31746Y-46613D01*
X31729Y-46457D01*
X31702Y-46391D01*
X31651Y-46356D01*
X31567Y-46439D01*
X31567Y-46272D01*
X31532Y-46221D01*
X31382Y-46177D01*
X31226Y-46194D01*
X31160Y-46221D01*
X31125Y-46272D01*
X31346Y-46494D01*
X31567Y-46272D01*
X31567Y-46439D01*
X31429Y-46577D01*
X31651Y-46798D01*
X31702Y-46763D01*
X31746Y-46613D01*
X31746Y-48806D01*
X31567Y-48806D01*
X31567Y-46882D01*
X31346Y-46660D01*
X31263Y-46743D01*
X31263Y-46577D01*
X31041Y-46356D01*
X30990Y-46391D01*
X30946Y-46541D01*
X30963Y-46697D01*
X30990Y-46763D01*
X31041Y-46798D01*
X31263Y-46577D01*
X31263Y-46743D01*
X31125Y-46882D01*
X31160Y-46933D01*
X31310Y-46977D01*
X31466Y-46960D01*
X31532Y-46933D01*
X31567Y-46882D01*
X31567Y-48806D01*
X30764Y-48806D01*
X30764Y-46660D01*
X30764Y-46494D01*
X30700Y-46340D01*
X30583Y-46223D01*
X30429Y-46159D01*
X30263Y-46159D01*
X30109Y-46223D01*
X29992Y-46340D01*
X29964Y-46407D01*
X29928Y-46494D01*
X29928Y-46660D01*
X29964Y-46746D01*
X29992Y-46814D01*
X30109Y-46931D01*
X30263Y-46995D01*
X30429Y-46995D01*
X30583Y-46931D01*
X30700Y-46814D01*
X30764Y-46660D01*
X30764Y-48806D01*
X29964Y-48806D01*
X29764Y-48806D01*
X29764Y-45660D01*
X29764Y-45494D01*
X29700Y-45340D01*
X29583Y-45223D01*
X29429Y-45159D01*
X29263Y-45159D01*
X29109Y-45223D01*
X28992Y-45340D01*
X28928Y-45494D01*
X28928Y-45660D01*
X28992Y-45814D01*
X29109Y-45931D01*
X29263Y-45995D01*
X29429Y-45995D01*
X29583Y-45931D01*
X29700Y-45814D01*
X29764Y-45660D01*
X29764Y-48806D01*
X29746Y-48806D01*
X29746Y-46613D01*
X29729Y-46457D01*
X29702Y-46391D01*
X29651Y-46356D01*
X29567Y-46439D01*
X29567Y-46272D01*
X29532Y-46221D01*
X29382Y-46177D01*
X29226Y-46194D01*
X29160Y-46221D01*
X29125Y-46272D01*
X29346Y-46494D01*
X29567Y-46272D01*
X29567Y-46439D01*
X29429Y-46577D01*
X29651Y-46798D01*
X29702Y-46763D01*
X29746Y-46613D01*
X29746Y-48806D01*
X29567Y-48806D01*
X29567Y-46882D01*
X29346Y-46660D01*
X29263Y-46743D01*
X29263Y-46577D01*
X29041Y-46356D01*
X28990Y-46391D01*
X28946Y-46541D01*
X28963Y-46697D01*
X28990Y-46763D01*
X29041Y-46798D01*
X29263Y-46577D01*
X29263Y-46743D01*
X29125Y-46882D01*
X29160Y-46933D01*
X29310Y-46977D01*
X29466Y-46960D01*
X29532Y-46933D01*
X29567Y-46882D01*
X29567Y-48806D01*
X28764Y-48806D01*
X28764Y-46660D01*
X28764Y-46494D01*
X28764Y-45660D01*
X28764Y-45494D01*
X28700Y-45340D01*
X28583Y-45223D01*
X28429Y-45159D01*
X28263Y-45159D01*
X28109Y-45223D01*
X27992Y-45340D01*
X27928Y-45494D01*
X27928Y-45660D01*
X27992Y-45814D01*
X28109Y-45931D01*
X28263Y-45995D01*
X28429Y-45995D01*
X28583Y-45931D01*
X28700Y-45814D01*
X28764Y-45660D01*
X28764Y-46494D01*
X28700Y-46340D01*
X28583Y-46223D01*
X28429Y-46159D01*
X28263Y-46159D01*
X28109Y-46223D01*
X27992Y-46340D01*
X27928Y-46494D01*
X27928Y-46660D01*
X27992Y-46814D01*
X28109Y-46931D01*
X28263Y-46995D01*
X28429Y-46995D01*
X28583Y-46931D01*
X28700Y-46814D01*
X28764Y-46660D01*
X28764Y-48806D01*
X28110Y-48806D01*
X27764Y-48805D01*
X27764Y-45660D01*
X27764Y-45494D01*
X27700Y-45340D01*
X27583Y-45223D01*
X27429Y-45159D01*
X27263Y-45159D01*
X27109Y-45223D01*
X26992Y-45340D01*
X26928Y-45494D01*
X26928Y-45660D01*
X26992Y-45814D01*
X27109Y-45931D01*
X27263Y-45995D01*
X27429Y-45995D01*
X27583Y-45931D01*
X27700Y-45814D01*
X27764Y-45660D01*
X27764Y-48805D01*
X27746Y-48805D01*
X27746Y-46613D01*
X27729Y-46457D01*
X27702Y-46391D01*
X27651Y-46356D01*
X27567Y-46439D01*
X27567Y-46272D01*
X27532Y-46221D01*
X27382Y-46177D01*
X27226Y-46194D01*
X27160Y-46221D01*
X27125Y-46272D01*
X27346Y-46494D01*
X27567Y-46272D01*
X27567Y-46439D01*
X27429Y-46577D01*
X27651Y-46798D01*
X27702Y-46763D01*
X27746Y-46613D01*
X27746Y-48805D01*
X27567Y-48805D01*
X27567Y-46882D01*
X27346Y-46660D01*
X27263Y-46743D01*
X27263Y-46577D01*
X27041Y-46356D01*
X26990Y-46391D01*
X26946Y-46541D01*
X26963Y-46697D01*
X26990Y-46763D01*
X27041Y-46798D01*
X27263Y-46577D01*
X27263Y-46743D01*
X27125Y-46882D01*
X27160Y-46933D01*
X27310Y-46977D01*
X27466Y-46960D01*
X27532Y-46933D01*
X27567Y-46882D01*
X27567Y-48805D01*
X24862Y-48805D01*
X24862Y-43911D01*
X24862Y-43786D01*
X24814Y-43670D01*
X24726Y-43581D01*
X24610Y-43533D01*
X24485Y-43533D01*
X24369Y-43581D01*
X24280Y-43669D01*
X24248Y-43745D01*
X24228Y-43697D01*
X24167Y-43636D01*
X24088Y-43603D01*
X24002Y-43603D01*
X23923Y-43636D01*
X23862Y-43697D01*
X23829Y-43776D01*
X23829Y-43827D01*
X23642Y-44014D01*
X23642Y-43852D01*
X23642Y-43727D01*
X23594Y-43611D01*
X23506Y-43522D01*
X23390Y-43474D01*
X23265Y-43474D01*
X23149Y-43522D01*
X23060Y-43610D01*
X23012Y-43726D01*
X23012Y-43780D01*
X22996Y-43764D01*
X22917Y-43731D01*
X22831Y-43731D01*
X22752Y-43764D01*
X22716Y-43800D01*
X20879Y-43800D01*
X20246Y-43167D01*
X20246Y-43116D01*
X20213Y-43037D01*
X20152Y-42976D01*
X20073Y-42943D01*
X19987Y-42943D01*
X19908Y-42976D01*
X19847Y-43037D01*
X19814Y-43116D01*
X19814Y-43202D01*
X19847Y-43281D01*
X19908Y-43342D01*
X19987Y-43375D01*
X20038Y-43375D01*
X20714Y-44051D01*
X20761Y-44082D01*
X20762Y-44083D01*
X20818Y-44094D01*
X22716Y-44094D01*
X22752Y-44130D01*
X22831Y-44163D01*
X22917Y-44163D01*
X22996Y-44130D01*
X23057Y-44069D01*
X23087Y-43995D01*
X23148Y-44056D01*
X23264Y-44104D01*
X23389Y-44104D01*
X23505Y-44056D01*
X23594Y-43968D01*
X23642Y-43852D01*
X23642Y-44014D01*
X23403Y-44253D01*
X19942Y-44253D01*
X19915Y-44226D01*
X19836Y-44193D01*
X19750Y-44193D01*
X19671Y-44226D01*
X19610Y-44287D01*
X19577Y-44366D01*
X19577Y-44452D01*
X19610Y-44531D01*
X19671Y-44592D01*
X19750Y-44625D01*
X19836Y-44625D01*
X19915Y-44592D01*
X19960Y-44547D01*
X23464Y-44547D01*
X23520Y-44536D01*
X23521Y-44536D01*
X23568Y-44504D01*
X24036Y-44035D01*
X24088Y-44035D01*
X24167Y-44002D01*
X24228Y-43941D01*
X24236Y-43920D01*
X24280Y-44026D01*
X24368Y-44115D01*
X24484Y-44163D01*
X24609Y-44163D01*
X24725Y-44115D01*
X24814Y-44027D01*
X24862Y-43911D01*
X24862Y-48805D01*
X22761Y-48804D01*
X22761Y-46769D01*
X22761Y-46722D01*
X22761Y-46122D01*
X22743Y-46079D01*
X22743Y-45481D01*
X22726Y-45325D01*
X22699Y-45259D01*
X22648Y-45224D01*
X22564Y-45307D01*
X22564Y-45140D01*
X22529Y-45089D01*
X22379Y-45045D01*
X22223Y-45062D01*
X22157Y-45089D01*
X22122Y-45140D01*
X22343Y-45362D01*
X22564Y-45140D01*
X22564Y-45307D01*
X22426Y-45445D01*
X22648Y-45666D01*
X22699Y-45631D01*
X22743Y-45481D01*
X22743Y-46079D01*
X22710Y-46045D01*
X22667Y-46027D01*
X22620Y-46027D01*
X22564Y-46027D01*
X22564Y-45750D01*
X22343Y-45528D01*
X22260Y-45611D01*
X22260Y-45445D01*
X22038Y-45224D01*
X21987Y-45259D01*
X21943Y-45409D01*
X21960Y-45565D01*
X21987Y-45631D01*
X22038Y-45666D01*
X22260Y-45445D01*
X22260Y-45611D01*
X22122Y-45750D01*
X22157Y-45801D01*
X22307Y-45845D01*
X22463Y-45828D01*
X22529Y-45801D01*
X22564Y-45750D01*
X22564Y-46027D01*
X22020Y-46027D01*
X21977Y-46045D01*
X21943Y-46078D01*
X21925Y-46121D01*
X21925Y-46168D01*
X21925Y-46768D01*
X21943Y-46811D01*
X21976Y-46845D01*
X22019Y-46863D01*
X22066Y-46863D01*
X22666Y-46863D01*
X22709Y-46845D01*
X22743Y-46812D01*
X22761Y-46769D01*
X22761Y-48804D01*
X21742Y-48804D01*
X21742Y-45329D01*
X21742Y-45204D01*
X21694Y-45088D01*
X21606Y-44999D01*
X21490Y-44951D01*
X21365Y-44951D01*
X21249Y-44999D01*
X21160Y-45087D01*
X21112Y-45203D01*
X21112Y-45328D01*
X21160Y-45444D01*
X21248Y-45533D01*
X21364Y-45581D01*
X21489Y-45581D01*
X21605Y-45533D01*
X21694Y-45445D01*
X21742Y-45329D01*
X21742Y-48804D01*
X18467Y-48804D01*
X18466Y-48525D01*
X18485Y-48499D01*
X18500Y-48425D01*
X18500Y-20039D01*
X18485Y-19965D01*
X18456Y-19922D01*
X18456Y-19601D01*
X25577Y-19593D01*
X42505Y-19593D01*
X43242Y-20482D01*
X43242Y-44737D01*
X43220Y-44737D01*
X42302Y-44737D01*
X42958Y-44081D01*
X42989Y-44034D01*
X42990Y-44033D01*
X43001Y-43977D01*
X43001Y-43208D01*
X43001Y-38025D01*
X42990Y-37969D01*
X42989Y-37968D01*
X42958Y-37921D01*
X42955Y-37919D01*
X42505Y-37468D01*
X42505Y-37286D01*
X42837Y-36954D01*
X42905Y-36852D01*
X42905Y-36851D01*
X42929Y-36731D01*
X42929Y-30016D01*
X42905Y-29895D01*
X42837Y-29793D01*
X42834Y-29791D01*
X39724Y-26680D01*
X39724Y-26417D01*
X39724Y-22755D01*
X39723Y-22754D01*
X39724Y-22754D01*
X39700Y-22634D01*
X39632Y-22532D01*
X39629Y-22530D01*
X38816Y-21716D01*
X38714Y-21648D01*
X38705Y-21646D01*
X38244Y-21184D01*
X38142Y-21116D01*
X38021Y-21092D01*
X34941Y-21092D01*
X34184Y-21092D01*
X32225Y-21092D01*
X30423Y-21092D01*
X27205Y-21092D01*
X27198Y-21087D01*
X27077Y-21063D01*
X25286Y-21063D01*
X20158Y-21063D01*
X20037Y-21087D01*
X19935Y-21155D01*
X18940Y-22150D01*
X18872Y-22252D01*
X18848Y-22373D01*
X18848Y-35698D01*
X18872Y-35819D01*
X18940Y-35921D01*
X19173Y-36153D01*
X19173Y-39056D01*
X19173Y-42165D01*
X19197Y-42286D01*
X19265Y-42388D01*
X19460Y-42582D01*
X19462Y-42585D01*
X19564Y-42653D01*
X19685Y-42677D01*
X23858Y-42677D01*
X23978Y-42653D01*
X23979Y-42653D01*
X24081Y-42585D01*
X24593Y-42073D01*
X24854Y-41811D01*
X28071Y-41811D01*
X28071Y-42897D01*
X29441Y-42897D01*
X29441Y-42520D01*
X29463Y-42573D01*
X29524Y-42634D01*
X29603Y-42667D01*
X29689Y-42667D01*
X29768Y-42634D01*
X29824Y-42578D01*
X29964Y-42578D01*
X30394Y-42578D01*
X30450Y-42567D01*
X30451Y-42567D01*
X30498Y-42535D01*
X30573Y-42460D01*
X30605Y-42413D01*
X30605Y-42412D01*
X30616Y-42356D01*
X30616Y-41949D01*
X30685Y-41978D01*
X30771Y-41978D01*
X30850Y-41945D01*
X30886Y-41909D01*
X31788Y-41909D01*
X31844Y-41898D01*
X31845Y-41898D01*
X31892Y-41866D01*
X32253Y-41505D01*
X38217Y-41505D01*
X38239Y-41527D01*
X38239Y-41578D01*
X38272Y-41657D01*
X38333Y-41718D01*
X38412Y-41751D01*
X38498Y-41751D01*
X38577Y-41718D01*
X38638Y-41657D01*
X38671Y-41578D01*
X38671Y-41492D01*
X38638Y-41413D01*
X38577Y-41352D01*
X38498Y-41319D01*
X38447Y-41319D01*
X38382Y-41254D01*
X38335Y-41222D01*
X38278Y-41211D01*
X34884Y-41211D01*
X34889Y-41200D01*
X34889Y-41114D01*
X34856Y-41035D01*
X34820Y-40999D01*
X34820Y-40209D01*
X34856Y-40173D01*
X34889Y-40094D01*
X34889Y-40008D01*
X34856Y-39929D01*
X34795Y-39868D01*
X34716Y-39835D01*
X34630Y-39835D01*
X34551Y-39868D01*
X34490Y-39929D01*
X34457Y-40008D01*
X34457Y-40094D01*
X34490Y-40173D01*
X34526Y-40209D01*
X34526Y-40999D01*
X34515Y-41010D01*
X32726Y-41010D01*
X32167Y-40451D01*
X32167Y-40362D01*
X32189Y-40384D01*
X32268Y-40417D01*
X32354Y-40417D01*
X32433Y-40384D01*
X32494Y-40323D01*
X32527Y-40244D01*
X32527Y-40158D01*
X32494Y-40079D01*
X32433Y-40018D01*
X32354Y-39985D01*
X32302Y-39985D01*
X32090Y-39773D01*
X32296Y-39567D01*
X32308Y-39567D01*
X32299Y-39571D01*
X32238Y-39632D01*
X32205Y-39711D01*
X32205Y-39797D01*
X32238Y-39876D01*
X32299Y-39937D01*
X32378Y-39970D01*
X32429Y-39970D01*
X32522Y-40062D01*
X32524Y-40065D01*
X32571Y-40096D01*
X32572Y-40097D01*
X32616Y-40105D01*
X32627Y-40108D01*
X32627Y-40107D01*
X32628Y-40108D01*
X32686Y-40108D01*
X32722Y-40144D01*
X32801Y-40177D01*
X32887Y-40177D01*
X32966Y-40144D01*
X33027Y-40083D01*
X33060Y-40004D01*
X33060Y-39918D01*
X33027Y-39839D01*
X32966Y-39778D01*
X32887Y-39745D01*
X32801Y-39745D01*
X32722Y-39778D01*
X32687Y-39812D01*
X32637Y-39762D01*
X32637Y-39711D01*
X32604Y-39632D01*
X32543Y-39571D01*
X32533Y-39567D01*
X33227Y-39567D01*
X33209Y-39611D01*
X33209Y-39697D01*
X33242Y-39776D01*
X33303Y-39837D01*
X33382Y-39870D01*
X33468Y-39870D01*
X33547Y-39837D01*
X33608Y-39776D01*
X33641Y-39697D01*
X33641Y-39681D01*
X34673Y-39681D01*
X34793Y-39657D01*
X34794Y-39657D01*
X34896Y-39589D01*
X35488Y-38996D01*
X35793Y-38996D01*
X35689Y-39100D01*
X35611Y-39288D01*
X35611Y-39491D01*
X35689Y-39679D01*
X35832Y-39823D01*
X36020Y-39901D01*
X36223Y-39901D01*
X36411Y-39823D01*
X36555Y-39680D01*
X36596Y-39579D01*
X36634Y-39669D01*
X36777Y-39813D01*
X36965Y-39891D01*
X37168Y-39891D01*
X37356Y-39813D01*
X37500Y-39670D01*
X37578Y-39482D01*
X37578Y-39279D01*
X37500Y-39091D01*
X37405Y-38996D01*
X39045Y-38996D01*
X40659Y-38996D01*
X40779Y-38972D01*
X40780Y-38972D01*
X40882Y-38904D01*
X41710Y-38074D01*
X41669Y-38175D01*
X41669Y-38341D01*
X41733Y-38495D01*
X41850Y-38612D01*
X42004Y-38676D01*
X42170Y-38676D01*
X42324Y-38612D01*
X42441Y-38495D01*
X42505Y-38341D01*
X42505Y-38175D01*
X42441Y-38021D01*
X42324Y-37904D01*
X42170Y-37840D01*
X42004Y-37840D01*
X41903Y-37881D01*
X42109Y-37676D01*
X42297Y-37676D01*
X42707Y-38085D01*
X42707Y-43208D01*
X42707Y-43810D01*
X42686Y-43789D01*
X42686Y-43139D01*
X42685Y-43138D01*
X42686Y-43138D01*
X42683Y-43127D01*
X42675Y-43083D01*
X42674Y-43082D01*
X42643Y-43035D01*
X42640Y-43033D01*
X42487Y-42879D01*
X42487Y-39294D01*
X42470Y-39138D01*
X42443Y-39072D01*
X42392Y-39037D01*
X42308Y-39120D01*
X42308Y-38953D01*
X42273Y-38902D01*
X42123Y-38858D01*
X41967Y-38875D01*
X41901Y-38902D01*
X41866Y-38953D01*
X42087Y-39175D01*
X42308Y-38953D01*
X42308Y-39120D01*
X42170Y-39258D01*
X42392Y-39479D01*
X42443Y-39444D01*
X42487Y-39294D01*
X42487Y-42879D01*
X42381Y-42773D01*
X42381Y-40872D01*
X42381Y-40825D01*
X42381Y-40275D01*
X42363Y-40232D01*
X42330Y-40198D01*
X42308Y-40188D01*
X42308Y-39563D01*
X42087Y-39341D01*
X42004Y-39424D01*
X42004Y-39258D01*
X41782Y-39037D01*
X41731Y-39072D01*
X41687Y-39222D01*
X41704Y-39378D01*
X41731Y-39444D01*
X41782Y-39479D01*
X42004Y-39258D01*
X42004Y-39424D01*
X41866Y-39563D01*
X41901Y-39614D01*
X42051Y-39658D01*
X42207Y-39641D01*
X42273Y-39614D01*
X42308Y-39563D01*
X42308Y-40188D01*
X42287Y-40180D01*
X42240Y-40180D01*
X41690Y-40180D01*
X41647Y-40198D01*
X41613Y-40231D01*
X41595Y-40274D01*
X41595Y-40321D01*
X41595Y-40871D01*
X41613Y-40914D01*
X41646Y-40948D01*
X41689Y-40966D01*
X41736Y-40966D01*
X42286Y-40966D01*
X42329Y-40948D01*
X42363Y-40915D01*
X42381Y-40872D01*
X42381Y-42773D01*
X42363Y-42755D01*
X42363Y-41603D01*
X42346Y-41457D01*
X42323Y-41402D01*
X42275Y-41369D01*
X42192Y-41452D01*
X42192Y-41286D01*
X42159Y-41238D01*
X42018Y-41198D01*
X41872Y-41215D01*
X41817Y-41238D01*
X41784Y-41286D01*
X41988Y-41490D01*
X42192Y-41286D01*
X42192Y-41452D01*
X42071Y-41573D01*
X42275Y-41777D01*
X42323Y-41744D01*
X42363Y-41603D01*
X42363Y-42755D01*
X42192Y-42584D01*
X42192Y-41860D01*
X41988Y-41656D01*
X41905Y-41739D01*
X41905Y-41573D01*
X41701Y-41369D01*
X41653Y-41402D01*
X41613Y-41543D01*
X41630Y-41689D01*
X41653Y-41744D01*
X41701Y-41777D01*
X41905Y-41573D01*
X41905Y-41739D01*
X41784Y-41860D01*
X41817Y-41908D01*
X41958Y-41948D01*
X42104Y-41931D01*
X42159Y-41908D01*
X42192Y-41860D01*
X42192Y-42584D01*
X41732Y-42124D01*
X41732Y-42073D01*
X41699Y-41994D01*
X41638Y-41933D01*
X41559Y-41900D01*
X41473Y-41900D01*
X41394Y-41933D01*
X41386Y-41941D01*
X41386Y-41651D01*
X41386Y-41495D01*
X41371Y-41459D01*
X41371Y-40657D01*
X41371Y-40489D01*
X41370Y-40278D01*
X41355Y-40241D01*
X41326Y-40212D01*
X41289Y-40197D01*
X41249Y-40197D01*
X41078Y-40196D01*
X41053Y-40221D01*
X41053Y-40514D01*
X41346Y-40514D01*
X41371Y-40489D01*
X41371Y-40657D01*
X41346Y-40632D01*
X41053Y-40632D01*
X41053Y-40925D01*
X41078Y-40950D01*
X41249Y-40949D01*
X41289Y-40949D01*
X41326Y-40934D01*
X41355Y-40905D01*
X41370Y-40868D01*
X41371Y-40657D01*
X41371Y-41459D01*
X41326Y-41351D01*
X41216Y-41241D01*
X41072Y-41181D01*
X40935Y-41181D01*
X40935Y-40925D01*
X40935Y-40632D01*
X40935Y-40514D01*
X40935Y-40221D01*
X40910Y-40196D01*
X40739Y-40197D01*
X40699Y-40197D01*
X40662Y-40212D01*
X40633Y-40241D01*
X40618Y-40278D01*
X40617Y-40489D01*
X40642Y-40514D01*
X40935Y-40514D01*
X40935Y-40632D01*
X40642Y-40632D01*
X40617Y-40657D01*
X40618Y-40868D01*
X40633Y-40905D01*
X40662Y-40934D01*
X40699Y-40949D01*
X40739Y-40949D01*
X40910Y-40950D01*
X40935Y-40925D01*
X40935Y-41181D01*
X40916Y-41181D01*
X40772Y-41241D01*
X40662Y-41351D01*
X40602Y-41495D01*
X40602Y-41651D01*
X40662Y-41795D01*
X40772Y-41905D01*
X40916Y-41965D01*
X41072Y-41965D01*
X41216Y-41905D01*
X41326Y-41795D01*
X41386Y-41651D01*
X41386Y-41941D01*
X41333Y-41994D01*
X41300Y-42073D01*
X41300Y-42159D01*
X41333Y-42238D01*
X41394Y-42299D01*
X41473Y-42332D01*
X41524Y-42332D01*
X42392Y-43199D01*
X42392Y-43789D01*
X42356Y-43825D01*
X42323Y-43904D01*
X42323Y-43990D01*
X42356Y-44069D01*
X42417Y-44130D01*
X42470Y-44152D01*
X42046Y-44577D01*
X41735Y-44577D01*
X41740Y-44567D01*
X41740Y-44481D01*
X41707Y-44402D01*
X41675Y-44370D01*
X41675Y-43867D01*
X41711Y-43831D01*
X41744Y-43752D01*
X41744Y-43666D01*
X41711Y-43587D01*
X41650Y-43526D01*
X41571Y-43493D01*
X41485Y-43493D01*
X41476Y-43496D01*
X41476Y-43477D01*
X41492Y-43484D01*
X41578Y-43484D01*
X41657Y-43451D01*
X41718Y-43390D01*
X41751Y-43311D01*
X41751Y-43225D01*
X41718Y-43146D01*
X41657Y-43085D01*
X41578Y-43052D01*
X41492Y-43052D01*
X41413Y-43085D01*
X41377Y-43121D01*
X39182Y-43121D01*
X39199Y-43104D01*
X39232Y-43025D01*
X39232Y-42939D01*
X39221Y-42913D01*
X40925Y-42913D01*
X40961Y-42949D01*
X41040Y-42982D01*
X41126Y-42982D01*
X41205Y-42949D01*
X41266Y-42888D01*
X41299Y-42809D01*
X41299Y-42723D01*
X41266Y-42644D01*
X41205Y-42583D01*
X41126Y-42550D01*
X41040Y-42550D01*
X40961Y-42583D01*
X40925Y-42619D01*
X38238Y-42619D01*
X38182Y-42630D01*
X38134Y-42662D01*
X38133Y-42662D01*
X38133Y-42663D01*
X37744Y-43052D01*
X37693Y-43052D01*
X37614Y-43085D01*
X37553Y-43146D01*
X37520Y-43225D01*
X37520Y-43311D01*
X37553Y-43390D01*
X37614Y-43451D01*
X37693Y-43484D01*
X37779Y-43484D01*
X37858Y-43451D01*
X37888Y-43420D01*
X37919Y-43451D01*
X37998Y-43484D01*
X38084Y-43484D01*
X38163Y-43451D01*
X38199Y-43415D01*
X41066Y-43415D01*
X41044Y-43469D01*
X41044Y-43555D01*
X41077Y-43634D01*
X41113Y-43670D01*
X41113Y-44338D01*
X41053Y-44398D01*
X41023Y-44467D01*
X40570Y-44014D01*
X40570Y-43963D01*
X40537Y-43884D01*
X40476Y-43823D01*
X40397Y-43790D01*
X40311Y-43790D01*
X40232Y-43823D01*
X40171Y-43884D01*
X40138Y-43963D01*
X40138Y-44049D01*
X40171Y-44128D01*
X40232Y-44189D01*
X40311Y-44222D01*
X40362Y-44222D01*
X40877Y-44737D01*
X40819Y-44737D01*
X40776Y-44755D01*
X40742Y-44788D01*
X40724Y-44831D01*
X40724Y-44878D01*
X40724Y-46452D01*
X40742Y-46495D01*
X40775Y-46529D01*
X40818Y-46547D01*
X40865Y-46547D01*
X41849Y-46547D01*
X41892Y-46529D01*
X41926Y-46496D01*
X41944Y-46453D01*
X41944Y-46406D01*
X41944Y-44871D01*
X42107Y-44871D01*
X42141Y-44864D01*
X42141Y-44878D01*
X42141Y-46452D01*
X42159Y-46495D01*
X42192Y-46529D01*
X42235Y-46547D01*
X42282Y-46547D01*
X43242Y-46547D01*
X43242Y-48277D01*
X43257Y-48351D01*
X43285Y-48392D01*
X43285Y-48810D01*
X43285Y-48810D01*
G37*
G54D25*
X43285Y-48810D02*
X41570Y-48809D01*
X41570Y-47686D01*
X41570Y-47537D01*
X41513Y-47400D01*
X41408Y-47294D01*
X41271Y-47237D01*
X41122Y-47237D01*
X40985Y-47294D01*
X40879Y-47399D01*
X40822Y-47536D01*
X40822Y-47685D01*
X40879Y-47822D01*
X40984Y-47928D01*
X41121Y-47985D01*
X41270Y-47985D01*
X41407Y-47928D01*
X41513Y-47823D01*
X41570Y-47686D01*
X41570Y-48809D01*
X40314Y-48809D01*
X40314Y-45726D01*
X40314Y-45558D01*
X40313Y-44835D01*
X40298Y-44798D01*
X40269Y-44769D01*
X40232Y-44754D01*
X40192Y-44754D01*
X39804Y-44753D01*
X39779Y-44778D01*
X39779Y-45583D01*
X40289Y-45583D01*
X40314Y-45558D01*
X40314Y-45726D01*
X40289Y-45701D01*
X39779Y-45701D01*
X39779Y-46506D01*
X39804Y-46531D01*
X40192Y-46530D01*
X40232Y-46530D01*
X40269Y-46515D01*
X40298Y-46486D01*
X40313Y-46449D01*
X40314Y-45726D01*
X40314Y-48809D01*
X39661Y-48808D01*
X39661Y-46506D01*
X39661Y-45701D01*
X39661Y-45583D01*
X39661Y-44778D01*
X39636Y-44753D01*
X39248Y-44754D01*
X39208Y-44754D01*
X39171Y-44769D01*
X39142Y-44798D01*
X39127Y-44835D01*
X39126Y-45558D01*
X39151Y-45583D01*
X39661Y-45583D01*
X39661Y-45701D01*
X39151Y-45701D01*
X39126Y-45726D01*
X39127Y-46449D01*
X39142Y-46486D01*
X39171Y-46515D01*
X39208Y-46530D01*
X39248Y-46530D01*
X39636Y-46531D01*
X39661Y-46506D01*
X39661Y-48808D01*
X36764Y-48808D01*
X36764Y-46660D01*
X36764Y-46494D01*
X36764Y-45901D01*
X36764Y-45854D01*
X36764Y-45254D01*
X36746Y-45211D01*
X36713Y-45177D01*
X36670Y-45159D01*
X36623Y-45159D01*
X36023Y-45159D01*
X35980Y-45177D01*
X35946Y-45210D01*
X35928Y-45253D01*
X35928Y-45300D01*
X35928Y-45900D01*
X35946Y-45943D01*
X35979Y-45977D01*
X36022Y-45995D01*
X36069Y-45995D01*
X36669Y-45995D01*
X36712Y-45977D01*
X36746Y-45944D01*
X36764Y-45901D01*
X36764Y-46494D01*
X36700Y-46340D01*
X36583Y-46223D01*
X36429Y-46159D01*
X36263Y-46159D01*
X36109Y-46223D01*
X35992Y-46340D01*
X35928Y-46494D01*
X35928Y-46660D01*
X35992Y-46814D01*
X36109Y-46931D01*
X36263Y-46995D01*
X36429Y-46995D01*
X36583Y-46931D01*
X36700Y-46814D01*
X36764Y-46660D01*
X36764Y-48808D01*
X35764Y-48807D01*
X35764Y-45660D01*
X35764Y-45494D01*
X35700Y-45340D01*
X35583Y-45223D01*
X35429Y-45159D01*
X35334Y-45159D01*
X35334Y-41952D01*
X35334Y-41866D01*
X35301Y-41787D01*
X35240Y-41726D01*
X35161Y-41693D01*
X35075Y-41693D01*
X34996Y-41726D01*
X34935Y-41787D01*
X34902Y-41866D01*
X34902Y-41917D01*
X33935Y-42884D01*
X33296Y-42884D01*
X32892Y-42884D01*
X32836Y-42895D01*
X32788Y-42927D01*
X30518Y-45196D01*
X30429Y-45159D01*
X30263Y-45159D01*
X30109Y-45223D01*
X29992Y-45340D01*
X29989Y-45347D01*
X29989Y-44078D01*
X29989Y-43875D01*
X29964Y-43814D01*
X29911Y-43687D01*
X29768Y-43543D01*
X29580Y-43465D01*
X29377Y-43465D01*
X29189Y-43543D01*
X29045Y-43686D01*
X28967Y-43874D01*
X28967Y-44077D01*
X29045Y-44265D01*
X29188Y-44409D01*
X29376Y-44487D01*
X29579Y-44487D01*
X29767Y-44409D01*
X29911Y-44266D01*
X29964Y-44138D01*
X29989Y-44078D01*
X29989Y-45347D01*
X29964Y-45407D01*
X29928Y-45494D01*
X29928Y-45660D01*
X29964Y-45746D01*
X29992Y-45814D01*
X30109Y-45931D01*
X30263Y-45995D01*
X30429Y-45995D01*
X30583Y-45931D01*
X30700Y-45814D01*
X30764Y-45660D01*
X30764Y-45494D01*
X30726Y-45404D01*
X32953Y-43178D01*
X33296Y-43178D01*
X33996Y-43178D01*
X34052Y-43167D01*
X34053Y-43167D01*
X34100Y-43135D01*
X35109Y-42125D01*
X35161Y-42125D01*
X35240Y-42092D01*
X35301Y-42031D01*
X35334Y-41952D01*
X35334Y-45159D01*
X35263Y-45159D01*
X35148Y-45206D01*
X34399Y-44457D01*
X34399Y-44406D01*
X34366Y-44327D01*
X34305Y-44266D01*
X34226Y-44233D01*
X34140Y-44233D01*
X34061Y-44266D01*
X34000Y-44327D01*
X33967Y-44406D01*
X33967Y-44492D01*
X34000Y-44571D01*
X34061Y-44632D01*
X34140Y-44665D01*
X34191Y-44665D01*
X34955Y-45429D01*
X34928Y-45494D01*
X34928Y-45660D01*
X34992Y-45814D01*
X35109Y-45931D01*
X35263Y-45995D01*
X35429Y-45995D01*
X35583Y-45931D01*
X35700Y-45814D01*
X35764Y-45660D01*
X35764Y-48807D01*
X35746Y-48807D01*
X35746Y-46613D01*
X35729Y-46457D01*
X35702Y-46391D01*
X35651Y-46356D01*
X35567Y-46439D01*
X35567Y-46272D01*
X35532Y-46221D01*
X35382Y-46177D01*
X35226Y-46194D01*
X35160Y-46221D01*
X35125Y-46272D01*
X35346Y-46494D01*
X35567Y-46272D01*
X35567Y-46439D01*
X35429Y-46577D01*
X35651Y-46798D01*
X35702Y-46763D01*
X35746Y-46613D01*
X35746Y-48807D01*
X35567Y-48807D01*
X35567Y-46882D01*
X35346Y-46660D01*
X35263Y-46743D01*
X35263Y-46577D01*
X35041Y-46356D01*
X34990Y-46391D01*
X34946Y-46541D01*
X34963Y-46697D01*
X34990Y-46763D01*
X35041Y-46798D01*
X35263Y-46577D01*
X35263Y-46743D01*
X35125Y-46882D01*
X35160Y-46933D01*
X35310Y-46977D01*
X35466Y-46960D01*
X35532Y-46933D01*
X35567Y-46882D01*
X35567Y-48807D01*
X34764Y-48807D01*
X34764Y-46660D01*
X34764Y-46494D01*
X34764Y-45660D01*
X34764Y-45494D01*
X34700Y-45340D01*
X34583Y-45223D01*
X34429Y-45159D01*
X34263Y-45159D01*
X34109Y-45223D01*
X33992Y-45340D01*
X33928Y-45494D01*
X33928Y-45660D01*
X33992Y-45814D01*
X34109Y-45931D01*
X34263Y-45995D01*
X34429Y-45995D01*
X34583Y-45931D01*
X34700Y-45814D01*
X34764Y-45660D01*
X34764Y-46494D01*
X34700Y-46340D01*
X34583Y-46223D01*
X34429Y-46159D01*
X34263Y-46159D01*
X34109Y-46223D01*
X33992Y-46340D01*
X33928Y-46494D01*
X33928Y-46660D01*
X33992Y-46814D01*
X34109Y-46931D01*
X34263Y-46995D01*
X34429Y-46995D01*
X34583Y-46931D01*
X34700Y-46814D01*
X34764Y-46660D01*
X34764Y-48807D01*
X33764Y-48807D01*
X33764Y-45660D01*
X33764Y-45494D01*
X33700Y-45340D01*
X33583Y-45223D01*
X33429Y-45159D01*
X33263Y-45159D01*
X33109Y-45223D01*
X32992Y-45340D01*
X32928Y-45494D01*
X32928Y-45660D01*
X32992Y-45814D01*
X33109Y-45931D01*
X33263Y-45995D01*
X33429Y-45995D01*
X33583Y-45931D01*
X33700Y-45814D01*
X33764Y-45660D01*
X33764Y-48807D01*
X33746Y-48807D01*
X33746Y-46613D01*
X33729Y-46457D01*
X33702Y-46391D01*
X33651Y-46356D01*
X33567Y-46439D01*
X33567Y-46272D01*
X33532Y-46221D01*
X33382Y-46177D01*
X33226Y-46194D01*
X33160Y-46221D01*
X33125Y-46272D01*
X33346Y-46494D01*
X33567Y-46272D01*
X33567Y-46439D01*
X33429Y-46577D01*
X33651Y-46798D01*
X33702Y-46763D01*
X33746Y-46613D01*
X33746Y-48807D01*
X33567Y-48807D01*
X33567Y-46882D01*
X33346Y-46660D01*
X33263Y-46743D01*
X33263Y-46577D01*
X33041Y-46356D01*
X32990Y-46391D01*
X32946Y-46541D01*
X32963Y-46697D01*
X32990Y-46763D01*
X33041Y-46798D01*
X33263Y-46577D01*
X33263Y-46743D01*
X33125Y-46882D01*
X33160Y-46933D01*
X33310Y-46977D01*
X33466Y-46960D01*
X33532Y-46933D01*
X33567Y-46882D01*
X33567Y-48807D01*
X32764Y-48806D01*
X32764Y-46660D01*
X32764Y-46494D01*
X32764Y-45660D01*
X32764Y-45494D01*
X32700Y-45340D01*
X32583Y-45223D01*
X32429Y-45159D01*
X32263Y-45159D01*
X32109Y-45223D01*
X31992Y-45340D01*
X31928Y-45494D01*
X31928Y-45660D01*
X31992Y-45814D01*
X32109Y-45931D01*
X32263Y-45995D01*
X32429Y-45995D01*
X32583Y-45931D01*
X32700Y-45814D01*
X32764Y-45660D01*
X32764Y-46494D01*
X32700Y-46340D01*
X32583Y-46223D01*
X32429Y-46159D01*
X32263Y-46159D01*
X32109Y-46223D01*
X31992Y-46340D01*
X31928Y-46494D01*
X31928Y-46660D01*
X31992Y-46814D01*
X32109Y-46931D01*
X32263Y-46995D01*
X32429Y-46995D01*
X32583Y-46931D01*
X32700Y-46814D01*
X32764Y-46660D01*
X32764Y-48806D01*
X31764Y-48806D01*
X31764Y-45660D01*
X31764Y-45494D01*
X31700Y-45340D01*
X31583Y-45223D01*
X31429Y-45159D01*
X31263Y-45159D01*
X31109Y-45223D01*
X30992Y-45340D01*
X30928Y-45494D01*
X30928Y-45660D01*
X30992Y-45814D01*
X31109Y-45931D01*
X31263Y-45995D01*
X31429Y-45995D01*
X31583Y-45931D01*
X31700Y-45814D01*
X31764Y-45660D01*
X31764Y-48806D01*
X31746Y-48806D01*
X31746Y-46613D01*
X31729Y-46457D01*
X31702Y-46391D01*
X31651Y-46356D01*
X31567Y-46439D01*
X31567Y-46272D01*
X31532Y-46221D01*
X31382Y-46177D01*
X31226Y-46194D01*
X31160Y-46221D01*
X31125Y-46272D01*
X31346Y-46494D01*
X31567Y-46272D01*
X31567Y-46439D01*
X31429Y-46577D01*
X31651Y-46798D01*
X31702Y-46763D01*
X31746Y-46613D01*
X31746Y-48806D01*
X31567Y-48806D01*
X31567Y-46882D01*
X31346Y-46660D01*
X31263Y-46743D01*
X31263Y-46577D01*
X31041Y-46356D01*
X30990Y-46391D01*
X30946Y-46541D01*
X30963Y-46697D01*
X30990Y-46763D01*
X31041Y-46798D01*
X31263Y-46577D01*
X31263Y-46743D01*
X31125Y-46882D01*
X31160Y-46933D01*
X31310Y-46977D01*
X31466Y-46960D01*
X31532Y-46933D01*
X31567Y-46882D01*
X31567Y-48806D01*
X30764Y-48806D01*
X30764Y-46660D01*
X30764Y-46494D01*
X30700Y-46340D01*
X30583Y-46223D01*
X30429Y-46159D01*
X30263Y-46159D01*
X30109Y-46223D01*
X29992Y-46340D01*
X29964Y-46407D01*
X29928Y-46494D01*
X29928Y-46660D01*
X29964Y-46746D01*
X29992Y-46814D01*
X30109Y-46931D01*
X30263Y-46995D01*
X30429Y-46995D01*
X30583Y-46931D01*
X30700Y-46814D01*
X30764Y-46660D01*
X30764Y-48806D01*
X29964Y-48806D01*
X29764Y-48806D01*
X29764Y-45660D01*
X29764Y-45494D01*
X29700Y-45340D01*
X29583Y-45223D01*
X29429Y-45159D01*
X29263Y-45159D01*
X29109Y-45223D01*
X28992Y-45340D01*
X28928Y-45494D01*
X28928Y-45660D01*
X28992Y-45814D01*
X29109Y-45931D01*
X29263Y-45995D01*
X29429Y-45995D01*
X29583Y-45931D01*
X29700Y-45814D01*
X29764Y-45660D01*
X29764Y-48806D01*
X29746Y-48806D01*
X29746Y-46613D01*
X29729Y-46457D01*
X29702Y-46391D01*
X29651Y-46356D01*
X29567Y-46439D01*
X29567Y-46272D01*
X29532Y-46221D01*
X29382Y-46177D01*
X29226Y-46194D01*
X29160Y-46221D01*
X29125Y-46272D01*
X29346Y-46494D01*
X29567Y-46272D01*
X29567Y-46439D01*
X29429Y-46577D01*
X29651Y-46798D01*
X29702Y-46763D01*
X29746Y-46613D01*
X29746Y-48806D01*
X29567Y-48806D01*
X29567Y-46882D01*
X29346Y-46660D01*
X29263Y-46743D01*
X29263Y-46577D01*
X29041Y-46356D01*
X28990Y-46391D01*
X28946Y-46541D01*
X28963Y-46697D01*
X28990Y-46763D01*
X29041Y-46798D01*
X29263Y-46577D01*
X29263Y-46743D01*
X29125Y-46882D01*
X29160Y-46933D01*
X29310Y-46977D01*
X29466Y-46960D01*
X29532Y-46933D01*
X29567Y-46882D01*
X29567Y-48806D01*
X28764Y-48806D01*
X28764Y-46660D01*
X28764Y-46494D01*
X28764Y-45660D01*
X28764Y-45494D01*
X28700Y-45340D01*
X28583Y-45223D01*
X28429Y-45159D01*
X28263Y-45159D01*
X28109Y-45223D01*
X27992Y-45340D01*
X27928Y-45494D01*
X27928Y-45660D01*
X27992Y-45814D01*
X28109Y-45931D01*
X28263Y-45995D01*
X28429Y-45995D01*
X28583Y-45931D01*
X28700Y-45814D01*
X28764Y-45660D01*
X28764Y-46494D01*
X28700Y-46340D01*
X28583Y-46223D01*
X28429Y-46159D01*
X28263Y-46159D01*
X28109Y-46223D01*
X27992Y-46340D01*
X27928Y-46494D01*
X27928Y-46660D01*
X27992Y-46814D01*
X28109Y-46931D01*
X28263Y-46995D01*
X28429Y-46995D01*
X28583Y-46931D01*
X28700Y-46814D01*
X28764Y-46660D01*
X28764Y-48806D01*
X28110Y-48806D01*
X27764Y-48805D01*
X27764Y-45660D01*
X27764Y-45494D01*
X27700Y-45340D01*
X27583Y-45223D01*
X27429Y-45159D01*
X27263Y-45159D01*
X27109Y-45223D01*
X26992Y-45340D01*
X26928Y-45494D01*
X26928Y-45660D01*
X26992Y-45814D01*
X27109Y-45931D01*
X27263Y-45995D01*
X27429Y-45995D01*
X27583Y-45931D01*
X27700Y-45814D01*
X27764Y-45660D01*
X27764Y-48805D01*
X27746Y-48805D01*
X27746Y-46613D01*
X27729Y-46457D01*
X27702Y-46391D01*
X27651Y-46356D01*
X27567Y-46439D01*
X27567Y-46272D01*
X27532Y-46221D01*
X27382Y-46177D01*
X27226Y-46194D01*
X27160Y-46221D01*
X27125Y-46272D01*
X27346Y-46494D01*
X27567Y-46272D01*
X27567Y-46439D01*
X27429Y-46577D01*
X27651Y-46798D01*
X27702Y-46763D01*
X27746Y-46613D01*
X27746Y-48805D01*
X27567Y-48805D01*
X27567Y-46882D01*
X27346Y-46660D01*
X27263Y-46743D01*
X27263Y-46577D01*
X27041Y-46356D01*
X26990Y-46391D01*
X26946Y-46541D01*
X26963Y-46697D01*
X26990Y-46763D01*
X27041Y-46798D01*
X27263Y-46577D01*
X27263Y-46743D01*
X27125Y-46882D01*
X27160Y-46933D01*
X27310Y-46977D01*
X27466Y-46960D01*
X27532Y-46933D01*
X27567Y-46882D01*
X27567Y-48805D01*
X24862Y-48805D01*
X24862Y-43911D01*
X24862Y-43786D01*
X24814Y-43670D01*
X24726Y-43581D01*
X24610Y-43533D01*
X24485Y-43533D01*
X24369Y-43581D01*
X24280Y-43669D01*
X24248Y-43745D01*
X24228Y-43697D01*
X24167Y-43636D01*
X24088Y-43603D01*
X24002Y-43603D01*
X23923Y-43636D01*
X23862Y-43697D01*
X23829Y-43776D01*
X23829Y-43827D01*
X23642Y-44014D01*
X23642Y-43852D01*
X23642Y-43727D01*
X23594Y-43611D01*
X23506Y-43522D01*
X23390Y-43474D01*
X23265Y-43474D01*
X23149Y-43522D01*
X23060Y-43610D01*
X23012Y-43726D01*
X23012Y-43780D01*
X22996Y-43764D01*
X22917Y-43731D01*
X22831Y-43731D01*
X22752Y-43764D01*
X22716Y-43800D01*
X20879Y-43800D01*
X20246Y-43167D01*
X20246Y-43116D01*
X20213Y-43037D01*
X20152Y-42976D01*
X20073Y-42943D01*
X19987Y-42943D01*
X19908Y-42976D01*
X19847Y-43037D01*
X19814Y-43116D01*
X19814Y-43202D01*
X19847Y-43281D01*
X19908Y-43342D01*
X19987Y-43375D01*
X20038Y-43375D01*
X20714Y-44051D01*
X20761Y-44082D01*
X20762Y-44083D01*
X20818Y-44094D01*
X22716Y-44094D01*
X22752Y-44130D01*
X22831Y-44163D01*
X22917Y-44163D01*
X22996Y-44130D01*
X23057Y-44069D01*
X23087Y-43995D01*
X23148Y-44056D01*
X23264Y-44104D01*
X23389Y-44104D01*
X23505Y-44056D01*
X23594Y-43968D01*
X23642Y-43852D01*
X23642Y-44014D01*
X23403Y-44253D01*
X19942Y-44253D01*
X19915Y-44226D01*
X19836Y-44193D01*
X19750Y-44193D01*
X19671Y-44226D01*
X19610Y-44287D01*
X19577Y-44366D01*
X19577Y-44452D01*
X19610Y-44531D01*
X19671Y-44592D01*
X19750Y-44625D01*
X19836Y-44625D01*
X19915Y-44592D01*
X19960Y-44547D01*
X23464Y-44547D01*
X23520Y-44536D01*
X23521Y-44536D01*
X23568Y-44504D01*
X24036Y-44035D01*
X24088Y-44035D01*
X24167Y-44002D01*
X24228Y-43941D01*
X24236Y-43920D01*
X24280Y-44026D01*
X24368Y-44115D01*
X24484Y-44163D01*
X24609Y-44163D01*
X24725Y-44115D01*
X24814Y-44027D01*
X24862Y-43911D01*
X24862Y-48805D01*
X22761Y-48804D01*
X22761Y-46769D01*
X22761Y-46722D01*
X22761Y-46122D01*
X22743Y-46079D01*
X22743Y-45481D01*
X22726Y-45325D01*
X22699Y-45259D01*
X22648Y-45224D01*
X22564Y-45307D01*
X22564Y-45140D01*
X22529Y-45089D01*
X22379Y-45045D01*
X22223Y-45062D01*
X22157Y-45089D01*
X22122Y-45140D01*
X22343Y-45362D01*
X22564Y-45140D01*
X22564Y-45307D01*
X22426Y-45445D01*
X22648Y-45666D01*
X22699Y-45631D01*
X22743Y-45481D01*
X22743Y-46079D01*
X22710Y-46045D01*
X22667Y-46027D01*
X22620Y-46027D01*
X22564Y-46027D01*
X22564Y-45750D01*
X22343Y-45528D01*
X22260Y-45611D01*
X22260Y-45445D01*
X22038Y-45224D01*
X21987Y-45259D01*
X21943Y-45409D01*
X21960Y-45565D01*
X21987Y-45631D01*
X22038Y-45666D01*
X22260Y-45445D01*
X22260Y-45611D01*
X22122Y-45750D01*
X22157Y-45801D01*
X22307Y-45845D01*
X22463Y-45828D01*
X22529Y-45801D01*
X22564Y-45750D01*
X22564Y-46027D01*
X22020Y-46027D01*
X21977Y-46045D01*
X21943Y-46078D01*
X21925Y-46121D01*
X21925Y-46168D01*
X21925Y-46768D01*
X21943Y-46811D01*
X21976Y-46845D01*
X22019Y-46863D01*
X22066Y-46863D01*
X22666Y-46863D01*
X22709Y-46845D01*
X22743Y-46812D01*
X22761Y-46769D01*
X22761Y-48804D01*
X21742Y-48804D01*
X21742Y-45329D01*
X21742Y-45204D01*
X21694Y-45088D01*
X21606Y-44999D01*
X21490Y-44951D01*
X21365Y-44951D01*
X21249Y-44999D01*
X21160Y-45087D01*
X21112Y-45203D01*
X21112Y-45328D01*
X21160Y-45444D01*
X21248Y-45533D01*
X21364Y-45581D01*
X21489Y-45581D01*
X21605Y-45533D01*
X21694Y-45445D01*
X21742Y-45329D01*
X21742Y-48804D01*
X18467Y-48804D01*
X18466Y-48525D01*
X18485Y-48499D01*
X18500Y-48425D01*
X18500Y-20039D01*
X18485Y-19965D01*
X18456Y-19922D01*
X18456Y-19601D01*
X25577Y-19593D01*
X42505Y-19593D01*
X43242Y-20482D01*
X43242Y-44737D01*
X43220Y-44737D01*
X42302Y-44737D01*
X42958Y-44081D01*
X42989Y-44034D01*
X42990Y-44033D01*
X43001Y-43977D01*
X43001Y-43208D01*
X43001Y-38025D01*
X42990Y-37969D01*
X42989Y-37968D01*
X42958Y-37921D01*
X42955Y-37919D01*
X42505Y-37468D01*
X42505Y-37286D01*
X42837Y-36954D01*
X42905Y-36852D01*
X42905Y-36851D01*
X42929Y-36731D01*
X42929Y-30016D01*
X42905Y-29895D01*
X42837Y-29793D01*
X42834Y-29791D01*
X39724Y-26680D01*
X39724Y-26417D01*
X39724Y-22755D01*
X39723Y-22754D01*
X39724Y-22754D01*
X39700Y-22634D01*
X39632Y-22532D01*
X39629Y-22530D01*
X38816Y-21716D01*
X38714Y-21648D01*
X38705Y-21646D01*
X38244Y-21184D01*
X38142Y-21116D01*
X38021Y-21092D01*
X34941Y-21092D01*
X34184Y-21092D01*
X32225Y-21092D01*
X30423Y-21092D01*
X27205Y-21092D01*
X27198Y-21087D01*
X27077Y-21063D01*
X25286Y-21063D01*
X20158Y-21063D01*
X20037Y-21087D01*
X19935Y-21155D01*
X18940Y-22150D01*
X18872Y-22252D01*
X18848Y-22373D01*
X18848Y-35698D01*
X18872Y-35819D01*
X18940Y-35921D01*
X19173Y-36153D01*
X19173Y-39056D01*
X19173Y-42165D01*
X19197Y-42286D01*
X19265Y-42388D01*
X19460Y-42582D01*
X19462Y-42585D01*
X19564Y-42653D01*
X19685Y-42677D01*
X23858Y-42677D01*
X23978Y-42653D01*
X23979Y-42653D01*
X24081Y-42585D01*
X24593Y-42073D01*
X24854Y-41811D01*
X28071Y-41811D01*
X28071Y-42897D01*
X29441Y-42897D01*
X29441Y-42520D01*
X29463Y-42573D01*
X29524Y-42634D01*
X29603Y-42667D01*
X29689Y-42667D01*
X29768Y-42634D01*
X29824Y-42578D01*
X29964Y-42578D01*
X30394Y-42578D01*
X30450Y-42567D01*
X30451Y-42567D01*
X30498Y-42535D01*
X30573Y-42460D01*
X30605Y-42413D01*
X30605Y-42412D01*
X30616Y-42356D01*
X30616Y-41949D01*
X30685Y-41978D01*
X30771Y-41978D01*
X30850Y-41945D01*
X30886Y-41909D01*
X31788Y-41909D01*
X31844Y-41898D01*
X31845Y-41898D01*
X31892Y-41866D01*
X32253Y-41505D01*
X38217Y-41505D01*
X38239Y-41527D01*
X38239Y-41578D01*
X38272Y-41657D01*
X38333Y-41718D01*
X38412Y-41751D01*
X38498Y-41751D01*
X38577Y-41718D01*
X38638Y-41657D01*
X38671Y-41578D01*
X38671Y-41492D01*
X38638Y-41413D01*
X38577Y-41352D01*
X38498Y-41319D01*
X38447Y-41319D01*
X38382Y-41254D01*
X38335Y-41222D01*
X38278Y-41211D01*
X34884Y-41211D01*
X34889Y-41200D01*
X34889Y-41114D01*
X34856Y-41035D01*
X34820Y-40999D01*
X34820Y-40209D01*
X34856Y-40173D01*
X34889Y-40094D01*
X34889Y-40008D01*
X34856Y-39929D01*
X34795Y-39868D01*
X34716Y-39835D01*
X34630Y-39835D01*
X34551Y-39868D01*
X34490Y-39929D01*
X34457Y-40008D01*
X34457Y-40094D01*
X34490Y-40173D01*
X34526Y-40209D01*
X34526Y-40999D01*
X34515Y-41010D01*
X32726Y-41010D01*
X32167Y-40451D01*
X32167Y-40362D01*
X32189Y-40384D01*
X32268Y-40417D01*
X32354Y-40417D01*
X32433Y-40384D01*
X32494Y-40323D01*
X32527Y-40244D01*
X32527Y-40158D01*
X32494Y-40079D01*
X32433Y-40018D01*
X32354Y-39985D01*
X32302Y-39985D01*
X32090Y-39773D01*
X32296Y-39567D01*
X32308Y-39567D01*
X32299Y-39571D01*
X32238Y-39632D01*
X32205Y-39711D01*
X32205Y-39797D01*
X32238Y-39876D01*
X32299Y-39937D01*
X32378Y-39970D01*
X32429Y-39970D01*
X32522Y-40062D01*
X32524Y-40065D01*
X32571Y-40096D01*
X32572Y-40097D01*
X32616Y-40105D01*
X32627Y-40108D01*
X32627Y-40107D01*
X32628Y-40108D01*
X32686Y-40108D01*
X32722Y-40144D01*
X32801Y-40177D01*
X32887Y-40177D01*
X32966Y-40144D01*
X33027Y-40083D01*
X33060Y-40004D01*
X33060Y-39918D01*
X33027Y-39839D01*
X32966Y-39778D01*
X32887Y-39745D01*
X32801Y-39745D01*
X32722Y-39778D01*
X32687Y-39812D01*
X32637Y-39762D01*
X32637Y-39711D01*
X32604Y-39632D01*
X32543Y-39571D01*
X32533Y-39567D01*
X33227Y-39567D01*
X33209Y-39611D01*
X33209Y-39697D01*
X33242Y-39776D01*
X33303Y-39837D01*
X33382Y-39870D01*
X33468Y-39870D01*
X33547Y-39837D01*
X33608Y-39776D01*
X33641Y-39697D01*
X33641Y-39681D01*
X34673Y-39681D01*
X34793Y-39657D01*
X34794Y-39657D01*
X34896Y-39589D01*
X35488Y-38996D01*
X35793Y-38996D01*
X35689Y-39100D01*
X35611Y-39288D01*
X35611Y-39491D01*
X35689Y-39679D01*
X35832Y-39823D01*
X36020Y-39901D01*
X36223Y-39901D01*
X36411Y-39823D01*
X36555Y-39680D01*
X36596Y-39579D01*
X36634Y-39669D01*
X36777Y-39813D01*
X36965Y-39891D01*
X37168Y-39891D01*
X37356Y-39813D01*
X37500Y-39670D01*
X37578Y-39482D01*
X37578Y-39279D01*
X37500Y-39091D01*
X37405Y-38996D01*
X39045Y-38996D01*
X40659Y-38996D01*
X40779Y-38972D01*
X40780Y-38972D01*
X40882Y-38904D01*
X41710Y-38074D01*
X41669Y-38175D01*
X41669Y-38341D01*
X41733Y-38495D01*
X41850Y-38612D01*
X42004Y-38676D01*
X42170Y-38676D01*
X42324Y-38612D01*
X42441Y-38495D01*
X42505Y-38341D01*
X42505Y-38175D01*
X42441Y-38021D01*
X42324Y-37904D01*
X42170Y-37840D01*
X42004Y-37840D01*
X41903Y-37881D01*
X42109Y-37676D01*
X42297Y-37676D01*
X42707Y-38085D01*
X42707Y-43208D01*
X42707Y-43810D01*
X42686Y-43789D01*
X42686Y-43139D01*
X42685Y-43138D01*
X42686Y-43138D01*
X42683Y-43127D01*
X42675Y-43083D01*
X42674Y-43082D01*
X42643Y-43035D01*
X42640Y-43033D01*
X42487Y-42879D01*
X42487Y-39294D01*
X42470Y-39138D01*
X42443Y-39072D01*
X42392Y-39037D01*
X42308Y-39120D01*
X42308Y-38953D01*
X42273Y-38902D01*
X42123Y-38858D01*
X41967Y-38875D01*
X41901Y-38902D01*
X41866Y-38953D01*
X42087Y-39175D01*
X42308Y-38953D01*
X42308Y-39120D01*
X42170Y-39258D01*
X42392Y-39479D01*
X42443Y-39444D01*
X42487Y-39294D01*
X42487Y-42879D01*
X42381Y-42773D01*
X42381Y-40872D01*
X42381Y-40825D01*
X42381Y-40275D01*
X42363Y-40232D01*
X42330Y-40198D01*
X42308Y-40188D01*
X42308Y-39563D01*
X42087Y-39341D01*
X42004Y-39424D01*
X42004Y-39258D01*
X41782Y-39037D01*
X41731Y-39072D01*
X41687Y-39222D01*
X41704Y-39378D01*
X41731Y-39444D01*
X41782Y-39479D01*
X42004Y-39258D01*
X42004Y-39424D01*
X41866Y-39563D01*
X41901Y-39614D01*
X42051Y-39658D01*
X42207Y-39641D01*
X42273Y-39614D01*
X42308Y-39563D01*
X42308Y-40188D01*
X42287Y-40180D01*
X42240Y-40180D01*
X41690Y-40180D01*
X41647Y-40198D01*
X41613Y-40231D01*
X41595Y-40274D01*
X41595Y-40321D01*
X41595Y-40871D01*
X41613Y-40914D01*
X41646Y-40948D01*
X41689Y-40966D01*
X41736Y-40966D01*
X42286Y-40966D01*
X42329Y-40948D01*
X42363Y-40915D01*
X42381Y-40872D01*
X42381Y-42773D01*
X42363Y-42755D01*
X42363Y-41603D01*
X42346Y-41457D01*
X42323Y-41402D01*
X42275Y-41369D01*
X42192Y-41452D01*
X42192Y-41286D01*
X42159Y-41238D01*
X42018Y-41198D01*
X41872Y-41215D01*
X41817Y-41238D01*
X41784Y-41286D01*
X41988Y-41490D01*
X42192Y-41286D01*
X42192Y-41452D01*
X42071Y-41573D01*
X42275Y-41777D01*
X42323Y-41744D01*
X42363Y-41603D01*
X42363Y-42755D01*
X42192Y-42584D01*
X42192Y-41860D01*
X41988Y-41656D01*
X41905Y-41739D01*
X41905Y-41573D01*
X41701Y-41369D01*
X41653Y-41402D01*
X41613Y-41543D01*
X41630Y-41689D01*
X41653Y-41744D01*
X41701Y-41777D01*
X41905Y-41573D01*
X41905Y-41739D01*
X41784Y-41860D01*
X41817Y-41908D01*
X41958Y-41948D01*
X42104Y-41931D01*
X42159Y-41908D01*
X42192Y-41860D01*
X42192Y-42584D01*
X41732Y-42124D01*
X41732Y-42073D01*
X41699Y-41994D01*
X41638Y-41933D01*
X41559Y-41900D01*
X41473Y-41900D01*
X41394Y-41933D01*
X41386Y-41941D01*
X41386Y-41651D01*
X41386Y-41495D01*
X41371Y-41459D01*
X41371Y-40657D01*
X41371Y-40489D01*
X41370Y-40278D01*
X41355Y-40241D01*
X41326Y-40212D01*
X41289Y-40197D01*
X41249Y-40197D01*
X41078Y-40196D01*
X41053Y-40221D01*
X41053Y-40514D01*
X41346Y-40514D01*
X41371Y-40489D01*
X41371Y-40657D01*
X41346Y-40632D01*
X41053Y-40632D01*
X41053Y-40925D01*
X41078Y-40950D01*
X41249Y-40949D01*
X41289Y-40949D01*
X41326Y-40934D01*
X41355Y-40905D01*
X41370Y-40868D01*
X41371Y-40657D01*
X41371Y-41459D01*
X41326Y-41351D01*
X41216Y-41241D01*
X41072Y-41181D01*
X40935Y-41181D01*
X40935Y-40925D01*
X40935Y-40632D01*
X40935Y-40514D01*
X40935Y-40221D01*
X40910Y-40196D01*
X40739Y-40197D01*
X40699Y-40197D01*
X40662Y-40212D01*
X40633Y-40241D01*
X40618Y-40278D01*
X40617Y-40489D01*
X40642Y-40514D01*
X40935Y-40514D01*
X40935Y-40632D01*
X40642Y-40632D01*
X40617Y-40657D01*
X40618Y-40868D01*
X40633Y-40905D01*
X40662Y-40934D01*
X40699Y-40949D01*
X40739Y-40949D01*
X40910Y-40950D01*
X40935Y-40925D01*
X40935Y-41181D01*
X40916Y-41181D01*
X40772Y-41241D01*
X40662Y-41351D01*
X40602Y-41495D01*
X40602Y-41651D01*
X40662Y-41795D01*
X40772Y-41905D01*
X40916Y-41965D01*
X41072Y-41965D01*
X41216Y-41905D01*
X41326Y-41795D01*
X41386Y-41651D01*
X41386Y-41941D01*
X41333Y-41994D01*
X41300Y-42073D01*
X41300Y-42159D01*
X41333Y-42238D01*
X41394Y-42299D01*
X41473Y-42332D01*
X41524Y-42332D01*
X42392Y-43199D01*
X42392Y-43789D01*
X42356Y-43825D01*
X42323Y-43904D01*
X42323Y-43990D01*
X42356Y-44069D01*
X42417Y-44130D01*
X42470Y-44152D01*
X42046Y-44577D01*
X41735Y-44577D01*
X41740Y-44567D01*
X41740Y-44481D01*
X41707Y-44402D01*
X41675Y-44370D01*
X41675Y-43867D01*
X41711Y-43831D01*
X41744Y-43752D01*
X41744Y-43666D01*
X41711Y-43587D01*
X41650Y-43526D01*
X41571Y-43493D01*
X41485Y-43493D01*
X41476Y-43496D01*
X41476Y-43477D01*
X41492Y-43484D01*
X41578Y-43484D01*
X41657Y-43451D01*
X41718Y-43390D01*
X41751Y-43311D01*
X41751Y-43225D01*
X41718Y-43146D01*
X41657Y-43085D01*
X41578Y-43052D01*
X41492Y-43052D01*
X41413Y-43085D01*
X41377Y-43121D01*
X39182Y-43121D01*
X39199Y-43104D01*
X39232Y-43025D01*
X39232Y-42939D01*
X39221Y-42913D01*
X40925Y-42913D01*
X40961Y-42949D01*
X41040Y-42982D01*
X41126Y-42982D01*
X41205Y-42949D01*
X41266Y-42888D01*
X41299Y-42809D01*
X41299Y-42723D01*
X41266Y-42644D01*
X41205Y-42583D01*
X41126Y-42550D01*
X41040Y-42550D01*
X40961Y-42583D01*
X40925Y-42619D01*
X38238Y-42619D01*
X38182Y-42630D01*
X38134Y-42662D01*
X38133Y-42662D01*
X38133Y-42663D01*
X37744Y-43052D01*
X37693Y-43052D01*
X37614Y-43085D01*
X37553Y-43146D01*
X37520Y-43225D01*
X37520Y-43311D01*
X37553Y-43390D01*
X37614Y-43451D01*
X37693Y-43484D01*
X37779Y-43484D01*
X37858Y-43451D01*
X37888Y-43420D01*
X37919Y-43451D01*
X37998Y-43484D01*
X38084Y-43484D01*
X38163Y-43451D01*
X38199Y-43415D01*
X41066Y-43415D01*
X41044Y-43469D01*
X41044Y-43555D01*
X41077Y-43634D01*
X41113Y-43670D01*
X41113Y-44338D01*
X41053Y-44398D01*
X41023Y-44467D01*
X40570Y-44014D01*
X40570Y-43963D01*
X40537Y-43884D01*
X40476Y-43823D01*
X40397Y-43790D01*
X40311Y-43790D01*
X40232Y-43823D01*
X40171Y-43884D01*
X40138Y-43963D01*
X40138Y-44049D01*
X40171Y-44128D01*
X40232Y-44189D01*
X40311Y-44222D01*
X40362Y-44222D01*
X40877Y-44737D01*
X40819Y-44737D01*
X40776Y-44755D01*
X40742Y-44788D01*
X40724Y-44831D01*
X40724Y-44878D01*
X40724Y-46452D01*
X40742Y-46495D01*
X40775Y-46529D01*
X40818Y-46547D01*
X40865Y-46547D01*
X41849Y-46547D01*
X41892Y-46529D01*
X41926Y-46496D01*
X41944Y-46453D01*
X41944Y-46406D01*
X41944Y-44871D01*
X42107Y-44871D01*
X42141Y-44864D01*
X42141Y-44878D01*
X42141Y-46452D01*
X42159Y-46495D01*
X42192Y-46529D01*
X42235Y-46547D01*
X42282Y-46547D01*
X43242Y-46547D01*
X43242Y-48277D01*
X43257Y-48351D01*
X43285Y-48392D01*
X43285Y-48810D01*
M02*
