G04 (created by PCBNEW (2012-01-19 BZR 3256)-stable) date Tue 16 Oct 2012 12:11:52 BST*
G01*
G70*
G90*
%MOIN*%
G04 Gerber Fmt 3.4, Leading zero omitted, Abs format*
%FSLAX34Y34*%
G04 APERTURE LIST*
%ADD10C,0.001000*%
%ADD11C,0.015000*%
%ADD12C,0.008000*%
G04 APERTURE END LIST*
G54D10*
G54D11*
X18366Y-49035D02*
X42618Y-49035D01*
X18307Y-20039D02*
X18307Y-48425D01*
X42933Y-19400D02*
X18681Y-19400D01*
X43435Y-48277D02*
X43435Y-19970D01*
G54D10*
X19754Y-44370D02*
X19832Y-44448D01*
X19832Y-44370D02*
X19754Y-44448D01*
X19843Y-35985D02*
X19921Y-36063D01*
X19921Y-35985D02*
X19843Y-36063D01*
X19870Y-40721D02*
X19948Y-40799D01*
X19948Y-40721D02*
X19870Y-40799D01*
X19912Y-39784D02*
X19990Y-39862D01*
X19990Y-39784D02*
X19912Y-39862D01*
X19981Y-24252D02*
X20059Y-24330D01*
X20059Y-24252D02*
X19981Y-24330D01*
X19981Y-24646D02*
X20059Y-24724D01*
X20059Y-24646D02*
X19981Y-24724D01*
X19991Y-43120D02*
X20069Y-43198D01*
X20069Y-43120D02*
X19991Y-43198D01*
X20965Y-24626D02*
X21043Y-24704D01*
X21043Y-24626D02*
X20965Y-24704D01*
X20985Y-21703D02*
X21063Y-21781D01*
X21063Y-21703D02*
X20985Y-21781D01*
X20985Y-37264D02*
X21063Y-37342D01*
X21063Y-37264D02*
X20985Y-37342D01*
X21054Y-22884D02*
X21132Y-22962D01*
X21132Y-22884D02*
X21054Y-22962D01*
X21201Y-24855D02*
X21279Y-24933D01*
X21279Y-24855D02*
X21201Y-24933D01*
X21575Y-37264D02*
X21653Y-37342D01*
X21653Y-37264D02*
X21575Y-37342D01*
X22095Y-24859D02*
X22173Y-24937D01*
X22173Y-24859D02*
X22095Y-24937D01*
X22292Y-25063D02*
X22370Y-25141D01*
X22370Y-25063D02*
X22292Y-25141D01*
X22347Y-32658D02*
X22425Y-32736D01*
X22425Y-32658D02*
X22347Y-32736D01*
X22347Y-40296D02*
X22425Y-40374D01*
X22425Y-40296D02*
X22347Y-40374D01*
X22485Y-24870D02*
X22563Y-24948D01*
X22563Y-24870D02*
X22485Y-24948D01*
X22552Y-32441D02*
X22630Y-32519D01*
X22630Y-32441D02*
X22552Y-32519D01*
X22689Y-25079D02*
X22767Y-25157D01*
X22767Y-25079D02*
X22689Y-25157D01*
X22752Y-32244D02*
X22830Y-32322D01*
X22830Y-32244D02*
X22752Y-32322D01*
X22835Y-43908D02*
X22913Y-43986D01*
X22913Y-43908D02*
X22835Y-43986D01*
X22863Y-36536D02*
X22941Y-36614D01*
X22941Y-36536D02*
X22863Y-36614D01*
X22886Y-24867D02*
X22964Y-24945D01*
X22964Y-24867D02*
X22886Y-24945D01*
X22973Y-32048D02*
X23051Y-32126D01*
X23051Y-32048D02*
X22973Y-32126D01*
X23061Y-32874D02*
X23139Y-32952D01*
X23139Y-32874D02*
X23061Y-32952D01*
X23095Y-25162D02*
X23173Y-25240D01*
X23173Y-25162D02*
X23095Y-25240D01*
X23189Y-31847D02*
X23267Y-31925D01*
X23267Y-31847D02*
X23189Y-31925D01*
X23248Y-33209D02*
X23326Y-33287D01*
X23326Y-33209D02*
X23248Y-33287D01*
X23284Y-37378D02*
X23362Y-37456D01*
X23362Y-37378D02*
X23284Y-37456D01*
X23317Y-41624D02*
X23395Y-41702D01*
X23395Y-41624D02*
X23317Y-41702D01*
X23355Y-21886D02*
X23433Y-21964D01*
X23433Y-21886D02*
X23355Y-21964D01*
X23355Y-22902D02*
X23433Y-22980D01*
X23433Y-22902D02*
X23355Y-22980D01*
X23492Y-25126D02*
X23570Y-25204D01*
X23570Y-25126D02*
X23492Y-25204D01*
X23500Y-34339D02*
X23578Y-34417D01*
X23578Y-34339D02*
X23500Y-34417D01*
X23587Y-33918D02*
X23665Y-33996D01*
X23665Y-33918D02*
X23587Y-33996D01*
X23800Y-25158D02*
X23878Y-25236D01*
X23878Y-25158D02*
X23800Y-25236D01*
X23819Y-34134D02*
X23897Y-34212D01*
X23897Y-34134D02*
X23819Y-34212D01*
X23823Y-29867D02*
X23901Y-29945D01*
X23901Y-29867D02*
X23823Y-29945D01*
X23827Y-33729D02*
X23905Y-33807D01*
X23905Y-33729D02*
X23827Y-33807D01*
X24006Y-43780D02*
X24084Y-43858D01*
X24084Y-43780D02*
X24006Y-43858D01*
X24122Y-25178D02*
X24200Y-25256D01*
X24200Y-25178D02*
X24122Y-25256D01*
X24241Y-36752D02*
X24319Y-36830D01*
X24319Y-36752D02*
X24241Y-36830D01*
X24420Y-25187D02*
X24498Y-25265D01*
X24498Y-25187D02*
X24420Y-25265D01*
X24420Y-37077D02*
X24498Y-37155D01*
X24498Y-37077D02*
X24420Y-37155D01*
X24508Y-35512D02*
X24586Y-35590D01*
X24586Y-35512D02*
X24508Y-35590D01*
X24634Y-34599D02*
X24712Y-34677D01*
X24712Y-34599D02*
X24634Y-34677D01*
X24843Y-37441D02*
X24921Y-37519D01*
X24921Y-37441D02*
X24843Y-37519D01*
X24961Y-27018D02*
X25039Y-27096D01*
X25039Y-27018D02*
X24961Y-27096D01*
X25158Y-26792D02*
X25236Y-26870D01*
X25236Y-26792D02*
X25158Y-26870D01*
X25394Y-37685D02*
X25472Y-37763D01*
X25472Y-37685D02*
X25394Y-37763D01*
X25414Y-26802D02*
X25492Y-26880D01*
X25492Y-26802D02*
X25414Y-26880D01*
X25601Y-35020D02*
X25679Y-35098D01*
X25679Y-35020D02*
X25601Y-35098D01*
X25630Y-35331D02*
X25708Y-35409D01*
X25708Y-35331D02*
X25630Y-35409D01*
X25638Y-36599D02*
X25716Y-36677D01*
X25716Y-36599D02*
X25638Y-36677D01*
X25640Y-37077D02*
X25718Y-37155D01*
X25718Y-37077D02*
X25640Y-37155D01*
X25640Y-44882D02*
X25718Y-44960D01*
X25718Y-44882D02*
X25640Y-44960D01*
X25670Y-26821D02*
X25748Y-26899D01*
X25748Y-26821D02*
X25670Y-26899D01*
X25685Y-40882D02*
X25763Y-40960D01*
X25763Y-40882D02*
X25685Y-40960D01*
X25689Y-45876D02*
X25767Y-45954D01*
X25767Y-45876D02*
X25689Y-45954D01*
X25709Y-34252D02*
X25787Y-34330D01*
X25787Y-34252D02*
X25709Y-34330D01*
X25713Y-34516D02*
X25791Y-34594D01*
X25791Y-34516D02*
X25713Y-34594D01*
X25717Y-33729D02*
X25795Y-33807D01*
X25795Y-33729D02*
X25717Y-33807D01*
X25717Y-33989D02*
X25795Y-34067D01*
X25795Y-33989D02*
X25717Y-34067D01*
X25741Y-33453D02*
X25819Y-33531D01*
X25819Y-33453D02*
X25741Y-33531D01*
X25817Y-44203D02*
X25895Y-44281D01*
X25895Y-44203D02*
X25817Y-44281D01*
X25847Y-29867D02*
X25925Y-29945D01*
X25925Y-29867D02*
X25847Y-29945D01*
X25935Y-26851D02*
X26013Y-26929D01*
X26013Y-26851D02*
X25935Y-26929D01*
X26004Y-37902D02*
X26082Y-37980D01*
X26082Y-37902D02*
X26004Y-37980D01*
X26071Y-37489D02*
X26149Y-37567D01*
X26149Y-37489D02*
X26071Y-37567D01*
X26284Y-28150D02*
X26362Y-28228D01*
X26362Y-28150D02*
X26284Y-28228D01*
X26290Y-33662D02*
X26368Y-33740D01*
X26368Y-33662D02*
X26290Y-33740D01*
X26311Y-37894D02*
X26389Y-37972D01*
X26389Y-37894D02*
X26311Y-37972D01*
X26426Y-37477D02*
X26504Y-37555D01*
X26504Y-37477D02*
X26426Y-37555D01*
X26546Y-32855D02*
X26624Y-32933D01*
X26624Y-32855D02*
X26546Y-32933D01*
X26603Y-21996D02*
X26681Y-22074D01*
X26681Y-21996D02*
X26603Y-22074D01*
X26607Y-26859D02*
X26685Y-26937D01*
X26685Y-26859D02*
X26607Y-26937D01*
X26626Y-40807D02*
X26704Y-40885D01*
X26704Y-40807D02*
X26626Y-40885D01*
X26638Y-41063D02*
X26716Y-41141D01*
X26716Y-41063D02*
X26638Y-41141D01*
X26693Y-36851D02*
X26771Y-36929D01*
X26771Y-36851D02*
X26693Y-36929D01*
X26831Y-34516D02*
X26909Y-34594D01*
X26909Y-34516D02*
X26831Y-34594D01*
X26835Y-28138D02*
X26913Y-28216D01*
X26913Y-28138D02*
X26835Y-28216D01*
X26847Y-33886D02*
X26925Y-33964D01*
X26925Y-33886D02*
X26847Y-33964D01*
X26890Y-28455D02*
X26968Y-28533D01*
X26968Y-28455D02*
X26890Y-28533D01*
X26890Y-35532D02*
X26968Y-35610D01*
X26968Y-35532D02*
X26890Y-35610D01*
X26894Y-30752D02*
X26972Y-30830D01*
X26972Y-30752D02*
X26894Y-30830D01*
X26922Y-21721D02*
X27000Y-21799D01*
X27000Y-21721D02*
X26922Y-21799D01*
X26922Y-26859D02*
X27000Y-26937D01*
X27000Y-26859D02*
X26922Y-26937D01*
X26969Y-37914D02*
X27047Y-37992D01*
X27047Y-37914D02*
X26969Y-37992D01*
X27008Y-40345D02*
X27086Y-40423D01*
X27086Y-40345D02*
X27008Y-40423D01*
X27233Y-21937D02*
X27311Y-22015D01*
X27311Y-21937D02*
X27233Y-22015D01*
X27235Y-28613D02*
X27313Y-28691D01*
X27313Y-28613D02*
X27235Y-28691D01*
X27235Y-43711D02*
X27313Y-43789D01*
X27313Y-43711D02*
X27235Y-43789D01*
X27237Y-26851D02*
X27315Y-26929D01*
X27315Y-26851D02*
X27237Y-26929D01*
X27244Y-29095D02*
X27322Y-29173D01*
X27322Y-29095D02*
X27244Y-29173D01*
X27441Y-28829D02*
X27519Y-28907D01*
X27519Y-28829D02*
X27441Y-28907D01*
X27457Y-22209D02*
X27535Y-22287D01*
X27535Y-22209D02*
X27457Y-22287D01*
X27552Y-26603D02*
X27630Y-26681D01*
X27630Y-26603D02*
X27552Y-26681D01*
X27646Y-38859D02*
X27724Y-38937D01*
X27724Y-38859D02*
X27646Y-38937D01*
X27670Y-24111D02*
X27748Y-24189D01*
X27748Y-24111D02*
X27670Y-24189D01*
X27693Y-29307D02*
X27771Y-29385D01*
X27771Y-29307D02*
X27693Y-29385D01*
X27729Y-38599D02*
X27807Y-38677D01*
X27807Y-38599D02*
X27729Y-38677D01*
X27864Y-24961D02*
X27942Y-25039D01*
X27942Y-24961D02*
X27864Y-25039D01*
X27894Y-35492D02*
X27972Y-35570D01*
X27972Y-35492D02*
X27894Y-35570D01*
X27914Y-37599D02*
X27992Y-37677D01*
X27992Y-37599D02*
X27914Y-37677D01*
X27933Y-41024D02*
X28011Y-41102D01*
X28011Y-41024D02*
X27933Y-41102D01*
X28010Y-30652D02*
X28088Y-30730D01*
X28088Y-30652D02*
X28010Y-30730D01*
X28091Y-36014D02*
X28169Y-36092D01*
X28169Y-36014D02*
X28091Y-36092D01*
X28111Y-35178D02*
X28189Y-35256D01*
X28189Y-35178D02*
X28111Y-35256D01*
X28111Y-36280D02*
X28189Y-36358D01*
X28189Y-36280D02*
X28111Y-36358D01*
X28120Y-36900D02*
X28198Y-36978D01*
X28198Y-36900D02*
X28120Y-36978D01*
X28170Y-26870D02*
X28248Y-26948D01*
X28248Y-26870D02*
X28170Y-26948D01*
X28170Y-33130D02*
X28248Y-33208D01*
X28248Y-33130D02*
X28170Y-33208D01*
X28180Y-23721D02*
X28258Y-23799D01*
X28258Y-23721D02*
X28180Y-23799D01*
X28268Y-26457D02*
X28346Y-26535D01*
X28346Y-26457D02*
X28268Y-26535D01*
X28288Y-39142D02*
X28366Y-39220D01*
X28366Y-39142D02*
X28288Y-39220D01*
X28298Y-24695D02*
X28376Y-24773D01*
X28376Y-24695D02*
X28298Y-24773D01*
X28298Y-25197D02*
X28376Y-25275D01*
X28376Y-25197D02*
X28298Y-25275D01*
X28327Y-31890D02*
X28405Y-31968D01*
X28405Y-31890D02*
X28327Y-31968D01*
X28494Y-23918D02*
X28572Y-23996D01*
X28572Y-23918D02*
X28494Y-23996D01*
X28563Y-35178D02*
X28641Y-35256D01*
X28641Y-35178D02*
X28563Y-35256D01*
X28563Y-36280D02*
X28641Y-36358D01*
X28641Y-36280D02*
X28563Y-36358D01*
X28563Y-36900D02*
X28641Y-36978D01*
X28641Y-36900D02*
X28563Y-36978D01*
X28603Y-26221D02*
X28681Y-26299D01*
X28681Y-26221D02*
X28603Y-26299D01*
X28613Y-42107D02*
X28691Y-42185D01*
X28691Y-42107D02*
X28613Y-42185D01*
X28741Y-25246D02*
X28819Y-25324D01*
X28819Y-25246D02*
X28741Y-25324D01*
X28790Y-36014D02*
X28868Y-36092D01*
X28868Y-36014D02*
X28790Y-36092D01*
X28811Y-24111D02*
X28889Y-24189D01*
X28889Y-24111D02*
X28811Y-24189D01*
X28819Y-26024D02*
X28897Y-26102D01*
X28897Y-26024D02*
X28819Y-26102D01*
X28870Y-39142D02*
X28948Y-39220D01*
X28948Y-39142D02*
X28870Y-39220D01*
X28937Y-42166D02*
X29015Y-42244D01*
X29015Y-42166D02*
X28937Y-42244D01*
X28987Y-25807D02*
X29065Y-25885D01*
X29065Y-25807D02*
X28987Y-25885D01*
X29122Y-24390D02*
X29200Y-24468D01*
X29200Y-24390D02*
X29122Y-24468D01*
X29193Y-31654D02*
X29271Y-31732D01*
X29271Y-31654D02*
X29193Y-31732D01*
X29272Y-33120D02*
X29350Y-33198D01*
X29350Y-33120D02*
X29272Y-33198D01*
X29272Y-33544D02*
X29350Y-33622D01*
X29350Y-33544D02*
X29272Y-33622D01*
X29272Y-37914D02*
X29350Y-37992D01*
X29350Y-37914D02*
X29272Y-37992D01*
X29321Y-38967D02*
X29399Y-39045D01*
X29399Y-38967D02*
X29321Y-39045D01*
X29331Y-39449D02*
X29409Y-39527D01*
X29409Y-39449D02*
X29331Y-39527D01*
X29351Y-30867D02*
X29429Y-30945D01*
X29429Y-30867D02*
X29351Y-30945D01*
X29394Y-31402D02*
X29472Y-31480D01*
X29472Y-31402D02*
X29394Y-31480D01*
X29441Y-29221D02*
X29519Y-29299D01*
X29519Y-29221D02*
X29441Y-29299D01*
X29607Y-42412D02*
X29685Y-42490D01*
X29685Y-42412D02*
X29607Y-42490D01*
X29733Y-40075D02*
X29811Y-40153D01*
X29811Y-40075D02*
X29733Y-40153D01*
X29752Y-31666D02*
X29830Y-31744D01*
X29830Y-31666D02*
X29752Y-31744D01*
X29754Y-25788D02*
X29832Y-25866D01*
X29832Y-25788D02*
X29754Y-25866D01*
X29843Y-37294D02*
X29921Y-37372D01*
X29921Y-37294D02*
X29843Y-37372D01*
X29843Y-37727D02*
X29921Y-37805D01*
X29921Y-37727D02*
X29843Y-37805D01*
X29880Y-34841D02*
X29958Y-34919D01*
X29958Y-34841D02*
X29880Y-34919D01*
X29880Y-35412D02*
X29958Y-35490D01*
X29958Y-35412D02*
X29880Y-35490D01*
X29880Y-35983D02*
X29958Y-36061D01*
X29958Y-35983D02*
X29880Y-36061D01*
X29902Y-32894D02*
X29980Y-32972D01*
X29980Y-32894D02*
X29902Y-32972D01*
X29957Y-30296D02*
X30035Y-30374D01*
X30035Y-30296D02*
X29957Y-30374D01*
X29961Y-26457D02*
X30039Y-26535D01*
X30039Y-26457D02*
X29961Y-26535D01*
X29981Y-26024D02*
X30059Y-26102D01*
X30059Y-26024D02*
X29981Y-26102D01*
X30069Y-25483D02*
X30147Y-25561D01*
X30147Y-25483D02*
X30069Y-25561D01*
X30069Y-40433D02*
X30147Y-40511D01*
X30147Y-40433D02*
X30069Y-40511D01*
X30079Y-41693D02*
X30157Y-41771D01*
X30157Y-41693D02*
X30079Y-41771D01*
X30158Y-31819D02*
X30236Y-31897D01*
X30236Y-31819D02*
X30158Y-31897D01*
X30162Y-30516D02*
X30240Y-30594D01*
X30240Y-30516D02*
X30162Y-30594D01*
X30217Y-26221D02*
X30295Y-26299D01*
X30295Y-26221D02*
X30217Y-26299D01*
X30217Y-37953D02*
X30295Y-38031D01*
X30295Y-37953D02*
X30217Y-38031D01*
X30315Y-40122D02*
X30393Y-40200D01*
X30393Y-40122D02*
X30315Y-40200D01*
X30335Y-41506D02*
X30413Y-41584D01*
X30413Y-41506D02*
X30335Y-41584D01*
X30374Y-30697D02*
X30452Y-30775D01*
X30452Y-30697D02*
X30374Y-30775D01*
X30394Y-28189D02*
X30472Y-28267D01*
X30472Y-28189D02*
X30394Y-28267D01*
X30451Y-34841D02*
X30529Y-34919D01*
X30529Y-34841D02*
X30451Y-34919D01*
X30451Y-35412D02*
X30529Y-35490D01*
X30529Y-35412D02*
X30451Y-35490D01*
X30451Y-35983D02*
X30529Y-36061D01*
X30529Y-35983D02*
X30451Y-36061D01*
X30591Y-31870D02*
X30669Y-31948D01*
X30669Y-31870D02*
X30591Y-31948D01*
X30689Y-33111D02*
X30767Y-33189D01*
X30767Y-33111D02*
X30689Y-33189D01*
X30689Y-33544D02*
X30767Y-33622D01*
X30767Y-33544D02*
X30689Y-33622D01*
X30689Y-41723D02*
X30767Y-41801D01*
X30767Y-41723D02*
X30689Y-41801D01*
X30729Y-26457D02*
X30807Y-26535D01*
X30807Y-26457D02*
X30729Y-26535D01*
X30837Y-37943D02*
X30915Y-38021D01*
X30915Y-37943D02*
X30837Y-38021D01*
X30847Y-30890D02*
X30925Y-30968D01*
X30925Y-30890D02*
X30847Y-30968D01*
X30867Y-26674D02*
X30945Y-26752D01*
X30945Y-26674D02*
X30867Y-26752D01*
X30941Y-43796D02*
X31019Y-43874D01*
X31019Y-43796D02*
X30941Y-43874D01*
X30981Y-25911D02*
X31059Y-25989D01*
X31059Y-25911D02*
X30981Y-25989D01*
X30985Y-28189D02*
X31063Y-28267D01*
X31063Y-28189D02*
X30985Y-28267D01*
X31016Y-22457D02*
X31094Y-22535D01*
X31094Y-22457D02*
X31016Y-22535D01*
X31020Y-24607D02*
X31098Y-24685D01*
X31098Y-24607D02*
X31020Y-24685D01*
X31022Y-34841D02*
X31100Y-34919D01*
X31100Y-34841D02*
X31022Y-34919D01*
X31022Y-35412D02*
X31100Y-35490D01*
X31100Y-35412D02*
X31022Y-35490D01*
X31022Y-35983D02*
X31100Y-36061D01*
X31100Y-35983D02*
X31022Y-36061D01*
X31054Y-37294D02*
X31132Y-37372D01*
X31132Y-37294D02*
X31054Y-37372D01*
X31063Y-37717D02*
X31141Y-37795D01*
X31141Y-37717D02*
X31063Y-37795D01*
X31063Y-40709D02*
X31141Y-40787D01*
X31141Y-40709D02*
X31063Y-40787D01*
X31103Y-29597D02*
X31181Y-29675D01*
X31181Y-29597D02*
X31103Y-29675D01*
X31201Y-31859D02*
X31279Y-31937D01*
X31279Y-31859D02*
X31201Y-31937D01*
X31309Y-37953D02*
X31387Y-38031D01*
X31387Y-37953D02*
X31309Y-38031D01*
X31394Y-31654D02*
X31472Y-31732D01*
X31472Y-31654D02*
X31394Y-31732D01*
X31516Y-30089D02*
X31594Y-30167D01*
X31594Y-30089D02*
X31516Y-30167D01*
X31605Y-37067D02*
X31683Y-37145D01*
X31683Y-37067D02*
X31605Y-37145D01*
X31605Y-37717D02*
X31683Y-37795D01*
X31683Y-37717D02*
X31605Y-37795D01*
X31674Y-40059D02*
X31752Y-40137D01*
X31752Y-40059D02*
X31674Y-40137D01*
X31733Y-25315D02*
X31811Y-25393D01*
X31811Y-25315D02*
X31733Y-25393D01*
X31782Y-37943D02*
X31860Y-38021D01*
X31860Y-37943D02*
X31782Y-38021D01*
X31792Y-30099D02*
X31870Y-30177D01*
X31870Y-30099D02*
X31792Y-30177D01*
X31851Y-25050D02*
X31929Y-25128D01*
X31929Y-25050D02*
X31851Y-25128D01*
X31870Y-26772D02*
X31948Y-26850D01*
X31948Y-26772D02*
X31870Y-26850D01*
X31949Y-33111D02*
X32027Y-33189D01*
X32027Y-33111D02*
X31949Y-33189D01*
X31949Y-33544D02*
X32027Y-33622D01*
X32027Y-33544D02*
X31949Y-33622D01*
X31959Y-22579D02*
X32037Y-22657D01*
X32037Y-22579D02*
X31959Y-22657D01*
X32107Y-30089D02*
X32185Y-30167D01*
X32185Y-30089D02*
X32107Y-30167D01*
X32161Y-37190D02*
X32239Y-37268D01*
X32239Y-37190D02*
X32161Y-37268D01*
X32244Y-33829D02*
X32322Y-33907D01*
X32322Y-33829D02*
X32244Y-33907D01*
X32264Y-37953D02*
X32342Y-38031D01*
X32342Y-37953D02*
X32264Y-38031D01*
X32272Y-40162D02*
X32350Y-40240D01*
X32350Y-40162D02*
X32272Y-40240D01*
X32304Y-24863D02*
X32382Y-24941D01*
X32382Y-24863D02*
X32304Y-24941D01*
X32313Y-35650D02*
X32391Y-35728D01*
X32391Y-35650D02*
X32313Y-35728D01*
X32313Y-36595D02*
X32391Y-36673D01*
X32391Y-36595D02*
X32313Y-36673D01*
X32347Y-41611D02*
X32425Y-41689D01*
X32425Y-41611D02*
X32347Y-41689D01*
X32351Y-40563D02*
X32429Y-40641D01*
X32429Y-40563D02*
X32351Y-40641D01*
X32382Y-39715D02*
X32460Y-39793D01*
X32460Y-39715D02*
X32382Y-39793D01*
X32569Y-30109D02*
X32647Y-30187D01*
X32647Y-30109D02*
X32569Y-30187D01*
X32579Y-32894D02*
X32657Y-32972D01*
X32657Y-32894D02*
X32579Y-32972D01*
X32587Y-29012D02*
X32665Y-29090D01*
X32665Y-29012D02*
X32587Y-29090D01*
X32599Y-37707D02*
X32677Y-37785D01*
X32677Y-37707D02*
X32599Y-37785D01*
X32668Y-33406D02*
X32746Y-33484D01*
X32746Y-33406D02*
X32668Y-33484D01*
X32717Y-22508D02*
X32795Y-22586D01*
X32795Y-22508D02*
X32717Y-22586D01*
X32737Y-36595D02*
X32815Y-36673D01*
X32815Y-36595D02*
X32737Y-36673D01*
X32746Y-35650D02*
X32824Y-35728D01*
X32824Y-35650D02*
X32746Y-35728D01*
X32796Y-24498D02*
X32874Y-24576D01*
X32874Y-24498D02*
X32796Y-24576D01*
X32805Y-39922D02*
X32883Y-40000D01*
X32883Y-39922D02*
X32805Y-40000D01*
X32835Y-30099D02*
X32913Y-30177D01*
X32913Y-30099D02*
X32835Y-30177D01*
X32953Y-37609D02*
X33031Y-37687D01*
X33031Y-37609D02*
X32953Y-37687D01*
X32973Y-33603D02*
X33051Y-33681D01*
X33051Y-33603D02*
X32973Y-33681D01*
X32973Y-35394D02*
X33051Y-35472D01*
X33051Y-35394D02*
X32973Y-35472D01*
X32973Y-35837D02*
X33051Y-35915D01*
X33051Y-35837D02*
X32973Y-35915D01*
X32973Y-36910D02*
X33051Y-36988D01*
X33051Y-36910D02*
X32973Y-36988D01*
X33022Y-25985D02*
X33100Y-26063D01*
X33100Y-25985D02*
X33022Y-26063D01*
X33111Y-30089D02*
X33189Y-30167D01*
X33189Y-30089D02*
X33111Y-30167D01*
X33189Y-22012D02*
X33267Y-22090D01*
X33267Y-22012D02*
X33189Y-22090D01*
X33217Y-29020D02*
X33295Y-29098D01*
X33295Y-29020D02*
X33217Y-29098D01*
X33219Y-26851D02*
X33297Y-26929D01*
X33297Y-26851D02*
X33219Y-26929D01*
X33386Y-38937D02*
X33464Y-39015D01*
X33464Y-38937D02*
X33386Y-39015D01*
X33386Y-39615D02*
X33464Y-39693D01*
X33464Y-39615D02*
X33386Y-39693D01*
X33396Y-30079D02*
X33474Y-30157D01*
X33474Y-30079D02*
X33396Y-30157D01*
X33534Y-26870D02*
X33612Y-26948D01*
X33612Y-26870D02*
X33534Y-26948D01*
X33536Y-29016D02*
X33614Y-29094D01*
X33614Y-29016D02*
X33536Y-29094D01*
X33729Y-38922D02*
X33807Y-39000D01*
X33807Y-38922D02*
X33729Y-39000D01*
X33790Y-25985D02*
X33868Y-26063D01*
X33868Y-25985D02*
X33790Y-26063D01*
X33849Y-22530D02*
X33927Y-22608D01*
X33927Y-22530D02*
X33849Y-22608D01*
X34024Y-38945D02*
X34102Y-39023D01*
X34102Y-38945D02*
X34024Y-39023D01*
X34144Y-44410D02*
X34222Y-44488D01*
X34222Y-44410D02*
X34144Y-44488D01*
X34163Y-28985D02*
X34241Y-29063D01*
X34241Y-28985D02*
X34163Y-29063D01*
X34166Y-38028D02*
X34244Y-38106D01*
X34244Y-38028D02*
X34166Y-38106D01*
X34343Y-29445D02*
X34421Y-29523D01*
X34421Y-29445D02*
X34343Y-29523D01*
X34394Y-39737D02*
X34472Y-39815D01*
X34472Y-39737D02*
X34394Y-39815D01*
X34394Y-43241D02*
X34472Y-43319D01*
X34472Y-43241D02*
X34394Y-43319D01*
X34469Y-28160D02*
X34547Y-28238D01*
X34547Y-28160D02*
X34469Y-28238D01*
X34607Y-38701D02*
X34685Y-38779D01*
X34685Y-38701D02*
X34607Y-38779D01*
X34634Y-40012D02*
X34712Y-40090D01*
X34712Y-40012D02*
X34634Y-40090D01*
X34634Y-41118D02*
X34712Y-41196D01*
X34712Y-41118D02*
X34634Y-41196D01*
X35008Y-32685D02*
X35086Y-32763D01*
X35086Y-32685D02*
X35008Y-32763D01*
X35079Y-41870D02*
X35157Y-41948D01*
X35157Y-41870D02*
X35079Y-41948D01*
X35118Y-34504D02*
X35196Y-34582D01*
X35196Y-34504D02*
X35118Y-34582D01*
X35168Y-36752D02*
X35246Y-36830D01*
X35246Y-36752D02*
X35168Y-36830D01*
X35300Y-34126D02*
X35378Y-34204D01*
X35378Y-34126D02*
X35300Y-34204D01*
X35424Y-34636D02*
X35502Y-34714D01*
X35502Y-34636D02*
X35424Y-34714D01*
X35571Y-34863D02*
X35649Y-34941D01*
X35649Y-34863D02*
X35571Y-34941D01*
X35583Y-31764D02*
X35661Y-31842D01*
X35661Y-31764D02*
X35583Y-31842D01*
X35603Y-33930D02*
X35681Y-34008D01*
X35681Y-33930D02*
X35603Y-34008D01*
X35603Y-38248D02*
X35681Y-38326D01*
X35681Y-38248D02*
X35603Y-38326D01*
X35607Y-33103D02*
X35685Y-33181D01*
X35685Y-33103D02*
X35607Y-33181D01*
X35607Y-34217D02*
X35685Y-34295D01*
X35685Y-34217D02*
X35607Y-34295D01*
X35607Y-37831D02*
X35685Y-37909D01*
X35685Y-37831D02*
X35607Y-37909D01*
X35701Y-22134D02*
X35779Y-22212D01*
X35779Y-22134D02*
X35701Y-22212D01*
X35758Y-36752D02*
X35836Y-36830D01*
X35836Y-36752D02*
X35758Y-36830D01*
X36467Y-36654D02*
X36545Y-36732D01*
X36545Y-36654D02*
X36467Y-36732D01*
X36634Y-34872D02*
X36712Y-34950D01*
X36712Y-34872D02*
X36634Y-34950D01*
X36664Y-35739D02*
X36742Y-35817D01*
X36742Y-35739D02*
X36664Y-35817D01*
X36742Y-34636D02*
X36820Y-34714D01*
X36820Y-34636D02*
X36742Y-34714D01*
X36878Y-30209D02*
X36956Y-30287D01*
X36956Y-30209D02*
X36878Y-30287D01*
X36882Y-30496D02*
X36960Y-30574D01*
X36960Y-30496D02*
X36882Y-30574D01*
X37083Y-30701D02*
X37161Y-30779D01*
X37161Y-30701D02*
X37083Y-30779D01*
X37146Y-33374D02*
X37224Y-33452D01*
X37224Y-33374D02*
X37146Y-33452D01*
X37197Y-31217D02*
X37275Y-31295D01*
X37275Y-31217D02*
X37197Y-31295D01*
X37225Y-34571D02*
X37303Y-34649D01*
X37303Y-34571D02*
X37225Y-34649D01*
X37280Y-34315D02*
X37358Y-34393D01*
X37358Y-34315D02*
X37280Y-34393D01*
X37410Y-29926D02*
X37488Y-30004D01*
X37488Y-29926D02*
X37410Y-30004D01*
X37516Y-33930D02*
X37594Y-34008D01*
X37594Y-33930D02*
X37516Y-34008D01*
X37559Y-29646D02*
X37637Y-29724D01*
X37637Y-29646D02*
X37559Y-29724D01*
X37697Y-29906D02*
X37775Y-29984D01*
X37775Y-29906D02*
X37697Y-29984D01*
X37697Y-43229D02*
X37775Y-43307D01*
X37775Y-43229D02*
X37697Y-43307D01*
X37930Y-29583D02*
X38008Y-29661D01*
X38008Y-29583D02*
X37930Y-29661D01*
X38002Y-43229D02*
X38080Y-43307D01*
X38080Y-43229D02*
X38002Y-43307D01*
X38396Y-42943D02*
X38474Y-43021D01*
X38474Y-42943D02*
X38396Y-43021D01*
X38416Y-41496D02*
X38494Y-41574D01*
X38494Y-41496D02*
X38416Y-41574D01*
X38554Y-38731D02*
X38632Y-38809D01*
X38632Y-38731D02*
X38554Y-38809D01*
X38977Y-42943D02*
X39055Y-43021D01*
X39055Y-42943D02*
X38977Y-43021D01*
X39115Y-43701D02*
X39193Y-43779D01*
X39193Y-43701D02*
X39115Y-43779D01*
X39400Y-39587D02*
X39478Y-39665D01*
X39478Y-39587D02*
X39400Y-39665D01*
X39748Y-27933D02*
X39826Y-28011D01*
X39826Y-27933D02*
X39748Y-28011D01*
X40315Y-43967D02*
X40393Y-44045D01*
X40393Y-43967D02*
X40315Y-44045D01*
X40463Y-29370D02*
X40541Y-29448D01*
X40541Y-29370D02*
X40463Y-29448D01*
X40473Y-38111D02*
X40551Y-38189D01*
X40551Y-38111D02*
X40473Y-38189D01*
X40473Y-39469D02*
X40551Y-39547D01*
X40551Y-39469D02*
X40473Y-39547D01*
X40532Y-21654D02*
X40610Y-21732D01*
X40610Y-21654D02*
X40532Y-21732D01*
X40601Y-22835D02*
X40679Y-22913D01*
X40679Y-22835D02*
X40601Y-22913D01*
X40660Y-24213D02*
X40738Y-24291D01*
X40738Y-24213D02*
X40660Y-24291D01*
X40660Y-24607D02*
X40738Y-24685D01*
X40738Y-24607D02*
X40660Y-24685D01*
X41044Y-42727D02*
X41122Y-42805D01*
X41122Y-42727D02*
X41044Y-42805D01*
X41197Y-44481D02*
X41275Y-44559D01*
X41275Y-44481D02*
X41197Y-44559D01*
X41221Y-43473D02*
X41299Y-43551D01*
X41299Y-43473D02*
X41221Y-43551D01*
X41304Y-27933D02*
X41382Y-28011D01*
X41382Y-27933D02*
X41304Y-28011D01*
X41485Y-44485D02*
X41563Y-44563D01*
X41563Y-44485D02*
X41485Y-44563D01*
X41489Y-43670D02*
X41567Y-43748D01*
X41567Y-43670D02*
X41489Y-43748D01*
X42491Y-43150D02*
X42569Y-43228D01*
X42569Y-43150D02*
X42491Y-43228D01*
X42491Y-43908D02*
X42569Y-43986D01*
X42569Y-43908D02*
X42491Y-43986D01*
X23259Y-40441D02*
X23257Y-40456D01*
X23253Y-40470D01*
X23245Y-40484D01*
X23236Y-40495D01*
X23224Y-40505D01*
X23211Y-40512D01*
X23196Y-40517D01*
X23181Y-40518D01*
X23167Y-40517D01*
X23152Y-40513D01*
X23139Y-40506D01*
X23127Y-40496D01*
X23117Y-40485D01*
X23110Y-40471D01*
X23105Y-40457D01*
X23104Y-40442D01*
X23105Y-40427D01*
X23109Y-40413D01*
X23116Y-40399D01*
X23125Y-40387D01*
X23137Y-40377D01*
X23150Y-40370D01*
X23165Y-40365D01*
X23180Y-40364D01*
X23194Y-40365D01*
X23209Y-40369D01*
X23222Y-40376D01*
X23234Y-40385D01*
X23244Y-40397D01*
X23252Y-40410D01*
X23257Y-40424D01*
X23258Y-40439D01*
X23259Y-40441D01*
X23877Y-41106D02*
X23875Y-41121D01*
X23871Y-41135D01*
X23863Y-41149D01*
X23854Y-41160D01*
X23842Y-41170D01*
X23829Y-41177D01*
X23814Y-41182D01*
X23799Y-41183D01*
X23785Y-41182D01*
X23770Y-41178D01*
X23757Y-41171D01*
X23745Y-41161D01*
X23735Y-41150D01*
X23728Y-41136D01*
X23723Y-41122D01*
X23722Y-41107D01*
X23723Y-41092D01*
X23727Y-41078D01*
X23734Y-41064D01*
X23743Y-41052D01*
X23755Y-41042D01*
X23768Y-41035D01*
X23783Y-41030D01*
X23798Y-41029D01*
X23812Y-41030D01*
X23827Y-41034D01*
X23840Y-41041D01*
X23852Y-41050D01*
X23862Y-41062D01*
X23870Y-41075D01*
X23875Y-41089D01*
X23876Y-41104D01*
X23877Y-41106D01*
X24090Y-40476D02*
X24088Y-40491D01*
X24084Y-40505D01*
X24076Y-40519D01*
X24067Y-40530D01*
X24055Y-40540D01*
X24042Y-40547D01*
X24027Y-40552D01*
X24012Y-40553D01*
X23998Y-40552D01*
X23983Y-40548D01*
X23970Y-40541D01*
X23958Y-40531D01*
X23948Y-40520D01*
X23941Y-40506D01*
X23936Y-40492D01*
X23935Y-40477D01*
X23936Y-40462D01*
X23940Y-40448D01*
X23947Y-40434D01*
X23956Y-40422D01*
X23968Y-40412D01*
X23981Y-40405D01*
X23996Y-40400D01*
X24011Y-40399D01*
X24025Y-40400D01*
X24040Y-40404D01*
X24053Y-40411D01*
X24065Y-40420D01*
X24075Y-40432D01*
X24083Y-40445D01*
X24088Y-40459D01*
X24089Y-40474D01*
X24090Y-40476D01*
X20571Y-36585D02*
X20571Y-36781D01*
X20669Y-36683D02*
X20473Y-36683D01*
X21270Y-40246D02*
X21270Y-40442D01*
X21368Y-40344D02*
X21172Y-40344D01*
X21427Y-45168D02*
X21427Y-45364D01*
X21525Y-45266D02*
X21329Y-45266D01*
X21929Y-34418D02*
X21929Y-34614D01*
X22027Y-34516D02*
X21831Y-34516D01*
X22037Y-37284D02*
X22037Y-37480D01*
X22135Y-37382D02*
X21939Y-37382D01*
X23189Y-39695D02*
X23189Y-39891D01*
X23287Y-39793D02*
X23091Y-39793D01*
X23327Y-43691D02*
X23327Y-43887D01*
X23425Y-43789D02*
X23229Y-43789D01*
X24076Y-42046D02*
X24076Y-42242D01*
X24174Y-42144D02*
X23978Y-42144D01*
X24370Y-41752D02*
X24370Y-41948D01*
X24468Y-41850D02*
X24272Y-41850D01*
X24478Y-39725D02*
X24478Y-39921D01*
X24576Y-39823D02*
X24380Y-39823D01*
X24547Y-43750D02*
X24547Y-43946D01*
X24645Y-43848D02*
X24449Y-43848D01*
X24787Y-39130D02*
X24787Y-39326D01*
X24885Y-39228D02*
X24689Y-39228D01*
X25063Y-39658D02*
X25063Y-39854D01*
X25161Y-39756D02*
X24965Y-39756D01*
X27004Y-38245D02*
X27004Y-38441D01*
X27102Y-38343D02*
X26906Y-38343D01*
X30423Y-22432D02*
X30423Y-22628D01*
X30521Y-22530D02*
X30325Y-22530D01*
X31496Y-39075D02*
X31496Y-39271D01*
X31594Y-39173D02*
X31398Y-39173D01*
X34941Y-23101D02*
X34941Y-23297D01*
X35039Y-23199D02*
X34843Y-23199D01*
X35177Y-23682D02*
X35177Y-23878D01*
X35275Y-23780D02*
X35079Y-23780D01*
X35394Y-26319D02*
X35394Y-26515D01*
X35492Y-26417D02*
X35296Y-26417D01*
X38387Y-30266D02*
X38384Y-30292D01*
X38376Y-30318D01*
X38363Y-30342D01*
X38346Y-30363D01*
X38326Y-30380D01*
X38302Y-30393D01*
X38276Y-30401D01*
X38249Y-30403D01*
X38224Y-30401D01*
X38198Y-30393D01*
X38174Y-30381D01*
X38153Y-30364D01*
X38136Y-30343D01*
X38123Y-30320D01*
X38115Y-30294D01*
X38112Y-30267D01*
X38114Y-30242D01*
X38121Y-30216D01*
X38134Y-30192D01*
X38150Y-30171D01*
X38171Y-30153D01*
X38194Y-30140D01*
X38220Y-30132D01*
X38247Y-30129D01*
X38272Y-30131D01*
X38298Y-30138D01*
X38322Y-30150D01*
X38344Y-30167D01*
X38361Y-30187D01*
X38375Y-30210D01*
X38383Y-30236D01*
X38386Y-30263D01*
X38387Y-30266D01*
X38111Y-30128D02*
X38387Y-30404D01*
X38387Y-30128D02*
X38111Y-30404D01*
X38387Y-31054D02*
X38384Y-31080D01*
X38376Y-31106D01*
X38363Y-31130D01*
X38346Y-31151D01*
X38326Y-31168D01*
X38302Y-31181D01*
X38276Y-31189D01*
X38249Y-31191D01*
X38224Y-31189D01*
X38198Y-31181D01*
X38174Y-31169D01*
X38153Y-31152D01*
X38136Y-31131D01*
X38123Y-31108D01*
X38115Y-31082D01*
X38112Y-31055D01*
X38114Y-31030D01*
X38121Y-31004D01*
X38134Y-30980D01*
X38150Y-30959D01*
X38171Y-30941D01*
X38194Y-30928D01*
X38220Y-30920D01*
X38247Y-30917D01*
X38272Y-30919D01*
X38298Y-30926D01*
X38322Y-30938D01*
X38344Y-30955D01*
X38361Y-30975D01*
X38375Y-30998D01*
X38383Y-31024D01*
X38386Y-31051D01*
X38387Y-31054D01*
X38111Y-30916D02*
X38387Y-31192D01*
X38387Y-30916D02*
X38111Y-31192D01*
X38387Y-31841D02*
X38384Y-31867D01*
X38376Y-31893D01*
X38363Y-31917D01*
X38346Y-31938D01*
X38326Y-31955D01*
X38302Y-31968D01*
X38276Y-31976D01*
X38249Y-31978D01*
X38224Y-31976D01*
X38198Y-31968D01*
X38174Y-31956D01*
X38153Y-31939D01*
X38136Y-31918D01*
X38123Y-31895D01*
X38115Y-31869D01*
X38112Y-31842D01*
X38114Y-31817D01*
X38121Y-31791D01*
X38134Y-31767D01*
X38150Y-31746D01*
X38171Y-31728D01*
X38194Y-31715D01*
X38220Y-31707D01*
X38247Y-31704D01*
X38272Y-31706D01*
X38298Y-31713D01*
X38322Y-31725D01*
X38344Y-31742D01*
X38361Y-31762D01*
X38375Y-31785D01*
X38383Y-31811D01*
X38386Y-31838D01*
X38387Y-31841D01*
X38111Y-31703D02*
X38387Y-31979D01*
X38387Y-31703D02*
X38111Y-31979D01*
X38387Y-32629D02*
X38384Y-32655D01*
X38376Y-32681D01*
X38363Y-32705D01*
X38346Y-32726D01*
X38326Y-32743D01*
X38302Y-32756D01*
X38276Y-32764D01*
X38249Y-32766D01*
X38224Y-32764D01*
X38198Y-32756D01*
X38174Y-32744D01*
X38153Y-32727D01*
X38136Y-32706D01*
X38123Y-32683D01*
X38115Y-32657D01*
X38112Y-32630D01*
X38114Y-32605D01*
X38121Y-32579D01*
X38134Y-32555D01*
X38150Y-32534D01*
X38171Y-32516D01*
X38194Y-32503D01*
X38220Y-32495D01*
X38247Y-32492D01*
X38272Y-32494D01*
X38298Y-32501D01*
X38322Y-32513D01*
X38344Y-32530D01*
X38361Y-32550D01*
X38375Y-32573D01*
X38383Y-32599D01*
X38386Y-32626D01*
X38387Y-32629D01*
X38111Y-32491D02*
X38387Y-32767D01*
X38387Y-32491D02*
X38111Y-32767D01*
X38387Y-33416D02*
X38384Y-33442D01*
X38376Y-33468D01*
X38363Y-33492D01*
X38346Y-33513D01*
X38326Y-33530D01*
X38302Y-33543D01*
X38276Y-33551D01*
X38249Y-33553D01*
X38224Y-33551D01*
X38198Y-33543D01*
X38174Y-33531D01*
X38153Y-33514D01*
X38136Y-33493D01*
X38123Y-33470D01*
X38115Y-33444D01*
X38112Y-33417D01*
X38114Y-33392D01*
X38121Y-33366D01*
X38134Y-33342D01*
X38150Y-33321D01*
X38171Y-33303D01*
X38194Y-33290D01*
X38220Y-33282D01*
X38247Y-33279D01*
X38272Y-33281D01*
X38298Y-33288D01*
X38322Y-33300D01*
X38344Y-33317D01*
X38361Y-33337D01*
X38375Y-33360D01*
X38383Y-33386D01*
X38386Y-33413D01*
X38387Y-33416D01*
X38111Y-33278D02*
X38387Y-33554D01*
X38387Y-33278D02*
X38111Y-33554D01*
X38387Y-34991D02*
X38384Y-35017D01*
X38376Y-35043D01*
X38363Y-35067D01*
X38346Y-35088D01*
X38326Y-35105D01*
X38302Y-35118D01*
X38276Y-35126D01*
X38249Y-35128D01*
X38224Y-35126D01*
X38198Y-35118D01*
X38174Y-35106D01*
X38153Y-35089D01*
X38136Y-35068D01*
X38123Y-35045D01*
X38115Y-35019D01*
X38112Y-34992D01*
X38114Y-34967D01*
X38121Y-34941D01*
X38134Y-34917D01*
X38150Y-34896D01*
X38171Y-34878D01*
X38194Y-34865D01*
X38220Y-34857D01*
X38247Y-34854D01*
X38272Y-34856D01*
X38298Y-34863D01*
X38322Y-34875D01*
X38344Y-34892D01*
X38361Y-34912D01*
X38375Y-34935D01*
X38383Y-34961D01*
X38386Y-34988D01*
X38387Y-34991D01*
X38111Y-34853D02*
X38387Y-35129D01*
X38387Y-34853D02*
X38111Y-35129D01*
X38387Y-35778D02*
X38384Y-35804D01*
X38376Y-35830D01*
X38363Y-35854D01*
X38346Y-35875D01*
X38326Y-35892D01*
X38302Y-35905D01*
X38276Y-35913D01*
X38249Y-35915D01*
X38224Y-35913D01*
X38198Y-35905D01*
X38174Y-35893D01*
X38153Y-35876D01*
X38136Y-35855D01*
X38123Y-35832D01*
X38115Y-35806D01*
X38112Y-35779D01*
X38114Y-35754D01*
X38121Y-35728D01*
X38134Y-35704D01*
X38150Y-35683D01*
X38171Y-35665D01*
X38194Y-35652D01*
X38220Y-35644D01*
X38247Y-35641D01*
X38272Y-35643D01*
X38298Y-35650D01*
X38322Y-35662D01*
X38344Y-35679D01*
X38361Y-35699D01*
X38375Y-35722D01*
X38383Y-35748D01*
X38386Y-35775D01*
X38387Y-35778D01*
X38111Y-35640D02*
X38387Y-35916D01*
X38387Y-35640D02*
X38111Y-35916D01*
X38387Y-36566D02*
X38384Y-36592D01*
X38376Y-36618D01*
X38363Y-36642D01*
X38346Y-36663D01*
X38326Y-36680D01*
X38302Y-36693D01*
X38276Y-36701D01*
X38249Y-36703D01*
X38224Y-36701D01*
X38198Y-36693D01*
X38174Y-36681D01*
X38153Y-36664D01*
X38136Y-36643D01*
X38123Y-36620D01*
X38115Y-36594D01*
X38112Y-36567D01*
X38114Y-36542D01*
X38121Y-36516D01*
X38134Y-36492D01*
X38150Y-36471D01*
X38171Y-36453D01*
X38194Y-36440D01*
X38220Y-36432D01*
X38247Y-36429D01*
X38272Y-36431D01*
X38298Y-36438D01*
X38322Y-36450D01*
X38344Y-36467D01*
X38361Y-36487D01*
X38375Y-36510D01*
X38383Y-36536D01*
X38386Y-36563D01*
X38387Y-36566D01*
X38111Y-36428D02*
X38387Y-36704D01*
X38387Y-36428D02*
X38111Y-36704D01*
X38387Y-37353D02*
X38384Y-37379D01*
X38376Y-37405D01*
X38363Y-37429D01*
X38346Y-37450D01*
X38326Y-37467D01*
X38302Y-37480D01*
X38276Y-37488D01*
X38249Y-37490D01*
X38224Y-37488D01*
X38198Y-37480D01*
X38174Y-37468D01*
X38153Y-37451D01*
X38136Y-37430D01*
X38123Y-37407D01*
X38115Y-37381D01*
X38112Y-37354D01*
X38114Y-37329D01*
X38121Y-37303D01*
X38134Y-37279D01*
X38150Y-37258D01*
X38171Y-37240D01*
X38194Y-37227D01*
X38220Y-37219D01*
X38247Y-37216D01*
X38272Y-37218D01*
X38298Y-37225D01*
X38322Y-37237D01*
X38344Y-37254D01*
X38361Y-37274D01*
X38375Y-37297D01*
X38383Y-37323D01*
X38386Y-37350D01*
X38387Y-37353D01*
X38111Y-37215D02*
X38387Y-37491D01*
X38387Y-37215D02*
X38111Y-37491D01*
X39174Y-29873D02*
X39171Y-29899D01*
X39163Y-29925D01*
X39150Y-29949D01*
X39133Y-29970D01*
X39113Y-29987D01*
X39089Y-30000D01*
X39063Y-30008D01*
X39036Y-30010D01*
X39011Y-30008D01*
X38985Y-30000D01*
X38961Y-29988D01*
X38940Y-29971D01*
X38923Y-29950D01*
X38910Y-29927D01*
X38902Y-29901D01*
X38899Y-29874D01*
X38901Y-29849D01*
X38908Y-29823D01*
X38921Y-29799D01*
X38937Y-29778D01*
X38958Y-29760D01*
X38981Y-29747D01*
X39007Y-29739D01*
X39034Y-29736D01*
X39059Y-29738D01*
X39085Y-29745D01*
X39109Y-29757D01*
X39131Y-29774D01*
X39148Y-29794D01*
X39162Y-29817D01*
X39170Y-29843D01*
X39173Y-29870D01*
X39174Y-29873D01*
X38898Y-29735D02*
X39174Y-30011D01*
X39174Y-29735D02*
X38898Y-30011D01*
X39174Y-30660D02*
X39171Y-30686D01*
X39163Y-30712D01*
X39150Y-30736D01*
X39133Y-30757D01*
X39113Y-30774D01*
X39089Y-30787D01*
X39063Y-30795D01*
X39036Y-30797D01*
X39011Y-30795D01*
X38985Y-30787D01*
X38961Y-30775D01*
X38940Y-30758D01*
X38923Y-30737D01*
X38910Y-30714D01*
X38902Y-30688D01*
X38899Y-30661D01*
X38901Y-30636D01*
X38908Y-30610D01*
X38921Y-30586D01*
X38937Y-30565D01*
X38958Y-30547D01*
X38981Y-30534D01*
X39007Y-30526D01*
X39034Y-30523D01*
X39059Y-30525D01*
X39085Y-30532D01*
X39109Y-30544D01*
X39131Y-30561D01*
X39148Y-30581D01*
X39162Y-30604D01*
X39170Y-30630D01*
X39173Y-30657D01*
X39174Y-30660D01*
X38898Y-30522D02*
X39174Y-30798D01*
X39174Y-30522D02*
X38898Y-30798D01*
X39174Y-31447D02*
X39171Y-31473D01*
X39163Y-31499D01*
X39150Y-31523D01*
X39133Y-31544D01*
X39113Y-31561D01*
X39089Y-31574D01*
X39063Y-31582D01*
X39036Y-31584D01*
X39011Y-31582D01*
X38985Y-31574D01*
X38961Y-31562D01*
X38940Y-31545D01*
X38923Y-31524D01*
X38910Y-31501D01*
X38902Y-31475D01*
X38899Y-31448D01*
X38901Y-31423D01*
X38908Y-31397D01*
X38921Y-31373D01*
X38937Y-31352D01*
X38958Y-31334D01*
X38981Y-31321D01*
X39007Y-31313D01*
X39034Y-31310D01*
X39059Y-31312D01*
X39085Y-31319D01*
X39109Y-31331D01*
X39131Y-31348D01*
X39148Y-31368D01*
X39162Y-31391D01*
X39170Y-31417D01*
X39173Y-31444D01*
X39174Y-31447D01*
X38898Y-31309D02*
X39174Y-31585D01*
X39174Y-31309D02*
X38898Y-31585D01*
X39174Y-32235D02*
X39171Y-32261D01*
X39163Y-32287D01*
X39150Y-32311D01*
X39133Y-32332D01*
X39113Y-32349D01*
X39089Y-32362D01*
X39063Y-32370D01*
X39036Y-32372D01*
X39011Y-32370D01*
X38985Y-32362D01*
X38961Y-32350D01*
X38940Y-32333D01*
X38923Y-32312D01*
X38910Y-32289D01*
X38902Y-32263D01*
X38899Y-32236D01*
X38901Y-32211D01*
X38908Y-32185D01*
X38921Y-32161D01*
X38937Y-32140D01*
X38958Y-32122D01*
X38981Y-32109D01*
X39007Y-32101D01*
X39034Y-32098D01*
X39059Y-32100D01*
X39085Y-32107D01*
X39109Y-32119D01*
X39131Y-32136D01*
X39148Y-32156D01*
X39162Y-32179D01*
X39170Y-32205D01*
X39173Y-32232D01*
X39174Y-32235D01*
X38898Y-32097D02*
X39174Y-32373D01*
X39174Y-32097D02*
X38898Y-32373D01*
X39174Y-33022D02*
X39171Y-33048D01*
X39163Y-33074D01*
X39150Y-33098D01*
X39133Y-33119D01*
X39113Y-33136D01*
X39089Y-33149D01*
X39063Y-33157D01*
X39036Y-33159D01*
X39011Y-33157D01*
X38985Y-33149D01*
X38961Y-33137D01*
X38940Y-33120D01*
X38923Y-33099D01*
X38910Y-33076D01*
X38902Y-33050D01*
X38899Y-33023D01*
X38901Y-32998D01*
X38908Y-32972D01*
X38921Y-32948D01*
X38937Y-32927D01*
X38958Y-32909D01*
X38981Y-32896D01*
X39007Y-32888D01*
X39034Y-32885D01*
X39059Y-32887D01*
X39085Y-32894D01*
X39109Y-32906D01*
X39131Y-32923D01*
X39148Y-32943D01*
X39162Y-32966D01*
X39170Y-32992D01*
X39173Y-33019D01*
X39174Y-33022D01*
X38898Y-32884D02*
X39174Y-33160D01*
X39174Y-32884D02*
X38898Y-33160D01*
X39174Y-33810D02*
X39171Y-33836D01*
X39163Y-33862D01*
X39150Y-33886D01*
X39133Y-33907D01*
X39113Y-33924D01*
X39089Y-33937D01*
X39063Y-33945D01*
X39036Y-33947D01*
X39011Y-33945D01*
X38985Y-33937D01*
X38961Y-33925D01*
X38940Y-33908D01*
X38923Y-33887D01*
X38910Y-33864D01*
X38902Y-33838D01*
X38899Y-33811D01*
X38901Y-33786D01*
X38908Y-33760D01*
X38921Y-33736D01*
X38937Y-33715D01*
X38958Y-33697D01*
X38981Y-33684D01*
X39007Y-33676D01*
X39034Y-33673D01*
X39059Y-33675D01*
X39085Y-33682D01*
X39109Y-33694D01*
X39131Y-33711D01*
X39148Y-33731D01*
X39162Y-33754D01*
X39170Y-33780D01*
X39173Y-33807D01*
X39174Y-33810D01*
X38898Y-33672D02*
X39174Y-33948D01*
X39174Y-33672D02*
X38898Y-33948D01*
X39174Y-35385D02*
X39171Y-35411D01*
X39163Y-35437D01*
X39150Y-35461D01*
X39133Y-35482D01*
X39113Y-35499D01*
X39089Y-35512D01*
X39063Y-35520D01*
X39036Y-35522D01*
X39011Y-35520D01*
X38985Y-35512D01*
X38961Y-35500D01*
X38940Y-35483D01*
X38923Y-35462D01*
X38910Y-35439D01*
X38902Y-35413D01*
X38899Y-35386D01*
X38901Y-35361D01*
X38908Y-35335D01*
X38921Y-35311D01*
X38937Y-35290D01*
X38958Y-35272D01*
X38981Y-35259D01*
X39007Y-35251D01*
X39034Y-35248D01*
X39059Y-35250D01*
X39085Y-35257D01*
X39109Y-35269D01*
X39131Y-35286D01*
X39148Y-35306D01*
X39162Y-35329D01*
X39170Y-35355D01*
X39173Y-35382D01*
X39174Y-35385D01*
X38898Y-35247D02*
X39174Y-35523D01*
X39174Y-35247D02*
X38898Y-35523D01*
X39174Y-36172D02*
X39171Y-36198D01*
X39163Y-36224D01*
X39150Y-36248D01*
X39133Y-36269D01*
X39113Y-36286D01*
X39089Y-36299D01*
X39063Y-36307D01*
X39036Y-36309D01*
X39011Y-36307D01*
X38985Y-36299D01*
X38961Y-36287D01*
X38940Y-36270D01*
X38923Y-36249D01*
X38910Y-36226D01*
X38902Y-36200D01*
X38899Y-36173D01*
X38901Y-36148D01*
X38908Y-36122D01*
X38921Y-36098D01*
X38937Y-36077D01*
X38958Y-36059D01*
X38981Y-36046D01*
X39007Y-36038D01*
X39034Y-36035D01*
X39059Y-36037D01*
X39085Y-36044D01*
X39109Y-36056D01*
X39131Y-36073D01*
X39148Y-36093D01*
X39162Y-36116D01*
X39170Y-36142D01*
X39173Y-36169D01*
X39174Y-36172D01*
X38898Y-36034D02*
X39174Y-36310D01*
X39174Y-36034D02*
X38898Y-36310D01*
X39174Y-36959D02*
X39171Y-36985D01*
X39163Y-37011D01*
X39150Y-37035D01*
X39133Y-37056D01*
X39113Y-37073D01*
X39089Y-37086D01*
X39063Y-37094D01*
X39036Y-37096D01*
X39011Y-37094D01*
X38985Y-37086D01*
X38961Y-37074D01*
X38940Y-37057D01*
X38923Y-37036D01*
X38910Y-37013D01*
X38902Y-36987D01*
X38899Y-36960D01*
X38901Y-36935D01*
X38908Y-36909D01*
X38921Y-36885D01*
X38937Y-36864D01*
X38958Y-36846D01*
X38981Y-36833D01*
X39007Y-36825D01*
X39034Y-36822D01*
X39059Y-36824D01*
X39085Y-36831D01*
X39109Y-36843D01*
X39131Y-36860D01*
X39148Y-36880D01*
X39162Y-36903D01*
X39170Y-36929D01*
X39173Y-36956D01*
X39174Y-36959D01*
X38898Y-36821D02*
X39174Y-37097D01*
X39174Y-36821D02*
X38898Y-37097D01*
X40158Y-29872D02*
X40155Y-29898D01*
X40147Y-29924D01*
X40134Y-29948D01*
X40117Y-29969D01*
X40097Y-29986D01*
X40073Y-29999D01*
X40047Y-30007D01*
X40020Y-30009D01*
X39995Y-30007D01*
X39969Y-29999D01*
X39945Y-29987D01*
X39924Y-29970D01*
X39907Y-29949D01*
X39894Y-29926D01*
X39886Y-29900D01*
X39883Y-29873D01*
X39885Y-29848D01*
X39892Y-29822D01*
X39905Y-29798D01*
X39921Y-29777D01*
X39942Y-29759D01*
X39965Y-29746D01*
X39991Y-29738D01*
X40018Y-29735D01*
X40043Y-29737D01*
X40069Y-29744D01*
X40093Y-29756D01*
X40115Y-29773D01*
X40132Y-29793D01*
X40146Y-29816D01*
X40154Y-29842D01*
X40157Y-29869D01*
X40158Y-29872D01*
X39882Y-29734D02*
X40158Y-30010D01*
X40158Y-29734D02*
X39882Y-30010D01*
X40158Y-30660D02*
X40155Y-30686D01*
X40147Y-30712D01*
X40134Y-30736D01*
X40117Y-30757D01*
X40097Y-30774D01*
X40073Y-30787D01*
X40047Y-30795D01*
X40020Y-30797D01*
X39995Y-30795D01*
X39969Y-30787D01*
X39945Y-30775D01*
X39924Y-30758D01*
X39907Y-30737D01*
X39894Y-30714D01*
X39886Y-30688D01*
X39883Y-30661D01*
X39885Y-30636D01*
X39892Y-30610D01*
X39905Y-30586D01*
X39921Y-30565D01*
X39942Y-30547D01*
X39965Y-30534D01*
X39991Y-30526D01*
X40018Y-30523D01*
X40043Y-30525D01*
X40069Y-30532D01*
X40093Y-30544D01*
X40115Y-30561D01*
X40132Y-30581D01*
X40146Y-30604D01*
X40154Y-30630D01*
X40157Y-30657D01*
X40158Y-30660D01*
X39882Y-30522D02*
X40158Y-30798D01*
X40158Y-30522D02*
X39882Y-30798D01*
X40158Y-31447D02*
X40155Y-31473D01*
X40147Y-31499D01*
X40134Y-31523D01*
X40117Y-31544D01*
X40097Y-31561D01*
X40073Y-31574D01*
X40047Y-31582D01*
X40020Y-31584D01*
X39995Y-31582D01*
X39969Y-31574D01*
X39945Y-31562D01*
X39924Y-31545D01*
X39907Y-31524D01*
X39894Y-31501D01*
X39886Y-31475D01*
X39883Y-31448D01*
X39885Y-31423D01*
X39892Y-31397D01*
X39905Y-31373D01*
X39921Y-31352D01*
X39942Y-31334D01*
X39965Y-31321D01*
X39991Y-31313D01*
X40018Y-31310D01*
X40043Y-31312D01*
X40069Y-31319D01*
X40093Y-31331D01*
X40115Y-31348D01*
X40132Y-31368D01*
X40146Y-31391D01*
X40154Y-31417D01*
X40157Y-31444D01*
X40158Y-31447D01*
X39882Y-31309D02*
X40158Y-31585D01*
X40158Y-31309D02*
X39882Y-31585D01*
X40158Y-32235D02*
X40155Y-32261D01*
X40147Y-32287D01*
X40134Y-32311D01*
X40117Y-32332D01*
X40097Y-32349D01*
X40073Y-32362D01*
X40047Y-32370D01*
X40020Y-32372D01*
X39995Y-32370D01*
X39969Y-32362D01*
X39945Y-32350D01*
X39924Y-32333D01*
X39907Y-32312D01*
X39894Y-32289D01*
X39886Y-32263D01*
X39883Y-32236D01*
X39885Y-32211D01*
X39892Y-32185D01*
X39905Y-32161D01*
X39921Y-32140D01*
X39942Y-32122D01*
X39965Y-32109D01*
X39991Y-32101D01*
X40018Y-32098D01*
X40043Y-32100D01*
X40069Y-32107D01*
X40093Y-32119D01*
X40115Y-32136D01*
X40132Y-32156D01*
X40146Y-32179D01*
X40154Y-32205D01*
X40157Y-32232D01*
X40158Y-32235D01*
X39882Y-32097D02*
X40158Y-32373D01*
X40158Y-32097D02*
X39882Y-32373D01*
X40158Y-33022D02*
X40155Y-33048D01*
X40147Y-33074D01*
X40134Y-33098D01*
X40117Y-33119D01*
X40097Y-33136D01*
X40073Y-33149D01*
X40047Y-33157D01*
X40020Y-33159D01*
X39995Y-33157D01*
X39969Y-33149D01*
X39945Y-33137D01*
X39924Y-33120D01*
X39907Y-33099D01*
X39894Y-33076D01*
X39886Y-33050D01*
X39883Y-33023D01*
X39885Y-32998D01*
X39892Y-32972D01*
X39905Y-32948D01*
X39921Y-32927D01*
X39942Y-32909D01*
X39965Y-32896D01*
X39991Y-32888D01*
X40018Y-32885D01*
X40043Y-32887D01*
X40069Y-32894D01*
X40093Y-32906D01*
X40115Y-32923D01*
X40132Y-32943D01*
X40146Y-32966D01*
X40154Y-32992D01*
X40157Y-33019D01*
X40158Y-33022D01*
X39882Y-32884D02*
X40158Y-33160D01*
X40158Y-32884D02*
X39882Y-33160D01*
X40158Y-33810D02*
X40155Y-33836D01*
X40147Y-33862D01*
X40134Y-33886D01*
X40117Y-33907D01*
X40097Y-33924D01*
X40073Y-33937D01*
X40047Y-33945D01*
X40020Y-33947D01*
X39995Y-33945D01*
X39969Y-33937D01*
X39945Y-33925D01*
X39924Y-33908D01*
X39907Y-33887D01*
X39894Y-33864D01*
X39886Y-33838D01*
X39883Y-33811D01*
X39885Y-33786D01*
X39892Y-33760D01*
X39905Y-33736D01*
X39921Y-33715D01*
X39942Y-33697D01*
X39965Y-33684D01*
X39991Y-33676D01*
X40018Y-33673D01*
X40043Y-33675D01*
X40069Y-33682D01*
X40093Y-33694D01*
X40115Y-33711D01*
X40132Y-33731D01*
X40146Y-33754D01*
X40154Y-33780D01*
X40157Y-33807D01*
X40158Y-33810D01*
X39882Y-33672D02*
X40158Y-33948D01*
X40158Y-33672D02*
X39882Y-33948D01*
X40158Y-35385D02*
X40155Y-35411D01*
X40147Y-35437D01*
X40134Y-35461D01*
X40117Y-35482D01*
X40097Y-35499D01*
X40073Y-35512D01*
X40047Y-35520D01*
X40020Y-35522D01*
X39995Y-35520D01*
X39969Y-35512D01*
X39945Y-35500D01*
X39924Y-35483D01*
X39907Y-35462D01*
X39894Y-35439D01*
X39886Y-35413D01*
X39883Y-35386D01*
X39885Y-35361D01*
X39892Y-35335D01*
X39905Y-35311D01*
X39921Y-35290D01*
X39942Y-35272D01*
X39965Y-35259D01*
X39991Y-35251D01*
X40018Y-35248D01*
X40043Y-35250D01*
X40069Y-35257D01*
X40093Y-35269D01*
X40115Y-35286D01*
X40132Y-35306D01*
X40146Y-35329D01*
X40154Y-35355D01*
X40157Y-35382D01*
X40158Y-35385D01*
X39882Y-35247D02*
X40158Y-35523D01*
X40158Y-35247D02*
X39882Y-35523D01*
X40158Y-36172D02*
X40155Y-36198D01*
X40147Y-36224D01*
X40134Y-36248D01*
X40117Y-36269D01*
X40097Y-36286D01*
X40073Y-36299D01*
X40047Y-36307D01*
X40020Y-36309D01*
X39995Y-36307D01*
X39969Y-36299D01*
X39945Y-36287D01*
X39924Y-36270D01*
X39907Y-36249D01*
X39894Y-36226D01*
X39886Y-36200D01*
X39883Y-36173D01*
X39885Y-36148D01*
X39892Y-36122D01*
X39905Y-36098D01*
X39921Y-36077D01*
X39942Y-36059D01*
X39965Y-36046D01*
X39991Y-36038D01*
X40018Y-36035D01*
X40043Y-36037D01*
X40069Y-36044D01*
X40093Y-36056D01*
X40115Y-36073D01*
X40132Y-36093D01*
X40146Y-36116D01*
X40154Y-36142D01*
X40157Y-36169D01*
X40158Y-36172D01*
X39882Y-36034D02*
X40158Y-36310D01*
X40158Y-36034D02*
X39882Y-36310D01*
X40158Y-36959D02*
X40155Y-36985D01*
X40147Y-37011D01*
X40134Y-37035D01*
X40117Y-37056D01*
X40097Y-37073D01*
X40073Y-37086D01*
X40047Y-37094D01*
X40020Y-37096D01*
X39995Y-37094D01*
X39969Y-37086D01*
X39945Y-37074D01*
X39924Y-37057D01*
X39907Y-37036D01*
X39894Y-37013D01*
X39886Y-36987D01*
X39883Y-36960D01*
X39885Y-36935D01*
X39892Y-36909D01*
X39905Y-36885D01*
X39921Y-36864D01*
X39942Y-36846D01*
X39965Y-36833D01*
X39991Y-36825D01*
X40018Y-36822D01*
X40043Y-36824D01*
X40069Y-36831D01*
X40093Y-36843D01*
X40115Y-36860D01*
X40132Y-36880D01*
X40146Y-36903D01*
X40154Y-36929D01*
X40157Y-36956D01*
X40158Y-36959D01*
X39882Y-36821D02*
X40158Y-37097D01*
X40158Y-36821D02*
X39882Y-37097D01*
X40945Y-30266D02*
X40942Y-30292D01*
X40934Y-30318D01*
X40921Y-30342D01*
X40904Y-30363D01*
X40884Y-30380D01*
X40860Y-30393D01*
X40834Y-30401D01*
X40807Y-30403D01*
X40782Y-30401D01*
X40756Y-30393D01*
X40732Y-30381D01*
X40711Y-30364D01*
X40694Y-30343D01*
X40681Y-30320D01*
X40673Y-30294D01*
X40670Y-30267D01*
X40672Y-30242D01*
X40679Y-30216D01*
X40692Y-30192D01*
X40708Y-30171D01*
X40729Y-30153D01*
X40752Y-30140D01*
X40778Y-30132D01*
X40805Y-30129D01*
X40830Y-30131D01*
X40856Y-30138D01*
X40880Y-30150D01*
X40902Y-30167D01*
X40919Y-30187D01*
X40933Y-30210D01*
X40941Y-30236D01*
X40944Y-30263D01*
X40945Y-30266D01*
X40669Y-30128D02*
X40945Y-30404D01*
X40945Y-30128D02*
X40669Y-30404D01*
X40945Y-31054D02*
X40942Y-31080D01*
X40934Y-31106D01*
X40921Y-31130D01*
X40904Y-31151D01*
X40884Y-31168D01*
X40860Y-31181D01*
X40834Y-31189D01*
X40807Y-31191D01*
X40782Y-31189D01*
X40756Y-31181D01*
X40732Y-31169D01*
X40711Y-31152D01*
X40694Y-31131D01*
X40681Y-31108D01*
X40673Y-31082D01*
X40670Y-31055D01*
X40672Y-31030D01*
X40679Y-31004D01*
X40692Y-30980D01*
X40708Y-30959D01*
X40729Y-30941D01*
X40752Y-30928D01*
X40778Y-30920D01*
X40805Y-30917D01*
X40830Y-30919D01*
X40856Y-30926D01*
X40880Y-30938D01*
X40902Y-30955D01*
X40919Y-30975D01*
X40933Y-30998D01*
X40941Y-31024D01*
X40944Y-31051D01*
X40945Y-31054D01*
X40669Y-30916D02*
X40945Y-31192D01*
X40945Y-30916D02*
X40669Y-31192D01*
X40945Y-31841D02*
X40942Y-31867D01*
X40934Y-31893D01*
X40921Y-31917D01*
X40904Y-31938D01*
X40884Y-31955D01*
X40860Y-31968D01*
X40834Y-31976D01*
X40807Y-31978D01*
X40782Y-31976D01*
X40756Y-31968D01*
X40732Y-31956D01*
X40711Y-31939D01*
X40694Y-31918D01*
X40681Y-31895D01*
X40673Y-31869D01*
X40670Y-31842D01*
X40672Y-31817D01*
X40679Y-31791D01*
X40692Y-31767D01*
X40708Y-31746D01*
X40729Y-31728D01*
X40752Y-31715D01*
X40778Y-31707D01*
X40805Y-31704D01*
X40830Y-31706D01*
X40856Y-31713D01*
X40880Y-31725D01*
X40902Y-31742D01*
X40919Y-31762D01*
X40933Y-31785D01*
X40941Y-31811D01*
X40944Y-31838D01*
X40945Y-31841D01*
X40669Y-31703D02*
X40945Y-31979D01*
X40945Y-31703D02*
X40669Y-31979D01*
X40945Y-32628D02*
X40942Y-32654D01*
X40934Y-32680D01*
X40921Y-32704D01*
X40904Y-32725D01*
X40884Y-32742D01*
X40860Y-32755D01*
X40834Y-32763D01*
X40807Y-32765D01*
X40782Y-32763D01*
X40756Y-32755D01*
X40732Y-32743D01*
X40711Y-32726D01*
X40694Y-32705D01*
X40681Y-32682D01*
X40673Y-32656D01*
X40670Y-32629D01*
X40672Y-32604D01*
X40679Y-32578D01*
X40692Y-32554D01*
X40708Y-32533D01*
X40729Y-32515D01*
X40752Y-32502D01*
X40778Y-32494D01*
X40805Y-32491D01*
X40830Y-32493D01*
X40856Y-32500D01*
X40880Y-32512D01*
X40902Y-32529D01*
X40919Y-32549D01*
X40933Y-32572D01*
X40941Y-32598D01*
X40944Y-32625D01*
X40945Y-32628D01*
X40669Y-32490D02*
X40945Y-32766D01*
X40945Y-32490D02*
X40669Y-32766D01*
X40945Y-33416D02*
X40942Y-33442D01*
X40934Y-33468D01*
X40921Y-33492D01*
X40904Y-33513D01*
X40884Y-33530D01*
X40860Y-33543D01*
X40834Y-33551D01*
X40807Y-33553D01*
X40782Y-33551D01*
X40756Y-33543D01*
X40732Y-33531D01*
X40711Y-33514D01*
X40694Y-33493D01*
X40681Y-33470D01*
X40673Y-33444D01*
X40670Y-33417D01*
X40672Y-33392D01*
X40679Y-33366D01*
X40692Y-33342D01*
X40708Y-33321D01*
X40729Y-33303D01*
X40752Y-33290D01*
X40778Y-33282D01*
X40805Y-33279D01*
X40830Y-33281D01*
X40856Y-33288D01*
X40880Y-33300D01*
X40902Y-33317D01*
X40919Y-33337D01*
X40933Y-33360D01*
X40941Y-33386D01*
X40944Y-33413D01*
X40945Y-33416D01*
X40669Y-33278D02*
X40945Y-33554D01*
X40945Y-33278D02*
X40669Y-33554D01*
X40946Y-34991D02*
X40943Y-35017D01*
X40935Y-35043D01*
X40922Y-35067D01*
X40905Y-35088D01*
X40885Y-35105D01*
X40861Y-35118D01*
X40835Y-35126D01*
X40808Y-35128D01*
X40783Y-35126D01*
X40757Y-35118D01*
X40733Y-35106D01*
X40712Y-35089D01*
X40695Y-35068D01*
X40682Y-35045D01*
X40674Y-35019D01*
X40671Y-34992D01*
X40673Y-34967D01*
X40680Y-34941D01*
X40693Y-34917D01*
X40709Y-34896D01*
X40730Y-34878D01*
X40753Y-34865D01*
X40779Y-34857D01*
X40806Y-34854D01*
X40831Y-34856D01*
X40857Y-34863D01*
X40881Y-34875D01*
X40903Y-34892D01*
X40920Y-34912D01*
X40934Y-34935D01*
X40942Y-34961D01*
X40945Y-34988D01*
X40946Y-34991D01*
X40670Y-34853D02*
X40946Y-35129D01*
X40946Y-34853D02*
X40670Y-35129D01*
X40946Y-35778D02*
X40943Y-35804D01*
X40935Y-35830D01*
X40922Y-35854D01*
X40905Y-35875D01*
X40885Y-35892D01*
X40861Y-35905D01*
X40835Y-35913D01*
X40808Y-35915D01*
X40783Y-35913D01*
X40757Y-35905D01*
X40733Y-35893D01*
X40712Y-35876D01*
X40695Y-35855D01*
X40682Y-35832D01*
X40674Y-35806D01*
X40671Y-35779D01*
X40673Y-35754D01*
X40680Y-35728D01*
X40693Y-35704D01*
X40709Y-35683D01*
X40730Y-35665D01*
X40753Y-35652D01*
X40779Y-35644D01*
X40806Y-35641D01*
X40831Y-35643D01*
X40857Y-35650D01*
X40881Y-35662D01*
X40903Y-35679D01*
X40920Y-35699D01*
X40934Y-35722D01*
X40942Y-35748D01*
X40945Y-35775D01*
X40946Y-35778D01*
X40670Y-35640D02*
X40946Y-35916D01*
X40946Y-35640D02*
X40670Y-35916D01*
X40946Y-36566D02*
X40943Y-36592D01*
X40935Y-36618D01*
X40922Y-36642D01*
X40905Y-36663D01*
X40885Y-36680D01*
X40861Y-36693D01*
X40835Y-36701D01*
X40808Y-36703D01*
X40783Y-36701D01*
X40757Y-36693D01*
X40733Y-36681D01*
X40712Y-36664D01*
X40695Y-36643D01*
X40682Y-36620D01*
X40674Y-36594D01*
X40671Y-36567D01*
X40673Y-36542D01*
X40680Y-36516D01*
X40693Y-36492D01*
X40709Y-36471D01*
X40730Y-36453D01*
X40753Y-36440D01*
X40779Y-36432D01*
X40806Y-36429D01*
X40831Y-36431D01*
X40857Y-36438D01*
X40881Y-36450D01*
X40903Y-36467D01*
X40920Y-36487D01*
X40934Y-36510D01*
X40942Y-36536D01*
X40945Y-36563D01*
X40946Y-36566D01*
X40670Y-36428D02*
X40946Y-36704D01*
X40946Y-36428D02*
X40670Y-36704D01*
X40946Y-37353D02*
X40943Y-37379D01*
X40935Y-37405D01*
X40922Y-37429D01*
X40905Y-37450D01*
X40885Y-37467D01*
X40861Y-37480D01*
X40835Y-37488D01*
X40808Y-37490D01*
X40783Y-37488D01*
X40757Y-37480D01*
X40733Y-37468D01*
X40712Y-37451D01*
X40695Y-37430D01*
X40682Y-37407D01*
X40674Y-37381D01*
X40671Y-37354D01*
X40673Y-37329D01*
X40680Y-37303D01*
X40693Y-37279D01*
X40709Y-37258D01*
X40730Y-37240D01*
X40753Y-37227D01*
X40779Y-37219D01*
X40806Y-37216D01*
X40831Y-37218D01*
X40857Y-37225D01*
X40881Y-37237D01*
X40903Y-37254D01*
X40920Y-37274D01*
X40934Y-37297D01*
X40942Y-37323D01*
X40945Y-37350D01*
X40946Y-37353D01*
X40670Y-37215D02*
X40946Y-37491D01*
X40946Y-37215D02*
X40670Y-37491D01*
X22503Y-47442D02*
X22499Y-47473D01*
X22490Y-47502D01*
X22476Y-47530D01*
X22456Y-47554D01*
X22432Y-47574D01*
X22405Y-47589D01*
X22375Y-47598D01*
X22344Y-47601D01*
X22314Y-47599D01*
X22284Y-47590D01*
X22256Y-47575D01*
X22232Y-47556D01*
X22211Y-47532D01*
X22196Y-47505D01*
X22187Y-47475D01*
X22184Y-47444D01*
X22186Y-47414D01*
X22195Y-47384D01*
X22209Y-47356D01*
X22228Y-47331D01*
X22252Y-47311D01*
X22279Y-47296D01*
X22309Y-47286D01*
X22340Y-47283D01*
X22370Y-47285D01*
X22400Y-47293D01*
X22428Y-47307D01*
X22453Y-47327D01*
X22473Y-47350D01*
X22489Y-47377D01*
X22499Y-47407D01*
X22502Y-47438D01*
X22503Y-47442D01*
X22183Y-47442D02*
X22503Y-47442D01*
X22503Y-48442D02*
X22499Y-48473D01*
X22490Y-48502D01*
X22476Y-48530D01*
X22456Y-48554D01*
X22432Y-48574D01*
X22405Y-48589D01*
X22375Y-48598D01*
X22344Y-48601D01*
X22314Y-48599D01*
X22284Y-48590D01*
X22256Y-48575D01*
X22232Y-48556D01*
X22211Y-48532D01*
X22196Y-48505D01*
X22187Y-48475D01*
X22184Y-48444D01*
X22186Y-48414D01*
X22195Y-48384D01*
X22209Y-48356D01*
X22228Y-48331D01*
X22252Y-48311D01*
X22279Y-48296D01*
X22309Y-48286D01*
X22340Y-48283D01*
X22370Y-48285D01*
X22400Y-48293D01*
X22428Y-48307D01*
X22453Y-48327D01*
X22473Y-48350D01*
X22489Y-48377D01*
X22499Y-48407D01*
X22502Y-48438D01*
X22503Y-48442D01*
X22183Y-48442D02*
X22503Y-48442D01*
X24461Y-35110D02*
X24457Y-35141D01*
X24448Y-35170D01*
X24434Y-35198D01*
X24414Y-35222D01*
X24390Y-35242D01*
X24363Y-35257D01*
X24333Y-35266D01*
X24302Y-35269D01*
X24272Y-35267D01*
X24242Y-35258D01*
X24214Y-35243D01*
X24190Y-35224D01*
X24169Y-35200D01*
X24154Y-35173D01*
X24145Y-35143D01*
X24142Y-35112D01*
X24144Y-35082D01*
X24153Y-35052D01*
X24167Y-35024D01*
X24186Y-34999D01*
X24210Y-34979D01*
X24237Y-34964D01*
X24267Y-34954D01*
X24298Y-34951D01*
X24328Y-34953D01*
X24358Y-34961D01*
X24386Y-34975D01*
X24411Y-34995D01*
X24431Y-35018D01*
X24447Y-35045D01*
X24457Y-35075D01*
X24460Y-35106D01*
X24461Y-35110D01*
X24141Y-35110D02*
X24461Y-35110D01*
X24461Y-36110D02*
X24457Y-36141D01*
X24448Y-36170D01*
X24434Y-36198D01*
X24414Y-36222D01*
X24390Y-36242D01*
X24363Y-36257D01*
X24333Y-36266D01*
X24302Y-36269D01*
X24272Y-36267D01*
X24242Y-36258D01*
X24214Y-36243D01*
X24190Y-36224D01*
X24169Y-36200D01*
X24154Y-36173D01*
X24145Y-36143D01*
X24142Y-36112D01*
X24144Y-36082D01*
X24153Y-36052D01*
X24167Y-36024D01*
X24186Y-35999D01*
X24210Y-35979D01*
X24237Y-35964D01*
X24267Y-35954D01*
X24298Y-35951D01*
X24328Y-35953D01*
X24358Y-35961D01*
X24386Y-35975D01*
X24411Y-35995D01*
X24431Y-36018D01*
X24447Y-36045D01*
X24457Y-36075D01*
X24460Y-36106D01*
X24461Y-36110D01*
X24141Y-36110D02*
X24461Y-36110D01*
X24471Y-44923D02*
X24467Y-44954D01*
X24458Y-44983D01*
X24444Y-45011D01*
X24424Y-45035D01*
X24400Y-45055D01*
X24373Y-45070D01*
X24343Y-45079D01*
X24312Y-45082D01*
X24282Y-45080D01*
X24252Y-45071D01*
X24224Y-45056D01*
X24200Y-45037D01*
X24179Y-45013D01*
X24164Y-44986D01*
X24155Y-44956D01*
X24152Y-44925D01*
X24154Y-44895D01*
X24163Y-44865D01*
X24177Y-44837D01*
X24196Y-44812D01*
X24220Y-44792D01*
X24247Y-44777D01*
X24277Y-44767D01*
X24308Y-44764D01*
X24338Y-44766D01*
X24368Y-44774D01*
X24396Y-44788D01*
X24421Y-44808D01*
X24441Y-44831D01*
X24457Y-44858D01*
X24467Y-44888D01*
X24470Y-44919D01*
X24471Y-44923D01*
X24151Y-44923D02*
X24471Y-44923D01*
X24471Y-45923D02*
X24467Y-45954D01*
X24458Y-45983D01*
X24444Y-46011D01*
X24424Y-46035D01*
X24400Y-46055D01*
X24373Y-46070D01*
X24343Y-46079D01*
X24312Y-46082D01*
X24282Y-46080D01*
X24252Y-46071D01*
X24224Y-46056D01*
X24200Y-46037D01*
X24179Y-46013D01*
X24164Y-45986D01*
X24155Y-45956D01*
X24152Y-45925D01*
X24154Y-45895D01*
X24163Y-45865D01*
X24177Y-45837D01*
X24196Y-45812D01*
X24220Y-45792D01*
X24247Y-45777D01*
X24277Y-45767D01*
X24308Y-45764D01*
X24338Y-45766D01*
X24368Y-45774D01*
X24396Y-45788D01*
X24421Y-45808D01*
X24441Y-45831D01*
X24457Y-45858D01*
X24467Y-45888D01*
X24470Y-45919D01*
X24471Y-45923D01*
X24151Y-45923D02*
X24471Y-45923D01*
X27426Y-39823D02*
X27422Y-39854D01*
X27413Y-39883D01*
X27399Y-39911D01*
X27379Y-39935D01*
X27355Y-39955D01*
X27328Y-39970D01*
X27298Y-39979D01*
X27267Y-39982D01*
X27237Y-39980D01*
X27207Y-39971D01*
X27179Y-39956D01*
X27155Y-39937D01*
X27134Y-39913D01*
X27119Y-39886D01*
X27110Y-39856D01*
X27107Y-39825D01*
X27109Y-39795D01*
X27118Y-39765D01*
X27132Y-39737D01*
X27151Y-39712D01*
X27175Y-39692D01*
X27202Y-39677D01*
X27232Y-39667D01*
X27263Y-39664D01*
X27293Y-39666D01*
X27323Y-39674D01*
X27351Y-39688D01*
X27376Y-39708D01*
X27396Y-39731D01*
X27412Y-39758D01*
X27422Y-39788D01*
X27425Y-39819D01*
X27426Y-39823D01*
X27106Y-39823D02*
X27426Y-39823D01*
X28426Y-39823D02*
X28422Y-39854D01*
X28413Y-39883D01*
X28399Y-39911D01*
X28379Y-39935D01*
X28355Y-39955D01*
X28328Y-39970D01*
X28298Y-39979D01*
X28267Y-39982D01*
X28237Y-39980D01*
X28207Y-39971D01*
X28179Y-39956D01*
X28155Y-39937D01*
X28134Y-39913D01*
X28119Y-39886D01*
X28110Y-39856D01*
X28107Y-39825D01*
X28109Y-39795D01*
X28118Y-39765D01*
X28132Y-39737D01*
X28151Y-39712D01*
X28175Y-39692D01*
X28202Y-39677D01*
X28232Y-39667D01*
X28263Y-39664D01*
X28293Y-39666D01*
X28323Y-39674D01*
X28351Y-39688D01*
X28376Y-39708D01*
X28396Y-39731D01*
X28412Y-39758D01*
X28422Y-39788D01*
X28425Y-39819D01*
X28426Y-39823D01*
X28106Y-39823D02*
X28426Y-39823D01*
X36717Y-39547D02*
X36713Y-39578D01*
X36704Y-39607D01*
X36690Y-39635D01*
X36670Y-39659D01*
X36646Y-39679D01*
X36619Y-39694D01*
X36589Y-39703D01*
X36558Y-39706D01*
X36528Y-39704D01*
X36498Y-39695D01*
X36470Y-39680D01*
X36446Y-39661D01*
X36425Y-39637D01*
X36410Y-39610D01*
X36401Y-39580D01*
X36398Y-39549D01*
X36400Y-39519D01*
X36409Y-39489D01*
X36423Y-39461D01*
X36442Y-39436D01*
X36466Y-39416D01*
X36493Y-39401D01*
X36523Y-39391D01*
X36554Y-39388D01*
X36584Y-39390D01*
X36614Y-39398D01*
X36642Y-39412D01*
X36667Y-39432D01*
X36687Y-39455D01*
X36703Y-39482D01*
X36713Y-39512D01*
X36716Y-39543D01*
X36717Y-39547D01*
X36397Y-39547D02*
X36717Y-39547D01*
X37168Y-36616D02*
X37164Y-36647D01*
X37155Y-36676D01*
X37141Y-36704D01*
X37121Y-36728D01*
X37097Y-36748D01*
X37070Y-36763D01*
X37040Y-36772D01*
X37009Y-36775D01*
X36979Y-36773D01*
X36949Y-36764D01*
X36921Y-36749D01*
X36897Y-36730D01*
X36876Y-36706D01*
X36861Y-36679D01*
X36852Y-36649D01*
X36849Y-36618D01*
X36851Y-36588D01*
X36860Y-36558D01*
X36874Y-36530D01*
X36893Y-36505D01*
X36917Y-36485D01*
X36944Y-36470D01*
X36974Y-36460D01*
X37005Y-36457D01*
X37035Y-36459D01*
X37065Y-36467D01*
X37093Y-36481D01*
X37118Y-36501D01*
X37138Y-36524D01*
X37154Y-36551D01*
X37164Y-36581D01*
X37167Y-36612D01*
X37168Y-36616D01*
X36848Y-36616D02*
X37168Y-36616D01*
X37168Y-37616D02*
X37164Y-37647D01*
X37155Y-37676D01*
X37141Y-37704D01*
X37121Y-37728D01*
X37097Y-37748D01*
X37070Y-37763D01*
X37040Y-37772D01*
X37009Y-37775D01*
X36979Y-37773D01*
X36949Y-37764D01*
X36921Y-37749D01*
X36897Y-37730D01*
X36876Y-37706D01*
X36861Y-37679D01*
X36852Y-37649D01*
X36849Y-37618D01*
X36851Y-37588D01*
X36860Y-37558D01*
X36874Y-37530D01*
X36893Y-37505D01*
X36917Y-37485D01*
X36944Y-37470D01*
X36974Y-37460D01*
X37005Y-37457D01*
X37035Y-37459D01*
X37065Y-37467D01*
X37093Y-37481D01*
X37118Y-37501D01*
X37138Y-37524D01*
X37154Y-37551D01*
X37164Y-37581D01*
X37167Y-37612D01*
X37168Y-37616D01*
X36848Y-37616D02*
X37168Y-37616D01*
X37717Y-39547D02*
X37713Y-39578D01*
X37704Y-39607D01*
X37690Y-39635D01*
X37670Y-39659D01*
X37646Y-39679D01*
X37619Y-39694D01*
X37589Y-39703D01*
X37558Y-39706D01*
X37528Y-39704D01*
X37498Y-39695D01*
X37470Y-39680D01*
X37446Y-39661D01*
X37425Y-39637D01*
X37410Y-39610D01*
X37401Y-39580D01*
X37398Y-39549D01*
X37400Y-39519D01*
X37409Y-39489D01*
X37423Y-39461D01*
X37442Y-39436D01*
X37466Y-39416D01*
X37493Y-39401D01*
X37523Y-39391D01*
X37554Y-39388D01*
X37584Y-39390D01*
X37614Y-39398D01*
X37642Y-39412D01*
X37667Y-39432D01*
X37687Y-39455D01*
X37703Y-39482D01*
X37713Y-39512D01*
X37716Y-39543D01*
X37717Y-39547D01*
X37397Y-39547D02*
X37717Y-39547D01*
X42148Y-40573D02*
X42144Y-40604D01*
X42135Y-40633D01*
X42121Y-40661D01*
X42101Y-40685D01*
X42077Y-40705D01*
X42050Y-40720D01*
X42020Y-40729D01*
X41989Y-40732D01*
X41959Y-40730D01*
X41929Y-40721D01*
X41901Y-40706D01*
X41877Y-40687D01*
X41856Y-40663D01*
X41841Y-40636D01*
X41832Y-40606D01*
X41829Y-40575D01*
X41831Y-40545D01*
X41840Y-40515D01*
X41854Y-40487D01*
X41873Y-40462D01*
X41897Y-40442D01*
X41924Y-40427D01*
X41954Y-40417D01*
X41985Y-40414D01*
X42015Y-40416D01*
X42045Y-40424D01*
X42073Y-40438D01*
X42098Y-40458D01*
X42118Y-40481D01*
X42134Y-40508D01*
X42144Y-40538D01*
X42147Y-40569D01*
X42148Y-40573D01*
X41828Y-40573D02*
X42148Y-40573D01*
X42148Y-41573D02*
X42144Y-41604D01*
X42135Y-41633D01*
X42121Y-41661D01*
X42101Y-41685D01*
X42077Y-41705D01*
X42050Y-41720D01*
X42020Y-41729D01*
X41989Y-41732D01*
X41959Y-41730D01*
X41929Y-41721D01*
X41901Y-41706D01*
X41877Y-41687D01*
X41856Y-41663D01*
X41841Y-41636D01*
X41832Y-41606D01*
X41829Y-41575D01*
X41831Y-41545D01*
X41840Y-41515D01*
X41854Y-41487D01*
X41873Y-41462D01*
X41897Y-41442D01*
X41924Y-41427D01*
X41954Y-41417D01*
X41985Y-41414D01*
X42015Y-41416D01*
X42045Y-41424D01*
X42073Y-41438D01*
X42098Y-41458D01*
X42118Y-41481D01*
X42134Y-41508D01*
X42144Y-41538D01*
X42147Y-41569D01*
X42148Y-41573D01*
X41828Y-41573D02*
X42148Y-41573D01*
X29882Y-43750D02*
X29878Y-43788D01*
X29867Y-43825D01*
X29849Y-43859D01*
X29824Y-43888D01*
X29795Y-43913D01*
X29761Y-43931D01*
X29724Y-43942D01*
X29686Y-43946D01*
X29649Y-43943D01*
X29612Y-43932D01*
X29578Y-43914D01*
X29548Y-43890D01*
X29523Y-43861D01*
X29504Y-43827D01*
X29493Y-43790D01*
X29489Y-43752D01*
X29492Y-43715D01*
X29502Y-43678D01*
X29520Y-43644D01*
X29544Y-43614D01*
X29573Y-43589D01*
X29607Y-43570D01*
X29643Y-43558D01*
X29681Y-43554D01*
X29719Y-43556D01*
X29756Y-43567D01*
X29790Y-43584D01*
X29820Y-43608D01*
X29845Y-43637D01*
X29864Y-43670D01*
X29877Y-43707D01*
X29881Y-43745D01*
X29882Y-43750D01*
X29685Y-43553D02*
X29685Y-43947D01*
X35788Y-39843D02*
X35784Y-39881D01*
X35773Y-39918D01*
X35755Y-39952D01*
X35730Y-39981D01*
X35701Y-40006D01*
X35667Y-40024D01*
X35630Y-40035D01*
X35592Y-40039D01*
X35555Y-40036D01*
X35518Y-40025D01*
X35484Y-40007D01*
X35454Y-39983D01*
X35429Y-39954D01*
X35410Y-39920D01*
X35399Y-39883D01*
X35395Y-39845D01*
X35398Y-39808D01*
X35408Y-39771D01*
X35426Y-39737D01*
X35450Y-39707D01*
X35479Y-39682D01*
X35513Y-39663D01*
X35549Y-39651D01*
X35587Y-39647D01*
X35625Y-39649D01*
X35662Y-39660D01*
X35696Y-39677D01*
X35726Y-39701D01*
X35751Y-39730D01*
X35770Y-39763D01*
X35783Y-39800D01*
X35787Y-39838D01*
X35788Y-39843D01*
X35591Y-39646D02*
X35591Y-40040D01*
X41191Y-40573D02*
X41187Y-40611D01*
X41176Y-40648D01*
X41158Y-40682D01*
X41133Y-40711D01*
X41104Y-40736D01*
X41070Y-40754D01*
X41033Y-40765D01*
X40995Y-40769D01*
X40958Y-40766D01*
X40921Y-40755D01*
X40887Y-40737D01*
X40857Y-40713D01*
X40832Y-40684D01*
X40813Y-40650D01*
X40802Y-40613D01*
X40798Y-40575D01*
X40801Y-40538D01*
X40811Y-40501D01*
X40829Y-40467D01*
X40853Y-40437D01*
X40882Y-40412D01*
X40916Y-40393D01*
X40952Y-40381D01*
X40990Y-40377D01*
X41028Y-40379D01*
X41065Y-40390D01*
X41099Y-40407D01*
X41129Y-40431D01*
X41154Y-40460D01*
X41173Y-40493D01*
X41186Y-40530D01*
X41190Y-40568D01*
X41191Y-40573D01*
X40994Y-40376D02*
X40994Y-40770D01*
X41191Y-41573D02*
X41187Y-41611D01*
X41176Y-41648D01*
X41158Y-41682D01*
X41133Y-41711D01*
X41104Y-41736D01*
X41070Y-41754D01*
X41033Y-41765D01*
X40995Y-41769D01*
X40958Y-41766D01*
X40921Y-41755D01*
X40887Y-41737D01*
X40857Y-41713D01*
X40832Y-41684D01*
X40813Y-41650D01*
X40802Y-41613D01*
X40798Y-41575D01*
X40801Y-41538D01*
X40811Y-41501D01*
X40829Y-41467D01*
X40853Y-41437D01*
X40882Y-41412D01*
X40916Y-41393D01*
X40952Y-41381D01*
X40990Y-41377D01*
X41028Y-41379D01*
X41065Y-41390D01*
X41099Y-41407D01*
X41129Y-41431D01*
X41154Y-41460D01*
X41173Y-41493D01*
X41186Y-41530D01*
X41190Y-41568D01*
X41191Y-41573D01*
X40994Y-41376D02*
X40994Y-41770D01*
X20117Y-29224D02*
X20117Y-28942D01*
X19835Y-28942D01*
X19835Y-29224D01*
X20117Y-29224D01*
X20117Y-30224D02*
X20117Y-29942D01*
X19835Y-29942D01*
X19835Y-30224D01*
X20117Y-30224D01*
X20117Y-31224D02*
X20117Y-30942D01*
X19835Y-30942D01*
X19835Y-31224D01*
X20117Y-31224D01*
X20117Y-32224D02*
X20117Y-31942D01*
X19835Y-31942D01*
X19835Y-32224D01*
X20117Y-32224D01*
X20117Y-33224D02*
X20117Y-32942D01*
X19835Y-32942D01*
X19835Y-33224D01*
X20117Y-33224D01*
X20117Y-34224D02*
X20117Y-33942D01*
X19835Y-33942D01*
X19835Y-34224D01*
X20117Y-34224D01*
X20117Y-35224D02*
X20117Y-34942D01*
X19835Y-34942D01*
X19835Y-35224D01*
X20117Y-35224D01*
X21117Y-29224D02*
X21117Y-28942D01*
X20835Y-28942D01*
X20835Y-29224D01*
X21117Y-29224D01*
X21117Y-30224D02*
X21117Y-29942D01*
X20835Y-29942D01*
X20835Y-30224D01*
X21117Y-30224D01*
X21117Y-31224D02*
X21117Y-30942D01*
X20835Y-30942D01*
X20835Y-31224D01*
X21117Y-31224D01*
X21117Y-32224D02*
X21117Y-31942D01*
X20835Y-31942D01*
X20835Y-32224D01*
X21117Y-32224D01*
X21117Y-33224D02*
X21117Y-32942D01*
X20835Y-32942D01*
X20835Y-33224D01*
X21117Y-33224D01*
X21117Y-34224D02*
X21117Y-33942D01*
X20835Y-33942D01*
X20835Y-34224D01*
X21117Y-34224D01*
X21117Y-35224D02*
X21117Y-34942D01*
X20835Y-34942D01*
X20835Y-35224D01*
X21117Y-35224D01*
X22484Y-45586D02*
X22484Y-45304D01*
X22202Y-45304D01*
X22202Y-45586D01*
X22484Y-45586D01*
X22484Y-46586D02*
X22484Y-46304D01*
X22202Y-46304D01*
X22202Y-46586D01*
X22484Y-46586D01*
X27487Y-45718D02*
X27487Y-45436D01*
X27205Y-45436D01*
X27205Y-45718D01*
X27487Y-45718D01*
X27487Y-46718D02*
X27487Y-46436D01*
X27205Y-46436D01*
X27205Y-46718D01*
X27487Y-46718D01*
X28487Y-45718D02*
X28487Y-45436D01*
X28205Y-45436D01*
X28205Y-45718D01*
X28487Y-45718D01*
X28487Y-46718D02*
X28487Y-46436D01*
X28205Y-46436D01*
X28205Y-46718D01*
X28487Y-46718D01*
X29487Y-45718D02*
X29487Y-45436D01*
X29205Y-45436D01*
X29205Y-45718D01*
X29487Y-45718D01*
X29487Y-46718D02*
X29487Y-46436D01*
X29205Y-46436D01*
X29205Y-46718D01*
X29487Y-46718D01*
X30487Y-45718D02*
X30487Y-45436D01*
X30205Y-45436D01*
X30205Y-45718D01*
X30487Y-45718D01*
X30487Y-46718D02*
X30487Y-46436D01*
X30205Y-46436D01*
X30205Y-46718D01*
X30487Y-46718D01*
X31487Y-45718D02*
X31487Y-45436D01*
X31205Y-45436D01*
X31205Y-45718D01*
X31487Y-45718D01*
X31487Y-46718D02*
X31487Y-46436D01*
X31205Y-46436D01*
X31205Y-46718D01*
X31487Y-46718D01*
X32487Y-45718D02*
X32487Y-45436D01*
X32205Y-45436D01*
X32205Y-45718D01*
X32487Y-45718D01*
X32487Y-46718D02*
X32487Y-46436D01*
X32205Y-46436D01*
X32205Y-46718D01*
X32487Y-46718D01*
X33487Y-45718D02*
X33487Y-45436D01*
X33205Y-45436D01*
X33205Y-45718D01*
X33487Y-45718D01*
X33487Y-46718D02*
X33487Y-46436D01*
X33205Y-46436D01*
X33205Y-46718D01*
X33487Y-46718D01*
X34487Y-45718D02*
X34487Y-45436D01*
X34205Y-45436D01*
X34205Y-45718D01*
X34487Y-45718D01*
X34487Y-46718D02*
X34487Y-46436D01*
X34205Y-46436D01*
X34205Y-46718D01*
X34487Y-46718D01*
X35487Y-45718D02*
X35487Y-45436D01*
X35205Y-45436D01*
X35205Y-45718D01*
X35487Y-45718D01*
X35487Y-46718D02*
X35487Y-46436D01*
X35205Y-46436D01*
X35205Y-46718D01*
X35487Y-46718D01*
X35627Y-43822D02*
X35627Y-43540D01*
X35345Y-43540D01*
X35345Y-43822D01*
X35627Y-43822D01*
X36487Y-45718D02*
X36487Y-45436D01*
X36205Y-45436D01*
X36205Y-45718D01*
X36487Y-45718D01*
X36487Y-46718D02*
X36487Y-46436D01*
X36205Y-46436D01*
X36205Y-46718D01*
X36487Y-46718D01*
X36627Y-43822D02*
X36627Y-43540D01*
X36345Y-43540D01*
X36345Y-43822D01*
X36627Y-43822D01*
X37627Y-43822D02*
X37627Y-43540D01*
X37345Y-43540D01*
X37345Y-43822D01*
X37627Y-43822D01*
X37735Y-24421D02*
X37735Y-24139D01*
X37453Y-24139D01*
X37453Y-24421D01*
X37735Y-24421D01*
X37735Y-25421D02*
X37735Y-25139D01*
X37453Y-25139D01*
X37453Y-25421D01*
X37735Y-25421D01*
X37735Y-26421D02*
X37735Y-26139D01*
X37453Y-26139D01*
X37453Y-26421D01*
X37735Y-26421D01*
X37735Y-27421D02*
X37735Y-27139D01*
X37453Y-27139D01*
X37453Y-27421D01*
X37735Y-27421D01*
X38735Y-24421D02*
X38735Y-24139D01*
X38453Y-24139D01*
X38453Y-24421D01*
X38735Y-24421D01*
X38735Y-25421D02*
X38735Y-25139D01*
X38453Y-25139D01*
X38453Y-25421D01*
X38735Y-25421D01*
X38735Y-26421D02*
X38735Y-26139D01*
X38453Y-26139D01*
X38453Y-26421D01*
X38735Y-26421D01*
X38735Y-27421D02*
X38735Y-27139D01*
X38453Y-27139D01*
X38453Y-27421D01*
X38735Y-27421D01*
X39720Y-45937D02*
X40015Y-45642D01*
X39720Y-45347D01*
X39425Y-45642D01*
X39720Y-45937D01*
X41334Y-45937D02*
X41629Y-45642D01*
X41334Y-45347D01*
X41039Y-45642D01*
X41334Y-45937D01*
X42751Y-45937D02*
X43046Y-45642D01*
X42751Y-45347D01*
X42456Y-45642D01*
X42751Y-45937D01*
G54D12*
X06814Y-50793D02*
X06814Y-49993D01*
X07005Y-49993D01*
X07119Y-50031D01*
X07195Y-50107D01*
X07234Y-50183D01*
X07272Y-50336D01*
X07272Y-50450D01*
X07234Y-50602D01*
X07195Y-50679D01*
X07119Y-50755D01*
X07005Y-50793D01*
X06814Y-50793D01*
X07614Y-50793D02*
X07614Y-50259D01*
X07614Y-50412D02*
X07653Y-50336D01*
X07691Y-50298D01*
X07767Y-50259D01*
X07843Y-50259D01*
X08109Y-50793D02*
X08109Y-50259D01*
X08109Y-49993D02*
X08071Y-50031D01*
X08109Y-50069D01*
X08148Y-50031D01*
X08109Y-49993D01*
X08109Y-50069D01*
X08605Y-50793D02*
X08529Y-50755D01*
X08490Y-50679D01*
X08490Y-49993D01*
X09024Y-50793D02*
X08948Y-50755D01*
X08909Y-50679D01*
X08909Y-49993D01*
X09938Y-50793D02*
X09938Y-49993D01*
X10205Y-50564D01*
X10472Y-49993D01*
X10472Y-50793D01*
X11195Y-50793D02*
X11195Y-50374D01*
X11157Y-50298D01*
X11081Y-50259D01*
X10929Y-50259D01*
X10852Y-50298D01*
X11195Y-50755D02*
X11119Y-50793D01*
X10929Y-50793D01*
X10852Y-50755D01*
X10814Y-50679D01*
X10814Y-50602D01*
X10852Y-50526D01*
X10929Y-50488D01*
X11119Y-50488D01*
X11195Y-50450D01*
X11576Y-50259D02*
X11576Y-51059D01*
X11576Y-50298D02*
X11653Y-50259D01*
X11805Y-50259D01*
X11881Y-50298D01*
X11919Y-50336D01*
X11957Y-50412D01*
X11957Y-50640D01*
X11919Y-50717D01*
X11881Y-50755D01*
X11805Y-50793D01*
X11653Y-50793D01*
X11576Y-50755D01*
X12300Y-50717D02*
X12339Y-50755D01*
X12300Y-50793D01*
X12262Y-50755D01*
X12300Y-50717D01*
X12300Y-50793D01*
X12300Y-50298D02*
X12339Y-50336D01*
X12300Y-50374D01*
X12262Y-50336D01*
X12300Y-50298D01*
X12300Y-50374D01*
X06345Y-52110D02*
X06423Y-52188D01*
X06423Y-52110D02*
X06345Y-52188D01*
X06967Y-51673D02*
X07043Y-51673D01*
X07119Y-51711D01*
X07157Y-51749D01*
X07195Y-51825D01*
X07234Y-51978D01*
X07234Y-52168D01*
X07195Y-52320D01*
X07157Y-52397D01*
X07119Y-52435D01*
X07043Y-52473D01*
X06967Y-52473D01*
X06891Y-52435D01*
X06853Y-52397D01*
X06814Y-52320D01*
X06776Y-52168D01*
X06776Y-51978D01*
X06814Y-51825D01*
X06853Y-51749D01*
X06891Y-51711D01*
X06967Y-51673D01*
X07576Y-52397D02*
X07615Y-52435D01*
X07576Y-52473D01*
X07538Y-52435D01*
X07576Y-52397D01*
X07576Y-52473D01*
X07919Y-51749D02*
X07957Y-51711D01*
X08034Y-51673D01*
X08224Y-51673D01*
X08300Y-51711D01*
X08338Y-51749D01*
X08377Y-51825D01*
X08377Y-51901D01*
X08338Y-52016D01*
X07881Y-52473D01*
X08377Y-52473D01*
X08872Y-51673D02*
X08948Y-51673D01*
X09024Y-51711D01*
X09062Y-51749D01*
X09100Y-51825D01*
X09139Y-51978D01*
X09139Y-52168D01*
X09100Y-52320D01*
X09062Y-52397D01*
X09024Y-52435D01*
X08948Y-52473D01*
X08872Y-52473D01*
X08796Y-52435D01*
X08758Y-52397D01*
X08719Y-52320D01*
X08681Y-52168D01*
X08681Y-51978D01*
X08719Y-51825D01*
X08758Y-51749D01*
X08796Y-51711D01*
X08872Y-51673D01*
X09481Y-52473D02*
X09481Y-51939D01*
X09481Y-52016D02*
X09520Y-51978D01*
X09596Y-51939D01*
X09710Y-51939D01*
X09786Y-51978D01*
X09824Y-52054D01*
X09824Y-52473D01*
X09824Y-52054D02*
X09862Y-51978D01*
X09939Y-51939D01*
X10053Y-51939D01*
X10129Y-51978D01*
X10167Y-52054D01*
X10167Y-52473D01*
X10548Y-52473D02*
X10548Y-51939D01*
X10548Y-52016D02*
X10587Y-51978D01*
X10663Y-51939D01*
X10777Y-51939D01*
X10853Y-51978D01*
X10891Y-52054D01*
X10891Y-52473D01*
X10891Y-52054D02*
X10929Y-51978D01*
X11006Y-51939D01*
X11120Y-51939D01*
X11196Y-51978D01*
X11234Y-52054D01*
X11234Y-52473D01*
X12797Y-51635D02*
X12111Y-52663D01*
X13826Y-51673D02*
X13902Y-51673D01*
X13978Y-51711D01*
X14016Y-51749D01*
X14054Y-51825D01*
X14093Y-51978D01*
X14093Y-52168D01*
X14054Y-52320D01*
X14016Y-52397D01*
X13978Y-52435D01*
X13902Y-52473D01*
X13826Y-52473D01*
X13750Y-52435D01*
X13712Y-52397D01*
X13673Y-52320D01*
X13635Y-52168D01*
X13635Y-51978D01*
X13673Y-51825D01*
X13712Y-51749D01*
X13750Y-51711D01*
X13826Y-51673D01*
X14435Y-52397D02*
X14474Y-52435D01*
X14435Y-52473D01*
X14397Y-52435D01*
X14435Y-52397D01*
X14435Y-52473D01*
X14969Y-51673D02*
X15045Y-51673D01*
X15121Y-51711D01*
X15159Y-51749D01*
X15197Y-51825D01*
X15236Y-51978D01*
X15236Y-52168D01*
X15197Y-52320D01*
X15159Y-52397D01*
X15121Y-52435D01*
X15045Y-52473D01*
X14969Y-52473D01*
X14893Y-52435D01*
X14855Y-52397D01*
X14816Y-52320D01*
X14778Y-52168D01*
X14778Y-51978D01*
X14816Y-51825D01*
X14855Y-51749D01*
X14893Y-51711D01*
X14969Y-51673D01*
X15731Y-51673D02*
X15807Y-51673D01*
X15883Y-51711D01*
X15921Y-51749D01*
X15959Y-51825D01*
X15998Y-51978D01*
X15998Y-52168D01*
X15959Y-52320D01*
X15921Y-52397D01*
X15883Y-52435D01*
X15807Y-52473D01*
X15731Y-52473D01*
X15655Y-52435D01*
X15617Y-52397D01*
X15578Y-52320D01*
X15540Y-52168D01*
X15540Y-51978D01*
X15578Y-51825D01*
X15617Y-51749D01*
X15655Y-51711D01*
X15731Y-51673D01*
X16455Y-52016D02*
X16379Y-51978D01*
X16340Y-51939D01*
X16302Y-51863D01*
X16302Y-51825D01*
X16340Y-51749D01*
X16379Y-51711D01*
X16455Y-51673D01*
X16607Y-51673D01*
X16683Y-51711D01*
X16721Y-51749D01*
X16760Y-51825D01*
X16760Y-51863D01*
X16721Y-51939D01*
X16683Y-51978D01*
X16607Y-52016D01*
X16455Y-52016D01*
X16379Y-52054D01*
X16340Y-52092D01*
X16302Y-52168D01*
X16302Y-52320D01*
X16340Y-52397D01*
X16379Y-52435D01*
X16455Y-52473D01*
X16607Y-52473D01*
X16683Y-52435D01*
X16721Y-52397D01*
X16760Y-52320D01*
X16760Y-52168D01*
X16721Y-52092D01*
X16683Y-52054D01*
X16607Y-52016D01*
X17064Y-51673D02*
X17064Y-51825D01*
X17369Y-51673D02*
X17369Y-51825D01*
X18551Y-52778D02*
X18513Y-52739D01*
X18437Y-52625D01*
X18399Y-52549D01*
X18361Y-52435D01*
X18322Y-52244D01*
X18322Y-52092D01*
X18361Y-51901D01*
X18399Y-51787D01*
X18437Y-51711D01*
X18513Y-51597D01*
X18551Y-51559D01*
X18779Y-51673D02*
X19275Y-51673D01*
X19008Y-51978D01*
X19122Y-51978D01*
X19198Y-52016D01*
X19236Y-52054D01*
X19275Y-52130D01*
X19275Y-52320D01*
X19236Y-52397D01*
X19198Y-52435D01*
X19122Y-52473D01*
X18894Y-52473D01*
X18817Y-52435D01*
X18779Y-52397D01*
X20037Y-52473D02*
X19579Y-52473D01*
X19808Y-52473D02*
X19808Y-51673D01*
X19732Y-51787D01*
X19656Y-51863D01*
X19579Y-51901D01*
X20799Y-52473D02*
X20341Y-52473D01*
X20570Y-52473D02*
X20570Y-51673D01*
X20494Y-51787D01*
X20418Y-51863D01*
X20341Y-51901D01*
X21751Y-52473D02*
X21751Y-51673D01*
X22094Y-52473D02*
X22094Y-52054D01*
X22056Y-51978D01*
X21980Y-51939D01*
X21866Y-51939D01*
X21790Y-51978D01*
X21751Y-52016D01*
X22590Y-52473D02*
X22514Y-52435D01*
X22475Y-52397D01*
X22437Y-52320D01*
X22437Y-52092D01*
X22475Y-52016D01*
X22514Y-51978D01*
X22590Y-51939D01*
X22704Y-51939D01*
X22780Y-51978D01*
X22818Y-52016D01*
X22856Y-52092D01*
X22856Y-52320D01*
X22818Y-52397D01*
X22780Y-52435D01*
X22704Y-52473D01*
X22590Y-52473D01*
X23314Y-52473D02*
X23238Y-52435D01*
X23199Y-52359D01*
X23199Y-51673D01*
X23923Y-52435D02*
X23847Y-52473D01*
X23695Y-52473D01*
X23618Y-52435D01*
X23580Y-52359D01*
X23580Y-52054D01*
X23618Y-51978D01*
X23695Y-51939D01*
X23847Y-51939D01*
X23923Y-51978D01*
X23961Y-52054D01*
X23961Y-52130D01*
X23580Y-52206D01*
X24266Y-52435D02*
X24343Y-52473D01*
X24495Y-52473D01*
X24571Y-52435D01*
X24609Y-52359D01*
X24609Y-52320D01*
X24571Y-52244D01*
X24495Y-52206D01*
X24381Y-52206D01*
X24304Y-52168D01*
X24266Y-52092D01*
X24266Y-52054D01*
X24304Y-51978D01*
X24381Y-51939D01*
X24495Y-51939D01*
X24571Y-51978D01*
X24876Y-52778D02*
X24914Y-52739D01*
X24991Y-52625D01*
X25029Y-52549D01*
X25067Y-52435D01*
X25105Y-52244D01*
X25105Y-52092D01*
X25067Y-51901D01*
X25029Y-51787D01*
X24991Y-51711D01*
X24914Y-51597D01*
X24876Y-51559D01*
G54D10*
X06423Y-53204D02*
X06421Y-53219D01*
X06417Y-53233D01*
X06409Y-53247D01*
X06400Y-53258D01*
X06388Y-53268D01*
X06375Y-53275D01*
X06360Y-53280D01*
X06345Y-53281D01*
X06331Y-53280D01*
X06316Y-53276D01*
X06303Y-53269D01*
X06291Y-53259D01*
X06281Y-53248D01*
X06274Y-53234D01*
X06269Y-53220D01*
X06268Y-53205D01*
X06269Y-53190D01*
X06273Y-53176D01*
X06280Y-53162D01*
X06289Y-53150D01*
X06301Y-53140D01*
X06314Y-53133D01*
X06329Y-53128D01*
X06344Y-53127D01*
X06358Y-53128D01*
X06373Y-53132D01*
X06386Y-53139D01*
X06398Y-53148D01*
X06408Y-53160D01*
X06416Y-53173D01*
X06421Y-53187D01*
X06422Y-53202D01*
X06423Y-53204D01*
G54D12*
X06967Y-52728D02*
X07043Y-52728D01*
X07119Y-52766D01*
X07157Y-52804D01*
X07195Y-52880D01*
X07234Y-53033D01*
X07234Y-53223D01*
X07195Y-53375D01*
X07157Y-53452D01*
X07119Y-53490D01*
X07043Y-53528D01*
X06967Y-53528D01*
X06891Y-53490D01*
X06853Y-53452D01*
X06814Y-53375D01*
X06776Y-53223D01*
X06776Y-53033D01*
X06814Y-52880D01*
X06853Y-52804D01*
X06891Y-52766D01*
X06967Y-52728D01*
X07576Y-53452D02*
X07615Y-53490D01*
X07576Y-53528D01*
X07538Y-53490D01*
X07576Y-53452D01*
X07576Y-53528D01*
X08300Y-52994D02*
X08300Y-53528D01*
X08110Y-52690D02*
X07919Y-53261D01*
X08415Y-53261D01*
X08872Y-52728D02*
X08948Y-52728D01*
X09024Y-52766D01*
X09062Y-52804D01*
X09100Y-52880D01*
X09139Y-53033D01*
X09139Y-53223D01*
X09100Y-53375D01*
X09062Y-53452D01*
X09024Y-53490D01*
X08948Y-53528D01*
X08872Y-53528D01*
X08796Y-53490D01*
X08758Y-53452D01*
X08719Y-53375D01*
X08681Y-53223D01*
X08681Y-53033D01*
X08719Y-52880D01*
X08758Y-52804D01*
X08796Y-52766D01*
X08872Y-52728D01*
X09481Y-53528D02*
X09481Y-52994D01*
X09481Y-53071D02*
X09520Y-53033D01*
X09596Y-52994D01*
X09710Y-52994D01*
X09786Y-53033D01*
X09824Y-53109D01*
X09824Y-53528D01*
X09824Y-53109D02*
X09862Y-53033D01*
X09939Y-52994D01*
X10053Y-52994D01*
X10129Y-53033D01*
X10167Y-53109D01*
X10167Y-53528D01*
X10548Y-53528D02*
X10548Y-52994D01*
X10548Y-53071D02*
X10587Y-53033D01*
X10663Y-52994D01*
X10777Y-52994D01*
X10853Y-53033D01*
X10891Y-53109D01*
X10891Y-53528D01*
X10891Y-53109D02*
X10929Y-53033D01*
X11006Y-52994D01*
X11120Y-52994D01*
X11196Y-53033D01*
X11234Y-53109D01*
X11234Y-53528D01*
X12797Y-52690D02*
X12111Y-53718D01*
X13826Y-52728D02*
X13902Y-52728D01*
X13978Y-52766D01*
X14016Y-52804D01*
X14054Y-52880D01*
X14093Y-53033D01*
X14093Y-53223D01*
X14054Y-53375D01*
X14016Y-53452D01*
X13978Y-53490D01*
X13902Y-53528D01*
X13826Y-53528D01*
X13750Y-53490D01*
X13712Y-53452D01*
X13673Y-53375D01*
X13635Y-53223D01*
X13635Y-53033D01*
X13673Y-52880D01*
X13712Y-52804D01*
X13750Y-52766D01*
X13826Y-52728D01*
X14435Y-53452D02*
X14474Y-53490D01*
X14435Y-53528D01*
X14397Y-53490D01*
X14435Y-53452D01*
X14435Y-53528D01*
X14969Y-52728D02*
X15045Y-52728D01*
X15121Y-52766D01*
X15159Y-52804D01*
X15197Y-52880D01*
X15236Y-53033D01*
X15236Y-53223D01*
X15197Y-53375D01*
X15159Y-53452D01*
X15121Y-53490D01*
X15045Y-53528D01*
X14969Y-53528D01*
X14893Y-53490D01*
X14855Y-53452D01*
X14816Y-53375D01*
X14778Y-53223D01*
X14778Y-53033D01*
X14816Y-52880D01*
X14855Y-52804D01*
X14893Y-52766D01*
X14969Y-52728D01*
X15998Y-53528D02*
X15540Y-53528D01*
X15769Y-53528D02*
X15769Y-52728D01*
X15693Y-52842D01*
X15617Y-52918D01*
X15540Y-52956D01*
X16683Y-52728D02*
X16531Y-52728D01*
X16455Y-52766D01*
X16417Y-52804D01*
X16340Y-52918D01*
X16302Y-53071D01*
X16302Y-53375D01*
X16340Y-53452D01*
X16379Y-53490D01*
X16455Y-53528D01*
X16607Y-53528D01*
X16683Y-53490D01*
X16721Y-53452D01*
X16760Y-53375D01*
X16760Y-53185D01*
X16721Y-53109D01*
X16683Y-53071D01*
X16607Y-53033D01*
X16455Y-53033D01*
X16379Y-53071D01*
X16340Y-53109D01*
X16302Y-53185D01*
X17064Y-52728D02*
X17064Y-52880D01*
X17369Y-52728D02*
X17369Y-52880D01*
X18551Y-53833D02*
X18513Y-53794D01*
X18437Y-53680D01*
X18399Y-53604D01*
X18361Y-53490D01*
X18322Y-53299D01*
X18322Y-53147D01*
X18361Y-52956D01*
X18399Y-52842D01*
X18437Y-52766D01*
X18513Y-52652D01*
X18551Y-52614D01*
X18779Y-52728D02*
X19275Y-52728D01*
X19008Y-53033D01*
X19122Y-53033D01*
X19198Y-53071D01*
X19236Y-53109D01*
X19275Y-53185D01*
X19275Y-53375D01*
X19236Y-53452D01*
X19198Y-53490D01*
X19122Y-53528D01*
X18894Y-53528D01*
X18817Y-53490D01*
X18779Y-53452D01*
X20227Y-53528D02*
X20227Y-52728D01*
X20570Y-53528D02*
X20570Y-53109D01*
X20532Y-53033D01*
X20456Y-52994D01*
X20342Y-52994D01*
X20266Y-53033D01*
X20227Y-53071D01*
X21066Y-53528D02*
X20990Y-53490D01*
X20951Y-53452D01*
X20913Y-53375D01*
X20913Y-53147D01*
X20951Y-53071D01*
X20990Y-53033D01*
X21066Y-52994D01*
X21180Y-52994D01*
X21256Y-53033D01*
X21294Y-53071D01*
X21332Y-53147D01*
X21332Y-53375D01*
X21294Y-53452D01*
X21256Y-53490D01*
X21180Y-53528D01*
X21066Y-53528D01*
X21790Y-53528D02*
X21714Y-53490D01*
X21675Y-53414D01*
X21675Y-52728D01*
X22399Y-53490D02*
X22323Y-53528D01*
X22171Y-53528D01*
X22094Y-53490D01*
X22056Y-53414D01*
X22056Y-53109D01*
X22094Y-53033D01*
X22171Y-52994D01*
X22323Y-52994D01*
X22399Y-53033D01*
X22437Y-53109D01*
X22437Y-53185D01*
X22056Y-53261D01*
X22742Y-53490D02*
X22819Y-53528D01*
X22971Y-53528D01*
X23047Y-53490D01*
X23085Y-53414D01*
X23085Y-53375D01*
X23047Y-53299D01*
X22971Y-53261D01*
X22857Y-53261D01*
X22780Y-53223D01*
X22742Y-53147D01*
X22742Y-53109D01*
X22780Y-53033D01*
X22857Y-52994D01*
X22971Y-52994D01*
X23047Y-53033D01*
X23352Y-53833D02*
X23390Y-53794D01*
X23467Y-53680D01*
X23505Y-53604D01*
X23543Y-53490D01*
X23581Y-53299D01*
X23581Y-53147D01*
X23543Y-52956D01*
X23505Y-52842D01*
X23467Y-52766D01*
X23390Y-52652D01*
X23352Y-52614D01*
X06325Y-54161D02*
X06325Y-54357D01*
X06423Y-54259D02*
X06227Y-54259D01*
X06967Y-53783D02*
X07043Y-53783D01*
X07119Y-53821D01*
X07157Y-53859D01*
X07195Y-53935D01*
X07234Y-54088D01*
X07234Y-54278D01*
X07195Y-54430D01*
X07157Y-54507D01*
X07119Y-54545D01*
X07043Y-54583D01*
X06967Y-54583D01*
X06891Y-54545D01*
X06853Y-54507D01*
X06814Y-54430D01*
X06776Y-54278D01*
X06776Y-54088D01*
X06814Y-53935D01*
X06853Y-53859D01*
X06891Y-53821D01*
X06967Y-53783D01*
X07576Y-54507D02*
X07615Y-54545D01*
X07576Y-54583D01*
X07538Y-54545D01*
X07576Y-54507D01*
X07576Y-54583D01*
X08338Y-53783D02*
X07957Y-53783D01*
X07919Y-54164D01*
X07957Y-54126D01*
X08034Y-54088D01*
X08224Y-54088D01*
X08300Y-54126D01*
X08338Y-54164D01*
X08377Y-54240D01*
X08377Y-54430D01*
X08338Y-54507D01*
X08300Y-54545D01*
X08224Y-54583D01*
X08034Y-54583D01*
X07957Y-54545D01*
X07919Y-54507D01*
X08872Y-53783D02*
X08948Y-53783D01*
X09024Y-53821D01*
X09062Y-53859D01*
X09100Y-53935D01*
X09139Y-54088D01*
X09139Y-54278D01*
X09100Y-54430D01*
X09062Y-54507D01*
X09024Y-54545D01*
X08948Y-54583D01*
X08872Y-54583D01*
X08796Y-54545D01*
X08758Y-54507D01*
X08719Y-54430D01*
X08681Y-54278D01*
X08681Y-54088D01*
X08719Y-53935D01*
X08758Y-53859D01*
X08796Y-53821D01*
X08872Y-53783D01*
X09481Y-54583D02*
X09481Y-54049D01*
X09481Y-54126D02*
X09520Y-54088D01*
X09596Y-54049D01*
X09710Y-54049D01*
X09786Y-54088D01*
X09824Y-54164D01*
X09824Y-54583D01*
X09824Y-54164D02*
X09862Y-54088D01*
X09939Y-54049D01*
X10053Y-54049D01*
X10129Y-54088D01*
X10167Y-54164D01*
X10167Y-54583D01*
X10548Y-54583D02*
X10548Y-54049D01*
X10548Y-54126D02*
X10587Y-54088D01*
X10663Y-54049D01*
X10777Y-54049D01*
X10853Y-54088D01*
X10891Y-54164D01*
X10891Y-54583D01*
X10891Y-54164D02*
X10929Y-54088D01*
X11006Y-54049D01*
X11120Y-54049D01*
X11196Y-54088D01*
X11234Y-54164D01*
X11234Y-54583D01*
X12797Y-53745D02*
X12111Y-54773D01*
X13826Y-53783D02*
X13902Y-53783D01*
X13978Y-53821D01*
X14016Y-53859D01*
X14054Y-53935D01*
X14093Y-54088D01*
X14093Y-54278D01*
X14054Y-54430D01*
X14016Y-54507D01*
X13978Y-54545D01*
X13902Y-54583D01*
X13826Y-54583D01*
X13750Y-54545D01*
X13712Y-54507D01*
X13673Y-54430D01*
X13635Y-54278D01*
X13635Y-54088D01*
X13673Y-53935D01*
X13712Y-53859D01*
X13750Y-53821D01*
X13826Y-53783D01*
X14435Y-54507D02*
X14474Y-54545D01*
X14435Y-54583D01*
X14397Y-54545D01*
X14435Y-54507D01*
X14435Y-54583D01*
X14969Y-53783D02*
X15045Y-53783D01*
X15121Y-53821D01*
X15159Y-53859D01*
X15197Y-53935D01*
X15236Y-54088D01*
X15236Y-54278D01*
X15197Y-54430D01*
X15159Y-54507D01*
X15121Y-54545D01*
X15045Y-54583D01*
X14969Y-54583D01*
X14893Y-54545D01*
X14855Y-54507D01*
X14816Y-54430D01*
X14778Y-54278D01*
X14778Y-54088D01*
X14816Y-53935D01*
X14855Y-53859D01*
X14893Y-53821D01*
X14969Y-53783D01*
X15540Y-53859D02*
X15578Y-53821D01*
X15655Y-53783D01*
X15845Y-53783D01*
X15921Y-53821D01*
X15959Y-53859D01*
X15998Y-53935D01*
X15998Y-54011D01*
X15959Y-54126D01*
X15502Y-54583D01*
X15998Y-54583D01*
X16493Y-53783D02*
X16569Y-53783D01*
X16645Y-53821D01*
X16683Y-53859D01*
X16721Y-53935D01*
X16760Y-54088D01*
X16760Y-54278D01*
X16721Y-54430D01*
X16683Y-54507D01*
X16645Y-54545D01*
X16569Y-54583D01*
X16493Y-54583D01*
X16417Y-54545D01*
X16379Y-54507D01*
X16340Y-54430D01*
X16302Y-54278D01*
X16302Y-54088D01*
X16340Y-53935D01*
X16379Y-53859D01*
X16417Y-53821D01*
X16493Y-53783D01*
X17064Y-53783D02*
X17064Y-53935D01*
X17369Y-53783D02*
X17369Y-53935D01*
X18551Y-54888D02*
X18513Y-54849D01*
X18437Y-54735D01*
X18399Y-54659D01*
X18361Y-54545D01*
X18322Y-54354D01*
X18322Y-54202D01*
X18361Y-54011D01*
X18399Y-53897D01*
X18437Y-53821D01*
X18513Y-53707D01*
X18551Y-53669D01*
X19275Y-54583D02*
X18817Y-54583D01*
X19046Y-54583D02*
X19046Y-53783D01*
X18970Y-53897D01*
X18894Y-53973D01*
X18817Y-54011D01*
X19656Y-54583D02*
X19808Y-54583D01*
X19884Y-54545D01*
X19922Y-54507D01*
X19998Y-54392D01*
X20037Y-54240D01*
X20037Y-53935D01*
X19998Y-53859D01*
X19960Y-53821D01*
X19884Y-53783D01*
X19732Y-53783D01*
X19656Y-53821D01*
X19617Y-53859D01*
X19579Y-53935D01*
X19579Y-54126D01*
X19617Y-54202D01*
X19656Y-54240D01*
X19732Y-54278D01*
X19884Y-54278D01*
X19960Y-54240D01*
X19998Y-54202D01*
X20037Y-54126D01*
X20989Y-54583D02*
X20989Y-53783D01*
X21332Y-54583D02*
X21332Y-54164D01*
X21294Y-54088D01*
X21218Y-54049D01*
X21104Y-54049D01*
X21028Y-54088D01*
X20989Y-54126D01*
X21828Y-54583D02*
X21752Y-54545D01*
X21713Y-54507D01*
X21675Y-54430D01*
X21675Y-54202D01*
X21713Y-54126D01*
X21752Y-54088D01*
X21828Y-54049D01*
X21942Y-54049D01*
X22018Y-54088D01*
X22056Y-54126D01*
X22094Y-54202D01*
X22094Y-54430D01*
X22056Y-54507D01*
X22018Y-54545D01*
X21942Y-54583D01*
X21828Y-54583D01*
X22552Y-54583D02*
X22476Y-54545D01*
X22437Y-54469D01*
X22437Y-53783D01*
X23161Y-54545D02*
X23085Y-54583D01*
X22933Y-54583D01*
X22856Y-54545D01*
X22818Y-54469D01*
X22818Y-54164D01*
X22856Y-54088D01*
X22933Y-54049D01*
X23085Y-54049D01*
X23161Y-54088D01*
X23199Y-54164D01*
X23199Y-54240D01*
X22818Y-54316D01*
X23504Y-54545D02*
X23581Y-54583D01*
X23733Y-54583D01*
X23809Y-54545D01*
X23847Y-54469D01*
X23847Y-54430D01*
X23809Y-54354D01*
X23733Y-54316D01*
X23619Y-54316D01*
X23542Y-54278D01*
X23504Y-54202D01*
X23504Y-54164D01*
X23542Y-54088D01*
X23619Y-54049D01*
X23733Y-54049D01*
X23809Y-54088D01*
X24114Y-54888D02*
X24152Y-54849D01*
X24229Y-54735D01*
X24267Y-54659D01*
X24305Y-54545D01*
X24343Y-54354D01*
X24343Y-54202D01*
X24305Y-54011D01*
X24267Y-53897D01*
X24229Y-53821D01*
X24152Y-53707D01*
X24114Y-53669D01*
G54D10*
X06424Y-55314D02*
X06421Y-55340D01*
X06413Y-55366D01*
X06400Y-55390D01*
X06383Y-55411D01*
X06363Y-55428D01*
X06339Y-55441D01*
X06313Y-55449D01*
X06286Y-55451D01*
X06261Y-55449D01*
X06235Y-55441D01*
X06211Y-55429D01*
X06190Y-55412D01*
X06173Y-55391D01*
X06160Y-55368D01*
X06152Y-55342D01*
X06149Y-55315D01*
X06151Y-55290D01*
X06158Y-55264D01*
X06171Y-55240D01*
X06187Y-55219D01*
X06208Y-55201D01*
X06231Y-55188D01*
X06257Y-55180D01*
X06284Y-55177D01*
X06309Y-55179D01*
X06335Y-55186D01*
X06359Y-55198D01*
X06381Y-55215D01*
X06398Y-55235D01*
X06412Y-55258D01*
X06420Y-55284D01*
X06423Y-55311D01*
X06424Y-55314D01*
X06148Y-55176D02*
X06424Y-55452D01*
X06424Y-55176D02*
X06148Y-55452D01*
G54D12*
X06967Y-54838D02*
X07043Y-54838D01*
X07119Y-54876D01*
X07157Y-54914D01*
X07195Y-54990D01*
X07234Y-55143D01*
X07234Y-55333D01*
X07195Y-55485D01*
X07157Y-55562D01*
X07119Y-55600D01*
X07043Y-55638D01*
X06967Y-55638D01*
X06891Y-55600D01*
X06853Y-55562D01*
X06814Y-55485D01*
X06776Y-55333D01*
X06776Y-55143D01*
X06814Y-54990D01*
X06853Y-54914D01*
X06891Y-54876D01*
X06967Y-54838D01*
X07576Y-55562D02*
X07615Y-55600D01*
X07576Y-55638D01*
X07538Y-55600D01*
X07576Y-55562D01*
X07576Y-55638D01*
X07881Y-54838D02*
X08415Y-54838D01*
X08072Y-55638D01*
X08872Y-54838D02*
X08948Y-54838D01*
X09024Y-54876D01*
X09062Y-54914D01*
X09100Y-54990D01*
X09139Y-55143D01*
X09139Y-55333D01*
X09100Y-55485D01*
X09062Y-55562D01*
X09024Y-55600D01*
X08948Y-55638D01*
X08872Y-55638D01*
X08796Y-55600D01*
X08758Y-55562D01*
X08719Y-55485D01*
X08681Y-55333D01*
X08681Y-55143D01*
X08719Y-54990D01*
X08758Y-54914D01*
X08796Y-54876D01*
X08872Y-54838D01*
X09481Y-55638D02*
X09481Y-55104D01*
X09481Y-55181D02*
X09520Y-55143D01*
X09596Y-55104D01*
X09710Y-55104D01*
X09786Y-55143D01*
X09824Y-55219D01*
X09824Y-55638D01*
X09824Y-55219D02*
X09862Y-55143D01*
X09939Y-55104D01*
X10053Y-55104D01*
X10129Y-55143D01*
X10167Y-55219D01*
X10167Y-55638D01*
X10548Y-55638D02*
X10548Y-55104D01*
X10548Y-55181D02*
X10587Y-55143D01*
X10663Y-55104D01*
X10777Y-55104D01*
X10853Y-55143D01*
X10891Y-55219D01*
X10891Y-55638D01*
X10891Y-55219D02*
X10929Y-55143D01*
X11006Y-55104D01*
X11120Y-55104D01*
X11196Y-55143D01*
X11234Y-55219D01*
X11234Y-55638D01*
X12797Y-54800D02*
X12111Y-55828D01*
X13826Y-54838D02*
X13902Y-54838D01*
X13978Y-54876D01*
X14016Y-54914D01*
X14054Y-54990D01*
X14093Y-55143D01*
X14093Y-55333D01*
X14054Y-55485D01*
X14016Y-55562D01*
X13978Y-55600D01*
X13902Y-55638D01*
X13826Y-55638D01*
X13750Y-55600D01*
X13712Y-55562D01*
X13673Y-55485D01*
X13635Y-55333D01*
X13635Y-55143D01*
X13673Y-54990D01*
X13712Y-54914D01*
X13750Y-54876D01*
X13826Y-54838D01*
X14435Y-55562D02*
X14474Y-55600D01*
X14435Y-55638D01*
X14397Y-55600D01*
X14435Y-55562D01*
X14435Y-55638D01*
X14969Y-54838D02*
X15045Y-54838D01*
X15121Y-54876D01*
X15159Y-54914D01*
X15197Y-54990D01*
X15236Y-55143D01*
X15236Y-55333D01*
X15197Y-55485D01*
X15159Y-55562D01*
X15121Y-55600D01*
X15045Y-55638D01*
X14969Y-55638D01*
X14893Y-55600D01*
X14855Y-55562D01*
X14816Y-55485D01*
X14778Y-55333D01*
X14778Y-55143D01*
X14816Y-54990D01*
X14855Y-54914D01*
X14893Y-54876D01*
X14969Y-54838D01*
X15540Y-54914D02*
X15578Y-54876D01*
X15655Y-54838D01*
X15845Y-54838D01*
X15921Y-54876D01*
X15959Y-54914D01*
X15998Y-54990D01*
X15998Y-55066D01*
X15959Y-55181D01*
X15502Y-55638D01*
X15998Y-55638D01*
X16455Y-55181D02*
X16379Y-55143D01*
X16340Y-55104D01*
X16302Y-55028D01*
X16302Y-54990D01*
X16340Y-54914D01*
X16379Y-54876D01*
X16455Y-54838D01*
X16607Y-54838D01*
X16683Y-54876D01*
X16721Y-54914D01*
X16760Y-54990D01*
X16760Y-55028D01*
X16721Y-55104D01*
X16683Y-55143D01*
X16607Y-55181D01*
X16455Y-55181D01*
X16379Y-55219D01*
X16340Y-55257D01*
X16302Y-55333D01*
X16302Y-55485D01*
X16340Y-55562D01*
X16379Y-55600D01*
X16455Y-55638D01*
X16607Y-55638D01*
X16683Y-55600D01*
X16721Y-55562D01*
X16760Y-55485D01*
X16760Y-55333D01*
X16721Y-55257D01*
X16683Y-55219D01*
X16607Y-55181D01*
X17064Y-54838D02*
X17064Y-54990D01*
X17369Y-54838D02*
X17369Y-54990D01*
X18551Y-55943D02*
X18513Y-55904D01*
X18437Y-55790D01*
X18399Y-55714D01*
X18361Y-55600D01*
X18322Y-55409D01*
X18322Y-55257D01*
X18361Y-55066D01*
X18399Y-54952D01*
X18437Y-54876D01*
X18513Y-54762D01*
X18551Y-54724D01*
X18779Y-54838D02*
X19275Y-54838D01*
X19008Y-55143D01*
X19122Y-55143D01*
X19198Y-55181D01*
X19236Y-55219D01*
X19275Y-55295D01*
X19275Y-55485D01*
X19236Y-55562D01*
X19198Y-55600D01*
X19122Y-55638D01*
X18894Y-55638D01*
X18817Y-55600D01*
X18779Y-55562D01*
X19960Y-54838D02*
X19808Y-54838D01*
X19732Y-54876D01*
X19694Y-54914D01*
X19617Y-55028D01*
X19579Y-55181D01*
X19579Y-55485D01*
X19617Y-55562D01*
X19656Y-55600D01*
X19732Y-55638D01*
X19884Y-55638D01*
X19960Y-55600D01*
X19998Y-55562D01*
X20037Y-55485D01*
X20037Y-55295D01*
X19998Y-55219D01*
X19960Y-55181D01*
X19884Y-55143D01*
X19732Y-55143D01*
X19656Y-55181D01*
X19617Y-55219D01*
X19579Y-55295D01*
X20989Y-55638D02*
X20989Y-54838D01*
X21332Y-55638D02*
X21332Y-55219D01*
X21294Y-55143D01*
X21218Y-55104D01*
X21104Y-55104D01*
X21028Y-55143D01*
X20989Y-55181D01*
X21828Y-55638D02*
X21752Y-55600D01*
X21713Y-55562D01*
X21675Y-55485D01*
X21675Y-55257D01*
X21713Y-55181D01*
X21752Y-55143D01*
X21828Y-55104D01*
X21942Y-55104D01*
X22018Y-55143D01*
X22056Y-55181D01*
X22094Y-55257D01*
X22094Y-55485D01*
X22056Y-55562D01*
X22018Y-55600D01*
X21942Y-55638D01*
X21828Y-55638D01*
X22552Y-55638D02*
X22476Y-55600D01*
X22437Y-55524D01*
X22437Y-54838D01*
X23161Y-55600D02*
X23085Y-55638D01*
X22933Y-55638D01*
X22856Y-55600D01*
X22818Y-55524D01*
X22818Y-55219D01*
X22856Y-55143D01*
X22933Y-55104D01*
X23085Y-55104D01*
X23161Y-55143D01*
X23199Y-55219D01*
X23199Y-55295D01*
X22818Y-55371D01*
X23504Y-55600D02*
X23581Y-55638D01*
X23733Y-55638D01*
X23809Y-55600D01*
X23847Y-55524D01*
X23847Y-55485D01*
X23809Y-55409D01*
X23733Y-55371D01*
X23619Y-55371D01*
X23542Y-55333D01*
X23504Y-55257D01*
X23504Y-55219D01*
X23542Y-55143D01*
X23619Y-55104D01*
X23733Y-55104D01*
X23809Y-55143D01*
X24114Y-55943D02*
X24152Y-55904D01*
X24229Y-55790D01*
X24267Y-55714D01*
X24305Y-55600D01*
X24343Y-55409D01*
X24343Y-55257D01*
X24305Y-55066D01*
X24267Y-54952D01*
X24229Y-54876D01*
X24152Y-54762D01*
X24114Y-54724D01*
G54D10*
X06424Y-56369D02*
X06420Y-56400D01*
X06411Y-56429D01*
X06397Y-56457D01*
X06377Y-56481D01*
X06353Y-56501D01*
X06326Y-56516D01*
X06296Y-56525D01*
X06265Y-56528D01*
X06235Y-56526D01*
X06205Y-56517D01*
X06177Y-56502D01*
X06153Y-56483D01*
X06132Y-56459D01*
X06117Y-56432D01*
X06108Y-56402D01*
X06105Y-56371D01*
X06107Y-56341D01*
X06116Y-56311D01*
X06130Y-56283D01*
X06149Y-56258D01*
X06173Y-56238D01*
X06200Y-56223D01*
X06230Y-56213D01*
X06261Y-56210D01*
X06291Y-56212D01*
X06321Y-56220D01*
X06349Y-56234D01*
X06374Y-56254D01*
X06394Y-56277D01*
X06410Y-56304D01*
X06420Y-56334D01*
X06423Y-56365D01*
X06424Y-56369D01*
X06104Y-56369D02*
X06424Y-56369D01*
G54D12*
X06967Y-55893D02*
X07043Y-55893D01*
X07119Y-55931D01*
X07157Y-55969D01*
X07195Y-56045D01*
X07234Y-56198D01*
X07234Y-56388D01*
X07195Y-56540D01*
X07157Y-56617D01*
X07119Y-56655D01*
X07043Y-56693D01*
X06967Y-56693D01*
X06891Y-56655D01*
X06853Y-56617D01*
X06814Y-56540D01*
X06776Y-56388D01*
X06776Y-56198D01*
X06814Y-56045D01*
X06853Y-55969D01*
X06891Y-55931D01*
X06967Y-55893D01*
X07576Y-56617D02*
X07615Y-56655D01*
X07576Y-56693D01*
X07538Y-56655D01*
X07576Y-56617D01*
X07576Y-56693D01*
X08072Y-56236D02*
X07996Y-56198D01*
X07957Y-56159D01*
X07919Y-56083D01*
X07919Y-56045D01*
X07957Y-55969D01*
X07996Y-55931D01*
X08072Y-55893D01*
X08224Y-55893D01*
X08300Y-55931D01*
X08338Y-55969D01*
X08377Y-56045D01*
X08377Y-56083D01*
X08338Y-56159D01*
X08300Y-56198D01*
X08224Y-56236D01*
X08072Y-56236D01*
X07996Y-56274D01*
X07957Y-56312D01*
X07919Y-56388D01*
X07919Y-56540D01*
X07957Y-56617D01*
X07996Y-56655D01*
X08072Y-56693D01*
X08224Y-56693D01*
X08300Y-56655D01*
X08338Y-56617D01*
X08377Y-56540D01*
X08377Y-56388D01*
X08338Y-56312D01*
X08300Y-56274D01*
X08224Y-56236D01*
X09139Y-56693D02*
X08681Y-56693D01*
X08910Y-56693D02*
X08910Y-55893D01*
X08834Y-56007D01*
X08758Y-56083D01*
X08681Y-56121D01*
X09481Y-56693D02*
X09481Y-56159D01*
X09481Y-56236D02*
X09520Y-56198D01*
X09596Y-56159D01*
X09710Y-56159D01*
X09786Y-56198D01*
X09824Y-56274D01*
X09824Y-56693D01*
X09824Y-56274D02*
X09862Y-56198D01*
X09939Y-56159D01*
X10053Y-56159D01*
X10129Y-56198D01*
X10167Y-56274D01*
X10167Y-56693D01*
X10548Y-56693D02*
X10548Y-56159D01*
X10548Y-56236D02*
X10587Y-56198D01*
X10663Y-56159D01*
X10777Y-56159D01*
X10853Y-56198D01*
X10891Y-56274D01*
X10891Y-56693D01*
X10891Y-56274D02*
X10929Y-56198D01*
X11006Y-56159D01*
X11120Y-56159D01*
X11196Y-56198D01*
X11234Y-56274D01*
X11234Y-56693D01*
X12797Y-55855D02*
X12111Y-56883D01*
X13826Y-55893D02*
X13902Y-55893D01*
X13978Y-55931D01*
X14016Y-55969D01*
X14054Y-56045D01*
X14093Y-56198D01*
X14093Y-56388D01*
X14054Y-56540D01*
X14016Y-56617D01*
X13978Y-56655D01*
X13902Y-56693D01*
X13826Y-56693D01*
X13750Y-56655D01*
X13712Y-56617D01*
X13673Y-56540D01*
X13635Y-56388D01*
X13635Y-56198D01*
X13673Y-56045D01*
X13712Y-55969D01*
X13750Y-55931D01*
X13826Y-55893D01*
X14435Y-56617D02*
X14474Y-56655D01*
X14435Y-56693D01*
X14397Y-56655D01*
X14435Y-56617D01*
X14435Y-56693D01*
X14969Y-55893D02*
X15045Y-55893D01*
X15121Y-55931D01*
X15159Y-55969D01*
X15197Y-56045D01*
X15236Y-56198D01*
X15236Y-56388D01*
X15197Y-56540D01*
X15159Y-56617D01*
X15121Y-56655D01*
X15045Y-56693D01*
X14969Y-56693D01*
X14893Y-56655D01*
X14855Y-56617D01*
X14816Y-56540D01*
X14778Y-56388D01*
X14778Y-56198D01*
X14816Y-56045D01*
X14855Y-55969D01*
X14893Y-55931D01*
X14969Y-55893D01*
X15502Y-55893D02*
X15998Y-55893D01*
X15731Y-56198D01*
X15845Y-56198D01*
X15921Y-56236D01*
X15959Y-56274D01*
X15998Y-56350D01*
X15998Y-56540D01*
X15959Y-56617D01*
X15921Y-56655D01*
X15845Y-56693D01*
X15617Y-56693D01*
X15540Y-56655D01*
X15502Y-56617D01*
X16302Y-55969D02*
X16340Y-55931D01*
X16417Y-55893D01*
X16607Y-55893D01*
X16683Y-55931D01*
X16721Y-55969D01*
X16760Y-56045D01*
X16760Y-56121D01*
X16721Y-56236D01*
X16264Y-56693D01*
X16760Y-56693D01*
X17064Y-55893D02*
X17064Y-56045D01*
X17369Y-55893D02*
X17369Y-56045D01*
X18551Y-56998D02*
X18513Y-56959D01*
X18437Y-56845D01*
X18399Y-56769D01*
X18361Y-56655D01*
X18322Y-56464D01*
X18322Y-56312D01*
X18361Y-56121D01*
X18399Y-56007D01*
X18437Y-55931D01*
X18513Y-55817D01*
X18551Y-55779D01*
X19275Y-56693D02*
X18817Y-56693D01*
X19046Y-56693D02*
X19046Y-55893D01*
X18970Y-56007D01*
X18894Y-56083D01*
X18817Y-56121D01*
X19960Y-56159D02*
X19960Y-56693D01*
X19770Y-55855D02*
X19579Y-56426D01*
X20075Y-56426D01*
X20989Y-56693D02*
X20989Y-55893D01*
X21332Y-56693D02*
X21332Y-56274D01*
X21294Y-56198D01*
X21218Y-56159D01*
X21104Y-56159D01*
X21028Y-56198D01*
X20989Y-56236D01*
X21828Y-56693D02*
X21752Y-56655D01*
X21713Y-56617D01*
X21675Y-56540D01*
X21675Y-56312D01*
X21713Y-56236D01*
X21752Y-56198D01*
X21828Y-56159D01*
X21942Y-56159D01*
X22018Y-56198D01*
X22056Y-56236D01*
X22094Y-56312D01*
X22094Y-56540D01*
X22056Y-56617D01*
X22018Y-56655D01*
X21942Y-56693D01*
X21828Y-56693D01*
X22552Y-56693D02*
X22476Y-56655D01*
X22437Y-56579D01*
X22437Y-55893D01*
X23161Y-56655D02*
X23085Y-56693D01*
X22933Y-56693D01*
X22856Y-56655D01*
X22818Y-56579D01*
X22818Y-56274D01*
X22856Y-56198D01*
X22933Y-56159D01*
X23085Y-56159D01*
X23161Y-56198D01*
X23199Y-56274D01*
X23199Y-56350D01*
X22818Y-56426D01*
X23504Y-56655D02*
X23581Y-56693D01*
X23733Y-56693D01*
X23809Y-56655D01*
X23847Y-56579D01*
X23847Y-56540D01*
X23809Y-56464D01*
X23733Y-56426D01*
X23619Y-56426D01*
X23542Y-56388D01*
X23504Y-56312D01*
X23504Y-56274D01*
X23542Y-56198D01*
X23619Y-56159D01*
X23733Y-56159D01*
X23809Y-56198D01*
X24114Y-56998D02*
X24152Y-56959D01*
X24229Y-56845D01*
X24267Y-56769D01*
X24305Y-56655D01*
X24343Y-56464D01*
X24343Y-56312D01*
X24305Y-56121D01*
X24267Y-56007D01*
X24229Y-55931D01*
X24152Y-55817D01*
X24114Y-55779D01*
G54D10*
X06424Y-57424D02*
X06420Y-57462D01*
X06409Y-57499D01*
X06391Y-57533D01*
X06366Y-57562D01*
X06337Y-57587D01*
X06303Y-57605D01*
X06266Y-57616D01*
X06228Y-57620D01*
X06191Y-57617D01*
X06154Y-57606D01*
X06120Y-57588D01*
X06090Y-57564D01*
X06065Y-57535D01*
X06046Y-57501D01*
X06035Y-57464D01*
X06031Y-57426D01*
X06034Y-57389D01*
X06044Y-57352D01*
X06062Y-57318D01*
X06086Y-57288D01*
X06115Y-57263D01*
X06149Y-57244D01*
X06185Y-57232D01*
X06223Y-57228D01*
X06261Y-57230D01*
X06298Y-57241D01*
X06332Y-57258D01*
X06362Y-57282D01*
X06387Y-57311D01*
X06406Y-57344D01*
X06419Y-57381D01*
X06423Y-57419D01*
X06424Y-57424D01*
X06227Y-57227D02*
X06227Y-57621D01*
G54D12*
X07234Y-57748D02*
X06776Y-57748D01*
X07005Y-57748D02*
X07005Y-56948D01*
X06929Y-57062D01*
X06853Y-57138D01*
X06776Y-57176D01*
X07576Y-57672D02*
X07615Y-57710D01*
X07576Y-57748D01*
X07538Y-57710D01*
X07576Y-57672D01*
X07576Y-57748D01*
X08110Y-56948D02*
X08186Y-56948D01*
X08262Y-56986D01*
X08300Y-57024D01*
X08338Y-57100D01*
X08377Y-57253D01*
X08377Y-57443D01*
X08338Y-57595D01*
X08300Y-57672D01*
X08262Y-57710D01*
X08186Y-57748D01*
X08110Y-57748D01*
X08034Y-57710D01*
X07996Y-57672D01*
X07957Y-57595D01*
X07919Y-57443D01*
X07919Y-57253D01*
X07957Y-57100D01*
X07996Y-57024D01*
X08034Y-56986D01*
X08110Y-56948D01*
X08872Y-56948D02*
X08948Y-56948D01*
X09024Y-56986D01*
X09062Y-57024D01*
X09100Y-57100D01*
X09139Y-57253D01*
X09139Y-57443D01*
X09100Y-57595D01*
X09062Y-57672D01*
X09024Y-57710D01*
X08948Y-57748D01*
X08872Y-57748D01*
X08796Y-57710D01*
X08758Y-57672D01*
X08719Y-57595D01*
X08681Y-57443D01*
X08681Y-57253D01*
X08719Y-57100D01*
X08758Y-57024D01*
X08796Y-56986D01*
X08872Y-56948D01*
X09481Y-57748D02*
X09481Y-57214D01*
X09481Y-57291D02*
X09520Y-57253D01*
X09596Y-57214D01*
X09710Y-57214D01*
X09786Y-57253D01*
X09824Y-57329D01*
X09824Y-57748D01*
X09824Y-57329D02*
X09862Y-57253D01*
X09939Y-57214D01*
X10053Y-57214D01*
X10129Y-57253D01*
X10167Y-57329D01*
X10167Y-57748D01*
X10548Y-57748D02*
X10548Y-57214D01*
X10548Y-57291D02*
X10587Y-57253D01*
X10663Y-57214D01*
X10777Y-57214D01*
X10853Y-57253D01*
X10891Y-57329D01*
X10891Y-57748D01*
X10891Y-57329D02*
X10929Y-57253D01*
X11006Y-57214D01*
X11120Y-57214D01*
X11196Y-57253D01*
X11234Y-57329D01*
X11234Y-57748D01*
X12797Y-56910D02*
X12111Y-57938D01*
X13826Y-56948D02*
X13902Y-56948D01*
X13978Y-56986D01*
X14016Y-57024D01*
X14054Y-57100D01*
X14093Y-57253D01*
X14093Y-57443D01*
X14054Y-57595D01*
X14016Y-57672D01*
X13978Y-57710D01*
X13902Y-57748D01*
X13826Y-57748D01*
X13750Y-57710D01*
X13712Y-57672D01*
X13673Y-57595D01*
X13635Y-57443D01*
X13635Y-57253D01*
X13673Y-57100D01*
X13712Y-57024D01*
X13750Y-56986D01*
X13826Y-56948D01*
X14435Y-57672D02*
X14474Y-57710D01*
X14435Y-57748D01*
X14397Y-57710D01*
X14435Y-57672D01*
X14435Y-57748D01*
X14969Y-56948D02*
X15045Y-56948D01*
X15121Y-56986D01*
X15159Y-57024D01*
X15197Y-57100D01*
X15236Y-57253D01*
X15236Y-57443D01*
X15197Y-57595D01*
X15159Y-57672D01*
X15121Y-57710D01*
X15045Y-57748D01*
X14969Y-57748D01*
X14893Y-57710D01*
X14855Y-57672D01*
X14816Y-57595D01*
X14778Y-57443D01*
X14778Y-57253D01*
X14816Y-57100D01*
X14855Y-57024D01*
X14893Y-56986D01*
X14969Y-56948D01*
X15502Y-56948D02*
X15998Y-56948D01*
X15731Y-57253D01*
X15845Y-57253D01*
X15921Y-57291D01*
X15959Y-57329D01*
X15998Y-57405D01*
X15998Y-57595D01*
X15959Y-57672D01*
X15921Y-57710D01*
X15845Y-57748D01*
X15617Y-57748D01*
X15540Y-57710D01*
X15502Y-57672D01*
X16379Y-57748D02*
X16531Y-57748D01*
X16607Y-57710D01*
X16645Y-57672D01*
X16721Y-57557D01*
X16760Y-57405D01*
X16760Y-57100D01*
X16721Y-57024D01*
X16683Y-56986D01*
X16607Y-56948D01*
X16455Y-56948D01*
X16379Y-56986D01*
X16340Y-57024D01*
X16302Y-57100D01*
X16302Y-57291D01*
X16340Y-57367D01*
X16379Y-57405D01*
X16455Y-57443D01*
X16607Y-57443D01*
X16683Y-57405D01*
X16721Y-57367D01*
X16760Y-57291D01*
X17064Y-56948D02*
X17064Y-57100D01*
X17369Y-56948D02*
X17369Y-57100D01*
X18551Y-58053D02*
X18513Y-58014D01*
X18437Y-57900D01*
X18399Y-57824D01*
X18361Y-57710D01*
X18322Y-57519D01*
X18322Y-57367D01*
X18361Y-57176D01*
X18399Y-57062D01*
X18437Y-56986D01*
X18513Y-56872D01*
X18551Y-56834D01*
X19198Y-57214D02*
X19198Y-57748D01*
X19008Y-56910D02*
X18817Y-57481D01*
X19313Y-57481D01*
X20227Y-57748D02*
X20227Y-56948D01*
X20570Y-57748D02*
X20570Y-57329D01*
X20532Y-57253D01*
X20456Y-57214D01*
X20342Y-57214D01*
X20266Y-57253D01*
X20227Y-57291D01*
X21066Y-57748D02*
X20990Y-57710D01*
X20951Y-57672D01*
X20913Y-57595D01*
X20913Y-57367D01*
X20951Y-57291D01*
X20990Y-57253D01*
X21066Y-57214D01*
X21180Y-57214D01*
X21256Y-57253D01*
X21294Y-57291D01*
X21332Y-57367D01*
X21332Y-57595D01*
X21294Y-57672D01*
X21256Y-57710D01*
X21180Y-57748D01*
X21066Y-57748D01*
X21790Y-57748D02*
X21714Y-57710D01*
X21675Y-57634D01*
X21675Y-56948D01*
X22399Y-57710D02*
X22323Y-57748D01*
X22171Y-57748D01*
X22094Y-57710D01*
X22056Y-57634D01*
X22056Y-57329D01*
X22094Y-57253D01*
X22171Y-57214D01*
X22323Y-57214D01*
X22399Y-57253D01*
X22437Y-57329D01*
X22437Y-57405D01*
X22056Y-57481D01*
X22742Y-57710D02*
X22819Y-57748D01*
X22971Y-57748D01*
X23047Y-57710D01*
X23085Y-57634D01*
X23085Y-57595D01*
X23047Y-57519D01*
X22971Y-57481D01*
X22857Y-57481D01*
X22780Y-57443D01*
X22742Y-57367D01*
X22742Y-57329D01*
X22780Y-57253D01*
X22857Y-57214D01*
X22971Y-57214D01*
X23047Y-57253D01*
X23352Y-58053D02*
X23390Y-58014D01*
X23467Y-57900D01*
X23505Y-57824D01*
X23543Y-57710D01*
X23581Y-57519D01*
X23581Y-57367D01*
X23543Y-57176D01*
X23505Y-57062D01*
X23467Y-56986D01*
X23390Y-56872D01*
X23352Y-56834D01*
G54D10*
X06365Y-58620D02*
X06365Y-58338D01*
X06083Y-58338D01*
X06083Y-58620D01*
X06365Y-58620D01*
G54D12*
X07234Y-58803D02*
X06776Y-58803D01*
X07005Y-58803D02*
X07005Y-58003D01*
X06929Y-58117D01*
X06853Y-58193D01*
X06776Y-58231D01*
X07576Y-58727D02*
X07615Y-58765D01*
X07576Y-58803D01*
X07538Y-58765D01*
X07576Y-58727D01*
X07576Y-58803D01*
X08110Y-58003D02*
X08186Y-58003D01*
X08262Y-58041D01*
X08300Y-58079D01*
X08338Y-58155D01*
X08377Y-58308D01*
X08377Y-58498D01*
X08338Y-58650D01*
X08300Y-58727D01*
X08262Y-58765D01*
X08186Y-58803D01*
X08110Y-58803D01*
X08034Y-58765D01*
X07996Y-58727D01*
X07957Y-58650D01*
X07919Y-58498D01*
X07919Y-58308D01*
X07957Y-58155D01*
X07996Y-58079D01*
X08034Y-58041D01*
X08110Y-58003D01*
X08681Y-58079D02*
X08719Y-58041D01*
X08796Y-58003D01*
X08986Y-58003D01*
X09062Y-58041D01*
X09100Y-58079D01*
X09139Y-58155D01*
X09139Y-58231D01*
X09100Y-58346D01*
X08643Y-58803D01*
X09139Y-58803D01*
X09481Y-58803D02*
X09481Y-58269D01*
X09481Y-58346D02*
X09520Y-58308D01*
X09596Y-58269D01*
X09710Y-58269D01*
X09786Y-58308D01*
X09824Y-58384D01*
X09824Y-58803D01*
X09824Y-58384D02*
X09862Y-58308D01*
X09939Y-58269D01*
X10053Y-58269D01*
X10129Y-58308D01*
X10167Y-58384D01*
X10167Y-58803D01*
X10548Y-58803D02*
X10548Y-58269D01*
X10548Y-58346D02*
X10587Y-58308D01*
X10663Y-58269D01*
X10777Y-58269D01*
X10853Y-58308D01*
X10891Y-58384D01*
X10891Y-58803D01*
X10891Y-58384D02*
X10929Y-58308D01*
X11006Y-58269D01*
X11120Y-58269D01*
X11196Y-58308D01*
X11234Y-58384D01*
X11234Y-58803D01*
X12797Y-57965D02*
X12111Y-58993D01*
X13826Y-58003D02*
X13902Y-58003D01*
X13978Y-58041D01*
X14016Y-58079D01*
X14054Y-58155D01*
X14093Y-58308D01*
X14093Y-58498D01*
X14054Y-58650D01*
X14016Y-58727D01*
X13978Y-58765D01*
X13902Y-58803D01*
X13826Y-58803D01*
X13750Y-58765D01*
X13712Y-58727D01*
X13673Y-58650D01*
X13635Y-58498D01*
X13635Y-58308D01*
X13673Y-58155D01*
X13712Y-58079D01*
X13750Y-58041D01*
X13826Y-58003D01*
X14435Y-58727D02*
X14474Y-58765D01*
X14435Y-58803D01*
X14397Y-58765D01*
X14435Y-58727D01*
X14435Y-58803D01*
X14969Y-58003D02*
X15045Y-58003D01*
X15121Y-58041D01*
X15159Y-58079D01*
X15197Y-58155D01*
X15236Y-58308D01*
X15236Y-58498D01*
X15197Y-58650D01*
X15159Y-58727D01*
X15121Y-58765D01*
X15045Y-58803D01*
X14969Y-58803D01*
X14893Y-58765D01*
X14855Y-58727D01*
X14816Y-58650D01*
X14778Y-58498D01*
X14778Y-58308D01*
X14816Y-58155D01*
X14855Y-58079D01*
X14893Y-58041D01*
X14969Y-58003D01*
X15921Y-58269D02*
X15921Y-58803D01*
X15731Y-57965D02*
X15540Y-58536D01*
X16036Y-58536D01*
X16493Y-58003D02*
X16569Y-58003D01*
X16645Y-58041D01*
X16683Y-58079D01*
X16721Y-58155D01*
X16760Y-58308D01*
X16760Y-58498D01*
X16721Y-58650D01*
X16683Y-58727D01*
X16645Y-58765D01*
X16569Y-58803D01*
X16493Y-58803D01*
X16417Y-58765D01*
X16379Y-58727D01*
X16340Y-58650D01*
X16302Y-58498D01*
X16302Y-58308D01*
X16340Y-58155D01*
X16379Y-58079D01*
X16417Y-58041D01*
X16493Y-58003D01*
X17064Y-58003D02*
X17064Y-58155D01*
X17369Y-58003D02*
X17369Y-58155D01*
X18551Y-59108D02*
X18513Y-59069D01*
X18437Y-58955D01*
X18399Y-58879D01*
X18361Y-58765D01*
X18322Y-58574D01*
X18322Y-58422D01*
X18361Y-58231D01*
X18399Y-58117D01*
X18437Y-58041D01*
X18513Y-57927D01*
X18551Y-57889D01*
X19198Y-58269D02*
X19198Y-58803D01*
X19008Y-57965D02*
X18817Y-58536D01*
X19313Y-58536D01*
X19541Y-58003D02*
X20075Y-58003D01*
X19732Y-58803D01*
X20989Y-58803D02*
X20989Y-58003D01*
X21332Y-58803D02*
X21332Y-58384D01*
X21294Y-58308D01*
X21218Y-58269D01*
X21104Y-58269D01*
X21028Y-58308D01*
X20989Y-58346D01*
X21828Y-58803D02*
X21752Y-58765D01*
X21713Y-58727D01*
X21675Y-58650D01*
X21675Y-58422D01*
X21713Y-58346D01*
X21752Y-58308D01*
X21828Y-58269D01*
X21942Y-58269D01*
X22018Y-58308D01*
X22056Y-58346D01*
X22094Y-58422D01*
X22094Y-58650D01*
X22056Y-58727D01*
X22018Y-58765D01*
X21942Y-58803D01*
X21828Y-58803D01*
X22552Y-58803D02*
X22476Y-58765D01*
X22437Y-58689D01*
X22437Y-58003D01*
X23161Y-58765D02*
X23085Y-58803D01*
X22933Y-58803D01*
X22856Y-58765D01*
X22818Y-58689D01*
X22818Y-58384D01*
X22856Y-58308D01*
X22933Y-58269D01*
X23085Y-58269D01*
X23161Y-58308D01*
X23199Y-58384D01*
X23199Y-58460D01*
X22818Y-58536D01*
X23504Y-58765D02*
X23581Y-58803D01*
X23733Y-58803D01*
X23809Y-58765D01*
X23847Y-58689D01*
X23847Y-58650D01*
X23809Y-58574D01*
X23733Y-58536D01*
X23619Y-58536D01*
X23542Y-58498D01*
X23504Y-58422D01*
X23504Y-58384D01*
X23542Y-58308D01*
X23619Y-58269D01*
X23733Y-58269D01*
X23809Y-58308D01*
X24114Y-59108D02*
X24152Y-59069D01*
X24229Y-58955D01*
X24267Y-58879D01*
X24305Y-58765D01*
X24343Y-58574D01*
X24343Y-58422D01*
X24305Y-58231D01*
X24267Y-58117D01*
X24229Y-58041D01*
X24152Y-57927D01*
X24114Y-57889D01*
G54D10*
X06128Y-59829D02*
X06423Y-59534D01*
X06128Y-59239D01*
X05833Y-59534D01*
X06128Y-59829D01*
G54D12*
X07234Y-59858D02*
X06776Y-59858D01*
X07005Y-59858D02*
X07005Y-59058D01*
X06929Y-59172D01*
X06853Y-59248D01*
X06776Y-59286D01*
X07576Y-59782D02*
X07615Y-59820D01*
X07576Y-59858D01*
X07538Y-59820D01*
X07576Y-59782D01*
X07576Y-59858D01*
X08338Y-59058D02*
X07957Y-59058D01*
X07919Y-59439D01*
X07957Y-59401D01*
X08034Y-59363D01*
X08224Y-59363D01*
X08300Y-59401D01*
X08338Y-59439D01*
X08377Y-59515D01*
X08377Y-59705D01*
X08338Y-59782D01*
X08300Y-59820D01*
X08224Y-59858D01*
X08034Y-59858D01*
X07957Y-59820D01*
X07919Y-59782D01*
X08872Y-59058D02*
X08948Y-59058D01*
X09024Y-59096D01*
X09062Y-59134D01*
X09100Y-59210D01*
X09139Y-59363D01*
X09139Y-59553D01*
X09100Y-59705D01*
X09062Y-59782D01*
X09024Y-59820D01*
X08948Y-59858D01*
X08872Y-59858D01*
X08796Y-59820D01*
X08758Y-59782D01*
X08719Y-59705D01*
X08681Y-59553D01*
X08681Y-59363D01*
X08719Y-59210D01*
X08758Y-59134D01*
X08796Y-59096D01*
X08872Y-59058D01*
X09481Y-59858D02*
X09481Y-59324D01*
X09481Y-59401D02*
X09520Y-59363D01*
X09596Y-59324D01*
X09710Y-59324D01*
X09786Y-59363D01*
X09824Y-59439D01*
X09824Y-59858D01*
X09824Y-59439D02*
X09862Y-59363D01*
X09939Y-59324D01*
X10053Y-59324D01*
X10129Y-59363D01*
X10167Y-59439D01*
X10167Y-59858D01*
X10548Y-59858D02*
X10548Y-59324D01*
X10548Y-59401D02*
X10587Y-59363D01*
X10663Y-59324D01*
X10777Y-59324D01*
X10853Y-59363D01*
X10891Y-59439D01*
X10891Y-59858D01*
X10891Y-59439D02*
X10929Y-59363D01*
X11006Y-59324D01*
X11120Y-59324D01*
X11196Y-59363D01*
X11234Y-59439D01*
X11234Y-59858D01*
X12797Y-59020D02*
X12111Y-60048D01*
X13826Y-59058D02*
X13902Y-59058D01*
X13978Y-59096D01*
X14016Y-59134D01*
X14054Y-59210D01*
X14093Y-59363D01*
X14093Y-59553D01*
X14054Y-59705D01*
X14016Y-59782D01*
X13978Y-59820D01*
X13902Y-59858D01*
X13826Y-59858D01*
X13750Y-59820D01*
X13712Y-59782D01*
X13673Y-59705D01*
X13635Y-59553D01*
X13635Y-59363D01*
X13673Y-59210D01*
X13712Y-59134D01*
X13750Y-59096D01*
X13826Y-59058D01*
X14435Y-59782D02*
X14474Y-59820D01*
X14435Y-59858D01*
X14397Y-59820D01*
X14435Y-59782D01*
X14435Y-59858D01*
X14969Y-59058D02*
X15045Y-59058D01*
X15121Y-59096D01*
X15159Y-59134D01*
X15197Y-59210D01*
X15236Y-59363D01*
X15236Y-59553D01*
X15197Y-59705D01*
X15159Y-59782D01*
X15121Y-59820D01*
X15045Y-59858D01*
X14969Y-59858D01*
X14893Y-59820D01*
X14855Y-59782D01*
X14816Y-59705D01*
X14778Y-59553D01*
X14778Y-59363D01*
X14816Y-59210D01*
X14855Y-59134D01*
X14893Y-59096D01*
X14969Y-59058D01*
X15959Y-59058D02*
X15578Y-59058D01*
X15540Y-59439D01*
X15578Y-59401D01*
X15655Y-59363D01*
X15845Y-59363D01*
X15921Y-59401D01*
X15959Y-59439D01*
X15998Y-59515D01*
X15998Y-59705D01*
X15959Y-59782D01*
X15921Y-59820D01*
X15845Y-59858D01*
X15655Y-59858D01*
X15578Y-59820D01*
X15540Y-59782D01*
X16379Y-59858D02*
X16531Y-59858D01*
X16607Y-59820D01*
X16645Y-59782D01*
X16721Y-59667D01*
X16760Y-59515D01*
X16760Y-59210D01*
X16721Y-59134D01*
X16683Y-59096D01*
X16607Y-59058D01*
X16455Y-59058D01*
X16379Y-59096D01*
X16340Y-59134D01*
X16302Y-59210D01*
X16302Y-59401D01*
X16340Y-59477D01*
X16379Y-59515D01*
X16455Y-59553D01*
X16607Y-59553D01*
X16683Y-59515D01*
X16721Y-59477D01*
X16760Y-59401D01*
X17064Y-59058D02*
X17064Y-59210D01*
X17369Y-59058D02*
X17369Y-59210D01*
X18551Y-60163D02*
X18513Y-60124D01*
X18437Y-60010D01*
X18399Y-59934D01*
X18361Y-59820D01*
X18322Y-59629D01*
X18322Y-59477D01*
X18361Y-59286D01*
X18399Y-59172D01*
X18437Y-59096D01*
X18513Y-58982D01*
X18551Y-58944D01*
X18779Y-59058D02*
X19275Y-59058D01*
X19008Y-59363D01*
X19122Y-59363D01*
X19198Y-59401D01*
X19236Y-59439D01*
X19275Y-59515D01*
X19275Y-59705D01*
X19236Y-59782D01*
X19198Y-59820D01*
X19122Y-59858D01*
X18894Y-59858D01*
X18817Y-59820D01*
X18779Y-59782D01*
X20227Y-59858D02*
X20227Y-59058D01*
X20570Y-59858D02*
X20570Y-59439D01*
X20532Y-59363D01*
X20456Y-59324D01*
X20342Y-59324D01*
X20266Y-59363D01*
X20227Y-59401D01*
X21066Y-59858D02*
X20990Y-59820D01*
X20951Y-59782D01*
X20913Y-59705D01*
X20913Y-59477D01*
X20951Y-59401D01*
X20990Y-59363D01*
X21066Y-59324D01*
X21180Y-59324D01*
X21256Y-59363D01*
X21294Y-59401D01*
X21332Y-59477D01*
X21332Y-59705D01*
X21294Y-59782D01*
X21256Y-59820D01*
X21180Y-59858D01*
X21066Y-59858D01*
X21790Y-59858D02*
X21714Y-59820D01*
X21675Y-59744D01*
X21675Y-59058D01*
X22399Y-59820D02*
X22323Y-59858D01*
X22171Y-59858D01*
X22094Y-59820D01*
X22056Y-59744D01*
X22056Y-59439D01*
X22094Y-59363D01*
X22171Y-59324D01*
X22323Y-59324D01*
X22399Y-59363D01*
X22437Y-59439D01*
X22437Y-59515D01*
X22056Y-59591D01*
X22742Y-59820D02*
X22819Y-59858D01*
X22971Y-59858D01*
X23047Y-59820D01*
X23085Y-59744D01*
X23085Y-59705D01*
X23047Y-59629D01*
X22971Y-59591D01*
X22857Y-59591D01*
X22780Y-59553D01*
X22742Y-59477D01*
X22742Y-59439D01*
X22780Y-59363D01*
X22857Y-59324D01*
X22971Y-59324D01*
X23047Y-59363D01*
X23352Y-60163D02*
X23390Y-60124D01*
X23467Y-60010D01*
X23505Y-59934D01*
X23543Y-59820D01*
X23581Y-59629D01*
X23581Y-59477D01*
X23543Y-59286D01*
X23505Y-59172D01*
X23467Y-59096D01*
X23390Y-58982D01*
X23352Y-58944D01*
M02*
