G04 (created by PCBNEW-RS274X (2012-01-19 BZR 3256)-stable) date Tue 02 Oct 2012 11:10:06 BST*
G01*
G70*
G90*
%MOIN*%
G04 Gerber Fmt 3.4, Leading zero omitted, Abs format*
%FSLAX34Y34*%
G04 APERTURE LIST*
%ADD10C,0.006000*%
%ADD11C,0.012000*%
%ADD12C,0.031600*%
%ADD13C,0.070900*%
%ADD14R,0.098700X0.047600*%
%ADD15C,0.071200*%
%ADD16R,0.075000X0.075000*%
%ADD17C,0.075000*%
%ADD18R,0.051400X0.051400*%
%ADD19R,0.055000X0.075000*%
%ADD20R,0.075000X0.055000*%
%ADD21R,0.065000X0.045000*%
%ADD22R,0.045000X0.065000*%
%ADD23R,0.035700X0.043600*%
%ADD24R,0.043600X0.035700*%
%ADD25R,0.083000X0.094800*%
%ADD26O,0.069200X0.031800*%
%ADD27R,0.071200X0.063300*%
%ADD28R,0.040000X0.079100*%
%ADD29R,0.047600X0.059400*%
%ADD30R,0.059400X0.047600*%
%ADD31R,0.080000X0.080000*%
%ADD32C,0.080000*%
%ADD33R,0.118400X0.177500*%
%ADD34R,0.045600X0.031800*%
%ADD35R,0.031800X0.045600*%
%ADD36R,0.035700X0.039700*%
%ADD37R,0.043600X0.098700*%
%ADD38O,0.077100X0.027900*%
%ADD39O,0.027900X0.077100*%
%ADD40R,0.209000X0.209000*%
%ADD41R,0.080000X0.100000*%
G04 APERTURE END LIST*
G54D10*
G54D11*
X07127Y-37038D02*
X07213Y-37076D01*
X07356Y-37076D01*
X07413Y-37038D01*
X07442Y-37000D01*
X07470Y-36923D01*
X07470Y-36847D01*
X07442Y-36771D01*
X07413Y-36733D01*
X07356Y-36695D01*
X07242Y-36657D01*
X07184Y-36619D01*
X07156Y-36581D01*
X07127Y-36504D01*
X07127Y-36428D01*
X07156Y-36352D01*
X07184Y-36314D01*
X07242Y-36276D01*
X07384Y-36276D01*
X07470Y-36314D01*
X07813Y-37076D02*
X07755Y-37038D01*
X07727Y-37000D01*
X07698Y-36923D01*
X07698Y-36695D01*
X07727Y-36619D01*
X07755Y-36581D01*
X07813Y-36542D01*
X07898Y-36542D01*
X07955Y-36581D01*
X07984Y-36619D01*
X08013Y-36695D01*
X08013Y-36923D01*
X07984Y-37000D01*
X07955Y-37038D01*
X07898Y-37076D01*
X07813Y-37076D01*
X08356Y-37076D02*
X08298Y-37038D01*
X08270Y-36962D01*
X08270Y-36276D01*
X08841Y-37076D02*
X08841Y-36276D01*
X08841Y-37038D02*
X08784Y-37076D01*
X08670Y-37076D01*
X08612Y-37038D01*
X08584Y-37000D01*
X08555Y-36923D01*
X08555Y-36695D01*
X08584Y-36619D01*
X08612Y-36581D01*
X08670Y-36542D01*
X08784Y-36542D01*
X08841Y-36581D01*
X09355Y-37038D02*
X09298Y-37076D01*
X09184Y-37076D01*
X09127Y-37038D01*
X09098Y-36962D01*
X09098Y-36657D01*
X09127Y-36581D01*
X09184Y-36542D01*
X09298Y-36542D01*
X09355Y-36581D01*
X09384Y-36657D01*
X09384Y-36733D01*
X09098Y-36809D01*
X09641Y-37076D02*
X09641Y-36542D01*
X09641Y-36695D02*
X09669Y-36619D01*
X09698Y-36581D01*
X09755Y-36542D01*
X09812Y-36542D01*
X10469Y-37076D02*
X10469Y-36276D01*
X10669Y-36847D01*
X10869Y-36276D01*
X10869Y-37076D01*
X11412Y-37076D02*
X11412Y-36657D01*
X11383Y-36581D01*
X11326Y-36542D01*
X11212Y-36542D01*
X11155Y-36581D01*
X11412Y-37038D02*
X11355Y-37076D01*
X11212Y-37076D01*
X11155Y-37038D01*
X11126Y-36962D01*
X11126Y-36885D01*
X11155Y-36809D01*
X11212Y-36771D01*
X11355Y-36771D01*
X11412Y-36733D01*
X11669Y-37038D02*
X11726Y-37076D01*
X11841Y-37076D01*
X11898Y-37038D01*
X11926Y-36962D01*
X11926Y-36923D01*
X11898Y-36847D01*
X11841Y-36809D01*
X11755Y-36809D01*
X11698Y-36771D01*
X11669Y-36695D01*
X11669Y-36657D01*
X11698Y-36581D01*
X11755Y-36542D01*
X11841Y-36542D01*
X11898Y-36581D01*
X12184Y-37076D02*
X12184Y-36276D01*
X12241Y-36771D02*
X12412Y-37076D01*
X12412Y-36542D02*
X12184Y-36847D01*
X13298Y-37381D02*
X13270Y-37342D01*
X13213Y-37228D01*
X13184Y-37152D01*
X13155Y-37038D01*
X13127Y-36847D01*
X13127Y-36695D01*
X13155Y-36504D01*
X13184Y-36390D01*
X13213Y-36314D01*
X13270Y-36200D01*
X13298Y-36162D01*
X13727Y-36657D02*
X13527Y-36657D01*
X13527Y-37076D02*
X13527Y-36276D01*
X13813Y-36276D01*
X14041Y-37076D02*
X14041Y-36542D01*
X14041Y-36695D02*
X14069Y-36619D01*
X14098Y-36581D01*
X14155Y-36542D01*
X14212Y-36542D01*
X14498Y-37076D02*
X14440Y-37038D01*
X14412Y-37000D01*
X14383Y-36923D01*
X14383Y-36695D01*
X14412Y-36619D01*
X14440Y-36581D01*
X14498Y-36542D01*
X14583Y-36542D01*
X14640Y-36581D01*
X14669Y-36619D01*
X14698Y-36695D01*
X14698Y-36923D01*
X14669Y-37000D01*
X14640Y-37038D01*
X14583Y-37076D01*
X14498Y-37076D01*
X14955Y-36542D02*
X14955Y-37076D01*
X14955Y-36619D02*
X14983Y-36581D01*
X15041Y-36542D01*
X15126Y-36542D01*
X15183Y-36581D01*
X15212Y-36657D01*
X15212Y-37076D01*
X15412Y-36542D02*
X15641Y-36542D01*
X15498Y-36276D02*
X15498Y-36962D01*
X15526Y-37038D01*
X15584Y-37076D01*
X15641Y-37076D01*
X15784Y-37381D02*
X15812Y-37342D01*
X15869Y-37228D01*
X15898Y-37152D01*
X15927Y-37038D01*
X15955Y-36847D01*
X15955Y-36695D01*
X15927Y-36504D01*
X15898Y-36390D01*
X15869Y-36314D01*
X15812Y-36200D01*
X15784Y-36162D01*
G54D12*
X22685Y-36035D03*
G54D13*
X29478Y-43976D03*
G54D14*
X41008Y-29882D03*
X41008Y-30276D03*
X41008Y-30669D03*
X41008Y-31063D03*
X41008Y-31457D03*
X41008Y-31851D03*
X41008Y-32244D03*
X41008Y-32638D03*
X41008Y-33032D03*
X41008Y-33425D03*
X38252Y-29882D03*
X38252Y-30276D03*
X38252Y-30669D03*
X38252Y-31063D03*
X38252Y-31457D03*
X38252Y-31851D03*
X38252Y-32244D03*
X38252Y-32638D03*
X38252Y-33032D03*
X38252Y-33425D03*
X41008Y-33819D03*
X38252Y-33819D03*
X38252Y-35000D03*
X38252Y-35394D03*
X38252Y-35788D03*
X38252Y-36181D03*
X38252Y-36575D03*
X38252Y-36969D03*
X38252Y-37362D03*
X41008Y-35000D03*
X41008Y-35394D03*
X41008Y-35788D03*
X41008Y-36181D03*
X41008Y-36575D03*
X41008Y-36969D03*
X41008Y-37362D03*
G54D15*
X39630Y-34351D03*
X39630Y-38071D03*
G54D13*
X37150Y-39374D03*
X39220Y-39902D03*
G54D16*
X40994Y-40573D03*
G54D17*
X40994Y-41573D03*
G54D18*
X37333Y-42825D03*
X37923Y-42825D03*
X37333Y-41969D03*
X37923Y-41969D03*
X37333Y-41132D03*
X37923Y-41132D03*
X37333Y-40335D03*
X37923Y-40335D03*
G54D12*
X31496Y-39173D03*
X20571Y-36683D03*
G54D19*
X33763Y-22051D03*
X34513Y-22051D03*
G54D20*
X34419Y-33475D03*
X34419Y-32725D03*
G54D19*
X25296Y-40709D03*
X24546Y-40709D03*
X23326Y-43159D03*
X24076Y-43159D03*
X22796Y-42146D03*
X22046Y-42146D03*
X23184Y-39130D03*
X23934Y-39130D03*
X22788Y-38024D03*
X22038Y-38024D03*
G54D21*
X26988Y-32456D03*
X26988Y-31856D03*
X29774Y-39198D03*
X29774Y-39798D03*
G54D22*
X33430Y-38533D03*
X34030Y-38533D03*
G54D21*
X26506Y-36324D03*
X26506Y-35724D03*
G54D22*
X34956Y-35699D03*
X34356Y-35699D03*
G54D21*
X33902Y-43275D03*
X33902Y-43875D03*
X35000Y-37682D03*
X35000Y-38282D03*
X35189Y-21940D03*
X35189Y-22540D03*
X25827Y-36324D03*
X25827Y-35724D03*
G54D22*
X27534Y-31309D03*
X26934Y-31309D03*
X30379Y-43386D03*
X30979Y-43386D03*
X20255Y-40759D03*
X20855Y-40759D03*
X20182Y-44409D03*
X20782Y-44409D03*
G54D23*
X26693Y-33169D03*
X26339Y-33169D03*
X20724Y-39892D03*
X20370Y-39892D03*
X20366Y-40274D03*
X20720Y-40274D03*
X20640Y-43907D03*
X20286Y-43907D03*
X21211Y-35443D03*
X21565Y-35443D03*
G54D24*
X30896Y-39262D03*
X30896Y-39616D03*
X25980Y-32854D03*
X25980Y-33208D03*
G54D25*
X21072Y-27048D03*
X21072Y-34174D03*
G54D26*
X22036Y-33466D03*
X22036Y-33270D03*
X22036Y-33073D03*
X22036Y-32876D03*
X22036Y-32679D03*
X22036Y-32482D03*
X22036Y-32285D03*
X22036Y-32088D03*
X22036Y-31892D03*
X22036Y-31695D03*
X22036Y-31498D03*
X22036Y-31301D03*
X22036Y-31104D03*
X22036Y-30907D03*
X22037Y-30709D03*
X22036Y-30514D03*
X22036Y-30317D03*
X22036Y-30120D03*
X22036Y-29726D03*
X22036Y-29332D03*
X22036Y-28939D03*
X22036Y-29136D03*
X22036Y-29529D03*
X22036Y-29923D03*
X22036Y-28742D03*
X22036Y-28545D03*
X22036Y-28348D03*
X22036Y-28151D03*
X22036Y-27955D03*
X22036Y-27756D03*
G54D25*
X42186Y-28114D03*
X42186Y-20988D03*
G54D26*
X41222Y-21696D03*
X41222Y-21892D03*
X41222Y-22089D03*
X41222Y-22286D03*
X41222Y-22483D03*
X41222Y-22680D03*
X41222Y-22877D03*
X41222Y-23074D03*
X41222Y-23270D03*
X41222Y-23467D03*
X41222Y-23664D03*
X41222Y-23861D03*
X41222Y-24058D03*
X41222Y-24255D03*
X41221Y-24453D03*
X41222Y-24648D03*
X41222Y-24845D03*
X41222Y-25042D03*
X41222Y-25436D03*
X41222Y-25830D03*
X41222Y-26223D03*
X41222Y-26026D03*
X41222Y-25633D03*
X41222Y-25239D03*
X41222Y-26420D03*
X41222Y-26617D03*
X41222Y-26814D03*
X41222Y-27011D03*
X41222Y-27207D03*
X41222Y-27406D03*
G54D27*
X21221Y-36683D03*
X22047Y-36683D03*
X22047Y-36033D03*
X21221Y-36033D03*
G54D28*
X28978Y-43110D03*
X28478Y-43110D03*
X27978Y-43110D03*
X27478Y-43110D03*
X27478Y-40610D03*
X27978Y-40610D03*
X28478Y-40610D03*
X28978Y-40610D03*
G54D21*
X30354Y-39198D03*
X30354Y-39798D03*
G54D12*
X23327Y-43789D03*
X24547Y-43848D03*
X21427Y-45266D03*
X23189Y-39793D03*
X24478Y-39823D03*
X21270Y-40344D03*
G54D29*
X26094Y-42098D03*
X26468Y-42098D03*
X25720Y-42098D03*
X25720Y-43043D03*
X26468Y-43043D03*
G54D30*
X22386Y-43533D03*
X22386Y-43907D03*
X22386Y-43159D03*
X21441Y-43159D03*
X21441Y-43907D03*
X22386Y-39499D03*
X22386Y-39873D03*
X22386Y-39125D03*
X21441Y-39125D03*
X21441Y-39873D03*
G54D22*
X20182Y-45108D03*
X20782Y-45108D03*
G54D31*
X36386Y-45941D03*
G54D32*
X36386Y-46941D03*
X35386Y-45941D03*
X35386Y-46941D03*
X34386Y-45941D03*
X34386Y-46941D03*
X33386Y-45941D03*
X33386Y-46941D03*
X32386Y-45941D03*
X32386Y-46941D03*
X31386Y-45941D03*
X31386Y-46941D03*
X30386Y-45941D03*
X30386Y-46941D03*
X29386Y-45941D03*
X29386Y-46941D03*
X28386Y-45941D03*
X28386Y-46941D03*
X27386Y-45941D03*
X27386Y-46941D03*
G54D31*
X22343Y-46445D03*
G54D32*
X22343Y-45445D03*
G54D33*
X39720Y-45642D03*
X41334Y-45642D03*
X42751Y-45642D03*
G54D15*
X41196Y-47611D03*
G54D34*
X32630Y-42126D03*
X32630Y-42323D03*
X32630Y-42520D03*
X32630Y-42717D03*
X33083Y-42717D03*
X33083Y-42520D03*
X33083Y-42323D03*
X33083Y-42126D03*
G54D35*
X33120Y-43424D03*
X32923Y-43424D03*
X32726Y-43424D03*
X32529Y-43424D03*
X32529Y-43877D03*
X32726Y-43877D03*
X32923Y-43877D03*
X33120Y-43877D03*
X28907Y-31002D03*
X28710Y-31002D03*
X28513Y-31002D03*
X28316Y-31002D03*
X28316Y-31455D03*
X28513Y-31455D03*
X28710Y-31455D03*
X28907Y-31455D03*
G54D34*
X26543Y-34590D03*
X26543Y-34393D03*
X26543Y-34196D03*
X26543Y-33999D03*
X26090Y-33999D03*
X26090Y-34196D03*
X26090Y-34393D03*
X26090Y-34590D03*
G54D36*
X31094Y-42815D03*
X30838Y-42815D03*
X31350Y-42815D03*
X31350Y-42067D03*
X31094Y-42067D03*
X30838Y-42067D03*
X30118Y-42815D03*
X29862Y-42815D03*
X30374Y-42815D03*
X30374Y-42067D03*
X30118Y-42067D03*
X29862Y-42067D03*
G54D37*
X34517Y-23199D03*
X34202Y-23199D03*
X33887Y-23199D03*
X33572Y-23199D03*
X33257Y-23199D03*
X32942Y-23199D03*
X32627Y-23199D03*
X32312Y-23199D03*
X31997Y-23199D03*
X31682Y-23199D03*
X31367Y-23199D03*
X31052Y-23199D03*
X30737Y-23199D03*
X30423Y-23199D03*
X30108Y-23199D03*
X29793Y-23199D03*
X29478Y-23199D03*
X29163Y-23199D03*
X28848Y-23199D03*
X28533Y-23199D03*
X28218Y-23199D03*
X27903Y-23199D03*
X27588Y-23199D03*
X27273Y-23199D03*
X26958Y-23199D03*
X26643Y-23199D03*
X26328Y-23199D03*
X26328Y-27530D03*
X26643Y-27530D03*
X26958Y-27530D03*
X27273Y-27530D03*
X27588Y-27530D03*
X27903Y-27530D03*
X28218Y-27530D03*
X28533Y-27530D03*
X28848Y-27530D03*
X29163Y-27530D03*
X29478Y-27530D03*
X29793Y-27530D03*
X30108Y-27530D03*
X30423Y-27530D03*
X30737Y-27530D03*
X31052Y-27530D03*
X31367Y-27530D03*
X31682Y-27530D03*
X31997Y-27530D03*
X32312Y-27530D03*
X32627Y-27530D03*
X32942Y-27530D03*
X33257Y-27530D03*
X33572Y-27530D03*
X33887Y-27530D03*
X34202Y-27530D03*
X34517Y-27530D03*
G54D38*
X27459Y-33010D03*
X27459Y-33168D03*
X27459Y-33325D03*
X27459Y-33482D03*
X27459Y-33640D03*
X27459Y-33797D03*
X27459Y-33955D03*
X27459Y-34112D03*
X27459Y-34270D03*
X27459Y-34427D03*
X27459Y-34585D03*
X27459Y-34742D03*
X27459Y-34900D03*
X27459Y-35057D03*
X27459Y-35215D03*
X27459Y-35372D03*
X27459Y-35530D03*
X27459Y-35687D03*
X27459Y-35845D03*
X27459Y-36002D03*
X27459Y-36160D03*
X27459Y-36317D03*
X27459Y-36475D03*
X27459Y-36632D03*
X27459Y-36790D03*
X27459Y-36947D03*
X27459Y-37105D03*
X27459Y-37262D03*
X27459Y-37420D03*
X27459Y-37577D03*
X27459Y-37734D03*
X27459Y-37892D03*
G54D39*
X28049Y-38482D03*
X28207Y-38482D03*
X28364Y-38482D03*
X28521Y-38482D03*
X28679Y-38482D03*
X28836Y-38482D03*
X28994Y-38482D03*
X29151Y-38482D03*
X29309Y-38482D03*
X29466Y-38482D03*
X29624Y-38482D03*
X29781Y-38482D03*
X29939Y-38482D03*
X30096Y-38482D03*
X30254Y-38482D03*
X30411Y-38482D03*
X30569Y-38482D03*
X30726Y-38482D03*
X30884Y-38482D03*
X31041Y-38482D03*
X31199Y-38482D03*
X31356Y-38482D03*
X31514Y-38482D03*
X31671Y-38482D03*
X31829Y-38482D03*
X31986Y-38482D03*
X32144Y-38482D03*
X32301Y-38482D03*
X32459Y-38482D03*
X32616Y-38482D03*
X32773Y-38482D03*
X32931Y-38482D03*
G54D38*
X33521Y-37892D03*
X33521Y-37734D03*
X33521Y-37577D03*
X33521Y-37420D03*
X33521Y-37262D03*
X33521Y-37105D03*
X33521Y-36947D03*
X33521Y-36790D03*
X33521Y-36632D03*
X33521Y-36475D03*
X33521Y-36317D03*
X33521Y-36160D03*
X33521Y-36002D03*
X33521Y-35845D03*
X33521Y-35687D03*
X33521Y-35530D03*
X33521Y-35372D03*
X33521Y-35215D03*
X33521Y-35057D03*
X33521Y-34900D03*
X33521Y-34742D03*
X33521Y-34585D03*
X33521Y-34427D03*
X33521Y-34270D03*
X33521Y-34112D03*
X33521Y-33955D03*
X33521Y-33797D03*
X33521Y-33640D03*
X33521Y-33482D03*
X33521Y-33325D03*
X33521Y-33168D03*
X33521Y-33010D03*
G54D39*
X32931Y-32420D03*
X32773Y-32420D03*
X32616Y-32420D03*
X32459Y-32420D03*
X32301Y-32420D03*
X32144Y-32420D03*
X31986Y-32420D03*
X31829Y-32420D03*
X31671Y-32420D03*
X31514Y-32420D03*
X31356Y-32420D03*
X31199Y-32420D03*
X31041Y-32420D03*
X30884Y-32420D03*
X30726Y-32420D03*
X30569Y-32420D03*
X30411Y-32420D03*
X30254Y-32420D03*
X30096Y-32420D03*
X29939Y-32420D03*
X29781Y-32420D03*
X29624Y-32420D03*
X29466Y-32420D03*
X29309Y-32420D03*
X29151Y-32420D03*
X28994Y-32420D03*
X28836Y-32420D03*
X28679Y-32420D03*
X28521Y-32420D03*
X28364Y-32420D03*
X28207Y-32420D03*
X28049Y-32420D03*
G54D40*
X30490Y-35451D03*
G54D34*
X35235Y-40561D03*
X35235Y-40758D03*
X35235Y-40955D03*
X35235Y-41152D03*
X35688Y-41152D03*
X35688Y-40955D03*
X35688Y-40758D03*
X35688Y-40561D03*
G54D16*
X37008Y-36616D03*
G54D17*
X37008Y-37616D03*
G54D16*
X42766Y-38535D03*
G54D17*
X42766Y-39535D03*
G54D22*
X26461Y-43760D03*
X25861Y-43760D03*
G54D41*
X20000Y-37953D03*
X21300Y-37953D03*
X20039Y-42175D03*
X21339Y-42175D03*
M02*
