G04 (created by PCBNEW (2012-01-19 BZR 3256)-stable) date Tue 16 Oct 2012 12:11:57 BST*
G01*
G70*
G90*
%MOIN*%
G04 Gerber Fmt 3.4, Leading zero omitted, Abs format*
%FSLAX34Y34*%
G04 APERTURE LIST*
%ADD10C,0.001000*%
%ADD11C,0.015000*%
%ADD12C,0.008000*%
G04 APERTURE END LIST*
G54D10*
G54D11*
X18366Y-49035D02*
X42618Y-49035D01*
X18307Y-20039D02*
X18307Y-48425D01*
X42933Y-19400D02*
X18681Y-19400D01*
X43435Y-48277D02*
X43435Y-19970D01*
G54D10*
X40940Y-47355D02*
X41452Y-47867D01*
X41452Y-47355D02*
X40940Y-47867D01*
X39990Y-34459D02*
X39981Y-34548D01*
X39955Y-34635D01*
X39912Y-34714D01*
X39855Y-34784D01*
X39786Y-34842D01*
X39707Y-34884D01*
X39620Y-34911D01*
X39531Y-34920D01*
X39442Y-34912D01*
X39355Y-34887D01*
X39276Y-34845D01*
X39205Y-34789D01*
X39147Y-34720D01*
X39104Y-34641D01*
X39077Y-34555D01*
X39067Y-34465D01*
X39074Y-34376D01*
X39099Y-34289D01*
X39140Y-34209D01*
X39196Y-34139D01*
X39265Y-34080D01*
X39344Y-34036D01*
X39429Y-34008D01*
X39519Y-33998D01*
X39608Y-34005D01*
X39695Y-34029D01*
X39775Y-34069D01*
X39846Y-34125D01*
X39905Y-34193D01*
X39950Y-34272D01*
X39978Y-34357D01*
X39989Y-34447D01*
X39990Y-34459D01*
X39990Y-38062D02*
X39981Y-38151D01*
X39955Y-38238D01*
X39912Y-38317D01*
X39855Y-38387D01*
X39786Y-38445D01*
X39707Y-38487D01*
X39620Y-38514D01*
X39531Y-38523D01*
X39442Y-38515D01*
X39355Y-38490D01*
X39276Y-38448D01*
X39205Y-38392D01*
X39147Y-38323D01*
X39104Y-38244D01*
X39077Y-38158D01*
X39067Y-38068D01*
X39074Y-37979D01*
X39099Y-37892D01*
X39140Y-37812D01*
X39196Y-37742D01*
X39265Y-37683D01*
X39344Y-37639D01*
X39429Y-37611D01*
X39519Y-37601D01*
X39608Y-37608D01*
X39695Y-37632D01*
X39775Y-37672D01*
X39846Y-37728D01*
X39905Y-37796D01*
X39950Y-37875D01*
X39978Y-37960D01*
X39989Y-38050D01*
X39990Y-38062D01*
X19776Y-47087D02*
X19776Y-48267D01*
X20366Y-47677D02*
X19186Y-47677D01*
X22417Y-20095D02*
X22417Y-21275D01*
X23007Y-20685D02*
X21827Y-20685D01*
X39752Y-20095D02*
X39752Y-21275D01*
X40342Y-20685D02*
X39162Y-20685D01*
X41811Y-38504D02*
X41811Y-39684D01*
X42401Y-39094D02*
X41221Y-39094D01*
G54D12*
X06814Y-50793D02*
X06814Y-49993D01*
X07005Y-49993D01*
X07119Y-50031D01*
X07195Y-50107D01*
X07234Y-50183D01*
X07272Y-50336D01*
X07272Y-50450D01*
X07234Y-50602D01*
X07195Y-50679D01*
X07119Y-50755D01*
X07005Y-50793D01*
X06814Y-50793D01*
X07614Y-50793D02*
X07614Y-50259D01*
X07614Y-50412D02*
X07653Y-50336D01*
X07691Y-50298D01*
X07767Y-50259D01*
X07843Y-50259D01*
X08109Y-50793D02*
X08109Y-50259D01*
X08109Y-49993D02*
X08071Y-50031D01*
X08109Y-50069D01*
X08148Y-50031D01*
X08109Y-49993D01*
X08109Y-50069D01*
X08605Y-50793D02*
X08529Y-50755D01*
X08490Y-50679D01*
X08490Y-49993D01*
X09024Y-50793D02*
X08948Y-50755D01*
X08909Y-50679D01*
X08909Y-49993D01*
X09938Y-50793D02*
X09938Y-49993D01*
X10205Y-50564D01*
X10472Y-49993D01*
X10472Y-50793D01*
X11195Y-50793D02*
X11195Y-50374D01*
X11157Y-50298D01*
X11081Y-50259D01*
X10929Y-50259D01*
X10852Y-50298D01*
X11195Y-50755D02*
X11119Y-50793D01*
X10929Y-50793D01*
X10852Y-50755D01*
X10814Y-50679D01*
X10814Y-50602D01*
X10852Y-50526D01*
X10929Y-50488D01*
X11119Y-50488D01*
X11195Y-50450D01*
X11576Y-50259D02*
X11576Y-51059D01*
X11576Y-50298D02*
X11653Y-50259D01*
X11805Y-50259D01*
X11881Y-50298D01*
X11919Y-50336D01*
X11957Y-50412D01*
X11957Y-50640D01*
X11919Y-50717D01*
X11881Y-50755D01*
X11805Y-50793D01*
X11653Y-50793D01*
X11576Y-50755D01*
X12300Y-50717D02*
X12339Y-50755D01*
X12300Y-50793D01*
X12262Y-50755D01*
X12300Y-50717D01*
X12300Y-50793D01*
X12300Y-50298D02*
X12339Y-50336D01*
X12300Y-50374D01*
X12262Y-50336D01*
X12300Y-50298D01*
X12300Y-50374D01*
X05912Y-51893D02*
X06424Y-52405D01*
X06424Y-51893D02*
X05912Y-52405D01*
X07234Y-52473D02*
X06776Y-52473D01*
X07005Y-52473D02*
X07005Y-51673D01*
X06929Y-51787D01*
X06853Y-51863D01*
X06776Y-51901D01*
X07576Y-52397D02*
X07615Y-52435D01*
X07576Y-52473D01*
X07538Y-52435D01*
X07576Y-52397D01*
X07576Y-52473D01*
X07881Y-51673D02*
X08377Y-51673D01*
X08110Y-51978D01*
X08224Y-51978D01*
X08300Y-52016D01*
X08338Y-52054D01*
X08377Y-52130D01*
X08377Y-52320D01*
X08338Y-52397D01*
X08300Y-52435D01*
X08224Y-52473D01*
X07996Y-52473D01*
X07919Y-52435D01*
X07881Y-52397D01*
X08872Y-51673D02*
X08948Y-51673D01*
X09024Y-51711D01*
X09062Y-51749D01*
X09100Y-51825D01*
X09139Y-51978D01*
X09139Y-52168D01*
X09100Y-52320D01*
X09062Y-52397D01*
X09024Y-52435D01*
X08948Y-52473D01*
X08872Y-52473D01*
X08796Y-52435D01*
X08758Y-52397D01*
X08719Y-52320D01*
X08681Y-52168D01*
X08681Y-51978D01*
X08719Y-51825D01*
X08758Y-51749D01*
X08796Y-51711D01*
X08872Y-51673D01*
X09481Y-52473D02*
X09481Y-51939D01*
X09481Y-52016D02*
X09520Y-51978D01*
X09596Y-51939D01*
X09710Y-51939D01*
X09786Y-51978D01*
X09824Y-52054D01*
X09824Y-52473D01*
X09824Y-52054D02*
X09862Y-51978D01*
X09939Y-51939D01*
X10053Y-51939D01*
X10129Y-51978D01*
X10167Y-52054D01*
X10167Y-52473D01*
X10548Y-52473D02*
X10548Y-51939D01*
X10548Y-52016D02*
X10587Y-51978D01*
X10663Y-51939D01*
X10777Y-51939D01*
X10853Y-51978D01*
X10891Y-52054D01*
X10891Y-52473D01*
X10891Y-52054D02*
X10929Y-51978D01*
X11006Y-51939D01*
X11120Y-51939D01*
X11196Y-51978D01*
X11234Y-52054D01*
X11234Y-52473D01*
X12797Y-51635D02*
X12111Y-52663D01*
X13826Y-51673D02*
X13902Y-51673D01*
X13978Y-51711D01*
X14016Y-51749D01*
X14054Y-51825D01*
X14093Y-51978D01*
X14093Y-52168D01*
X14054Y-52320D01*
X14016Y-52397D01*
X13978Y-52435D01*
X13902Y-52473D01*
X13826Y-52473D01*
X13750Y-52435D01*
X13712Y-52397D01*
X13673Y-52320D01*
X13635Y-52168D01*
X13635Y-51978D01*
X13673Y-51825D01*
X13712Y-51749D01*
X13750Y-51711D01*
X13826Y-51673D01*
X14435Y-52397D02*
X14474Y-52435D01*
X14435Y-52473D01*
X14397Y-52435D01*
X14435Y-52397D01*
X14435Y-52473D01*
X14969Y-51673D02*
X15045Y-51673D01*
X15121Y-51711D01*
X15159Y-51749D01*
X15197Y-51825D01*
X15236Y-51978D01*
X15236Y-52168D01*
X15197Y-52320D01*
X15159Y-52397D01*
X15121Y-52435D01*
X15045Y-52473D01*
X14969Y-52473D01*
X14893Y-52435D01*
X14855Y-52397D01*
X14816Y-52320D01*
X14778Y-52168D01*
X14778Y-51978D01*
X14816Y-51825D01*
X14855Y-51749D01*
X14893Y-51711D01*
X14969Y-51673D01*
X15959Y-51673D02*
X15578Y-51673D01*
X15540Y-52054D01*
X15578Y-52016D01*
X15655Y-51978D01*
X15845Y-51978D01*
X15921Y-52016D01*
X15959Y-52054D01*
X15998Y-52130D01*
X15998Y-52320D01*
X15959Y-52397D01*
X15921Y-52435D01*
X15845Y-52473D01*
X15655Y-52473D01*
X15578Y-52435D01*
X15540Y-52397D01*
X16760Y-52473D02*
X16302Y-52473D01*
X16531Y-52473D02*
X16531Y-51673D01*
X16455Y-51787D01*
X16379Y-51863D01*
X16302Y-51901D01*
X17064Y-51673D02*
X17064Y-51825D01*
X17369Y-51673D02*
X17369Y-51825D01*
X18551Y-52778D02*
X18513Y-52739D01*
X18437Y-52625D01*
X18399Y-52549D01*
X18361Y-52435D01*
X18322Y-52244D01*
X18322Y-52092D01*
X18361Y-51901D01*
X18399Y-51787D01*
X18437Y-51711D01*
X18513Y-51597D01*
X18551Y-51559D01*
X19275Y-52473D02*
X18817Y-52473D01*
X19046Y-52473D02*
X19046Y-51673D01*
X18970Y-51787D01*
X18894Y-51863D01*
X18817Y-51901D01*
X20227Y-52473D02*
X20227Y-51673D01*
X20570Y-52473D02*
X20570Y-52054D01*
X20532Y-51978D01*
X20456Y-51939D01*
X20342Y-51939D01*
X20266Y-51978D01*
X20227Y-52016D01*
X21066Y-52473D02*
X20990Y-52435D01*
X20951Y-52397D01*
X20913Y-52320D01*
X20913Y-52092D01*
X20951Y-52016D01*
X20990Y-51978D01*
X21066Y-51939D01*
X21180Y-51939D01*
X21256Y-51978D01*
X21294Y-52016D01*
X21332Y-52092D01*
X21332Y-52320D01*
X21294Y-52397D01*
X21256Y-52435D01*
X21180Y-52473D01*
X21066Y-52473D01*
X21790Y-52473D02*
X21714Y-52435D01*
X21675Y-52359D01*
X21675Y-51673D01*
X22399Y-52435D02*
X22323Y-52473D01*
X22171Y-52473D01*
X22094Y-52435D01*
X22056Y-52359D01*
X22056Y-52054D01*
X22094Y-51978D01*
X22171Y-51939D01*
X22323Y-51939D01*
X22399Y-51978D01*
X22437Y-52054D01*
X22437Y-52130D01*
X22056Y-52206D01*
X22704Y-52778D02*
X22742Y-52739D01*
X22819Y-52625D01*
X22857Y-52549D01*
X22895Y-52435D01*
X22933Y-52244D01*
X22933Y-52092D01*
X22895Y-51901D01*
X22857Y-51787D01*
X22819Y-51711D01*
X22742Y-51597D01*
X22704Y-51559D01*
G54D10*
X06423Y-53204D02*
X06414Y-53293D01*
X06388Y-53380D01*
X06345Y-53459D01*
X06288Y-53529D01*
X06219Y-53587D01*
X06140Y-53629D01*
X06053Y-53656D01*
X05964Y-53665D01*
X05875Y-53657D01*
X05788Y-53632D01*
X05709Y-53590D01*
X05638Y-53534D01*
X05580Y-53465D01*
X05537Y-53386D01*
X05510Y-53300D01*
X05500Y-53210D01*
X05507Y-53121D01*
X05532Y-53034D01*
X05573Y-52954D01*
X05629Y-52884D01*
X05698Y-52825D01*
X05777Y-52781D01*
X05862Y-52753D01*
X05952Y-52743D01*
X06041Y-52750D01*
X06128Y-52774D01*
X06208Y-52814D01*
X06279Y-52870D01*
X06338Y-52938D01*
X06383Y-53017D01*
X06411Y-53102D01*
X06422Y-53192D01*
X06423Y-53204D01*
G54D12*
X06776Y-52804D02*
X06814Y-52766D01*
X06891Y-52728D01*
X07081Y-52728D01*
X07157Y-52766D01*
X07195Y-52804D01*
X07234Y-52880D01*
X07234Y-52956D01*
X07195Y-53071D01*
X06738Y-53528D01*
X07234Y-53528D01*
X07576Y-53452D02*
X07615Y-53490D01*
X07576Y-53528D01*
X07538Y-53490D01*
X07576Y-53452D01*
X07576Y-53528D01*
X07881Y-52728D02*
X08377Y-52728D01*
X08110Y-53033D01*
X08224Y-53033D01*
X08300Y-53071D01*
X08338Y-53109D01*
X08377Y-53185D01*
X08377Y-53375D01*
X08338Y-53452D01*
X08300Y-53490D01*
X08224Y-53528D01*
X07996Y-53528D01*
X07919Y-53490D01*
X07881Y-53452D01*
X09100Y-52728D02*
X08719Y-52728D01*
X08681Y-53109D01*
X08719Y-53071D01*
X08796Y-53033D01*
X08986Y-53033D01*
X09062Y-53071D01*
X09100Y-53109D01*
X09139Y-53185D01*
X09139Y-53375D01*
X09100Y-53452D01*
X09062Y-53490D01*
X08986Y-53528D01*
X08796Y-53528D01*
X08719Y-53490D01*
X08681Y-53452D01*
X09481Y-53528D02*
X09481Y-52994D01*
X09481Y-53071D02*
X09520Y-53033D01*
X09596Y-52994D01*
X09710Y-52994D01*
X09786Y-53033D01*
X09824Y-53109D01*
X09824Y-53528D01*
X09824Y-53109D02*
X09862Y-53033D01*
X09939Y-52994D01*
X10053Y-52994D01*
X10129Y-53033D01*
X10167Y-53109D01*
X10167Y-53528D01*
X10548Y-53528D02*
X10548Y-52994D01*
X10548Y-53071D02*
X10587Y-53033D01*
X10663Y-52994D01*
X10777Y-52994D01*
X10853Y-53033D01*
X10891Y-53109D01*
X10891Y-53528D01*
X10891Y-53109D02*
X10929Y-53033D01*
X11006Y-52994D01*
X11120Y-52994D01*
X11196Y-53033D01*
X11234Y-53109D01*
X11234Y-53528D01*
X12797Y-52690D02*
X12111Y-53718D01*
X13826Y-52728D02*
X13902Y-52728D01*
X13978Y-52766D01*
X14016Y-52804D01*
X14054Y-52880D01*
X14093Y-53033D01*
X14093Y-53223D01*
X14054Y-53375D01*
X14016Y-53452D01*
X13978Y-53490D01*
X13902Y-53528D01*
X13826Y-53528D01*
X13750Y-53490D01*
X13712Y-53452D01*
X13673Y-53375D01*
X13635Y-53223D01*
X13635Y-53033D01*
X13673Y-52880D01*
X13712Y-52804D01*
X13750Y-52766D01*
X13826Y-52728D01*
X14435Y-53452D02*
X14474Y-53490D01*
X14435Y-53528D01*
X14397Y-53490D01*
X14435Y-53452D01*
X14435Y-53528D01*
X14969Y-52728D02*
X15045Y-52728D01*
X15121Y-52766D01*
X15159Y-52804D01*
X15197Y-52880D01*
X15236Y-53033D01*
X15236Y-53223D01*
X15197Y-53375D01*
X15159Y-53452D01*
X15121Y-53490D01*
X15045Y-53528D01*
X14969Y-53528D01*
X14893Y-53490D01*
X14855Y-53452D01*
X14816Y-53375D01*
X14778Y-53223D01*
X14778Y-53033D01*
X14816Y-52880D01*
X14855Y-52804D01*
X14893Y-52766D01*
X14969Y-52728D01*
X15617Y-53528D02*
X15769Y-53528D01*
X15845Y-53490D01*
X15883Y-53452D01*
X15959Y-53337D01*
X15998Y-53185D01*
X15998Y-52880D01*
X15959Y-52804D01*
X15921Y-52766D01*
X15845Y-52728D01*
X15693Y-52728D01*
X15617Y-52766D01*
X15578Y-52804D01*
X15540Y-52880D01*
X15540Y-53071D01*
X15578Y-53147D01*
X15617Y-53185D01*
X15693Y-53223D01*
X15845Y-53223D01*
X15921Y-53185D01*
X15959Y-53147D01*
X15998Y-53071D01*
X16302Y-52804D02*
X16340Y-52766D01*
X16417Y-52728D01*
X16607Y-52728D01*
X16683Y-52766D01*
X16721Y-52804D01*
X16760Y-52880D01*
X16760Y-52956D01*
X16721Y-53071D01*
X16264Y-53528D01*
X16760Y-53528D01*
X17064Y-52728D02*
X17064Y-52880D01*
X17369Y-52728D02*
X17369Y-52880D01*
X18551Y-53833D02*
X18513Y-53794D01*
X18437Y-53680D01*
X18399Y-53604D01*
X18361Y-53490D01*
X18322Y-53299D01*
X18322Y-53147D01*
X18361Y-52956D01*
X18399Y-52842D01*
X18437Y-52766D01*
X18513Y-52652D01*
X18551Y-52614D01*
X18817Y-52804D02*
X18855Y-52766D01*
X18932Y-52728D01*
X19122Y-52728D01*
X19198Y-52766D01*
X19236Y-52804D01*
X19275Y-52880D01*
X19275Y-52956D01*
X19236Y-53071D01*
X18779Y-53528D01*
X19275Y-53528D01*
X20227Y-53528D02*
X20227Y-52728D01*
X20570Y-53528D02*
X20570Y-53109D01*
X20532Y-53033D01*
X20456Y-52994D01*
X20342Y-52994D01*
X20266Y-53033D01*
X20227Y-53071D01*
X21066Y-53528D02*
X20990Y-53490D01*
X20951Y-53452D01*
X20913Y-53375D01*
X20913Y-53147D01*
X20951Y-53071D01*
X20990Y-53033D01*
X21066Y-52994D01*
X21180Y-52994D01*
X21256Y-53033D01*
X21294Y-53071D01*
X21332Y-53147D01*
X21332Y-53375D01*
X21294Y-53452D01*
X21256Y-53490D01*
X21180Y-53528D01*
X21066Y-53528D01*
X21790Y-53528D02*
X21714Y-53490D01*
X21675Y-53414D01*
X21675Y-52728D01*
X22399Y-53490D02*
X22323Y-53528D01*
X22171Y-53528D01*
X22094Y-53490D01*
X22056Y-53414D01*
X22056Y-53109D01*
X22094Y-53033D01*
X22171Y-52994D01*
X22323Y-52994D01*
X22399Y-53033D01*
X22437Y-53109D01*
X22437Y-53185D01*
X22056Y-53261D01*
X22742Y-53490D02*
X22819Y-53528D01*
X22971Y-53528D01*
X23047Y-53490D01*
X23085Y-53414D01*
X23085Y-53375D01*
X23047Y-53299D01*
X22971Y-53261D01*
X22857Y-53261D01*
X22780Y-53223D01*
X22742Y-53147D01*
X22742Y-53109D01*
X22780Y-53033D01*
X22857Y-52994D01*
X22971Y-52994D01*
X23047Y-53033D01*
X23352Y-53833D02*
X23390Y-53794D01*
X23467Y-53680D01*
X23505Y-53604D01*
X23543Y-53490D01*
X23581Y-53299D01*
X23581Y-53147D01*
X23543Y-52956D01*
X23505Y-52842D01*
X23467Y-52766D01*
X23390Y-52652D01*
X23352Y-52614D01*
X05833Y-53819D02*
X05833Y-54999D01*
X06423Y-54409D02*
X05243Y-54409D01*
X06738Y-53933D02*
X07234Y-53933D01*
X06967Y-54238D01*
X07081Y-54238D01*
X07157Y-54276D01*
X07195Y-54314D01*
X07234Y-54390D01*
X07234Y-54580D01*
X07195Y-54657D01*
X07157Y-54695D01*
X07081Y-54733D01*
X06853Y-54733D01*
X06776Y-54695D01*
X06738Y-54657D01*
X07576Y-54657D02*
X07615Y-54695D01*
X07576Y-54733D01*
X07538Y-54695D01*
X07576Y-54657D01*
X07576Y-54733D01*
X08110Y-53933D02*
X08186Y-53933D01*
X08262Y-53971D01*
X08300Y-54009D01*
X08338Y-54085D01*
X08377Y-54238D01*
X08377Y-54428D01*
X08338Y-54580D01*
X08300Y-54657D01*
X08262Y-54695D01*
X08186Y-54733D01*
X08110Y-54733D01*
X08034Y-54695D01*
X07996Y-54657D01*
X07957Y-54580D01*
X07919Y-54428D01*
X07919Y-54238D01*
X07957Y-54085D01*
X07996Y-54009D01*
X08034Y-53971D01*
X08110Y-53933D01*
X08872Y-53933D02*
X08948Y-53933D01*
X09024Y-53971D01*
X09062Y-54009D01*
X09100Y-54085D01*
X09139Y-54238D01*
X09139Y-54428D01*
X09100Y-54580D01*
X09062Y-54657D01*
X09024Y-54695D01*
X08948Y-54733D01*
X08872Y-54733D01*
X08796Y-54695D01*
X08758Y-54657D01*
X08719Y-54580D01*
X08681Y-54428D01*
X08681Y-54238D01*
X08719Y-54085D01*
X08758Y-54009D01*
X08796Y-53971D01*
X08872Y-53933D01*
X09481Y-54733D02*
X09481Y-54199D01*
X09481Y-54276D02*
X09520Y-54238D01*
X09596Y-54199D01*
X09710Y-54199D01*
X09786Y-54238D01*
X09824Y-54314D01*
X09824Y-54733D01*
X09824Y-54314D02*
X09862Y-54238D01*
X09939Y-54199D01*
X10053Y-54199D01*
X10129Y-54238D01*
X10167Y-54314D01*
X10167Y-54733D01*
X10548Y-54733D02*
X10548Y-54199D01*
X10548Y-54276D02*
X10587Y-54238D01*
X10663Y-54199D01*
X10777Y-54199D01*
X10853Y-54238D01*
X10891Y-54314D01*
X10891Y-54733D01*
X10891Y-54314D02*
X10929Y-54238D01*
X11006Y-54199D01*
X11120Y-54199D01*
X11196Y-54238D01*
X11234Y-54314D01*
X11234Y-54733D01*
X12797Y-53895D02*
X12111Y-54923D01*
X13826Y-53933D02*
X13902Y-53933D01*
X13978Y-53971D01*
X14016Y-54009D01*
X14054Y-54085D01*
X14093Y-54238D01*
X14093Y-54428D01*
X14054Y-54580D01*
X14016Y-54657D01*
X13978Y-54695D01*
X13902Y-54733D01*
X13826Y-54733D01*
X13750Y-54695D01*
X13712Y-54657D01*
X13673Y-54580D01*
X13635Y-54428D01*
X13635Y-54238D01*
X13673Y-54085D01*
X13712Y-54009D01*
X13750Y-53971D01*
X13826Y-53933D01*
X14435Y-54657D02*
X14474Y-54695D01*
X14435Y-54733D01*
X14397Y-54695D01*
X14435Y-54657D01*
X14435Y-54733D01*
X15236Y-54733D02*
X14778Y-54733D01*
X15007Y-54733D02*
X15007Y-53933D01*
X14931Y-54047D01*
X14855Y-54123D01*
X14778Y-54161D01*
X15998Y-54733D02*
X15540Y-54733D01*
X15769Y-54733D02*
X15769Y-53933D01*
X15693Y-54047D01*
X15617Y-54123D01*
X15540Y-54161D01*
X16455Y-54276D02*
X16379Y-54238D01*
X16340Y-54199D01*
X16302Y-54123D01*
X16302Y-54085D01*
X16340Y-54009D01*
X16379Y-53971D01*
X16455Y-53933D01*
X16607Y-53933D01*
X16683Y-53971D01*
X16721Y-54009D01*
X16760Y-54085D01*
X16760Y-54123D01*
X16721Y-54199D01*
X16683Y-54238D01*
X16607Y-54276D01*
X16455Y-54276D01*
X16379Y-54314D01*
X16340Y-54352D01*
X16302Y-54428D01*
X16302Y-54580D01*
X16340Y-54657D01*
X16379Y-54695D01*
X16455Y-54733D01*
X16607Y-54733D01*
X16683Y-54695D01*
X16721Y-54657D01*
X16760Y-54580D01*
X16760Y-54428D01*
X16721Y-54352D01*
X16683Y-54314D01*
X16607Y-54276D01*
X17064Y-53933D02*
X17064Y-54085D01*
X17369Y-53933D02*
X17369Y-54085D01*
X18551Y-55038D02*
X18513Y-54999D01*
X18437Y-54885D01*
X18399Y-54809D01*
X18361Y-54695D01*
X18322Y-54504D01*
X18322Y-54352D01*
X18361Y-54161D01*
X18399Y-54047D01*
X18437Y-53971D01*
X18513Y-53857D01*
X18551Y-53819D01*
X19198Y-54199D02*
X19198Y-54733D01*
X19008Y-53895D02*
X18817Y-54466D01*
X19313Y-54466D01*
X20227Y-54733D02*
X20227Y-53933D01*
X20570Y-54733D02*
X20570Y-54314D01*
X20532Y-54238D01*
X20456Y-54199D01*
X20342Y-54199D01*
X20266Y-54238D01*
X20227Y-54276D01*
X21066Y-54733D02*
X20990Y-54695D01*
X20951Y-54657D01*
X20913Y-54580D01*
X20913Y-54352D01*
X20951Y-54276D01*
X20990Y-54238D01*
X21066Y-54199D01*
X21180Y-54199D01*
X21256Y-54238D01*
X21294Y-54276D01*
X21332Y-54352D01*
X21332Y-54580D01*
X21294Y-54657D01*
X21256Y-54695D01*
X21180Y-54733D01*
X21066Y-54733D01*
X21790Y-54733D02*
X21714Y-54695D01*
X21675Y-54619D01*
X21675Y-53933D01*
X22399Y-54695D02*
X22323Y-54733D01*
X22171Y-54733D01*
X22094Y-54695D01*
X22056Y-54619D01*
X22056Y-54314D01*
X22094Y-54238D01*
X22171Y-54199D01*
X22323Y-54199D01*
X22399Y-54238D01*
X22437Y-54314D01*
X22437Y-54390D01*
X22056Y-54466D01*
X22742Y-54695D02*
X22819Y-54733D01*
X22971Y-54733D01*
X23047Y-54695D01*
X23085Y-54619D01*
X23085Y-54580D01*
X23047Y-54504D01*
X22971Y-54466D01*
X22857Y-54466D01*
X22780Y-54428D01*
X22742Y-54352D01*
X22742Y-54314D01*
X22780Y-54238D01*
X22857Y-54199D01*
X22971Y-54199D01*
X23047Y-54238D01*
X23352Y-55038D02*
X23390Y-54999D01*
X23467Y-54885D01*
X23505Y-54809D01*
X23543Y-54695D01*
X23581Y-54504D01*
X23581Y-54352D01*
X23543Y-54161D01*
X23505Y-54047D01*
X23467Y-53971D01*
X23390Y-53857D01*
X23352Y-53819D01*
M02*
