M48
;DRILL file {Pcbnew (2012-01-19 BZR 3256)-stable} date Tue 16 Oct 2012 12:11:49 BST
;FORMAT={-:-/ absolute / metric / decimal}
FMAT,2
METRIC,TZ
T1C0.201
T2C0.399
T3C0.500
T4C0.701
T5C0.813
T6C1.001
T7C1.016
T8C1.501
%
G90
G05
M71
T1
X50.274Y-112.799
X50.500Y-91.501
X50.569Y-103.530
X50.676Y-101.150
X50.851Y-61.699
X50.851Y-62.700
X50.876Y-109.624
X53.350Y-62.649
X53.401Y-55.225
X53.401Y-94.750
X53.576Y-58.224
X53.950Y-63.231
X54.900Y-94.750
X56.220Y-63.241
X56.721Y-63.759
X56.860Y-83.050
X56.860Y-102.451
X57.211Y-63.269
X57.381Y-82.499
X57.729Y-63.800
X57.889Y-81.999
X58.100Y-111.625
X58.171Y-92.901
X58.230Y-63.261
X58.450Y-81.501
X58.674Y-83.599
X58.760Y-64.011
X58.999Y-80.990
X59.149Y-84.450
X59.240Y-95.039
X59.324Y-105.824
X59.421Y-55.690
X59.421Y-58.270
X59.769Y-63.919
X59.789Y-87.320
X60.010Y-86.251
X60.551Y-64.000
X60.599Y-86.799
X60.609Y-75.961
X60.620Y-85.771
X61.074Y-111.300
X61.369Y-64.051
X61.671Y-93.449
X62.126Y-64.074
X62.126Y-94.275
X62.349Y-90.300
X62.669Y-87.981
X63.200Y-95.199
X63.500Y-68.725
X64.000Y-68.151
X64.600Y-95.819
X64.651Y-68.176
X65.126Y-89.050
X65.199Y-89.840
X65.220Y-93.061
X65.225Y-94.275
X65.225Y-114.099
X65.301Y-68.224
X65.339Y-103.939
X65.349Y-116.624
X65.400Y-87.099
X65.410Y-87.770
X65.420Y-85.771
X65.420Y-86.431
X65.481Y-85.070
X65.674Y-112.375
X65.750Y-75.961
X65.974Y-68.301
X66.149Y-96.370
X66.319Y-95.321
X66.860Y-71.600
X66.876Y-85.601
X66.929Y-96.350
X67.221Y-95.291
X67.526Y-83.551
X67.671Y-55.969
X67.681Y-68.321
X67.729Y-103.749
X67.760Y-104.399
X67.899Y-93.701
X68.250Y-87.770
X68.260Y-71.570
X68.290Y-86.169
X68.400Y-72.375
X68.400Y-90.350
X68.410Y-78.209
X68.481Y-55.270
X68.481Y-68.321
X68.600Y-96.401
X68.699Y-102.575
X69.271Y-55.819
X69.276Y-72.776
X69.276Y-111.125
X69.281Y-68.301
X69.299Y-74.000
X69.799Y-73.325
X69.840Y-56.510
X70.081Y-67.671
X70.320Y-98.801
X70.381Y-61.341
X70.439Y-74.539
X70.531Y-98.141
X70.874Y-63.500
X70.950Y-90.249
X71.001Y-95.601
X71.049Y-104.300
X71.244Y-77.955
X71.450Y-91.575
X71.501Y-89.451
X71.501Y-92.250
X71.524Y-93.825
X71.651Y-68.349
X71.651Y-84.249
X71.676Y-60.350
X71.900Y-67.300
X71.951Y-99.520
X71.976Y-62.824
X71.976Y-64.099
X72.050Y-81.100
X72.474Y-60.851
X72.649Y-89.451
X72.649Y-92.250
X72.649Y-93.825
X72.751Y-66.700
X72.776Y-107.051
X73.101Y-64.224
X73.226Y-91.575
X73.279Y-61.341
X73.299Y-66.200
X73.429Y-99.520
X73.599Y-107.201
X73.726Y-65.649
X74.069Y-62.050
X74.249Y-80.500
X74.450Y-84.224
X74.450Y-85.301
X74.450Y-96.401
X74.574Y-99.075
X74.600Y-100.300
X74.651Y-78.501
X74.760Y-79.860
X74.879Y-74.320
X75.301Y-107.826
X75.621Y-101.890
X75.669Y-80.531
X75.674Y-65.601
X75.900Y-94.826
X75.900Y-95.926
X75.994Y-88.595
X75.994Y-90.046
X75.994Y-91.496
X76.050Y-83.650
X76.190Y-77.051
X76.200Y-67.300
X76.251Y-66.200
X76.474Y-64.826
X76.474Y-102.799
X76.500Y-105.999
X76.700Y-80.919
X76.711Y-77.610
X76.850Y-66.700
X76.850Y-96.500
X77.099Y-102.009
X77.150Y-105.524
X77.249Y-78.069
X77.300Y-71.699
X77.445Y-88.595
X77.445Y-90.046
X77.445Y-91.496
X77.800Y-81.049
X78.049Y-84.201
X78.049Y-85.301
X78.049Y-106.075
X78.151Y-67.300
X78.425Y-96.474
X78.450Y-78.560
X78.501Y-67.851
X78.689Y-111.341
X78.791Y-65.913
X78.801Y-71.699
X78.880Y-57.140
X78.890Y-62.601
X78.895Y-88.595
X78.895Y-90.046
X78.895Y-91.496
X78.976Y-94.826
X78.999Y-95.900
X78.999Y-103.500
X79.101Y-75.275
X79.350Y-81.021
X79.624Y-96.500
X79.840Y-80.500
X80.150Y-76.525
X80.376Y-94.249
X80.376Y-95.900
X80.551Y-101.849
X80.701Y-64.399
X80.825Y-96.474
X80.851Y-76.551
X81.001Y-63.726
X81.049Y-68.100
X81.250Y-84.201
X81.250Y-85.301
X81.275Y-57.450
X81.651Y-76.525
X81.788Y-94.562
X81.999Y-86.025
X82.050Y-96.500
X82.070Y-102.111
X82.151Y-63.251
X82.174Y-90.650
X82.174Y-93.050
X82.260Y-105.791
X82.271Y-103.129
X82.349Y-100.975
X82.824Y-76.576
X82.850Y-83.650
X82.870Y-73.790
X82.901Y-95.875
X83.076Y-84.950
X83.200Y-57.269
X83.251Y-93.050
X83.274Y-90.650
X83.401Y-62.324
X83.424Y-101.501
X83.500Y-76.551
X83.800Y-95.626
X83.850Y-85.451
X83.850Y-90.000
X83.850Y-91.125
X83.850Y-93.850
X83.975Y-66.101
X84.201Y-76.525
X84.399Y-56.010
X84.470Y-73.810
X84.475Y-68.301
X84.900Y-98.999
X84.900Y-100.721
X84.925Y-76.500
X85.275Y-68.349
X85.281Y-73.800
X85.771Y-98.961
X85.926Y-66.101
X86.076Y-57.325
X86.520Y-99.019
X86.825Y-112.900
X86.873Y-73.721
X86.881Y-96.690
X87.330Y-74.889
X87.460Y-101.031
X87.460Y-109.931
X87.650Y-71.625
X88.001Y-98.400
X88.069Y-101.730
X88.069Y-104.539
X89.019Y-83.119
X89.200Y-106.449
X89.299Y-87.739
X89.426Y-93.449
X89.761Y-86.779
X90.076Y-88.075
X90.449Y-88.651
X90.480Y-80.780
X90.531Y-86.281
X90.531Y-97.249
X90.541Y-84.181
X90.541Y-87.010
X90.541Y-96.190
X90.780Y-56.319
X90.924Y-93.449
X92.725Y-93.200
X93.149Y-88.674
X93.226Y-90.876
X93.424Y-88.075
X93.769Y-76.830
X93.779Y-77.559
X94.290Y-78.080
X94.450Y-84.869
X94.579Y-79.390
X94.651Y-87.909
X94.790Y-87.259
X95.120Y-76.111
X95.390Y-86.281
X95.499Y-75.400
X95.849Y-76.060
X95.849Y-109.901
X96.441Y-75.240
X96.624Y-109.901
X97.625Y-109.174
X97.676Y-105.499
X98.026Y-98.476
X99.101Y-109.174
X99.451Y-111.100
X100.175Y-100.650
X101.059Y-71.049
X102.499Y-111.775
X102.875Y-74.699
X102.900Y-96.901
X102.900Y-100.350
X103.050Y-55.100
X103.226Y-58.100
X103.375Y-61.600
X103.375Y-62.601
X104.351Y-108.626
X104.739Y-113.081
X104.800Y-110.520
X105.011Y-71.049
X105.471Y-113.091
X105.481Y-111.021
X108.026Y-109.700
X108.026Y-111.625
T2
X58.880Y-102.720
X60.449Y-104.409
X60.990Y-102.809
T3
X52.250Y-93.175
X54.026Y-102.474
X54.425Y-114.976
X55.700Y-87.671
X55.974Y-94.950
X58.900Y-101.074
X59.251Y-111.224
X61.153Y-107.046
X61.900Y-106.299
X62.174Y-101.150
X62.349Y-111.374
X62.959Y-99.639
X63.660Y-100.980
X68.590Y-97.391
X77.274Y-57.226
X80.000Y-99.499
X88.750Y-58.925
X89.350Y-60.401
X89.901Y-67.099
T4
X97.152Y-76.876
X97.152Y-78.877
X97.152Y-80.876
X97.152Y-82.878
X97.152Y-84.877
X97.152Y-88.877
X97.152Y-90.876
X97.152Y-92.878
X97.152Y-94.877
X99.151Y-75.877
X99.151Y-77.876
X99.151Y-79.875
X99.151Y-81.877
X99.151Y-83.876
X99.151Y-85.877
X99.151Y-89.878
X99.151Y-91.877
X99.151Y-93.876
X101.651Y-75.875
X101.651Y-77.876
X101.651Y-79.875
X101.651Y-81.877
X101.651Y-83.876
X101.651Y-85.877
X101.651Y-89.878
X101.651Y-91.877
X101.651Y-93.876
X103.650Y-76.876
X103.650Y-78.877
X103.650Y-80.876
X103.650Y-82.875
X103.650Y-84.877
X103.652Y-88.877
X103.652Y-90.876
X103.652Y-92.878
X103.652Y-94.877
T5
X56.751Y-120.503
X56.751Y-123.043
X61.725Y-89.179
X61.725Y-91.719
X61.750Y-114.104
X61.750Y-116.644
X69.256Y-101.150
X71.796Y-101.150
X92.855Y-100.449
X94.000Y-93.005
X94.000Y-95.545
X95.395Y-100.449
X106.650Y-103.055
X106.650Y-105.595
T6
X75.400Y-111.125
X90.401Y-101.201
X104.125Y-103.055
X104.125Y-105.595
T7
X50.739Y-73.871
X50.739Y-76.411
X50.739Y-78.951
X50.739Y-81.491
X50.739Y-84.031
X50.739Y-86.571
X50.739Y-89.111
X53.279Y-73.871
X53.279Y-76.411
X53.279Y-78.951
X53.279Y-81.491
X53.279Y-84.031
X53.279Y-86.571
X53.279Y-89.111
X56.751Y-115.430
X56.751Y-117.970
X69.459Y-115.766
X69.459Y-118.306
X71.999Y-115.766
X71.999Y-118.306
X74.539Y-115.766
X74.539Y-118.306
X77.079Y-115.766
X77.079Y-118.306
X79.619Y-115.766
X79.619Y-118.306
X82.159Y-115.766
X82.159Y-118.306
X84.699Y-115.766
X84.699Y-118.306
X87.239Y-115.766
X87.239Y-118.306
X89.779Y-115.766
X89.779Y-118.306
X90.134Y-110.950
X92.319Y-115.766
X92.319Y-118.306
X92.674Y-110.950
X95.214Y-110.950
X95.489Y-61.671
X95.489Y-64.211
X95.489Y-66.751
X95.489Y-69.291
X98.029Y-61.671
X98.029Y-64.211
X98.029Y-66.751
X98.029Y-69.291
T8
X100.889Y-115.931
X104.988Y-115.931
X108.588Y-115.931
T0
M30
